<?xml version="1.0" encoding="UTF-8" standalone="no"?>
<!-- Created with Inkscape (http://www.inkscape.org/) -->

<svg
   xmlns:dc="http://purl.org/dc/elements/1.1/"
   xmlns:cc="http://creativecommons.org/ns#"
   xmlns:rdf="http://www.w3.org/1999/02/22-rdf-syntax-ns#"
   xmlns:svg="http://www.w3.org/2000/svg"
   xmlns="http://www.w3.org/2000/svg"
   xmlns:xlink="http://www.w3.org/1999/xlink"
   xmlns:sodipodi="http://sodipodi.sourceforge.net/DTD/sodipodi-0.dtd"
   xmlns:inkscape="http://www.inkscape.org/namespaces/inkscape"
   id="svg2"
   version="1.1"
   inkscape:version="0.48.4 r9939"
   width="118.22972"
   height="59.741474"
   xml:space="preserve"
   sodipodi:docname="horizontal_es_english.pdf"><sodipodi:namedview
     pagecolor="#ffffff"
     bordercolor="#666666"
     borderopacity="1"
     objecttolerance="10"
     gridtolerance="10"
     guidetolerance="10"
     inkscape:pageopacity="0"
     inkscape:pageshadow="2"
     inkscape:window-width="1280"
     inkscape:window-height="724"
     id="namedview4"
     showgrid="false"
     inkscape:zoom="4.9999379"
     inkscape:cx="43.310239"
     inkscape:cy="-0.1486522"
     inkscape:window-x="0"
     inkscape:window-y="24"
     inkscape:window-maximized="1"
     inkscape:current-layer="g10" /><metadata
     id="metadata8"><rdf:RDF><cc:Work
         rdf:about=""><dc:format>image/svg+xml</dc:format><dc:type
           rdf:resource="http://purl.org/dc/dcmitype/StillImage" /><dc:title></dc:title></cc:Work></rdf:RDF></metadata><defs
     id="defs6"><marker
       style="overflow:visible;"
       id="Arrow1Mend"
       refX="0.0"
       refY="0.0"
       orient="auto"
       inkscape:stockid="Arrow1Mend"><path
         transform="scale(0.4) rotate(180) translate(10,0)"
         style="fill-rule:evenodd;stroke:#000000;stroke-width:1.0pt;"
         d="M 0.0,0.0 L 5.0,-5.0 L -12.5,0.0 L 5.0,5.0 L 0.0,0.0 z "
         id="path4156" /></marker><pattern
       patternTransform="matrix(0.01,0,0,-0.01,1.810216,47.321168)"
       id="pattern3192"
       xlink:href="#pattern36"
       inkscape:collect="always" /><clipPath
       id="clipPath16"
       clipPathUnits="userSpaceOnUse"><path
         id="path18"
         d="m 0,0 9500,0 0,4800 L 0,4800 0,0 z" /></clipPath><clipPath
       id="clipPath20"
       clipPathUnits="userSpaceOnUse"><path
         id="path22"
         d="m 3276,3564 3397,0 0,871 -3397,0 0,-871 z" /></clipPath><clipPath
       id="clipPath24"
       clipPathUnits="userSpaceOnUse"><path
         id="path26"
         d="m 3276,3564 3397,0 0,871 -3397,0 0,-871 z" /></clipPath><clipPath
       id="clipPath28"
       clipPathUnits="userSpaceOnUse"><path
         id="path30"
         d="m 3276,3564 3397,0 0,871 -3397,0 0,-871 z" /></clipPath><clipPath
       id="clipPath32"
       clipPathUnits="userSpaceOnUse"><path
         id="path34"
         d="m 3276,3564 3397,0 0,871 -3397,0 0,-871 z" /></clipPath><pattern
       id="pattern36"
       height="4800"
       width="9500"
       y="0"
       x="0"
       patternUnits="userSpaceOnUse"
       patternTransform="matrix(0.01,0,0,-0.01,1.810216,47.321168)"><defs
         id="defs38"><mask
           id="_mask0"
           height="1"
           width="1"
           y="0"
           x="0"
           maskUnits="userSpaceOnUse"><g
             id="g41"><g
               id="g43"
               clip-path="url(#clipPath20)"><g
                 id="g45"><g
                   id="g47"><g
                     id="g49"
                     clip-path="url(#clipPath24)"><g
                       id="g51" /></g></g></g></g></g></mask></defs><g
         id="g53"><g
           id="g55"
           clip-path="url(#clipPath16)"><g
             id="g57"><g
               id="g59"><g
                 id="g61" /><g
                 id="g63"
                 mask="url(#_mask0)"><g
                   id="g65" /><g
                   id="g67"><g
                     id="g69"
                     clip-path="url(#clipPath28)"><g
                       id="g71"><g
                         id="g73"><g
                           id="g75"
                           clip-path="url(#clipPath32)"><g
                             id="g77" /></g></g></g></g></g></g></g></g></g></g></pattern><clipPath
       id="clipPath85"
       clipPathUnits="userSpaceOnUse"><path
         id="path87"
         d="M 39.43,37.137 C 27.422,37.106 14.918,36.555 0.406,35.711 l 0,-32.551 C 15.117,0.035 47.363,0.856 76.879,1.238 100.164,1.539 75.344,2.008 94.18,2.336 l 0,30.926 c -2.336,0.301 -2.672,0.348 -5.801,0.75 -17.766,2.289 -32.91,3.168 -48.949,3.125 z" /></clipPath><radialGradient
       id="radialGradient91"
       spreadMethod="pad"
       gradientTransform="matrix(2.496042,-0.165333,-0.0380205,-0.573999,-1985.2057,138.80783)"
       gradientUnits="userSpaceOnUse"
       r="60.355469"
       cy="12.050781"
       cx="817.50391"
       fy="12.050781"
       fx="817.50391"><stop
         id="stop93"
         offset="0"
         style="stop-opacity:1;stop-color:#95bdff" /><stop
         id="stop95"
         offset="1"
         style="stop-opacity:1;stop-color:#e8eaf0" /></radialGradient><radialGradient
       r="60.355469"
       fy="12.050781"
       fx="817.50391"
       cy="12.050781"
       cx="817.50391"
       spreadMethod="pad"
       gradientTransform="matrix(2.496042,-0.165333,-0.0380205,-0.573999,-1985.2057,138.80783)"
       gradientUnits="userSpaceOnUse"
       id="radialGradient3201"
       xlink:href="#radialGradient91"
       inkscape:collect="always" /><marker
       style="overflow:visible;"
       id="Arrow1Mendm"
       refX="0.0"
       refY="0.0"
       orient="auto"
       inkscape:stockid="Arrow1Mendm"><path
         transform="scale(0.4) rotate(180) translate(10,0)"
         style="stroke:#ff0000;stroke-width:1.0pt;fill:#ff0000;fill-rule:evenodd"
         d="M 0.0,0.0 L 5.0,-5.0 L -12.5,0.0 L 5.0,5.0 L 0.0,0.0 z "
         id="path4636" /></marker><marker
       style="overflow:visible;"
       id="Arrow1MendP"
       refX="0.0"
       refY="0.0"
       orient="auto"
       inkscape:stockid="Arrow1MendP"><path
         transform="scale(0.4) rotate(180) translate(10,0)"
         style="stroke:#ff0000;stroke-width:1.0pt;fill:#ff0000;fill-rule:evenodd"
         d="M 0.0,0.0 L 5.0,-5.0 L -12.5,0.0 L 5.0,5.0 L 0.0,0.0 z "
         id="path4639" /></marker></defs><g
     transform="matrix(1.25,0,0,-1.25,0,59.741474)"
     inkscape:label="horizontal_es_english"
     inkscape:groupmode="layer"
     id="g10"><path
       inkscape:connector-curvature="0"
       id="path79"
       style="fill:url(#pattern3192);fill-opacity:1;fill-rule:nonzero;stroke:none"
       d="m 1.809,47.113 94.586,0 0,-47.793 -94.586,0 0,47.793 z" /><path
       inkscape:connector-curvature="0"
       id="path97"
       style="fill:url(#radialGradient3201);stroke:none"
       d="M 39.43,37.137 C 27.422,37.106 14.918,36.555 0.406,35.711 l 0,-32.551 C 15.117,0.035 47.363,0.856 76.879,1.238 100.164,1.539 75.344,2.008 94.18,2.336 l 0,30.926 c -2.336,0.301 -2.672,0.348 -5.801,0.75 -17.766,2.289 -32.91,3.168 -48.949,3.125 z" /><path
       d="m 94.18,33.387 c -13.457,1.984 -28.645,3.531 -52.774,3.523 -11.414,0 -24.84,-0.367 -41,-1.172"
       style="fill:none;stroke:#000000;stroke-width:0.40000001;stroke-linecap:butt;stroke-linejoin:miter;stroke-miterlimit:4;stroke-opacity:1;stroke-dasharray:1.2, 0.4;stroke-dashoffset:0"
       id="path99"
       inkscape:connector-curvature="0" /><path
       d="M 17.23,11.238 C 11.953,11.192 6.438,11 0.406,10.637 l 0,-10.227 93.774,0 0,3.551 c -5.422,1.25 -14.766,2.738 -30.95,4.324 -17.753,1.985 -30.914,3.082 -46,2.953 z"
       style="fill:#50c700;fill-opacity:1;fill-rule:evenodd;stroke:none"
       id="path111"
       inkscape:connector-curvature="0" /><path
       d="M 94.18,3.586 C 68.773,9.594 40.723,11.047 13.207,10.887 8.941,10.863 4.668,10.762 0.406,10.613"
       style="fill:#50c700;fill-opacity:1;fill-rule:evenodd;stroke:#000000;stroke-width:0.80000001;stroke-linecap:butt;stroke-linejoin:miter;stroke-miterlimit:4;stroke-opacity:1;stroke-dasharray:none"
       id="path115"
       inkscape:connector-curvature="0" /><path
       d="m 0.398,47.395 93.785,0 0,-46.996 -93.785,0 0,46.996 z"
       style="fill:none;stroke:#000000;stroke-width:0.80000001;stroke-linecap:round;stroke-linejoin:round;stroke-miterlimit:4;stroke-opacity:1;stroke-dasharray:none"
       id="path117"
       inkscape:connector-curvature="0" /><path
       d="m 73.620016,7.7960159 0,0.012 -0.004,0 0,0.011 -0.004,0.004 0,0.004 -0.012,0.012 0,0.004 -0.004,0 0,0.004 -0.004,0 -0.003,0.004 -0.004,0 0,0.003 -0.008,0 0,0.004 -0.012,0 -0.004,0.004 -0.023,0 c -0.145,0 -0.598,-0.051 -0.758,-0.062 -0.055,-0.004 -0.121,-0.012 -0.121,-0.125 0,-0.074 0.059,-0.074 0.152,-0.074 0.297,0 0.309,-0.043 0.309,-0.106 0,-0.043 -0.074,-0.336 -0.117,-0.504 l -0.379,-1.527 c -0.028,-0.094 -0.071,-0.27 -0.071,-0.281 0,-0.071 0.063,-0.075 0.102,-0.075 l 0.086,0 c 0.434,0.075 1.113,0.321 1.758,0.918 0.824,0.766 0.992,1.614 0.992,1.668 0,0.106 -0.074,0.168 -0.184,0.168 -0.047,0 -0.191,-0.023 -0.242,-0.207 -0.398,-1.414 -1.347,-2.113 -2.055,-2.344 l 0.61,2.485 z"
       style="fill:#000000;fill-opacity:1;fill-rule:nonzero;stroke:none"
       id="path161"
       inkscape:connector-curvature="0" /><path
       d="m 76.796016,5.7610159 0.812,0 c 0.047,0 0.231,0 0.231,0.175 0,0.122 -0.114,0.122 -0.188,0.122 l -1.375,0 c -0.125,0 -0.266,-0.012 -0.488,-0.219 -0.129,-0.113 -0.293,-0.344 -0.293,-0.379 0,-0.055 0.058,-0.055 0.074,-0.055 0.051,0 0.055,0.008 0.078,0.047 0.223,0.309 0.492,0.309 0.59,0.309 l 0.391,0 -0.434,-1.395 c -0.019,-0.07 -0.019,-0.074 -0.019,-0.101 0,-0.118 0.105,-0.141 0.144,-0.141 0.164,0 0.195,0.16 0.207,0.219 l 0.27,1.418 z"
       style="fill:#000000;fill-opacity:1;fill-rule:nonzero;stroke:none"
       id="path163"
       inkscape:connector-curvature="0" /><path
       d="m 47.413165,14.373075 1.144,0 c 0.09,0 0.332,0 0.332,0.231 0,0.164 -0.144,0.164 -0.269,0.164 l -1.906,0 c -0.137,0 -0.403,0 -0.704,-0.321 -0.226,-0.246 -0.418,-0.57 -0.418,-0.613 0,-0.008 0,-0.066 0.083,-0.066 0.054,0 0.07,0.023 0.109,0.082 0.336,0.523 0.723,0.523 0.867,0.523 l 0.563,0 -0.668,-2.187 c -0.024,-0.078 -0.063,-0.223 -0.063,-0.25 0,-0.075 0.043,-0.184 0.195,-0.184 0.223,0 0.258,0.191 0.278,0.293 l 0.457,2.328 z"
       style="fill:#000000;fill-opacity:1;fill-rule:nonzero;stroke:none"
       id="path165"
       inkscape:connector-curvature="0" /><path
       d="m 6.5300159,23.585016 0,0.016 0.012,0.046 0.004,0.02 0.007,0.016 0.008,0.035 0.008,0.039 0.008,0.035 0.012,0.035 0.007,0.039 0.012,0.047 0.004,0.02 0.004,0.011 0,0.016 0.004,0.016 0.008,0.023 0,0.012 0.004,0.011 0,0.008 0.003,0.008 0,0.016 c 0,0.125 -0.085,0.199 -0.21,0.199 -0.024,0 -0.227,-0.008 -0.297,-0.262 l -1.055,-4.246 c -0.02,-0.09 -0.02,-0.102 -0.02,-0.117 0,-0.11 0.082,-0.199 0.207,-0.199 0.153,0 0.239,0.132 0.254,0.156 0.032,0.066 0.125,0.449 0.403,1.574 0.234,-0.195 0.562,-0.226 0.711,-0.226 0.515,0 0.8,0.328 0.976,0.535 0.067,-0.332 0.336,-0.535 0.66,-0.535 0.254,0 0.422,0.168 0.543,0.402 0.121,0.266 0.219,0.711 0.219,0.726 0,0.075 -0.066,0.075 -0.086,0.075 -0.074,0 -0.082,-0.032 -0.105,-0.133 -0.125,-0.477 -0.258,-0.91 -0.555,-0.91 -0.199,0 -0.223,0.191 -0.223,0.34 0,0.16 0.09,0.503 0.149,0.757 l 0.203,0.797 c 0.023,0.11 0.094,0.387 0.125,0.496 0.039,0.168 0.109,0.45 0.109,0.489 0,0.136 -0.101,0.199 -0.211,0.199 -0.035,0 -0.226,-0.008 -0.285,-0.254 l -0.347,-1.371 c -0.086,-0.367 -0.168,-0.676 -0.192,-0.75 -0.004,-0.035 -0.355,-0.703 -0.949,-0.703 -0.367,0 -0.543,0.242 -0.543,0.636 0,0.215 0.051,0.418 0.102,0.625 l 0.312,1.231 z"
       style="fill:#000000;fill-opacity:1;fill-rule:nonzero;stroke:none"
       id="path159"
       inkscape:connector-curvature="0" /><g
       transform="matrix(0.9999983,-0.00184511,0.00184511,0.9999983,-0.73905282,0.26728648)"
       id="g4112"><path
         inkscape:connector-curvature="0"
         id="path101"
         style="fill:#c87137;fill-opacity:1;fill-rule:nonzero;stroke:#000080;stroke-width:0.44;stroke-linecap:butt;stroke-linejoin:miter;stroke-miterlimit:4;stroke-opacity:1;stroke-dasharray:none"
         d="m 25.569016,16.858016 -17.5390001,2.235" /><path
         inkscape:connector-curvature="0"
         id="path103"
         style="fill:#c87137;fill-opacity:1;fill-rule:nonzero;stroke:#000080;stroke-width:0.40000001;stroke-linecap:butt;stroke-linejoin:miter;stroke-miterlimit:4;stroke-opacity:1;stroke-dasharray:none"
         d="m 26.159016,14.737016 -16.098,-2.258" /><path
         inkscape:connector-curvature="0"
         id="path105"
         style="fill:#c87137;fill-opacity:1;fill-rule:nonzero;stroke:#000080;stroke-width:0.40000001;stroke-linecap:butt;stroke-linejoin:miter;stroke-miterlimit:4;stroke-opacity:1;stroke-dasharray:none"
         d="m 28.569016,13.561016 -19.8360001,3.778" /><path
         inkscape:connector-curvature="0"
         id="path107"
         style="fill:#c87137;fill-opacity:1;fill-rule:nonzero;stroke:#000080;stroke-width:0.40000001;stroke-linecap:butt;stroke-linejoin:miter;stroke-miterlimit:4;stroke-opacity:1;stroke-dasharray:none"
         d="m 31.968016,14.327016 -20.844,6.84" /><path
         inkscape:connector-curvature="0"
         id="path109"
         style="fill:#c87137;fill-opacity:1;fill-rule:nonzero;stroke:#000080;stroke-width:0.40000001;stroke-linecap:butt;stroke-linejoin:miter;stroke-miterlimit:4;stroke-opacity:1;stroke-dasharray:none"
         d="m 25.811016,13.647016 -17.0040001,0.707" /><path
         inkscape:connector-curvature="0"
         id="path113"
         style="fill:#c87137;fill-opacity:1;fill-rule:nonzero;stroke:#000080;stroke-width:0.39173001;stroke-linecap:butt;stroke-linejoin:miter;stroke-miterlimit:4;stroke-opacity:1;stroke-dasharray:none"
         d="m 62.971016,5.5580159 -11.793,2.347" /><path
         d="m 84.757016,1.4601949 -50.442,11.5860001"
         style="fill:none;stroke:#000000;stroke-width:0.80000001;stroke-linecap:butt;stroke-linejoin:miter;stroke-miterlimit:4;stroke-opacity:1;stroke-dasharray:none"
         id="path129"
         inkscape:connector-curvature="0" /><path
         inkscape:connector-curvature="0"
         id="path131"
         style="fill:#c87137;fill-opacity:1;fill-rule:nonzero;stroke:#000080;stroke-width:0.39173001;stroke-linecap:butt;stroke-linejoin:miter;stroke-miterlimit:4;stroke-opacity:1;stroke-dasharray:none"
         d="m 63.784016,6.0180159 -11.5,3.512" /><path
         inkscape:connector-curvature="0"
         id="path133"
         style="fill:#c87137;fill-opacity:1;fill-rule:nonzero;stroke:#000080;stroke-width:0.39173001;stroke-linecap:butt;stroke-linejoin:miter;stroke-miterlimit:4;stroke-opacity:1;stroke-dasharray:none"
         d="m 63.108016,5.3230159 -11.953,1.301" /><path
         inkscape:connector-curvature="0"
         id="path135"
         style="fill:#ff2a2a;fill-opacity:1;fill-rule:evenodd;stroke:none"
         d="m 69.706016,4.9600159 c -7.281,1.957 -7.301,3.121 -9.621,3.551 -2.325,0.433 -3.282,-2.926 -0.965,-3.399 2.316,-0.472 3.019,0.617 10.586,-0.152 z" /><path
         inkscape:connector-curvature="0"
         id="path137"
         style="fill:#ffd42a;fill-opacity:1;fill-rule:evenodd;stroke:none"
         d="m 71.901016,4.6240159 c -4.867,0.941 -4.922,1.266 -6.582,1.535 -3.828,0.531 -3.84,-0.297 -0.059,-0.98 1.665,-0.258 1.786,0.043 6.641,-0.555 z" /><path
         inkscape:connector-curvature="0"
         id="path139"
         style="fill:#ffcc00;fill-opacity:1;fill-rule:evenodd;stroke:#fff6d5;stroke-width:0.31573299;stroke-linecap:round;stroke-linejoin:round;stroke-miterlimit:4;stroke-opacity:1;stroke-dasharray:0.947198, 0.315733;stroke-dashoffset:0"
         d="m 71.065016,4.2840159 -0.812,0.004 -0.465,-0.668 -0.246,0.773 -0.778,0.239 0.657,0.472 -0.016,0.813 0.656,-0.481 0.766,0.266 -0.254,-0.769 0.492,-0.649 z" /><path
         inkscape:connector-curvature="0"
         id="path141"
         style="fill:#ff2a2a;fill-opacity:1;fill-rule:evenodd;stroke:none"
         d="m 36.233016,12.530016 c -12.691,5.633 -12.719,8.985 -16.765,10.227 -4.051,1.246 -5.719,-8.434 -1.684,-9.793 4.039,-1.356 5.258,1.781 18.449,-0.434 z" /><path
         inkscape:connector-curvature="0"
         id="path143"
         style="fill:#ffd42a;fill-opacity:1;fill-rule:evenodd;stroke:none"
         d="m 35.659016,12.925016 c -6.18,2.511 -6.25,3.383 -8.359,4.101 -4.86,1.418 -4.875,-0.797 -0.075,-2.621 2.114,-0.687 2.27,0.11 8.434,-1.48 z" /><path
         inkscape:connector-curvature="0"
         id="path167"
         style="fill:#ffcc00;fill-opacity:1;fill-rule:evenodd;stroke:#fff6d5;stroke-width:0.31573299;stroke-linecap:round;stroke-linejoin:round;stroke-miterlimit:4;stroke-opacity:1;stroke-dasharray:0.947198, 0.315733;stroke-dashoffset:0"
         d="m 36.104016,12.315016 -0.812,0.004 -0.465,-0.668 -0.246,0.774 -0.778,0.242 0.657,0.469 -0.016,0.812 0.656,-0.48 0.766,0.265 -0.254,-0.769 0.492,-0.649 z" /></g><rect
       transform="matrix(0.8,0,0,-0.8,0,47.793179)"
       y="44.397064"
       x="1.6970774"
       height="1.9092134"
       width="35.567913"
       id="rect3226"
       style="color:#000000;fill:#fcff00;fill-opacity:1;fill-rule:nonzero;stroke:#000000;stroke-width:0.50000000000000000;stroke-linecap:round;stroke-linejoin:round;stroke-miterlimit:4;stroke-opacity:1;stroke-dasharray:none;stroke-dashoffset:0;marker:none;visibility:visible;display:inline;overflow:visible;enable-background:accumulate" /><text
       transform="scale(1,-1)"
       sodipodi:linespacing="125%"
       id="text4129"
       y="-21.273495"
       x="41.219597"
       style="font-size:5.06059647px;font-style:normal;font-variant:normal;font-weight:normal;font-stretch:normal;text-align:start;line-height:125%;letter-spacing:0px;word-spacing:0px;writing-mode:lr-tb;text-anchor:start;fill:#ff0000;fill-opacity:1;stroke:none;font-family:Amiri Quran;-inkscape-font-specification:Amiri Quran"
       xml:space="preserve"><tspan
         y="-21.273495"
         x="41.219597"
         id="tspan4131"
         sodipodi:role="line">1. Tauola</tspan></text>
<text
       xml:space="preserve"
       style="font-size:5.06059647px;font-style:normal;font-variant:normal;font-weight:normal;font-stretch:normal;text-align:start;line-height:125%;letter-spacing:0px;word-spacing:0px;writing-mode:lr-tb;text-anchor:start;fill:#ff0000;fill-opacity:1;stroke:none;font-family:Amiri Quran;-inkscape-font-specification:Amiri Quran"
       x="15.779283"
       y="-27.673574"
       id="text4133"
       sodipodi:linespacing="125%"
       transform="scale(1,-1)"><tspan
         sodipodi:role="line"
         id="tspan4135"
         x="15.779283"
         y="-27.673574">2. Aires</tspan></text>
<text
       transform="scale(1,-1)"
       sodipodi:linespacing="125%"
       id="text4137"
       y="-5.1132941"
       x="3.2991283"
       style="font-size:5.06059647px;font-style:normal;font-variant:normal;font-weight:normal;font-stretch:normal;text-align:start;line-height:125%;letter-spacing:0px;word-spacing:0px;writing-mode:lr-tb;text-anchor:start;fill:#fcff00;fill-opacity:1;stroke:none;font-family:Amiri Quran;-inkscape-font-specification:Amiri Quran"
       xml:space="preserve"><tspan
         y="-5.1132941"
         x="3.2991283"
         id="tspan4139"
         sodipodi:role="line">3. Offline</tspan></text>
<path
       sodipodi:nodetypes="cc"
       transform="matrix(0.8,0,0,-0.8,0,47.793179)"
       inkscape:connector-curvature="0"
       id="path4141"
       d="M 63.600789,34.541162 44.800556,41.941253"
       style="stroke-linejoin:miter;marker-end:url(#Arrow1MendP);stroke-opacity:1;stroke:#ff0000;stroke-linecap:butt;stroke-miterlimit:4;stroke-dasharray:none;stroke-width:0.50000000000000000;fill:none" /><path
       style="stroke-linejoin:miter;marker-end:url(#Arrow1Mendm);stroke-opacity:1;stroke:#ff0000;stroke-linecap:butt;stroke-miterlimit:4;stroke-dasharray:none;stroke-width:0.50000000000000000;fill:none"
       d="m 33.800419,26.541063 -1.200014,9.200113"
       id="path4587"
       inkscape:connector-curvature="0"
       transform="matrix(0.8,0,0,-0.8,0,47.793179)"
       sodipodi:nodetypes="cc" /></g></svg>