<?xml version="1.0" encoding="UTF-8" standalone="no"?>
<!-- Created with Inkscape (http://www.inkscape.org/) -->

<svg
   xmlns:dc="http://purl.org/dc/elements/1.1/"
   xmlns:cc="http://creativecommons.org/ns#"
   xmlns:rdf="http://www.w3.org/1999/02/22-rdf-syntax-ns#"
   xmlns:svg="http://www.w3.org/2000/svg"
   xmlns="http://www.w3.org/2000/svg"
   xmlns:xlink="http://www.w3.org/1999/xlink"
   xmlns:sodipodi="http://sodipodi.sourceforge.net/DTD/sodipodi-0.dtd"
   xmlns:inkscape="http://www.inkscape.org/namespaces/inkscape"
   id="svg2"
   version="1.1"
   inkscape:version="0.48.4 r9939"
   width="572.07336"
   height="286.14835"
   xml:space="preserve"
   sodipodi:docname="sim_cartoon_upgoing.pdf"><metadata
     id="metadata8"><rdf:RDF><cc:Work
         rdf:about=""><dc:format>image/svg+xml</dc:format><dc:type
           rdf:resource="http://purl.org/dc/dcmitype/StillImage" /><dc:title></dc:title></cc:Work></rdf:RDF></metadata><defs
     id="defs6"><radialGradient
       fx="534.64844"
       fy="518.84766"
       cx="534.64844"
       cy="518.84766"
       r="68.09375"
       gradientUnits="userSpaceOnUse"
       gradientTransform="matrix(-3.512639,-0.544494,0.284917,-1.838049,1963.0454,1294.9733)"
       spreadMethod="pad"
       id="radialGradient16"><stop
         style="stop-opacity:1;stop-color:#3900d3"
         offset="0"
         id="stop18" /><stop
         style="stop-opacity:1;stop-color:#ffffff"
         offset="1"
         id="stop20" /></radialGradient><linearGradient
       x1="463.98047"
       y1="725.27344"
       x2="463.98047"
       y2="742.5"
       gradientUnits="userSpaceOnUse"
       gradientTransform="matrix(0.778958,0,0,-0.645501,-104.74011,489.28856)"
       spreadMethod="pad"
       id="linearGradient30"><stop
         style="stop-opacity:1;stop-color:#4d7300"
         offset="0"
         id="stop32" /><stop
         style="stop-opacity:1;stop-color:#ffffff"
         offset="1"
         id="stop34" /></linearGradient><radialGradient
       inkscape:collect="always"
       xlink:href="#radialGradient16"
       id="radialGradient3257"
       gradientUnits="userSpaceOnUse"
       gradientTransform="matrix(-3.512639,-0.544494,0.284917,-1.838049,1963.0454,1294.9733)"
       spreadMethod="pad"
       cx="534.64844"
       cy="518.84766"
       fx="534.64844"
       fy="518.84766"
       r="68.09375" /><linearGradient
       inkscape:collect="always"
       xlink:href="#linearGradient30"
       id="linearGradient3259"
       gradientUnits="userSpaceOnUse"
       gradientTransform="matrix(0.778958,0,0,-0.645501,-104.74011,489.28856)"
       spreadMethod="pad"
       x1="463.98047"
       y1="725.27344"
       x2="463.98047"
       y2="742.5" /></defs><sodipodi:namedview
     pagecolor="#ffffff"
     bordercolor="#666666"
     borderopacity="1"
     objecttolerance="10"
     gridtolerance="10"
     guidetolerance="10"
     inkscape:pageopacity="0"
     inkscape:pageshadow="2"
     inkscape:window-width="1920"
     inkscape:window-height="1052"
     id="namedview4"
     showgrid="false"
     fit-margin-top="0"
     fit-margin-left="0"
     fit-margin-right="0"
     fit-margin-bottom="0"
     inkscape:zoom="2.0963028"
     inkscape:cx="250.81547"
     inkscape:cy="145.92863"
     inkscape:window-x="1280"
     inkscape:window-y="0"
     inkscape:window-maximized="1"
     inkscape:current-layer="g10" /><g
     id="g10"
     inkscape:groupmode="layer"
     inkscape:label="sim_cartoon_upgoing"
     transform="matrix(1.25,0,0,-1.25,-37.782234,269.90326)"><rect
       style="color:#000000;fill:#ffffff;fill-opacity:1;fill-rule:nonzero;stroke:#000000;stroke-width:2.4000001;stroke-linecap:round;stroke-linejoin:round;stroke-miterlimit:4;stroke-opacity:1;stroke-dasharray:none;stroke-dashoffset:0;marker:none;visibility:visible;display:inline;overflow:visible;enable-background:accumulate"
       id="rect3469"
       width="455.2587"
       height="226.51868"
       x="31.425787"
       y="-214.72261"
       transform="scale(1,-1)" /><g
       id="g14"><path
         inkscape:connector-curvature="0"
         id="path22"
         style="fill:url(#radialGradient3257);fill-opacity:1;fill-rule:evenodd;stroke:none"
         d="m 126.227,32.89 c 99.269,35.454 122.867,58.575 144.105,71.754 118.371,73.461 231.16,24.664 157.258,-35.757 C 389.145,37.457 356.266,36.508 302.844,34.074 277.641,32.93 231.613,30.644 126.227,32.89 z" /></g><g
       transform="matrix(1,0,0,-1,0,200.58577)"
       id="g24"><path
         inkscape:connector-curvature="0"
         id="path26"
         style="fill:none;stroke:#000000;stroke-width:2.77224302;stroke-linecap:butt;stroke-linejoin:miter;stroke-miterlimit:4;stroke-opacity:1;stroke-dasharray:none"
         d="M 122.855,169.008 51.91795,184.21014"
         sodipodi:nodetypes="cc" /></g><g
       id="g28"><path
         inkscape:connector-curvature="0"
         id="path36"
         style="fill:url(#linearGradient3259);fill-opacity:1;fill-rule:nonzero;stroke:none"
         d="m 48,21.121 363.711,0 0,-11.113 -363.711,0 z"
         sodipodi:nodetypes="ccccc" /></g><g
       transform="matrix(1,0,0,-0.714711,0,200.58577)"
       id="g38"><path
         inkscape:connector-curvature="0"
         id="path40"
         style="fill:#cccccc;fill-opacity:1;fill-rule:nonzero;stroke:#000000;stroke-width:1.39916599;stroke-linecap:round;stroke-linejoin:round;stroke-miterlimit:4;stroke-opacity:1;stroke-dasharray:none"
         d="m 135.094,255.042 c -2.711,0 -4.918,-0.913 -5.25,-2.066 l -0.035,0 0,-0.142 c -0.004,-0.049 -0.032,-0.088 -0.032,-0.137 0,-0.06 0.024,-0.12 0.032,-0.175 l 0,-8.012 10.566,0 0,8.012 c 0.008,0.055 0.035,0.115 0.035,0.175 0,0.049 -0.027,0.088 -0.035,0.137 l 0,0.142 -0.035,0 c -0.332,1.153 -2.539,2.066 -5.246,2.066 z" /></g><g
       transform="matrix(1,0,0,-0.795997,0,200.58577)"
       id="g42"><path
         inkscape:connector-curvature="0"
         id="path44"
         style="fill:#cccccc;fill-opacity:1;fill-rule:evenodd;stroke:#000000;stroke-width:1.27175796;stroke-linecap:round;stroke-linejoin:round;stroke-miterlimit:4;stroke-opacity:1;stroke-dasharray:none"
         d="m 140.414,219.492 c 0,1.163 -2.383,2.105 -5.32,2.105 -2.942,0 -5.321,-0.942 -5.321,-2.105 0,-1.163 2.379,-2.105 5.321,-2.105 2.937,0 5.32,0.942 5.32,2.105 z" /></g><g
       transform="matrix(1,0,0,-0.714711,0,200.58577)"
       id="g46"><path
         inkscape:connector-curvature="0"
         id="path48"
         style="fill:#ff0000;fill-opacity:1;fill-rule:nonzero;stroke:#000000;stroke-width:1.39916599;stroke-linecap:round;stroke-linejoin:round;stroke-miterlimit:4;stroke-opacity:1;stroke-dasharray:none"
         d="m 173.035,255.042 c -2.707,0 -4.914,-0.913 -5.246,-2.066 l -0.035,0 0,-0.142 c -0.004,-0.049 -0.035,-0.088 -0.035,-0.137 0,-0.06 0.027,-0.12 0.035,-0.175 l 0,-8.012 10.566,0 0,8.012 c 0.008,0.055 0.035,0.115 0.035,0.175 0,0.049 -0.031,0.088 -0.035,0.137 l 0,0.142 -0.035,0 c -0.332,1.153 -2.539,2.066 -5.246,2.066 l -0.004,0 z" /></g><g
       transform="matrix(1,0,0,-0.795997,0,200.58577)"
       id="g50"><path
         inkscape:connector-curvature="0"
         id="path52"
         style="fill:#ff0000;fill-opacity:1;fill-rule:evenodd;stroke:#000000;stroke-width:1.27175796;stroke-linecap:round;stroke-linejoin:round;stroke-miterlimit:4;stroke-opacity:1;stroke-dasharray:none"
         d="m 178.355,219.492 c 0,1.163 -2.378,2.105 -5.32,2.105 -2.937,0 -5.316,-0.942 -5.316,-2.105 0,-1.163 2.379,-2.105 5.316,-2.105 2.942,0 5.32,0.942 5.32,2.105 z" /></g><g
       transform="matrix(1,0,0,-0.714711,0,200.58577)"
       id="g54"><path
         inkscape:connector-curvature="0"
         id="path56"
         style="fill:#ff0000;fill-opacity:1;fill-rule:nonzero;stroke:#000000;stroke-width:1.39916599;stroke-linecap:round;stroke-linejoin:round;stroke-miterlimit:4;stroke-opacity:1;stroke-dasharray:none"
         d="m 210.98,255.042 c -2.707,0 -4.914,-0.913 -5.246,-2.066 l -0.035,0 0,-0.142 c -0.004,-0.049 -0.035,-0.088 -0.035,-0.137 0,-0.06 0.027,-0.12 0.035,-0.175 l 0,-8.012 10.567,0 0,8.012 c 0.007,0.055 0.031,0.115 0.031,0.175 0,0.049 -0.027,0.088 -0.031,0.137 l 0,0.142 -0.036,0 c -0.332,1.153 -2.539,2.066 -5.25,2.066 z" /></g><g
       transform="matrix(1,0,0,-0.795997,0,200.58577)"
       id="g58"><path
         inkscape:connector-curvature="0"
         id="path60"
         style="fill:#ff0000;fill-opacity:1;fill-rule:evenodd;stroke:#000000;stroke-width:1.27175796;stroke-linecap:round;stroke-linejoin:round;stroke-miterlimit:4;stroke-opacity:1;stroke-dasharray:none"
         d="m 216.301,219.492 c 0,1.163 -2.379,2.105 -5.321,2.105 -2.937,0 -5.32,-0.942 -5.32,-2.105 0,-1.163 2.383,-2.105 5.32,-2.105 2.942,0 5.321,0.942 5.321,2.105 z" /></g><g
       transform="matrix(1,0,0,-0.714711,0,200.58577)"
       id="g62"><path
         inkscape:connector-curvature="0"
         id="path64"
         style="fill:#ff0000;fill-opacity:1;fill-rule:nonzero;stroke:#000000;stroke-width:1.39916599;stroke-linecap:round;stroke-linejoin:round;stroke-miterlimit:4;stroke-opacity:1;stroke-dasharray:none"
         d="m 248.926,255.042 c -2.707,0 -4.918,-0.913 -5.246,-2.066 l -0.035,0 0,-0.142 c -0.008,-0.049 -0.036,-0.088 -0.036,-0.137 0,-0.06 0.028,-0.12 0.036,-0.175 l 0,-8.012 10.562,0 0,8.012 c 0.012,0.055 0.035,0.115 0.035,0.175 0,0.049 -0.027,0.088 -0.035,0.137 l 0,0.142 -0.035,0 c -0.328,1.153 -2.535,2.066 -5.246,2.066 z" /></g><g
       transform="matrix(1,0,0,-0.795997,0,200.58577)"
       id="g66"><path
         inkscape:connector-curvature="0"
         id="path68"
         style="fill:#ff0000;fill-opacity:1;fill-rule:evenodd;stroke:#000000;stroke-width:1.27175796;stroke-linecap:round;stroke-linejoin:round;stroke-miterlimit:4;stroke-opacity:1;stroke-dasharray:none"
         d="m 254.246,219.492 c 0,1.163 -2.383,2.105 -5.32,2.105 -2.938,0 -5.321,-0.942 -5.321,-2.105 0,-1.163 2.383,-2.105 5.321,-2.105 2.937,0 5.32,0.942 5.32,2.105 z" /></g><g
       transform="matrix(1,0,0,-0.714711,0,200.58577)"
       id="g70"><path
         inkscape:connector-curvature="0"
         id="path72"
         style="fill:#ff2a2a;fill-opacity:1;fill-rule:nonzero;stroke:#000000;stroke-width:1.39916599;stroke-linecap:round;stroke-linejoin:round;stroke-miterlimit:4;stroke-opacity:1;stroke-dasharray:none"
         d="m 286.871,255.004 c -2.711,0 -4.918,-0.913 -5.246,-2.066 l -0.035,0 0,-0.143 c -0.008,-0.049 -0.035,-0.087 -0.035,-0.136 0,-0.06 0.027,-0.12 0.035,-0.175 l 0,-8.012 10.562,0 0,8.012 c 0.012,0.055 0.036,0.115 0.036,0.175 0,0.049 -0.028,0.087 -0.036,0.136 l 0,0.143 -0.035,0 c -0.328,1.153 -2.535,2.066 -5.246,2.066 z" /></g><g
       transform="matrix(1,0,0,-0.795997,0,200.58577)"
       id="g74"><path
         inkscape:connector-curvature="0"
         id="path76"
         style="fill:#ff2a2a;fill-opacity:1;fill-rule:evenodd;stroke:#000000;stroke-width:1.27175796;stroke-linecap:round;stroke-linejoin:round;stroke-miterlimit:4;stroke-opacity:1;stroke-dasharray:none"
         d="m 292.191,219.457 c 0,1.163 -2.382,2.106 -5.32,2.106 -2.937,0 -5.32,-0.943 -5.32,-2.106 0,-1.163 2.383,-2.105 5.32,-2.105 2.938,0 5.32,0.942 5.32,2.105 z" /></g><g
       transform="matrix(1,0,0,-0.714711,0,200.58577)"
       id="g78"><path
         inkscape:connector-curvature="0"
         id="path80"
         style="fill:#ff5555;fill-opacity:1;fill-rule:nonzero;stroke:#000000;stroke-width:1.39916599;stroke-linecap:round;stroke-linejoin:round;stroke-miterlimit:4;stroke-opacity:1;stroke-dasharray:none"
         d="m 324.816,255.004 c -2.711,0 -4.918,-0.913 -5.246,-2.066 l -0.035,0 0,-0.143 c -0.008,-0.049 -0.035,-0.087 -0.035,-0.136 0,-0.06 0.027,-0.12 0.035,-0.175 l 0,-8.012 10.563,0 0,8.012 c 0.011,0.055 0.035,0.115 0.035,0.175 0,0.049 -0.028,0.087 -0.035,0.136 l 0,0.143 -0.036,0 c -0.328,1.153 -2.535,2.066 -5.246,2.066 z" /></g><g
       transform="matrix(1,0,0,-0.795997,0,200.58577)"
       id="g82"><path
         inkscape:connector-curvature="0"
         id="path84"
         style="fill:#ff5555;fill-opacity:1;fill-rule:evenodd;stroke:#000000;stroke-width:1.27175796;stroke-linecap:round;stroke-linejoin:round;stroke-miterlimit:4;stroke-opacity:1;stroke-dasharray:none"
         d="m 330.137,219.457 c 0,1.163 -2.383,2.106 -5.321,2.106 -2.937,0 -5.32,-0.943 -5.32,-2.106 0,-1.163 2.383,-2.105 5.32,-2.105 2.938,0 5.321,0.942 5.321,2.105 z" /></g><g
       transform="matrix(1,0,0,-0.714711,0,200.58577)"
       id="g94"><path
         inkscape:connector-curvature="0"
         id="path96"
         style="fill:#cccccc;fill-opacity:1;fill-rule:nonzero;stroke:#000000;stroke-width:1.39916599;stroke-linecap:round;stroke-linejoin:round;stroke-miterlimit:4;stroke-opacity:1;stroke-dasharray:none"
         d="m 59.203,255.042 c -2.711,0 -4.918,-0.913 -5.246,-2.066 l -0.035,0 0,-0.142 c -0.008,-0.049 -0.035,-0.088 -0.035,-0.137 0,-0.06 0.023,-0.12 0.035,-0.175 l 0,-8.012 10.562,0 0,8.012 c 0.008,0.055 0.036,0.115 0.036,0.175 0,0.049 -0.028,0.088 -0.036,0.137 l 0,0.142 -0.035,0 c -0.328,1.153 -2.535,2.066 -5.246,2.066 z" /></g><g
       transform="matrix(1,0,0,-0.795997,0,200.58577)"
       id="g98"><path
         inkscape:connector-curvature="0"
         id="path100"
         style="fill:#cccccc;fill-opacity:1;fill-rule:evenodd;stroke:#000000;stroke-width:1.27175796;stroke-linecap:round;stroke-linejoin:round;stroke-miterlimit:4;stroke-opacity:1;stroke-dasharray:none"
         d="m 64.523,219.492 c 0,1.163 -2.382,2.105 -5.32,2.105 -2.937,0 -5.32,-0.942 -5.32,-2.105 0,-1.163 2.383,-2.105 5.32,-2.105 2.938,0 5.32,0.942 5.32,2.105 z" /></g><g
       transform="matrix(1,0,0,-0.714711,0,200.58577)"
       id="g102"><path
         inkscape:connector-curvature="0"
         id="path104"
         style="fill:#cccccc;fill-opacity:1;fill-rule:nonzero;stroke:#000000;stroke-width:1.39916599;stroke-linecap:round;stroke-linejoin:round;stroke-miterlimit:4;stroke-opacity:1;stroke-dasharray:none"
         d="m 97.148,255.042 c -2.71,0 -4.918,-0.913 -5.246,-2.066 l -0.035,0 0,-0.142 c -0.008,-0.049 -0.035,-0.088 -0.035,-0.137 0,-0.06 0.023,-0.12 0.035,-0.175 l 0,-8.012 10.563,0 0,8.012 c 0.008,0.055 0.035,0.115 0.035,0.175 0,0.049 -0.027,0.088 -0.035,0.137 l 0,0.142 -0.035,0 c -0.329,1.153 -2.54,2.066 -5.247,2.066 z" /></g><g
       transform="matrix(1,0,0,-0.795997,0,200.58577)"
       id="g106"><path
         inkscape:connector-curvature="0"
         id="path108"
         style="fill:#cccccc;fill-opacity:1;fill-rule:evenodd;stroke:#000000;stroke-width:1.27175796;stroke-linecap:round;stroke-linejoin:round;stroke-miterlimit:4;stroke-opacity:1;stroke-dasharray:none"
         d="m 102.469,219.492 c 0,1.163 -2.383,2.105 -5.321,2.105 -2.937,0 -5.32,-0.942 -5.32,-2.105 0,-1.163 2.383,-2.105 5.32,-2.105 2.938,0 5.321,0.942 5.321,2.105 z" /></g><g
       transform="matrix(1,0,0,-0.714711,0,200.58577)"
       id="g110"><path
         inkscape:connector-curvature="0"
         id="path112"
         style="fill:#ffaaaa;fill-opacity:1;fill-rule:nonzero;stroke:#000000;stroke-width:1.39916599;stroke-linecap:round;stroke-linejoin:round;stroke-miterlimit:4;stroke-opacity:1;stroke-dasharray:none"
         d="m 361.25,255.042 c -2.707,0 -4.914,-0.913 -5.246,-2.066 l -0.035,0 0,-0.142 c -0.008,-0.049 -0.035,-0.088 -0.035,-0.137 0,-0.06 0.027,-0.12 0.035,-0.175 l 0,-8.012 10.562,0 0,8.012 c 0.012,0.055 0.035,0.115 0.035,0.175 0,0.049 -0.027,0.088 -0.035,0.137 l 0,0.142 -0.031,0 c -0.332,1.153 -2.539,2.066 -5.25,2.066 z" /></g><g
       transform="matrix(1,0,0,-0.795997,0,200.58577)"
       id="g114"><path
         inkscape:connector-curvature="0"
         id="path116"
         style="fill:#ffaaaa;fill-opacity:1;fill-rule:evenodd;stroke:#000000;stroke-width:1.27175796;stroke-linecap:round;stroke-linejoin:round;stroke-miterlimit:4;stroke-opacity:1;stroke-dasharray:none"
         d="m 366.57,219.492 c 0,1.163 -2.382,2.105 -5.32,2.105 -2.938,0 -5.32,-0.942 -5.32,-2.105 0,-1.163 2.382,-2.105 5.32,-2.105 2.938,0 5.32,0.942 5.32,2.105 z" /></g><g
       transform="matrix(1,0,0,-0.714711,0,200.58577)"
       id="g118"><path
         inkscape:connector-curvature="0"
         id="path120"
         style="fill:#ffd5d5;fill-opacity:1;fill-rule:nonzero;stroke:#000000;stroke-width:1.39916599;stroke-linecap:round;stroke-linejoin:round;stroke-miterlimit:4;stroke-opacity:1;stroke-dasharray:none"
         d="m 399.195,255.042 c -2.711,0 -4.918,-0.913 -5.246,-2.066 l -0.035,0 0,-0.142 c -0.008,-0.049 -0.035,-0.088 -0.035,-0.137 0,-0.06 0.027,-0.12 0.035,-0.175 l 0,-8.012 10.563,0 0,8.012 c 0.011,0.055 0.035,0.115 0.035,0.175 0,0.049 -0.028,0.088 -0.035,0.137 l 0,0.142 -0.036,0 c -0.328,1.153 -2.535,2.066 -5.246,2.066 z" /></g><g
       transform="matrix(1,0,0,-0.795997,0,200.58577)"
       id="g122"><path
         inkscape:connector-curvature="0"
         id="path124"
         style="fill:#ffd5d5;fill-opacity:1;fill-rule:evenodd;stroke:#000000;stroke-width:1.27175796;stroke-linecap:round;stroke-linejoin:round;stroke-miterlimit:4;stroke-opacity:1;stroke-dasharray:none"
         d="m 404.516,219.492 c 0,1.163 -2.383,2.105 -5.321,2.105 -2.937,0 -5.32,-0.942 -5.32,-2.105 0,-1.163 2.383,-2.105 5.32,-2.105 2.938,0 5.321,0.942 5.321,2.105 z" /></g><text
       id="text126"
       transform="scale(1,-1)"
       x="293.37701"
       y="-147.49963"><tspan
         id="tspan128"
         sodipodi:role="line"
         y="-147.49963"
         x="293.37701 304.49701 310.561 316.129 328.49701 334.44901 346.76901 357.69702"
         style="font-size:16px;font-variant:normal;font-weight:normal;writing-mode:lr-tb;fill:#0000ff;fill-opacity:1;fill-rule:nonzero;stroke:none;font-family:DejaVuSansBold;-inkscape-font-specification:DejaVuSansBold">2. AIRES</tspan></text>
<text
       id="text130"
       transform="scale(1,-1)"
       x="203.45515"
       y="-0.226566"><tspan
         id="tspan132"
         sodipodi:role="line"
         y="-0.226566"
         x="203.45515 214.57516 220.63916 226.20715 239.80716 250.73515 261.66315 271.85516 277.82315 291.21515"
         style="font-size:16px;font-variant:normal;font-weight:normal;writing-mode:lr-tb;fill:#ff0000;fill-opacity:1;fill-rule:nonzero;stroke:none;font-family:DejaVuSansBold;-inkscape-font-specification:DejaVuSansBold">3. OFFLINE</tspan></text>
<g
       transform="matrix(1,0,0,-1,0,200.58577)"
       id="g134"><path
         inkscape:connector-curvature="0"
         id="path136"
         style="fill:none;stroke:#000000;stroke-width:2.77224302;stroke-linecap:butt;stroke-linejoin:miter;stroke-miterlimit:4;stroke-opacity:1;stroke-dasharray:none"
         d="M 128.8789,167.95967 127.82,168.168"
         sodipodi:nodetypes="cc" /></g><g
       transform="matrix(1,0,0,-1,0,200.58577)"
       id="g138"><path
         inkscape:connector-curvature="0"
         id="path140"
         style="fill:#ffffff;fill-opacity:1;fill-rule:evenodd;stroke:#44aa00;stroke-width:1.20000005;stroke-linecap:butt;stroke-linejoin:miter;stroke-miterlimit:4;stroke-opacity:1;stroke-dasharray:none"
         d="m 263.059,70.301 c 0,28.574 -23.168,51.738 -51.743,51.738 -28.574,0 -51.742,-23.164 -51.742,-51.738 0,-28.578 23.168,-51.742 51.742,-51.742 28.575,0 51.743,23.164 51.743,51.742 z" /></g><g
       transform="matrix(1,0,0,-1,0,200.58577)"
       id="g142"><path
         inkscape:connector-curvature="0"
         id="path144"
         style="fill:none;stroke:#000000;stroke-width:2.41459203;stroke-linecap:butt;stroke-linejoin:miter;stroke-miterlimit:4;stroke-opacity:1;stroke-dasharray:none"
         d="m 173.27,81.387 24.925,-5.371" /></g><g
       transform="matrix(-1,-0.215578,-0.215578,1,0,200.58577)"
       id="g146"><path
         inkscape:connector-curvature="0"
         id="path148"
         style="fill:#000000;fill-opacity:1;fill-rule:evenodd;stroke:#000000;stroke-width:0.590092;stroke-linecap:butt;stroke-linejoin:miter;stroke-miterlimit:4;stroke-opacity:1;stroke-dasharray:none"
         d="m -170.902,-113.468 2.361,-2.362 -8.264,2.363 8.261,2.359 -2.358,-2.36 z" /></g><g
       transform="matrix(1,0,0,-1,0,200.58577)"
       id="g150"><path
         inkscape:connector-curvature="0"
         id="path152"
         style="fill:#ececec;fill-opacity:1;fill-rule:evenodd;stroke:#000000;stroke-width:3.22155595;stroke-linecap:butt;stroke-linejoin:miter;stroke-miterlimit:2.20000005;stroke-opacity:1;stroke-dasharray:none"
         d="m 212.457,71.762 12.168,-4.434" /></g><g
       transform="matrix(-1,-0.364571,-0.364571,1,0,200.58577)"
       id="g154"><path
         inkscape:connector-curvature="0"
         id="path156"
         style="fill:#000000;fill-opacity:1;fill-rule:evenodd;stroke:#000000;stroke-width:0.75667202;stroke-linecap:butt;stroke-linejoin:miter;stroke-miterlimit:4;stroke-opacity:1;stroke-dasharray:none"
         d="m -172.973,-131.713 3.025,-3.026 -10.593,3.028 10.593,3.026 -3.025,-3.028 z" /></g><text
       id="text158"
       transform="scale(0.99046214,-1.0096297)"
       x="177.439"
       y="-129.50755"
       style="font-size:11.88554573px"><tspan
         id="tspan160"
         y="-129.50755"
         x="177.439"
         style="font-size:11.93719196px;font-variant:normal;font-weight:normal;writing-mode:lr-tb;fill:#000000;fill-opacity:1;fill-rule:nonzero;stroke:none;font-family:DejaVuSans;-inkscape-font-specification:DejaVuSans">τ</tspan></text>
<g
       transform="matrix(1,0,0,-1,0,200.58577)"
       id="g162"><path
         inkscape:connector-curvature="0"
         id="path164"
         style="fill:none;stroke:#000000;stroke-width:0.43496901;stroke-linecap:butt;stroke-linejoin:miter;stroke-miterlimit:4;stroke-opacity:1;stroke-dasharray:none"
         d="m 228.688,65.652 17.789,-11.937 m -17.789,11.937 19.492,-8.05 m -19.492,8.05 20.605,-3.918 m -20.605,3.918 21.085,0.332 m -21.085,-0.332 20.929,4.575" /></g><g
       transform="matrix(1,0,0,-1,0,200.58577)"
       id="g166"><path
         inkscape:connector-curvature="0"
         id="path168"
         style="fill:none;stroke:#44aa00;stroke-width:0.96773702;stroke-linecap:butt;stroke-linejoin:miter;stroke-miterlimit:4;stroke-opacity:1;stroke-dasharray:none"
         d="m 161.312,55.98 c -34.308,44.852 3.543,58.071 -32.398,105.778" /></g><g
       transform="matrix(1,0,0,-1,0,200.58577)"
       id="g170"><path
         inkscape:connector-curvature="0"
         id="path172"
         style="fill:none;stroke:#44aa00;stroke-width:0.80000001;stroke-linecap:butt;stroke-linejoin:miter;stroke-miterlimit:4;stroke-opacity:1;stroke-dasharray:none"
         d="m 221.25,120.871 c -53.297,34.164 -62.328,9.293 -92.789,42.465" /></g><text
       id="text174"
       transform="scale(1,-1)"
       x="179.58649"
       y="-188.71077"><tspan
         id="tspan176"
         sodipodi:role="line"
         y="-188.71077"
         x="179.58649 190.70648 196.77048 202.33849 211.98648 223.85847 236.85048 250.45049 260.6265"
         style="font-size:16px;font-variant:normal;font-weight:normal;writing-mode:lr-tb;fill:#338000;fill-opacity:1;fill-rule:nonzero;stroke:none;font-family:DejaVuSansBold;-inkscape-font-specification:DejaVuSansBold">1. TAUOLA</tspan></text>
<g
       transform="matrix(1,0,0,-1,0,200.58577)"
       id="g178"><path
         inkscape:connector-curvature="0"
         id="path180"
         style="fill:#b3ff80;fill-opacity:1;fill-rule:evenodd;stroke:#338000;stroke-width:4.80000019;stroke-linecap:round;stroke-linejoin:round;stroke-miterlimit:4;stroke-opacity:1;stroke-dasharray:none"
         d="m 209.965,72.914 c 0,1.328 -1.078,2.406 -2.406,2.406 -1.329,0 -2.407,-1.078 -2.407,-2.406 0,-1.332 1.078,-2.41 2.407,-2.41 1.328,0 2.406,1.078 2.406,2.41 z" /></g><g
       transform="matrix(1,0,0,-1,0,200.58577)"
       id="g182"><path
         inkscape:connector-curvature="0"
         id="path184"
         style="fill:#b3ff80;fill-opacity:1;fill-rule:evenodd;stroke:#66ff00;stroke-width:4.80000019;stroke-linecap:round;stroke-linejoin:round;stroke-miterlimit:4;stroke-opacity:1;stroke-dasharray:none"
         d="m 126.719,167.492 c 0,1.332 -1.074,2.41 -2.407,2.41 -1.328,0 -2.406,-1.078 -2.406,-2.41 0,-1.328 1.078,-2.406 2.406,-2.406 1.333,0 2.407,1.078 2.407,2.406 z" /></g><text
       id="text186"
       transform="scale(0.99046214,-1.0096297)"
       x="198.3815"
       y="-157.62273"
       style="font-size:11.88554573px"><tspan
         id="tspan188"
         sodipodi:role="line"
         y="-157.62273"
         x="198.3815 203.04497 206.14864 211.01106 216.05652 221.10196 225.47894 228.59853 233.46094 237.59917 240.12985 245.17531 250.06955 252.26599"
         style="font-size:7.95812988px;font-variant:normal;font-weight:normal;writing-mode:lr-tb;fill:#000000;fill-opacity:1;fill-rule:nonzero;stroke:none;font-family:DejaVuSans;-inkscape-font-specification:DejaVuSans">Productos del </tspan><tspan
         id="tspan190"
         sodipodi:role="line"
         y="-147.67506"
         x="200.69745 205.7429 210.63715 215.01413 219.88449 222.0889 229.84012 232.04453 236.93877 241.98422 245.10381"
         style="font-size:7.95812988px;font-variant:normal;font-weight:normal;writing-mode:lr-tb;fill:#000000;fill-opacity:1;fill-rule:nonzero;stroke:none;font-family:DejaVuSans;-inkscape-font-specification:DejaVuSans">decaimiento</tspan></text>
</g></svg>