<?xml version="1.0" encoding="UTF-8" standalone="no"?>
<!-- Created with Inkscape (http://www.inkscape.org/) -->

<svg
   xmlns:dc="http://purl.org/dc/elements/1.1/"
   xmlns:cc="http://creativecommons.org/ns#"
   xmlns:rdf="http://www.w3.org/1999/02/22-rdf-syntax-ns#"
   xmlns:svg="http://www.w3.org/2000/svg"
   xmlns="http://www.w3.org/2000/svg"
   xmlns:xlink="http://www.w3.org/1999/xlink"
   xmlns:sodipodi="http://sodipodi.sourceforge.net/DTD/sodipodi-0.dtd"
   xmlns:inkscape="http://www.inkscape.org/namespaces/inkscape"
   id="svg2"
   version="1.1"
   inkscape:version="0.48.4 r9939"
   width="572.0625"
   height="286.12704"
   xml:space="preserve"
   sodipodi:docname="sim_cartoon.pdf"><sodipodi:namedview
     pagecolor="#ffffff"
     bordercolor="#666666"
     borderopacity="1"
     objecttolerance="10"
     gridtolerance="10"
     guidetolerance="10"
     inkscape:pageopacity="0"
     inkscape:pageshadow="2"
     inkscape:window-width="1280"
     inkscape:window-height="724"
     id="namedview4"
     showgrid="false"
     inkscape:zoom="1.0442271"
     inkscape:cx="232.55799"
     inkscape:cy="74.105039"
     inkscape:window-x="0"
     inkscape:window-y="24"
     inkscape:window-maximized="1"
     inkscape:current-layer="g10"
     fit-margin-top="0"
     fit-margin-left="0"
     fit-margin-right="0"
     fit-margin-bottom="0" /><metadata
     id="metadata8"><rdf:RDF><cc:Work
         rdf:about=""><dc:format>image/svg+xml</dc:format><dc:type
           rdf:resource="http://purl.org/dc/dcmitype/StillImage" /><dc:title></dc:title></cc:Work></rdf:RDF></metadata><defs
     id="defs6"><radialGradient
       id="radialGradient16"
       spreadMethod="pad"
       gradientTransform="matrix(-3.243922,1.453299,-0.760463,-1.697438,2286.668,175.25812)"
       gradientUnits="userSpaceOnUse"
       r="68.09375"
       cy="518.84766"
       cx="534.64844"
       fy="518.84766"
       fx="534.64844"><stop
         id="stop18"
         offset="0"
         style="stop-opacity:1;stop-color:#3900d3" /><stop
         id="stop20"
         offset="1"
         style="stop-opacity:1;stop-color:#ffffff" /></radialGradient><linearGradient
       id="linearGradient102"
       spreadMethod="pad"
       gradientTransform="matrix(0.778958,0,0,-0.645501,-104.74011,489.28856)"
       gradientUnits="userSpaceOnUse"
       y2="742.5"
       x2="463.98047"
       y1="725.27344"
       x1="463.98047"><stop
         id="stop104"
         offset="0"
         style="stop-opacity:1;stop-color:#4d7300" /><stop
         id="stop106"
         offset="1"
         style="stop-opacity:1;stop-color:#ffffff" /></linearGradient><linearGradient
       y2="742.5"
       x2="463.98047"
       y1="725.27344"
       x1="463.98047"
       spreadMethod="pad"
       gradientTransform="matrix(0.778958,0,0,-0.645501,-104.74011,489.28856)"
       gradientUnits="userSpaceOnUse"
       id="linearGradient3299"
       xlink:href="#linearGradient102"
       inkscape:collect="always" /><linearGradient
       y2="742.5"
       x2="463.98047"
       y1="725.27344"
       x1="463.98047"
       spreadMethod="pad"
       gradientTransform="matrix(0.778958,0,0,-0.645501,-104.74011,489.28856)"
       gradientUnits="userSpaceOnUse"
       id="linearGradient3302"
       xlink:href="#linearGradient102"
       inkscape:collect="always" /><radialGradient
       r="68.09375"
       fy="518.84766"
       fx="534.64844"
       cy="518.84766"
       cx="534.64844"
       spreadMethod="pad"
       gradientTransform="matrix(-3.243922,1.453299,-0.760463,-1.697438,2286.668,175.25812)"
       gradientUnits="userSpaceOnUse"
       id="radialGradient3315"
       xlink:href="#radialGradient16"
       inkscape:collect="always" /><radialGradient
       r="68.09375"
       fy="518.84766"
       fx="534.64844"
       cy="518.84766"
       cx="534.64844"
       spreadMethod="pad"
       gradientTransform="matrix(-3.243922,1.453299,-0.760463,-1.697438,2286.668,175.25812)"
       gradientUnits="userSpaceOnUse"
       id="radialGradient3318"
       xlink:href="#radialGradient16"
       inkscape:collect="always" /><radialGradient
       inkscape:collect="always"
       xlink:href="#radialGradient16"
       id="radialGradient4257"
       gradientUnits="userSpaceOnUse"
       gradientTransform="matrix(-3.243922,1.453299,-0.760463,-1.697438,2286.668,175.25812)"
       spreadMethod="pad"
       cx="534.64844"
       cy="518.84766"
       fx="534.64844"
       fy="518.84766"
       r="68.09375" /><linearGradient
       inkscape:collect="always"
       xlink:href="#linearGradient102"
       id="linearGradient4259"
       gradientUnits="userSpaceOnUse"
       gradientTransform="matrix(0.778958,0,0,-0.645501,-104.74011,489.28856)"
       spreadMethod="pad"
       x1="463.98047"
       y1="725.27344"
       x2="463.98047"
       y2="742.5" /></defs><g
     transform="matrix(1.25,0,0,-1.25,21.812521,273.03334)"
     inkscape:label="sim_cartoon"
     inkscape:groupmode="layer"
     id="g10"><rect
       style="color:#000000;fill:#ffffff;fill-opacity:1;fill-rule:nonzero;stroke:#000000;stroke-width:3;stroke-linecap:round;stroke-linejoin:round;stroke-miterlimit:4;stroke-opacity:1;stroke-dasharray:none;stroke-dashoffset:0;marker:none;visibility:visible;display:inline;overflow:visible;enable-background:accumulate"
       id="rect3469"
       width="569.07336"
       height="283.14835"
       x="-20.314743"
       y="-2.8215771"
       transform="matrix(0.8,0,0,-0.8,0,214.97504)" /><path
       inkscape:connector-curvature="0"
       id="path22"
       style="fill:url(#radialGradient4257);fill-opacity:1;fill-rule:evenodd;stroke:none"
       d="M 58.863,115.014 C 161.445,90.78 206.457,101.354 231.449,100.866 370.734,98.143 438.023,15.413 342.566,16.362 298.477,16.803 190.234,9.811 177.082,14.717 153.441,23.541 146.078,55.815 58.863,115.014 z" /><path
       inkscape:connector-curvature="0"
       id="path26"
       style="fill:none;stroke:#000000;stroke-width:2.77224302;stroke-linecap:butt;stroke-linejoin:miter;stroke-miterlimit:4;stroke-opacity:1;stroke-dasharray:none"
       d="m 65.715,111.81504 -39.258,16.226" /><text
       style="font-size:11.88554573px"
       y="-152.38626"
       x="125.10001"
       transform="scale(0.99046214,-1.0096297)"
       id="text28"><tspan
         style="font-size:7.95812988px;font-variant:normal;writing-mode:lr-tb;fill:#000000;fill-opacity:1;fill-rule:nonzero;stroke:none;font-family:CairoFont-0;-inkscape-font-specification:CairoFont-0-0"
         x="125.10001 127.4397 132.33395"
         y="-152.38626"
         sodipodi:role="line"
         id="tspan30">Jet</tspan><tspan
         style="font-size:7.95812988px;font-variant:normal;writing-mode:lr-tb;fill:#000000;fill-opacity:1;fill-rule:nonzero;stroke:none;font-family:CairoFont-0;-inkscape-font-specification:CairoFont-0-0"
         x="110.55156 115.59702 120.46739 125.51285 128.62447 133.47893 138.52438 140.72879 145.10576"
         y="-142.4386"
         sodipodi:role="line"
         id="tspan32">hadrónico</tspan></text>
<path
       inkscape:connector-curvature="0"
       id="path36"
       style="fill:#ffffff;fill-opacity:1;fill-rule:evenodd;stroke:#ff6600;stroke-width:1.20000005;stroke-linecap:butt;stroke-linejoin:miter;stroke-miterlimit:4;stroke-opacity:1;stroke-dasharray:none"
       d="m 204.309,162.63504 c 0,-28.574 -23.164,-51.742 -51.739,-51.742 -28.578,0 -51.742,23.168 -51.742,51.742 0,28.574 23.164,51.738 51.742,51.738 28.575,0 51.739,-23.164 51.739,-51.738 z" /><text
       y="-134.70409"
       x="165.34367"
       transform="scale(1,-1)"
       id="text38"><tspan
         style="font-size:7.8612628px;font-variant:normal;writing-mode:lr-tb;fill:#000000;fill-opacity:1;fill-rule:nonzero;stroke:none;font-family:CairoFont-0;-inkscape-font-specification:CairoFont-0-0"
         x="165.34367"
         y="-134.70409"
         id="tspan40">π</tspan><tspan
         style="font-size:7.8612628px;font-variant:normal;writing-mode:lr-tb;fill:#000000;fill-opacity:1;fill-rule:nonzero;stroke:none;font-family:CairoFont-0;-inkscape-font-specification:CairoFont-0-0"
         x="161.10674"
         y="-128.90746"
         id="tspan42">Δ</tspan><tspan
         style="font-size:7.8612628px;font-variant:normal;writing-mode:lr-tb;fill:#000000;fill-opacity:1;fill-rule:nonzero;stroke:none;font-family:CairoFont-0;-inkscape-font-specification:CairoFont-0-0"
         x="155.89899"
         y="-126.06499"
         id="tspan44">Κ</tspan><tspan
         style="font-size:7.8612628px;font-variant:normal;writing-mode:lr-tb;fill:#000000;fill-opacity:1;fill-rule:nonzero;stroke:none;font-family:CairoFont-0;-inkscape-font-specification:CairoFont-0-0"
         x="151.25252"
         y="-126.35286"
         id="tspan46">p</tspan><tspan
         style="font-size:7.8612628px;font-variant:normal;writing-mode:lr-tb;fill:#000000;fill-opacity:1;fill-rule:nonzero;stroke:none;font-family:CairoFont-0;-inkscape-font-specification:CairoFont-0-0"
         x="143.33429"
         y="-124.84785"
         id="tspan48">D</tspan></text>
<path
       inkscape:connector-curvature="0"
       id="path52"
       style="fill:none;stroke:#000000;stroke-width:2.41459203;stroke-linecap:butt;stroke-linejoin:miter;stroke-miterlimit:4;stroke-opacity:1;stroke-dasharray:none"
       d="m 124.91,191.47904 16.805,-19.176" /><path
       inkscape:connector-curvature="0"
       id="path56"
       style="fill:#000000;fill-opacity:1;fill-rule:evenodd;stroke:#000000;stroke-width:0.60364747;stroke-linecap:butt;stroke-linejoin:miter;stroke-miterlimit:4;stroke-opacity:1;stroke-dasharray:none"
       d="m 139.80428,174.48253 -3.40581,0.22243 7.38672,-4.76068 -3.75372,7.94469 -0.22719,-3.40644 z" /><path
       inkscape:connector-curvature="0"
       id="path60"
       style="fill:#ececec;fill-opacity:1;fill-rule:evenodd;stroke:#000000;stroke-width:1.55015004;stroke-linecap:butt;stroke-linejoin:miter;stroke-miterlimit:2.20000005;stroke-opacity:1;stroke-dasharray:none"
       d="m 149.129,165.82304 21.719,-11.09" /><path
       inkscape:connector-curvature="0"
       id="path64"
       style="fill:#000000;fill-opacity:1;fill-rule:evenodd;stroke:#000000;stroke-width:0.38753709;stroke-linecap:butt;stroke-linejoin:miter;stroke-miterlimit:4;stroke-opacity:1;stroke-dasharray:none"
       d="m 169.19181,155.58056 -2.08609,-0.6759 5.53861,-1.08559 -4.12842,3.84759 0.6759,-2.0861 z" /><path
       inkscape:connector-curvature="0"
       id="path68"
       style="fill:#ececec;fill-opacity:1;fill-rule:evenodd;stroke:#000000;stroke-width:3.22155595;stroke-linecap:butt;stroke-linejoin:miter;stroke-miterlimit:2.20000005;stroke-opacity:1;stroke-dasharray:none"
       d="m 145.809,162.24104 4.914,-11.985" /><path
       inkscape:connector-curvature="0"
       id="path72"
       style="fill:#000000;fill-opacity:1;fill-rule:evenodd;stroke:#000000;stroke-width:0.80538923;stroke-linecap:butt;stroke-linejoin:miter;stroke-miterlimit:4;stroke-opacity:1;stroke-dasharray:none"
       d="m 149.25354,153.8346 -4.20317,1.75742 7.25881,-9.21083 -1.29722,11.65698 -1.75842,-4.20357 z" /><path
       d="m 151.695,160.459 -4.527,1.961 -4.262,-2.371 0.555,4.621 -3.762,3.078 4.875,0.899 1.938,4.269 2.457,-4.066 4.957,-0.437 -3.356,-3.411 1.125,-4.543 z"
       style="fill:#ff6600;fill-opacity:1;fill-rule:nonzero;stroke:none"
       id="path74"
       inkscape:connector-curvature="0" /><text
       style="font-size:11.88554573px"
       y="-173.23044"
       x="161.67712"
       transform="scale(0.99046214,-1.0096297)"
       id="text80"><tspan
         style="font-size:7.95812988px;font-variant:normal;writing-mode:lr-tb;fill:#000000;fill-opacity:1;fill-rule:nonzero;stroke:none;font-family:CairoFont-0;-inkscape-font-specification:CairoFont-0-0"
         x="161.67712 163.88153 168.77577 173.82123 176.94081 181.80324 186.84073 189.36345 194.40891"
         y="-173.23044"
         sodipodi:role="line"
         id="tspan82">leptón de</tspan><tspan
         style="font-size:7.95812988px;font-variant:normal;writing-mode:lr-tb;fill:#000000;fill-opacity:1;fill-rule:nonzero;stroke:none;font-family:CairoFont-0;-inkscape-font-specification:CairoFont-0-0"
         x="156.64113 161.51151 163.7159 166.83549 171.71382 174.23654 179.1308 184.17625 189.0705 192.21396 197.25941 199.45586"
         y="-163.28278"
         sodipodi:role="line"
         id="tspan84">alta energía</tspan></text>
<path
       inkscape:connector-curvature="0"
       id="path88"
       style="fill:none;stroke:#000000;stroke-width:0.43496901;stroke-linecap:butt;stroke-linejoin:miter;stroke-miterlimit:4;stroke-opacity:1;stroke-dasharray:none"
       d="m 150.098,152.47104 14.246,-16.004 m -14.246,16.004 10.625,-18.219 m -10.625,18.219 6.679,-19.883 m -6.679,19.883 2.535,-20.937 m -2.535,20.937 -1.688,-21.359" /><path
       inkscape:connector-curvature="0"
       id="path92"
       style="fill:none;stroke:#ff6600;stroke-width:0.80000001;stroke-linecap:butt;stroke-linejoin:miter;stroke-miterlimit:4;stroke-opacity:1;stroke-dasharray:none"
       d="m 120.957,203.91604 c -37.207,-35.113 -17.918,-56.425 -57.148,-93.898" /><path
       inkscape:connector-curvature="0"
       id="path96"
       style="fill:none;stroke:#ff6600;stroke-width:0.80000001;stroke-linecap:butt;stroke-linejoin:miter;stroke-miterlimit:4;stroke-opacity:1;stroke-dasharray:none"
       d="m 167.641,113.03404 c -62.68,-8.883 -60.543,17.492 -102.047,0.007" /><path
       d="m 71.121,105.803 -4.527,1.957 -4.262,-2.367 0.555,4.621 -3.762,3.078 4.875,0.899 1.938,4.269 2.457,-4.066 4.957,-0.438 -3.356,-3.41 1.125,-4.543 z"
       style="fill:#ff6600;fill-opacity:1;fill-rule:nonzero;stroke:none"
       id="path98"
       inkscape:connector-curvature="0" /><path
       inkscape:connector-curvature="0"
       id="path108"
       style="fill:url(#linearGradient4259);fill-opacity:1;fill-rule:nonzero;stroke:none"
       d="m 0,21.12 411.711,0 0,-11.114 L 0,10.006 0,21.12 z" /><path
       inkscape:connector-curvature="0"
       id="path112"
       style="fill:#cccccc;fill-opacity:1;fill-rule:nonzero;stroke:#000000;stroke-width:1.18286312;stroke-linecap:round;stroke-linejoin:round;stroke-miterlimit:4;stroke-opacity:1;stroke-dasharray:none"
       d="m 135.094,18.307299 c -2.711,0 -4.918,0.648243 -5.25,1.472305 l -0.035,0 0,0.101489 c -0.004,0.03574 -0.032,0.0629 -0.032,0.102204 0,0.03859 0.024,0.08148 0.032,0.124359 l 0,5.722691 10.566,0 0,-5.722691 c 0.008,-0.04288 0.035,-0.08576 0.035,-0.124359 0,-0.03931 -0.027,-0.06647 -0.035,-0.102204 l 0,-0.101489 -0.035,0 c -0.332,-0.824062 -2.539,-1.472305 -5.246,-1.472305 z" /><path
       inkscape:connector-curvature="0"
       id="path116"
       style="fill:#cccccc;fill-opacity:1;fill-rule:evenodd;stroke:#000000;stroke-width:1.13464546;stroke-linecap:round;stroke-linejoin:round;stroke-miterlimit:4;stroke-opacity:1;stroke-dasharray:none"
       d="m 140.414,25.869237 c 0,-0.925745 -2.383,-1.675574 -5.32,-1.675574 -2.942,0 -5.321,0.749829 -5.321,1.675574 0,0.92654 2.379,1.676369 5.321,1.676369 2.937,0 5.32,-0.749829 5.32,-1.676369 z" /><path
       inkscape:connector-curvature="0"
       id="path120"
       style="fill:#ff0000;fill-opacity:1;fill-rule:nonzero;stroke:#000000;stroke-width:1.18286312;stroke-linecap:round;stroke-linejoin:round;stroke-miterlimit:4;stroke-opacity:1;stroke-dasharray:none"
       d="m 173.035,18.307299 c -2.707,0 -4.914,0.648243 -5.246,1.472305 l -0.035,0 0,0.101489 c -0.004,0.03574 -0.035,0.0629 -0.035,0.102204 0,0.03859 0.027,0.08148 0.035,0.124359 l 0,5.722691 10.566,0 0,-5.722691 c 0.008,-0.04288 0.035,-0.08576 0.035,-0.124359 0,-0.03931 -0.031,-0.06647 -0.035,-0.102204 l 0,-0.101489 -0.035,0 c -0.332,-0.824062 -2.539,-1.472305 -5.246,-1.472305 l -0.004,0 z" /><path
       inkscape:connector-curvature="0"
       id="path124"
       style="fill:#ff0000;fill-opacity:1;fill-rule:evenodd;stroke:#000000;stroke-width:1.13464546;stroke-linecap:round;stroke-linejoin:round;stroke-miterlimit:4;stroke-opacity:1;stroke-dasharray:none"
       d="m 178.355,25.869237 c 0,-0.925745 -2.378,-1.675574 -5.32,-1.675574 -2.937,0 -5.316,0.749829 -5.316,1.675574 0,0.92654 2.379,1.676369 5.316,1.676369 2.942,0 5.32,-0.749829 5.32,-1.676369 z" /><path
       inkscape:connector-curvature="0"
       id="path128"
       style="fill:#ff0000;fill-opacity:1;fill-rule:nonzero;stroke:#000000;stroke-width:1.18286312;stroke-linecap:round;stroke-linejoin:round;stroke-miterlimit:4;stroke-opacity:1;stroke-dasharray:none"
       d="m 210.98,18.307299 c -2.707,0 -4.914,0.648243 -5.246,1.472305 l -0.035,0 0,0.101489 c -0.004,0.03574 -0.035,0.0629 -0.035,0.102204 0,0.03859 0.027,0.08148 0.035,0.124359 l 0,5.722691 10.567,0 0,-5.722691 c 0.007,-0.04288 0.031,-0.08576 0.031,-0.124359 0,-0.03931 -0.027,-0.06647 -0.031,-0.102204 l 0,-0.101489 -0.036,0 c -0.332,-0.824062 -2.539,-1.472305 -5.25,-1.472305 z" /><path
       inkscape:connector-curvature="0"
       id="path132"
       style="fill:#ff0000;fill-opacity:1;fill-rule:evenodd;stroke:#000000;stroke-width:1.13464546;stroke-linecap:round;stroke-linejoin:round;stroke-miterlimit:4;stroke-opacity:1;stroke-dasharray:none"
       d="m 216.301,25.869237 c 0,-0.925745 -2.379,-1.675574 -5.321,-1.675574 -2.937,0 -5.32,0.749829 -5.32,1.675574 0,0.92654 2.383,1.676369 5.32,1.676369 2.942,0 5.321,-0.749829 5.321,-1.676369 z" /><path
       inkscape:connector-curvature="0"
       id="path136"
       style="fill:#ff0000;fill-opacity:1;fill-rule:nonzero;stroke:#000000;stroke-width:1.18286312;stroke-linecap:round;stroke-linejoin:round;stroke-miterlimit:4;stroke-opacity:1;stroke-dasharray:none"
       d="m 248.926,18.307299 c -2.707,0 -4.918,0.648243 -5.246,1.472305 l -0.035,0 0,0.101489 c -0.008,0.03574 -0.036,0.0629 -0.036,0.102204 0,0.03859 0.028,0.08148 0.036,0.124359 l 0,5.722691 10.562,0 0,-5.722691 c 0.012,-0.04288 0.035,-0.08576 0.035,-0.124359 0,-0.03931 -0.027,-0.06647 -0.035,-0.102204 l 0,-0.101489 -0.035,0 c -0.328,-0.824062 -2.535,-1.472305 -5.246,-1.472305 z" /><path
       inkscape:connector-curvature="0"
       id="path140"
       style="fill:#ff0000;fill-opacity:1;fill-rule:evenodd;stroke:#000000;stroke-width:1.13464546;stroke-linecap:round;stroke-linejoin:round;stroke-miterlimit:4;stroke-opacity:1;stroke-dasharray:none"
       d="m 254.246,25.869237 c 0,-0.925745 -2.383,-1.675574 -5.32,-1.675574 -2.938,0 -5.321,0.749829 -5.321,1.675574 0,0.92654 2.383,1.676369 5.321,1.676369 2.937,0 5.32,-0.749829 5.32,-1.676369 z" /><path
       inkscape:connector-curvature="0"
       id="path144"
       style="fill:#ff2a2a;fill-opacity:1;fill-rule:nonzero;stroke:#000000;stroke-width:1.18286312;stroke-linecap:round;stroke-linejoin:round;stroke-miterlimit:4;stroke-opacity:1;stroke-dasharray:none"
       d="m 286.871,18.334458 c -2.711,0 -4.918,0.648243 -5.246,1.47302 l -0.035,0 0,0.101489 c -0.008,0.03502 -0.035,0.06218 -0.035,0.101489 0,0.03859 0.027,0.08219 0.035,0.125074 l 0,5.722691 10.562,0 0,-5.722691 c 0.012,-0.04288 0.036,-0.08648 0.036,-0.125074 0,-0.03931 -0.028,-0.06647 -0.036,-0.101489 l 0,-0.101489 -0.035,0 c -0.328,-0.824777 -2.535,-1.47302 -5.246,-1.47302 z" /><path
       inkscape:connector-curvature="0"
       id="path148"
       style="fill:#ff2a2a;fill-opacity:1;fill-rule:evenodd;stroke:#000000;stroke-width:1.13464546;stroke-linecap:round;stroke-linejoin:round;stroke-miterlimit:4;stroke-opacity:1;stroke-dasharray:none"
       d="m 292.191,25.897097 c 0,-0.925745 -2.382,-1.675574 -5.32,-1.675574 -2.937,0 -5.32,0.749829 -5.32,1.675574 0,0.925744 2.383,1.675573 5.32,1.675573 2.938,0 5.32,-0.749829 5.32,-1.675573 z" /><path
       inkscape:connector-curvature="0"
       id="path152"
       style="fill:#ff5555;fill-opacity:1;fill-rule:nonzero;stroke:#000000;stroke-width:1.18286312;stroke-linecap:round;stroke-linejoin:round;stroke-miterlimit:4;stroke-opacity:1;stroke-dasharray:none"
       d="m 324.816,18.334458 c -2.711,0 -4.918,0.648243 -5.246,1.47302 l -0.035,0 0,0.101489 c -0.008,0.03502 -0.035,0.06218 -0.035,0.101489 0,0.03859 0.027,0.08219 0.035,0.125074 l 0,5.722691 10.563,0 0,-5.722691 c 0.011,-0.04288 0.035,-0.08648 0.035,-0.125074 0,-0.03931 -0.028,-0.06647 -0.035,-0.101489 l 0,-0.101489 -0.036,0 c -0.328,-0.824777 -2.535,-1.47302 -5.246,-1.47302 z" /><path
       inkscape:connector-curvature="0"
       id="path156"
       style="fill:#ff5555;fill-opacity:1;fill-rule:evenodd;stroke:#000000;stroke-width:1.13464546;stroke-linecap:round;stroke-linejoin:round;stroke-miterlimit:4;stroke-opacity:1;stroke-dasharray:none"
       d="m 330.137,25.897097 c 0,-0.925745 -2.383,-1.675574 -5.321,-1.675574 -2.937,0 -5.32,0.749829 -5.32,1.675574 0,0.925744 2.383,1.675573 5.32,1.675573 2.938,0 5.321,-0.749829 5.321,-1.675573 z" /><path
       inkscape:connector-curvature="0"
       id="path160"
       style="fill:#cccccc;fill-opacity:1;fill-rule:nonzero;stroke:#000000;stroke-width:1.18286312;stroke-linecap:round;stroke-linejoin:round;stroke-miterlimit:4;stroke-opacity:1;stroke-dasharray:none"
       d="m 21.258,18.307299 c -2.711,0 -4.918,0.648243 -5.246,1.472305 l -0.035,0 0,0.101489 c -0.008,0.03574 -0.036,0.0629 -0.036,0.102204 0,0.03859 0.024,0.08148 0.036,0.124359 l 0,5.722691 10.562,0 0,-5.722691 c 0.008,-0.04288 0.035,-0.08576 0.035,-0.124359 0,-0.03931 -0.027,-0.06647 -0.035,-0.102204 l 0,-0.101489 -0.035,0 c -0.328,-0.824062 -2.535,-1.472305 -5.246,-1.472305 z" /><path
       inkscape:connector-curvature="0"
       id="path164"
       style="fill:#cccccc;fill-opacity:1;fill-rule:evenodd;stroke:#000000;stroke-width:1.13464546;stroke-linecap:round;stroke-linejoin:round;stroke-miterlimit:4;stroke-opacity:1;stroke-dasharray:none"
       d="m 26.578,25.869237 c 0,-0.925745 -2.383,-1.675574 -5.32,-1.675574 -2.938,0 -5.32,0.749829 -5.32,1.675574 0,0.92654 2.382,1.676369 5.32,1.676369 2.937,0 5.32,-0.749829 5.32,-1.676369 z" /><path
       inkscape:connector-curvature="0"
       id="path168"
       style="fill:#cccccc;fill-opacity:1;fill-rule:nonzero;stroke:#000000;stroke-width:1.18286312;stroke-linecap:round;stroke-linejoin:round;stroke-miterlimit:4;stroke-opacity:1;stroke-dasharray:none"
       d="m 59.203,18.307299 c -2.711,0 -4.918,0.648243 -5.246,1.472305 l -0.035,0 0,0.101489 c -0.008,0.03574 -0.035,0.0629 -0.035,0.102204 0,0.03859 0.023,0.08148 0.035,0.124359 l 0,5.722691 10.562,0 0,-5.722691 c 0.008,-0.04288 0.036,-0.08576 0.036,-0.124359 0,-0.03931 -0.028,-0.06647 -0.036,-0.102204 l 0,-0.101489 -0.035,0 c -0.328,-0.824062 -2.535,-1.472305 -5.246,-1.472305 z" /><path
       inkscape:connector-curvature="0"
       id="path172"
       style="fill:#cccccc;fill-opacity:1;fill-rule:evenodd;stroke:#000000;stroke-width:1.13464546;stroke-linecap:round;stroke-linejoin:round;stroke-miterlimit:4;stroke-opacity:1;stroke-dasharray:none"
       d="m 64.523,25.869237 c 0,-0.925745 -2.382,-1.675574 -5.32,-1.675574 -2.937,0 -5.32,0.749829 -5.32,1.675574 0,0.92654 2.383,1.676369 5.32,1.676369 2.938,0 5.32,-0.749829 5.32,-1.676369 z" /><path
       inkscape:connector-curvature="0"
       id="path176"
       style="fill:#cccccc;fill-opacity:1;fill-rule:nonzero;stroke:#000000;stroke-width:1.18286312;stroke-linecap:round;stroke-linejoin:round;stroke-miterlimit:4;stroke-opacity:1;stroke-dasharray:none"
       d="m 97.148,18.307299 c -2.71,0 -4.918,0.648243 -5.246,1.472305 l -0.035,0 0,0.101489 c -0.008,0.03574 -0.035,0.0629 -0.035,0.102204 0,0.03859 0.023,0.08148 0.035,0.124359 l 0,5.722691 10.563,0 0,-5.722691 c 0.008,-0.04288 0.035,-0.08576 0.035,-0.124359 0,-0.03931 -0.027,-0.06647 -0.035,-0.102204 l 0,-0.101489 -0.035,0 c -0.329,-0.824062 -2.54,-1.472305 -5.247,-1.472305 z" /><path
       inkscape:connector-curvature="0"
       id="path180"
       style="fill:#cccccc;fill-opacity:1;fill-rule:evenodd;stroke:#000000;stroke-width:1.13464546;stroke-linecap:round;stroke-linejoin:round;stroke-miterlimit:4;stroke-opacity:1;stroke-dasharray:none"
       d="m 102.469,25.869237 c 0,-0.925745 -2.383,-1.675574 -5.321,-1.675574 -2.937,0 -5.32,0.749829 -5.32,1.675574 0,0.92654 2.383,1.676369 5.32,1.676369 2.938,0 5.321,-0.749829 5.321,-1.676369 z" /><path
       inkscape:connector-curvature="0"
       id="path184"
       style="fill:#ffaaaa;fill-opacity:1;fill-rule:nonzero;stroke:#000000;stroke-width:1.18286312;stroke-linecap:round;stroke-linejoin:round;stroke-miterlimit:4;stroke-opacity:1;stroke-dasharray:none"
       d="m 361.25,18.307299 c -2.707,0 -4.914,0.648243 -5.246,1.472305 l -0.035,0 0,0.101489 c -0.008,0.03574 -0.035,0.0629 -0.035,0.102204 0,0.03859 0.027,0.08148 0.035,0.124359 l 0,5.722691 10.562,0 0,-5.722691 c 0.012,-0.04288 0.035,-0.08576 0.035,-0.124359 0,-0.03931 -0.027,-0.06647 -0.035,-0.102204 l 0,-0.101489 -0.031,0 c -0.332,-0.824062 -2.539,-1.472305 -5.25,-1.472305 z" /><path
       inkscape:connector-curvature="0"
       id="path188"
       style="fill:#ffaaaa;fill-opacity:1;fill-rule:evenodd;stroke:#000000;stroke-width:1.13464546;stroke-linecap:round;stroke-linejoin:round;stroke-miterlimit:4;stroke-opacity:1;stroke-dasharray:none"
       d="m 366.57,25.869237 c 0,-0.925745 -2.382,-1.675574 -5.32,-1.675574 -2.938,0 -5.32,0.749829 -5.32,1.675574 0,0.92654 2.382,1.676369 5.32,1.676369 2.938,0 5.32,-0.749829 5.32,-1.676369 z" /><path
       inkscape:connector-curvature="0"
       id="path192"
       style="fill:#ffd5d5;fill-opacity:1;fill-rule:nonzero;stroke:#000000;stroke-width:1.18286312;stroke-linecap:round;stroke-linejoin:round;stroke-miterlimit:4;stroke-opacity:1;stroke-dasharray:none"
       d="m 399.195,18.307299 c -2.711,0 -4.918,0.648243 -5.246,1.472305 l -0.035,0 0,0.101489 c -0.008,0.03574 -0.035,0.0629 -0.035,0.102204 0,0.03859 0.027,0.08148 0.035,0.124359 l 0,5.722691 10.563,0 0,-5.722691 c 0.011,-0.04288 0.035,-0.08576 0.035,-0.124359 0,-0.03931 -0.028,-0.06647 -0.035,-0.102204 l 0,-0.101489 -0.036,0 c -0.328,-0.824062 -2.535,-1.472305 -5.246,-1.472305 z" /><path
       inkscape:connector-curvature="0"
       id="path196"
       style="fill:#ffd5d5;fill-opacity:1;fill-rule:evenodd;stroke:#000000;stroke-width:1.13464546;stroke-linecap:round;stroke-linejoin:round;stroke-miterlimit:4;stroke-opacity:1;stroke-dasharray:none"
       d="m 404.516,25.869237 c 0,-0.925745 -2.383,-1.675574 -5.321,-1.675574 -2.937,0 -5.32,0.749829 -5.32,1.675574 0,0.92654 2.383,1.676369 5.32,1.676369 2.938,0 5.321,-0.749829 5.321,-1.676369 z" /><text
       y="-187.77168"
       x="8.2516785"
       transform="scale(1,-1)"
       id="text198"><tspan
         style="font-size:16px;font-variant:normal;font-weight:normal;writing-mode:lr-tb;fill:#ff6600;fill-opacity:1;fill-rule:nonzero;stroke:none;font-family:DejaVuSansBold;-inkscape-font-specification:DejaVuSansBold"
         x="8.2516785 19.371677 25.435678 31.003679 44.395679 55.323677 67.643677 85.291679 91.259682"
         y="-187.77168"
         sodipodi:role="line"
         id="tspan200">1. HERWIG</tspan></text>
<text
       y="-104.29964"
       x="202.17702"
       transform="scale(1,-1)"
       id="text202"><tspan
         style="font-size:16px;font-variant:normal;font-weight:normal;writing-mode:lr-tb;fill:#0000ff;fill-opacity:1;fill-rule:nonzero;stroke:none;font-family:DejaVuSansBold;-inkscape-font-specification:DejaVuSansBold"
         x="202.17702 213.29701 219.36101 224.92902 237.29701 243.24901 255.56902 266.49701"
         y="-104.29964"
         sodipodi:role="line"
         id="tspan204">2. AIRES</tspan></text>
<text
       y="-0.226568"
       x="203.45515"
       transform="scale(1,-1)"
       id="text206"><tspan
         style="font-size:16px;font-variant:normal;font-weight:normal;writing-mode:lr-tb;fill:#ff0000;fill-opacity:1;fill-rule:nonzero;stroke:none;font-family:DejaVuSansBold;-inkscape-font-specification:DejaVuSansBold"
         x="203.45515 214.57516 220.63916 226.20715 239.80716 250.73515 261.66315 271.85516 277.82315 291.21515"
         y="-0.226568"
         sodipodi:role="line"
         id="tspan208">3. OFFLINE</tspan></text>
<g
       id="g3390"
       transform="matrix(1,0,0,-1,23.294238,421.58483)"><g
         word-spacing="normal"
         letter-spacing="normal"
         font-size-adjust="none"
         font-stretch="normal"
         font-weight="normal"
         font-variant="normal"
         font-style="normal"
         stroke-miterlimit="10.433"
         xml:space="preserve"
         transform="matrix(0.383884,0,0,-0.383884,-67.1797,385.98009)"
         id="content"
         style="font-style:normal;font-variant:normal;font-weight:normal;font-stretch:normal;letter-spacing:normal;word-spacing:normal;text-anchor:start;fill:none;stroke:#000000;stroke-linecap:butt;stroke-linejoin:miter;stroke-miterlimit:10.43299961;stroke-opacity:1;stroke-dasharray:none;stroke-dashoffset:0"><path
           id="path3393"
           d="m 466.68,427.67 0,0 0,0 0,0.01 0,0.01 -0.01,0.01 0,0.02 0,0.02 0,0.01 0,0.02 -0.01,0.02 0,0.03 -0.01,0.02 -0.01,0.02 -0.01,0.03 -0.01,0.02 -0.01,0.02 -0.01,0.03 -0.02,0.02 -0.02,0.03 -0.02,0.02 -0.02,0.02 -0.01,0.02 -0.02,0.01 -0.01,0.01 -0.01,0.01 -0.02,0.01 -0.01,0.01 -0.02,0.01 -0.01,0.01 -0.02,0 -0.02,0.01 -0.02,0.01 -0.02,0.01 -0.02,0.01 -0.02,0 -0.02,0.01 -0.02,0 -0.03,0.01 -0.02,0 -0.03,0.01 -0.02,0 -0.03,0 -0.03,0 -0.03,0 -0.02,0 c -1.16,0 -4.79,-0.39 -6.08,-0.5 -0.41,-0.04 -0.96,-0.09 -0.96,-0.98 0,-0.61 0.46,-0.61 1.21,-0.61 2.39,0 2.48,-0.34 2.48,-0.84 0,-0.35 -0.59,-2.69 -0.94,-4.03 l -3.04,-12.21 c -0.21,-0.75 -0.55,-2.14 -0.55,-2.25 0,-0.54 0.5,-0.59 0.8,-0.59 h 0.7 c 3.48,0.59 8.91,2.55 14.05,7.33 6.58,6.12 7.92,12.9 7.92,13.34 0,0.84 -0.59,1.34 -1.45,1.34 -0.39,0 -1.55,-0.18 -1.94,-1.64 -3.19,-11.31 -10.77,-16.89 -16.44,-18.73 z"
           inkscape:connector-curvature="0"
           style="fill:#000000;stroke-width:0" /><path
           id="path3395"
           d="m 488.79,402.45 -0.03,-0.11 -0.04,-0.12 -0.04,-0.12 -0.05,-0.12 -0.06,-0.12 -0.05,-0.13 -0.07,-0.13 -0.06,-0.12 -0.08,-0.13 -0.07,-0.13 -0.08,-0.13 -0.09,-0.12 -0.08,-0.13 -0.1,-0.12 -0.1,-0.12 -0.1,-0.12 -0.1,-0.12 -0.11,-0.11 -0.12,-0.1 -0.11,-0.1 -0.13,-0.1 -0.12,-0.09 -0.13,-0.08 -0.14,-0.08 -0.13,-0.07 -0.15,-0.06 -0.14,-0.05 -0.15,-0.05 -0.15,-0.04 -0.16,-0.02 -0.16,-0.02 -0.16,0 c -0.11,0 -1.16,0 -1.89,0.48 1.43,0.45 1.53,1.72 1.53,1.92 0,0.77 -0.6,1.3 -1.39,1.3 -0.97,0 -1.99,-0.84 -1.99,-2.14 0,-1.74 1.96,-2.53 3.66,-2.53 1.61,0 3.03,1 3.91,2.47 0.82,-1.85 2.75,-2.47 4.14,-2.47 4.01,0 6.14,4.34 6.14,5.33 0,0.45 -0.46,0.45 -0.57,0.45 -0.48,0 -0.51,-0.17 -0.65,-0.59 -0.74,-2.41 -2.83,-4.22 -4.78,-4.22 -1.39,0 -2.13,0.93 -2.13,2.26 0,0.91 0.85,4.08 1.81,7.96 0.71,2.67 2.27,3.54 3.43,3.54 0.06,0 1.14,0 1.87,-0.48 -1.11,-0.31 -1.53,-1.3 -1.53,-1.92 0,-0.77 0.59,-1.29 1.39,-1.29 0.81,0 1.95,0.66 1.95,2.13 0,1.95 -2.23,2.53 -3.62,2.53 -1.74,0 -3.14,-1.14 -3.91,-2.47 -0.62,1.44 -2.22,2.47 -4.17,2.47 -3.91,0 -6.14,-4.28 -6.14,-5.33 0,-0.45 0.5,-0.45 0.59,-0.45 0.46,0 0.49,0.14 0.68,0.59 0.85,2.72 3.06,4.22 4.76,4.22 1.16,0 2.09,-0.62 2.09,-2.29 0,-0.71 -0.42,-2.44 -0.73,-3.63 z"
           inkscape:connector-curvature="0"
           style="fill:#000000;stroke-width:0" /></g></g></g></svg>