<?xml version="1.0" encoding="UTF-8" standalone="no"?>
<!-- Created with Inkscape (http://www.inkscape.org/) -->

<svg
   xmlns:dc="http://purl.org/dc/elements/1.1/"
   xmlns:cc="http://creativecommons.org/ns#"
   xmlns:rdf="http://www.w3.org/1999/02/22-rdf-syntax-ns#"
   xmlns:svg="http://www.w3.org/2000/svg"
   xmlns="http://www.w3.org/2000/svg"
   xmlns:sodipodi="http://sodipodi.sourceforge.net/DTD/sodipodi-0.dtd"
   xmlns:inkscape="http://www.inkscape.org/namespaces/inkscape"
   id="svg2"
   version="1.1"
   inkscape:version="0.48.4 r9939"
   width="3585.1953"
   height="1479.8047"
   xml:space="preserve"
   sodipodi:docname="topografia.pdf"><metadata
     id="metadata8"><rdf:RDF><cc:Work
         rdf:about=""><dc:format>image/svg+xml</dc:format><dc:type
           rdf:resource="http://purl.org/dc/dcmitype/StillImage" /><dc:title></dc:title></cc:Work></rdf:RDF></metadata><defs
     id="defs6" /><sodipodi:namedview
     pagecolor="#ffffff"
     bordercolor="#666666"
     borderopacity="1"
     objecttolerance="10"
     gridtolerance="10"
     guidetolerance="10"
     inkscape:pageopacity="0"
     inkscape:pageshadow="2"
     inkscape:window-width="1280"
     inkscape:window-height="724"
     id="namedview4"
     showgrid="false"
     inkscape:zoom="0.13655097"
     inkscape:cx="4133.6356"
     inkscape:cy="1386.0758"
     inkscape:window-x="0"
     inkscape:window-y="24"
     inkscape:window-maximized="1"
     inkscape:current-layer="g10"
     fit-margin-top="0"
     fit-margin-left="0"
     fit-margin-right="0"
     fit-margin-bottom="0" /><g
     id="g10"
     inkscape:groupmode="layer"
     inkscape:label="topografia"
     transform="matrix(1.25,0,0,-1.25,-5149.7656,-2639.8828)"><g
       id="g5015"><path
         d="m 4758.5834,-2483.2558 c 0,-29.324 -23.77,-53.094 -53.09,-53.094 -29.324,0 -53.094,23.77 -53.094,53.094 0,29.32 23.77,53.09 53.094,53.09 29.32,0 53.09,-23.77 53.09,-53.09 z"
         style="fill:#ffffff;fill-opacity:1;fill-rule:nonzero;stroke:#000000;stroke-width:8.18719769;stroke-linecap:round;stroke-linejoin:round;stroke-miterlimit:4;stroke-opacity:1;stroke-dasharray:none"
         id="path312"
         inkscape:connector-curvature="0" /><path
         d="m 4758.5834,-2728.8728 c 0,-29.32 -23.77,-53.09 -53.09,-53.09 -29.324,0 -53.094,23.77 -53.094,53.09 0,29.32 23.77,53.09 53.094,53.09 29.32,0 53.09,-23.77 53.09,-53.09 z"
         style="fill:#ffffff;fill-opacity:1;fill-rule:nonzero;stroke:#000000;stroke-width:8.18719769;stroke-linecap:round;stroke-linejoin:round;stroke-miterlimit:4;stroke-opacity:1;stroke-dasharray:none"
         id="path314"
         inkscape:connector-curvature="0" /><path
         d="m 4758.5834,-2974.4898 c 0,-29.321 -23.77,-53.09 -53.09,-53.09 -29.324,0 -53.094,23.769 -53.094,53.09 0,29.324 23.77,53.093 53.094,53.093 29.32,0 53.09,-23.769 53.09,-53.093 z"
         style="fill:#ffffff;fill-opacity:1;fill-rule:nonzero;stroke:#000000;stroke-width:8.18719769;stroke-linecap:round;stroke-linejoin:round;stroke-miterlimit:4;stroke-opacity:1;stroke-dasharray:none"
         id="path316"
         inkscape:connector-curvature="0" /><path
         d="m 6371.7114,-2974.4898 c 0,29.324 23.77,53.093 53.094,53.093 29.321,0 53.09,-23.769 53.09,-53.093 0,-29.321 -23.769,-53.09 -53.09,-53.09 -29.324,0 -53.094,23.769 -53.094,53.09 z"
         style="fill:#ffffff;fill-opacity:1;fill-rule:nonzero;stroke:#000000;stroke-width:8.18719769;stroke-linecap:round;stroke-linejoin:round;stroke-miterlimit:4;stroke-opacity:1;stroke-dasharray:none"
         id="path318"
         inkscape:connector-curvature="0" /><path
         d="m 6371.7114,-2728.8728 c 0,29.32 23.77,53.09 53.094,53.09 29.321,0 53.09,-23.77 53.09,-53.09 0,-29.32 -23.769,-53.09 -53.09,-53.09 -29.324,0 -53.094,23.77 -53.094,53.09 z"
         style="fill:#ffffff;fill-opacity:1;fill-rule:nonzero;stroke:#000000;stroke-width:8.18719769;stroke-linecap:round;stroke-linejoin:round;stroke-miterlimit:4;stroke-opacity:1;stroke-dasharray:none"
         id="path320"
         inkscape:connector-curvature="0" /><path
         d="m 6371.7114,-2483.2558 c 0,29.32 23.77,53.09 53.094,53.09 29.321,0 53.09,-23.77 53.09,-53.09 0,-29.324 -23.769,-53.094 -53.09,-53.094 -29.324,0 -53.094,23.77 -53.094,53.094 z"
         style="fill:#ffffff;fill-opacity:1;fill-rule:nonzero;stroke:#000000;stroke-width:8.18719769;stroke-linecap:round;stroke-linejoin:round;stroke-miterlimit:4;stroke-opacity:1;stroke-dasharray:none"
         id="path322"
         inkscape:connector-curvature="0" /><path
         inkscape:connector-curvature="0"
         id="path326"
         style="fill:#ffffff;fill-opacity:1;fill-rule:nonzero;stroke:#000000;stroke-width:8.18719769;stroke-linecap:round;stroke-linejoin:round;stroke-miterlimit:4;stroke-opacity:1;stroke-dasharray:none"
         d="m 6670.4194,-2781.9628 c -29.321,0 -53.09,23.77 -53.09,53.09 0,29.32 23.769,53.09 53.09,53.09 29.324,0 53.093,-23.77 53.093,-53.09 0,-29.32 -23.769,-53.09 -53.093,-53.09 z" /><path
         inkscape:connector-curvature="0"
         id="path330"
         style="fill:#ffffff;fill-opacity:1;fill-rule:nonzero;stroke:#000000;stroke-width:8.18719769;stroke-linecap:round;stroke-linejoin:round;stroke-miterlimit:4;stroke-opacity:1;stroke-dasharray:none"
         d="m 6179.1884,-2781.9628 c -29.324,0 -53.094,23.77 -53.094,53.09 0,29.32 23.77,53.09 53.094,53.09 29.32,0 53.09,-23.77 53.09,-53.09 0,-29.32 -23.77,-53.09 -53.09,-53.09 z" /><path
         inkscape:connector-curvature="0"
         id="path334"
         style="fill:#ffffff;fill-opacity:1;fill-rule:nonzero;stroke:#000000;stroke-width:8.18719769;stroke-linecap:round;stroke-linejoin:round;stroke-miterlimit:4;stroke-opacity:1;stroke-dasharray:none"
         d="m 5933.5714,-2781.9628 c -29.32,0 -53.09,23.77 -53.09,53.09 0,29.32 23.77,53.09 53.09,53.09 29.32,0 53.094,-23.77 53.094,-53.09 0,-29.32 -23.774,-53.09 -53.094,-53.09 z" /><path
         inkscape:connector-curvature="0"
         id="path338"
         style="fill:#ffffff;fill-opacity:1;fill-rule:nonzero;stroke:#000000;stroke-width:8.18719769;stroke-linecap:round;stroke-linejoin:round;stroke-miterlimit:4;stroke-opacity:1;stroke-dasharray:none"
         d="m 5687.9544,-2781.9628 c -29.321,0 -53.09,23.77 -53.09,53.09 0,29.32 23.769,53.09 53.09,53.09 29.324,0 53.093,-23.77 53.093,-53.09 0,-29.32 -23.769,-53.09 -53.093,-53.09 z" /><path
         inkscape:connector-curvature="0"
         id="path342"
         style="fill:#ffffff;fill-opacity:1;fill-rule:nonzero;stroke:#000000;stroke-width:8.18719769;stroke-linecap:round;stroke-linejoin:round;stroke-miterlimit:4;stroke-opacity:1;stroke-dasharray:none"
         d="m 5442.3404,-2781.9628 c -29.324,0 -53.093,23.77 -53.093,53.09 0,29.32 23.769,53.09 53.093,53.09 29.321,0 53.09,-23.77 53.09,-53.09 0,-29.32 -23.769,-53.09 -53.09,-53.09 z" /><path
         inkscape:connector-curvature="0"
         id="path346"
         style="fill:#ffffff;fill-opacity:1;fill-rule:nonzero;stroke:#000000;stroke-width:8.18719769;stroke-linecap:round;stroke-linejoin:round;stroke-miterlimit:4;stroke-opacity:1;stroke-dasharray:none"
         d="m 5196.7234,-2781.9628 c -29.32,0 -53.09,23.77 -53.09,53.09 0,29.32 23.77,53.09 53.09,53.09 29.321,0 53.094,-23.77 53.094,-53.09 0,-29.32 -23.773,-53.09 -53.094,-53.09 z" /><path
         inkscape:connector-curvature="0"
         id="path350"
         style="fill:#ffffff;fill-opacity:1;fill-rule:nonzero;stroke:#000000;stroke-width:8.18719769;stroke-linecap:round;stroke-linejoin:round;stroke-miterlimit:4;stroke-opacity:1;stroke-dasharray:none"
         d="m 4951.1064,-2781.9628 c -29.32,0 -53.09,23.77 -53.09,53.09 0,29.32 23.77,53.09 53.09,53.09 29.324,0 53.094,-23.77 53.094,-53.09 0,-29.32 -23.77,-53.09 -53.094,-53.09 z" /><path
         inkscape:connector-curvature="0"
         id="path354"
         style="fill:#ffffff;fill-opacity:1;fill-rule:nonzero;stroke:#000000;stroke-width:8.18719769;stroke-linecap:round;stroke-linejoin:round;stroke-miterlimit:4;stroke-opacity:1;stroke-dasharray:none"
         d="m 4459.8764,-2781.9628 c -29.321,0 -53.09,23.77 -53.09,53.09 0,29.32 23.769,53.09 53.09,53.09 29.32,0 53.089,-23.77 53.089,-53.09 0,-29.32 -23.769,-53.09 -53.089,-53.09 z" /><path
         d="m 5196.7234,-2728.8728 0,-289.914"
         style="fill:none;stroke:#000000;stroke-width:6.86675119;stroke-linecap:butt;stroke-linejoin:miter;stroke-miterlimit:4;stroke-opacity:1;stroke-dasharray:none"
         id="path356"
         inkscape:connector-curvature="0" /><path
         d="m 5220.1184,-2728.8728 c 0,-12.918 -10.477,-23.391 -23.395,-23.391 -12.918,0 -23.39,10.473 -23.39,23.391 0,12.918 10.472,23.39 23.39,23.39 12.918,0 23.395,-10.472 23.395,-23.39 z"
         style="fill:#ffffff;fill-opacity:1;fill-rule:nonzero;stroke:#000000;stroke-width:3.60732293;stroke-linecap:round;stroke-linejoin:round;stroke-miterlimit:4;stroke-opacity:1;stroke-dasharray:none"
         id="path358"
         inkscape:connector-curvature="0" /><path
         d="m 5239.7084,-2974.8768 -331.118,0"
         style="fill:none;stroke:#000000;stroke-width:6.86675119;stroke-linecap:butt;stroke-linejoin:miter;stroke-miterlimit:4;stroke-opacity:1;stroke-dasharray:none"
         id="path360"
         inkscape:connector-curvature="0" /><path
         d="m 4951.1064,-2728.8728 0,-289.914"
         style="fill:none;stroke:#000000;stroke-width:6.86675119;stroke-linecap:butt;stroke-linejoin:miter;stroke-miterlimit:4;stroke-opacity:1;stroke-dasharray:none"
         id="path362"
         inkscape:connector-curvature="0" /><path
         d="m 4974.5014,-2728.8728 c 0,-12.918 -10.473,-23.391 -23.395,-23.391 -12.918,0 -23.391,10.473 -23.391,23.391 0,12.918 10.473,23.39 23.391,23.39 12.922,0 23.395,-10.472 23.395,-23.39 z"
         style="fill:#ffffff;fill-opacity:1;fill-rule:nonzero;stroke:#000000;stroke-width:3.60732293;stroke-linecap:round;stroke-linejoin:round;stroke-miterlimit:4;stroke-opacity:1;stroke-dasharray:none"
         id="path364"
         inkscape:connector-curvature="0" /><path
         d="m 4972.4774,-2953.6228 -41.707,-41.711"
         style="fill:#ffffff;fill-opacity:1;fill-rule:nonzero;stroke:#000000;stroke-width:6.86675119;stroke-linecap:butt;stroke-linejoin:miter;stroke-miterlimit:4;stroke-opacity:1;stroke-dasharray:none"
         id="path366"
         inkscape:connector-curvature="0" /><path
         d="m 5217.4544,-2954.1468 -41.707,-41.711"
         style="fill:#ffffff;fill-opacity:1;fill-rule:nonzero;stroke:#000000;stroke-width:6.86675119;stroke-linecap:butt;stroke-linejoin:miter;stroke-miterlimit:4;stroke-opacity:1;stroke-dasharray:none"
         id="path368"
         inkscape:connector-curvature="0" /><path
         d="m 4728.8834,-2483.2558 c 0,-12.922 -10.472,-23.395 -23.39,-23.395 -12.922,0 -23.395,10.473 -23.395,23.395 0,12.918 10.473,23.391 23.395,23.391 12.918,0 23.39,-10.473 23.39,-23.391 z"
         style="fill:#ffffff;fill-opacity:1;fill-rule:nonzero;stroke:#000000;stroke-width:3.60732293;stroke-linecap:round;stroke-linejoin:round;stroke-miterlimit:4;stroke-opacity:1;stroke-dasharray:none"
         id="path370"
         inkscape:connector-curvature="0" /><path
         d="m 6448.1964,-2483.2558 c 0,-12.922 -10.473,-23.395 -23.391,-23.395 -12.922,0 -23.394,10.473 -23.394,23.395 0,12.918 10.472,23.391 23.394,23.391 12.918,0 23.391,-10.473 23.391,-23.391 z"
         style="fill:#ffffff;fill-opacity:1;fill-rule:nonzero;stroke:#000000;stroke-width:3.60732293;stroke-linecap:round;stroke-linejoin:round;stroke-miterlimit:4;stroke-opacity:1;stroke-dasharray:none"
         id="path372"
         inkscape:connector-curvature="0" /><path
         d="m 4761.8334,-2426.9198 -112.68,-112.676"
         style="fill:#ffffff;fill-opacity:1;fill-rule:nonzero;stroke:#000000;stroke-width:6.86675119;stroke-linecap:butt;stroke-linejoin:miter;stroke-miterlimit:4;stroke-opacity:1;stroke-dasharray:none"
         id="path374"
         inkscape:connector-curvature="0" /><path
         d="m 6481.1414,-2426.9198 -112.676,-112.676"
         style="fill:#ffffff;fill-opacity:1;fill-rule:nonzero;stroke:#000000;stroke-width:6.86675119;stroke-linecap:butt;stroke-linejoin:miter;stroke-miterlimit:4;stroke-opacity:1;stroke-dasharray:none"
         id="path376"
         inkscape:connector-curvature="0" /><path
         d="m 4705.4934,-2483.2558 1719.312,0"
         style="fill:none;stroke:#000000;stroke-width:6.86675119;stroke-linecap:butt;stroke-linejoin:miter;stroke-miterlimit:4;stroke-opacity:1;stroke-dasharray:none"
         id="path378"
         inkscape:connector-curvature="0" /><path
         d="m 5108.9154,-2848.0528 0,0.266 -0.028,0.058 0,0.059 -0.031,0.059 0,0.058 -0.027,0.059 -0.032,0.09 -0.027,0.058 -0.031,0.086 -0.059,0.059 -0.027,0.09 -0.063,0.058 -0.058,0.059 -0.059,0.086 -0.058,0.031 -0.059,0.059 -0.059,0.027 -0.027,0.031 -0.059,0.027 -0.031,0.032 -0.058,0.027 -0.028,0.031 -0.058,0.028 -0.059,0 -0.058,0.031 -0.059,0.027 -0.059,0 -0.058,0.031 -0.09,0.032 -0.117,0 -0.086,0.027 -0.149,0 -0.086,0.031 -0.179,0 c -2.199,0 -16.075,-1.351 -18.571,-1.617 -1.171,-0.144 -2.05,-0.879 -2.05,-2.785 0,-1.762 1.32,-1.762 3.519,-1.762 7.012,0 7.305,-0.996 7.305,-2.465 l -0.41,-2.933 -8.801,-34.649 c -2.613,5.399 -6.895,9.332 -13.438,9.332 l 0.145,-3.199 c 9.476,0 11.531,-11.969 11.531,-12.82 0,-0.938 -0.265,-1.789 -0.41,-2.524 l -7.336,-28.664 c -0.734,-2.609 -0.734,-2.875 -2.933,-5.394 -6.395,-8.039 -12.411,-10.36 -16.489,-10.36 -7.304,0 -9.359,8.012 -9.359,13.731 0,7.305 4.668,25.262 8.039,32.008 4.519,8.625 11.121,14.023 16.957,14.023 l -0.145,3.199 c -17.105,0 -35.207,-21.445 -35.207,-42.804 0,-13.758 8.012,-23.383 19.422,-23.383 2.906,0 10.239,0.617 18.981,10.973 1.203,-6.161 6.281,-10.973 13.293,-10.973 5.132,0 8.508,3.344 10.824,8.039 2.492,5.25 4.402,14.199 4.402,14.465 0,1.465 -1.32,1.465 -1.73,1.465 -1.469,0 -1.617,-0.586 -2.055,-2.641 -2.496,-9.504 -5.137,-18.102 -11.121,-18.102 -3.93,0 -4.398,3.786 -4.398,6.719 0,3.492 0.293,4.547 0.878,7.012 l 21.036,84.492 z"
         style="fill:#ffffff;fill-opacity:1;fill-rule:nonzero;stroke:none"
         id="path380"
         inkscape:connector-curvature="0" /><path
         d="m 5526.6844,-2439.3608 -0.117,-0.528 -0.145,-0.5 -0.117,-0.469 -0.148,-0.441 -0.117,-0.441 -0.145,-0.379 -0.117,-0.383 -0.149,-0.352 -0.175,-0.324 -0.176,-0.32 -0.176,-0.293 -0.207,-0.266 -0.234,-0.261 -0.262,-0.208 -0.266,-0.234 -0.324,-0.176 -0.32,-0.207 -0.352,-0.144 -0.414,-0.149 -0.437,-0.144 -0.469,-0.117 -0.266,-0.059 -0.234,-0.031 -0.586,-0.117 -0.293,-0.032 -0.293,-0.027 -0.324,-0.031 -0.324,-0.059 -0.352,-0.027 -0.351,-0.031 -0.383,0 -0.379,-0.028 -0.383,-0.031 -0.441,0 -0.411,-0.027 -0.437,0 -0.473,-0.032 -2.492,0 c -2.465,0 -4.078,0 -4.078,-2.816 0,-1.731 1.293,-1.731 4.078,-1.731 l 48.348,0 -2.61,4.547 -16.488,0 c -2.055,0 -2.348,0 -3.258,0.118 -1.406,0.148 -1.875,0.296 -1.875,1.468 0,0.41 0,0.735 0.731,3.344 l 20.039,80.27 c 1.262,5.105 1.586,5.543 7.863,5.543 l 15.637,0 c 14.347,0 26.465,-7.743 26.465,-27.047 0,-7.129 -2.934,-31.098 -15.375,-47.207 -4.196,-5.399 -15.754,-16.489 -33.739,-16.489 l 2.61,-4.547 c 30.394,0 59.234,30.836 59.234,62.844 0,20.625 -12.41,36.992 -34.383,36.992 l -49.082,0 c -2.789,0 -4.402,0 -4.402,-2.785 0,-1.761 1.32,-1.761 4.254,-1.761 1.879,0 4.547,-0.118 6.277,-0.262 2.348,-0.324 3.231,-0.735 3.231,-2.348 0,-0.586 -0.149,-1.055 -0.618,-2.789 l -19.57,-78.476 z"
         style="fill:#ffffff;fill-opacity:1;fill-rule:nonzero;stroke:none"
         id="path392"
         inkscape:connector-curvature="0" /><path
         sodipodi:nodetypes="ccccc"
         d="m 4125.8166,-2117.9181 2856.1601,0 0,-1171.8245 -2856.1601,0 z"
         style="fill:#ffffff;fill-opacity:1;fill-rule:nonzero;stroke:#000000;stroke-width:12;stroke-linecap:round;stroke-linejoin:round;stroke-miterlimit:4;stroke-opacity:1;stroke-dasharray:none"
         id="path398"
         inkscape:connector-curvature="0" /><path
         d="m 4758.5834,-2483.2558 c 0,-29.324 -23.77,-53.094 -53.09,-53.094 -29.324,0 -53.094,23.77 -53.094,53.094 0,29.32 23.77,53.09 53.094,53.09 29.32,0 53.09,-23.77 53.09,-53.09 z"
         style="fill:#ff0000;fill-opacity:1;fill-rule:nonzero;stroke:#000000;stroke-width:8.18719769;stroke-linecap:round;stroke-linejoin:round;stroke-miterlimit:4;stroke-opacity:1;stroke-dasharray:none"
         id="path698"
         inkscape:connector-curvature="0" /><path
         d="m 4758.5834,-2728.8728 c 0,-29.32 -23.77,-53.09 -53.09,-53.09 -29.324,0 -53.094,23.77 -53.094,53.09 0,29.32 23.77,53.09 53.094,53.09 29.32,0 53.09,-23.77 53.09,-53.09 z"
         style="fill:#ff0000;fill-opacity:1;fill-rule:nonzero;stroke:#000000;stroke-width:8.18719769;stroke-linecap:round;stroke-linejoin:round;stroke-miterlimit:4;stroke-opacity:1;stroke-dasharray:none"
         id="path700"
         inkscape:connector-curvature="0" /><path
         d="m 4758.5834,-2974.4898 c 0,-29.321 -23.77,-53.09 -53.09,-53.09 -29.324,0 -53.094,23.769 -53.094,53.09 0,29.324 23.77,53.093 53.094,53.093 29.32,0 53.09,-23.769 53.09,-53.093 z"
         style="fill:#ff0000;fill-opacity:1;fill-rule:nonzero;stroke:#000000;stroke-width:8.18719769;stroke-linecap:round;stroke-linejoin:round;stroke-miterlimit:4;stroke-opacity:1;stroke-dasharray:none"
         id="path702"
         inkscape:connector-curvature="0" /><path
         d="m 6371.7114,-2974.4898 c 0,29.324 23.77,53.093 53.094,53.093 29.321,0 53.09,-23.769 53.09,-53.093 0,-29.321 -23.769,-53.09 -53.09,-53.09 -29.324,0 -53.094,23.769 -53.094,53.09 z"
         style="fill:#ff0000;fill-opacity:1;fill-rule:nonzero;stroke:#000000;stroke-width:8.18719769;stroke-linecap:round;stroke-linejoin:round;stroke-miterlimit:4;stroke-opacity:1;stroke-dasharray:none"
         id="path704"
         inkscape:connector-curvature="0" /><path
         d="m 6371.7114,-2728.8728 c 0,29.32 23.77,53.09 53.094,53.09 29.321,0 53.09,-23.77 53.09,-53.09 0,-29.32 -23.769,-53.09 -53.09,-53.09 -29.324,0 -53.094,23.77 -53.094,53.09 z"
         style="fill:#ff0000;fill-opacity:1;fill-rule:nonzero;stroke:#000000;stroke-width:8.18719769;stroke-linecap:round;stroke-linejoin:round;stroke-miterlimit:4;stroke-opacity:1;stroke-dasharray:none"
         id="path706"
         inkscape:connector-curvature="0" /><path
         d="m 6371.7114,-2483.2558 c 0,29.32 23.77,53.09 53.094,53.09 29.321,0 53.09,-23.77 53.09,-53.09 0,-29.324 -23.769,-53.094 -53.09,-53.094 -29.324,0 -53.094,23.77 -53.094,53.094 z"
         style="fill:#ff0000;fill-opacity:1;fill-rule:nonzero;stroke:#000000;stroke-width:8.18719769;stroke-linecap:round;stroke-linejoin:round;stroke-miterlimit:4;stroke-opacity:1;stroke-dasharray:none"
         id="path708"
         inkscape:connector-curvature="0" /><path
         inkscape:connector-curvature="0"
         id="path712"
         style="fill:#ff0000;fill-opacity:1;fill-rule:nonzero;stroke:#000000;stroke-width:8.18719769;stroke-linecap:round;stroke-linejoin:round;stroke-miterlimit:4;stroke-opacity:1;stroke-dasharray:none"
         d="m 6670.4194,-2781.9628 c -29.321,0 -53.09,23.77 -53.09,53.09 0,29.32 23.769,53.09 53.09,53.09 29.324,0 53.093,-23.77 53.093,-53.09 0,-29.32 -23.769,-53.09 -53.093,-53.09 z" /><path
         inkscape:connector-curvature="0"
         id="path716"
         style="fill:#ff0000;fill-opacity:1;fill-rule:nonzero;stroke:#000000;stroke-width:8.18719769;stroke-linecap:round;stroke-linejoin:round;stroke-miterlimit:4;stroke-opacity:1;stroke-dasharray:none"
         d="m 6179.1884,-2781.9628 c -29.324,0 -53.094,23.77 -53.094,53.09 0,29.32 23.77,53.09 53.094,53.09 29.32,0 53.09,-23.77 53.09,-53.09 0,-29.32 -23.77,-53.09 -53.09,-53.09 z" /><path
         inkscape:connector-curvature="0"
         id="path720"
         style="fill:#ff0000;fill-opacity:1;fill-rule:nonzero;stroke:#000000;stroke-width:8.18719769;stroke-linecap:round;stroke-linejoin:round;stroke-miterlimit:4;stroke-opacity:1;stroke-dasharray:none"
         d="m 5933.5714,-2781.9628 c -29.32,0 -53.09,23.77 -53.09,53.09 0,29.32 23.77,53.09 53.09,53.09 29.32,0 53.094,-23.77 53.094,-53.09 0,-29.32 -23.774,-53.09 -53.094,-53.09 z" /><path
         inkscape:connector-curvature="0"
         id="path724"
         style="fill:#ff0000;fill-opacity:1;fill-rule:nonzero;stroke:#000000;stroke-width:8.18719769;stroke-linecap:round;stroke-linejoin:round;stroke-miterlimit:4;stroke-opacity:1;stroke-dasharray:none"
         d="m 5687.9544,-2781.9628 c -29.321,0 -53.09,23.77 -53.09,53.09 0,29.32 23.769,53.09 53.09,53.09 29.324,0 53.093,-23.77 53.093,-53.09 0,-29.32 -23.769,-53.09 -53.093,-53.09 z" /><path
         inkscape:connector-curvature="0"
         id="path728"
         style="fill:#ff0000;fill-opacity:1;fill-rule:nonzero;stroke:#000000;stroke-width:8.18719769;stroke-linecap:round;stroke-linejoin:round;stroke-miterlimit:4;stroke-opacity:1;stroke-dasharray:none"
         d="m 5442.3404,-2781.9628 c -29.324,0 -53.093,23.77 -53.093,53.09 0,29.32 23.769,53.09 53.093,53.09 29.321,0 53.09,-23.77 53.09,-53.09 0,-29.32 -23.769,-53.09 -53.09,-53.09 z" /><path
         inkscape:connector-curvature="0"
         id="path732"
         style="fill:#ff0000;fill-opacity:1;fill-rule:nonzero;stroke:#000000;stroke-width:8.18719769;stroke-linecap:round;stroke-linejoin:round;stroke-miterlimit:4;stroke-opacity:1;stroke-dasharray:none"
         d="m 5196.7234,-2781.9628 c -29.32,0 -53.09,23.77 -53.09,53.09 0,29.32 23.77,53.09 53.09,53.09 29.321,0 53.094,-23.77 53.094,-53.09 0,-29.32 -23.773,-53.09 -53.094,-53.09 z" /><path
         inkscape:connector-curvature="0"
         id="path736"
         style="fill:#ff0000;fill-opacity:1;fill-rule:nonzero;stroke:#000000;stroke-width:8.18719769;stroke-linecap:round;stroke-linejoin:round;stroke-miterlimit:4;stroke-opacity:1;stroke-dasharray:none"
         d="m 4951.1064,-2781.9628 c -29.32,0 -53.09,23.77 -53.09,53.09 0,29.32 23.77,53.09 53.09,53.09 29.324,0 53.094,-23.77 53.094,-53.09 0,-29.32 -23.77,-53.09 -53.094,-53.09 z" /><path
         inkscape:connector-curvature="0"
         id="path740"
         style="fill:#ff0000;fill-opacity:1;fill-rule:nonzero;stroke:#000000;stroke-width:8.18719769;stroke-linecap:round;stroke-linejoin:round;stroke-miterlimit:4;stroke-opacity:1;stroke-dasharray:none"
         d="m 4459.8764,-2781.9628 c -29.321,0 -53.09,23.77 -53.09,53.09 0,29.32 23.769,53.09 53.09,53.09 29.32,0 53.089,-23.77 53.089,-53.09 0,-29.32 -23.769,-53.09 -53.089,-53.09 z" /><path
         d="m 5196.7234,-2728.8728 0,-289.914"
         style="fill:none;stroke:#000000;stroke-width:6.86675119;stroke-linecap:butt;stroke-linejoin:miter;stroke-miterlimit:4;stroke-opacity:1;stroke-dasharray:none"
         id="path742"
         inkscape:connector-curvature="0" /><path
         d="m 5220.1184,-2728.8728 c 0,-12.918 -10.477,-23.391 -23.395,-23.391 -12.918,0 -23.39,10.473 -23.39,23.391 0,12.918 10.472,23.39 23.39,23.39 12.918,0 23.395,-10.472 23.395,-23.39 z"
         style="fill:#000000;fill-opacity:1;fill-rule:nonzero;stroke:#000000;stroke-width:3.60732293;stroke-linecap:round;stroke-linejoin:round;stroke-miterlimit:4;stroke-opacity:1;stroke-dasharray:none"
         id="path744"
         inkscape:connector-curvature="0" /><path
         d="m 5239.7084,-2974.8768 -331.118,0"
         style="fill:none;stroke:#000000;stroke-width:6.86675119;stroke-linecap:butt;stroke-linejoin:miter;stroke-miterlimit:4;stroke-opacity:1;stroke-dasharray:none"
         id="path746"
         inkscape:connector-curvature="0" /><path
         d="m 4951.1064,-2728.8728 0,-289.914"
         style="fill:none;stroke:#000000;stroke-width:6.86675119;stroke-linecap:butt;stroke-linejoin:miter;stroke-miterlimit:4;stroke-opacity:1;stroke-dasharray:none"
         id="path748"
         inkscape:connector-curvature="0" /><path
         d="m 4974.5014,-2728.8728 c 0,-12.918 -10.473,-23.391 -23.395,-23.391 -12.918,0 -23.391,10.473 -23.391,23.391 0,12.918 10.473,23.39 23.391,23.39 12.922,0 23.395,-10.472 23.395,-23.39 z"
         style="fill:#000000;fill-opacity:1;fill-rule:nonzero;stroke:#000000;stroke-width:3.60732293;stroke-linecap:round;stroke-linejoin:round;stroke-miterlimit:4;stroke-opacity:1;stroke-dasharray:none"
         id="path750"
         inkscape:connector-curvature="0" /><path
         d="m 4972.4774,-2953.6228 -41.707,-41.711"
         style="fill:none;stroke:#000000;stroke-width:6.86675119;stroke-linecap:butt;stroke-linejoin:miter;stroke-miterlimit:4;stroke-opacity:1;stroke-dasharray:none"
         id="path752"
         inkscape:connector-curvature="0" /><path
         d="m 5217.4544,-2954.1468 -41.707,-41.711"
         style="fill:none;stroke:#000000;stroke-width:6.86675119;stroke-linecap:butt;stroke-linejoin:miter;stroke-miterlimit:4;stroke-opacity:1;stroke-dasharray:none"
         id="path754"
         inkscape:connector-curvature="0" /><path
         d="m 4728.8834,-2483.2558 c 0,-12.922 -10.472,-23.395 -23.39,-23.395 -12.922,0 -23.395,10.473 -23.395,23.395 0,12.918 10.473,23.391 23.395,23.391 12.918,0 23.39,-10.473 23.39,-23.391 z"
         style="fill:#000000;fill-opacity:1;fill-rule:nonzero;stroke:#000000;stroke-width:3.60732293;stroke-linecap:round;stroke-linejoin:round;stroke-miterlimit:4;stroke-opacity:1;stroke-dasharray:none"
         id="path756"
         inkscape:connector-curvature="0" /><path
         d="m 6448.1964,-2483.2558 c 0,-12.922 -10.473,-23.395 -23.391,-23.395 -12.922,0 -23.394,10.473 -23.394,23.395 0,12.918 10.472,23.391 23.394,23.391 12.918,0 23.391,-10.473 23.391,-23.391 z"
         style="fill:#000000;fill-opacity:1;fill-rule:nonzero;stroke:#000000;stroke-width:3.60732293;stroke-linecap:round;stroke-linejoin:round;stroke-miterlimit:4;stroke-opacity:1;stroke-dasharray:none"
         id="path758"
         inkscape:connector-curvature="0" /><path
         d="m 4761.8334,-2426.9198 -112.68,-112.676"
         style="fill:none;stroke:#000000;stroke-width:6.86675119;stroke-linecap:butt;stroke-linejoin:miter;stroke-miterlimit:4;stroke-opacity:1;stroke-dasharray:none"
         id="path760"
         inkscape:connector-curvature="0" /><path
         d="m 6481.1414,-2426.9198 -112.676,-112.676"
         style="fill:none;stroke:#000000;stroke-width:6.86675119;stroke-linecap:butt;stroke-linejoin:miter;stroke-miterlimit:4;stroke-opacity:1;stroke-dasharray:none"
         id="path762"
         inkscape:connector-curvature="0" /><path
         d="m 4705.4934,-2483.2558 1719.312,0"
         style="fill:none;stroke:#000000;stroke-width:6.86675119;stroke-linecap:butt;stroke-linejoin:miter;stroke-miterlimit:4;stroke-opacity:1;stroke-dasharray:none"
         id="path764"
         inkscape:connector-curvature="0" /><path
         d="m 5108.9154,-2848.0528 0,0.266 -0.028,0.058 0,0.059 -0.031,0.059 0,0.058 -0.027,0.059 -0.032,0.09 -0.027,0.058 -0.031,0.086 -0.059,0.059 -0.027,0.09 -0.063,0.058 -0.058,0.059 -0.059,0.086 -0.058,0.031 -0.059,0.059 -0.059,0.027 -0.027,0.031 -0.059,0.027 -0.031,0.032 -0.058,0.027 -0.028,0.031 -0.058,0.028 -0.059,0 -0.058,0.031 -0.059,0.027 -0.059,0 -0.058,0.031 -0.09,0.032 -0.117,0 -0.086,0.027 -0.149,0 -0.086,0.031 -0.179,0 c -2.199,0 -16.075,-1.351 -18.571,-1.617 -1.171,-0.144 -2.05,-0.879 -2.05,-2.785 0,-1.762 1.32,-1.762 3.519,-1.762 7.012,0 7.305,-0.996 7.305,-2.465 l -0.41,-2.933 -8.801,-34.649 c -2.613,5.399 -6.895,9.332 -13.438,9.332 l 0.145,-3.199 c 9.476,0 11.531,-11.969 11.531,-12.82 0,-0.938 -0.265,-1.789 -0.41,-2.524 l -7.336,-28.664 c -0.734,-2.609 -0.734,-2.875 -2.933,-5.394 -6.395,-8.039 -12.411,-10.36 -16.489,-10.36 -7.304,0 -9.359,8.012 -9.359,13.731 0,7.305 4.668,25.262 8.039,32.008 4.519,8.625 11.121,14.023 16.957,14.023 l -0.145,3.199 c -17.105,0 -35.207,-21.445 -35.207,-42.804 0,-13.758 8.012,-23.383 19.422,-23.383 2.906,0 10.239,0.617 18.981,10.973 1.203,-6.161 6.281,-10.973 13.293,-10.973 5.132,0 8.508,3.344 10.824,8.039 2.492,5.25 4.402,14.199 4.402,14.465 0,1.465 -1.32,1.465 -1.73,1.465 -1.469,0 -1.617,-0.586 -2.055,-2.641 -2.496,-9.504 -5.137,-18.102 -11.121,-18.102 -3.93,0 -4.398,3.786 -4.398,6.719 0,3.492 0.293,4.547 0.878,7.012 l 21.036,84.492 z"
         style="fill:#000000;fill-opacity:1;fill-rule:nonzero;stroke:none"
         id="path766"
         inkscape:connector-curvature="0" /><path
         d="m 5526.6844,-2439.3608 -0.117,-0.528 -0.145,-0.5 -0.117,-0.469 -0.148,-0.441 -0.117,-0.441 -0.145,-0.379 -0.117,-0.383 -0.149,-0.352 -0.175,-0.324 -0.176,-0.32 -0.176,-0.293 -0.207,-0.266 -0.234,-0.261 -0.262,-0.208 -0.266,-0.234 -0.324,-0.176 -0.32,-0.207 -0.352,-0.144 -0.414,-0.149 -0.437,-0.144 -0.469,-0.117 -0.266,-0.059 -0.234,-0.031 -0.586,-0.117 -0.293,-0.032 -0.293,-0.027 -0.324,-0.031 -0.324,-0.059 -0.352,-0.027 -0.351,-0.031 -0.383,0 -0.379,-0.028 -0.383,-0.031 -0.441,0 -0.411,-0.027 -0.437,0 -0.473,-0.032 -2.492,0 c -2.465,0 -4.078,0 -4.078,-2.816 0,-1.731 1.293,-1.731 4.078,-1.731 l 48.348,0 -2.61,4.547 -16.488,0 c -2.055,0 -2.348,0 -3.258,0.118 -1.406,0.148 -1.875,0.296 -1.875,1.468 0,0.41 0,0.735 0.731,3.344 l 20.039,80.27 c 1.262,5.105 1.586,5.543 7.863,5.543 l 15.637,0 c 14.347,0 26.465,-7.743 26.465,-27.047 0,-7.129 -2.934,-31.098 -15.375,-47.207 -4.196,-5.399 -15.754,-16.489 -33.739,-16.489 l 2.61,-4.547 c 30.394,0 59.234,30.836 59.234,62.844 0,20.625 -12.41,36.992 -34.383,36.992 l -49.082,0 c -2.789,0 -4.402,0 -4.402,-2.785 0,-1.761 1.32,-1.761 4.254,-1.761 1.879,0 4.547,-0.118 6.277,-0.262 2.348,-0.324 3.231,-0.735 3.231,-2.348 0,-0.586 -0.149,-1.055 -0.618,-2.789 l -19.57,-78.476 z"
         style="fill:#000000;fill-opacity:1;fill-rule:nonzero;stroke:none"
         id="path778"
         inkscape:connector-curvature="0" /></g></g></svg>