<?xml version="1.0" encoding="UTF-8" standalone="no"?>
<!-- Created with Inkscape (http://www.inkscape.org/) -->

<svg
   xmlns:dc="http://purl.org/dc/elements/1.1/"
   xmlns:cc="http://creativecommons.org/ns#"
   xmlns:rdf="http://www.w3.org/1999/02/22-rdf-syntax-ns#"
   xmlns:svg="http://www.w3.org/2000/svg"
   xmlns="http://www.w3.org/2000/svg"
   xmlns:xlink="http://www.w3.org/1999/xlink"
   xmlns:sodipodi="http://sodipodi.sourceforge.net/DTD/sodipodi-0.dtd"
   xmlns:inkscape="http://www.inkscape.org/namespaces/inkscape"
   id="svg2"
   version="1.1"
   inkscape:version="0.48.4 r9939"
   width="118.22972"
   height="59.741474"
   xml:space="preserve"
   sodipodi:docname="horizontal0_english.svg"><metadata
     id="metadata8"><rdf:RDF><cc:Work
         rdf:about=""><dc:format>image/svg+xml</dc:format><dc:type
           rdf:resource="http://purl.org/dc/dcmitype/StillImage" /><dc:title></dc:title></cc:Work></rdf:RDF></metadata><defs
     id="defs6"><marker
       inkscape:stockid="Arrow2Send"
       orient="auto"
       refY="0.0"
       refX="0.0"
       id="Arrow2Send"
       style="overflow:visible;"><path
         id="path3982"
         style="fill-rule:evenodd;stroke-width:0.62500000;stroke-linejoin:round;"
         d="M 8.7185878,4.0337352 L -2.2072895,0.016013256 L 8.7185884,-4.0017078 C 6.9730900,-1.6296469 6.9831476,1.6157441 8.7185878,4.0337352 z "
         transform="scale(0.3) rotate(180) translate(-2.3,0)" /></marker><marker
       inkscape:stockid="Arrow1Mend"
       orient="auto"
       refY="0.0"
       refX="0.0"
       id="Arrow1Mend"
       style="overflow:visible;"><path
         id="path3958"
         d="M 0.0,0.0 L 5.0,-5.0 L -12.5,0.0 L 5.0,5.0 L 0.0,0.0 z "
         style="fill-rule:evenodd;stroke:#000000;stroke-width:1.0pt;"
         transform="scale(0.4) rotate(180) translate(10,0)" /></marker><clipPath
       clipPathUnits="userSpaceOnUse"
       id="clipPath18"><path
         d="M 39.43,37.137 C 27.422,37.106 14.918,36.555 0.406,35.711 l 0,-32.551 C 15.117,0.035 47.363,0.856 76.879,1.238 100.164,1.539 75.344,2.008 94.18,2.336 l 0,30.926 c -2.336,0.301 -2.672,0.348 -5.801,0.75 -17.766,2.289 -32.91,3.168 -48.949,3.125 z"
         id="path20" /></clipPath><radialGradient
       fx="817.50391"
       fy="12.050781"
       cx="817.50391"
       cy="12.050781"
       r="60.355469"
       gradientUnits="userSpaceOnUse"
       gradientTransform="matrix(2.496042,-0.165333,-0.0380205,-0.573999,-1985.2057,138.80783)"
       spreadMethod="pad"
       id="radialGradient24"><stop
         style="stop-opacity:1;stop-color:#95bdff"
         offset="0"
         id="stop26" /><stop
         style="stop-opacity:1;stop-color:#e8eaf0"
         offset="1"
         id="stop28" /></radialGradient><radialGradient
       inkscape:collect="always"
       xlink:href="#radialGradient24"
       id="radialGradient3135"
       gradientUnits="userSpaceOnUse"
       gradientTransform="matrix(2.496042,-0.165333,-0.0380205,-0.573999,-1985.2057,138.80783)"
       spreadMethod="pad"
       cx="817.50391"
       cy="12.050781"
       fx="817.50391"
       fy="12.050781"
       r="60.355469" /></defs><sodipodi:namedview
     pagecolor="#ffffff"
     bordercolor="#666666"
     borderopacity="1"
     objecttolerance="10"
     gridtolerance="10"
     guidetolerance="10"
     inkscape:pageopacity="0"
     inkscape:pageshadow="2"
     inkscape:window-width="1280"
     inkscape:window-height="724"
     id="namedview4"
     showgrid="false"
     inkscape:zoom="4.8683606"
     inkscape:cx="78.378117"
     inkscape:cy="26.628264"
     inkscape:window-x="0"
     inkscape:window-y="24"
     inkscape:window-maximized="1"
     inkscape:current-layer="g10" /><g
     id="g10"
     inkscape:groupmode="layer"
     inkscape:label="horizontal2_english"
     transform="matrix(1.25,0,0,-1.25,0,59.741474)"><path
       d="M 39.43,37.137 C 27.422,37.106 14.918,36.555 0.406,35.711 l 0,-32.551 C 15.117,0.035 47.363,0.856 76.879,1.238 100.164,1.539 75.344,2.008 94.18,2.336 l 0,30.926 c -2.336,0.301 -2.672,0.348 -5.801,0.75 -17.766,2.289 -32.91,3.168 -48.949,3.125 z"
       style="fill:url(#radialGradient3135);stroke:none"
       id="path30"
       inkscape:connector-curvature="0" /><path
       inkscape:connector-curvature="0"
       id="path32"
       style="fill:#50c700;fill-opacity:1;fill-rule:evenodd;stroke:none"
       d="M 17.23,11.238 C 11.953,11.192 6.438,11 0.406,10.637 l 0,-10.227 93.774,0 0,3.551 c -5.422,1.25 -14.766,2.738 -30.95,4.324 -17.753,1.985 -30.914,3.082 -46,2.953 z" /><path
       inkscape:connector-curvature="0"
       id="path34"
       style="fill:none;stroke:#000000;stroke-width:0.40000001;stroke-linecap:butt;stroke-linejoin:miter;stroke-miterlimit:4;stroke-opacity:1;stroke-dasharray:1.2, 0.4;stroke-dashoffset:0"
       d="m 94.18,33.387 c -13.457,1.984 -28.645,3.531 -52.774,3.523 -11.414,0 -24.84,-0.367 -41,-1.172" /><path
       inkscape:connector-curvature="0"
       id="path36"
       style="fill:none;stroke:#000000;stroke-width:0.42098221;stroke-linecap:butt;stroke-linejoin:miter;stroke-miterlimit:4;stroke-opacity:1;stroke-dasharray:none"
       d="M 51.307627,44.301492 50.15984,34.554359" /><path
       inkscape:connector-curvature="0"
       id="path38"
       style="fill:#ff2a2a;fill-opacity:1;fill-rule:evenodd;stroke:none"
       d="M 50.353373,34.417968 C 46.68548,19.375682 43.768912,19.095732 43.080579,14.342371 c -0.685118,-4.7552172 7.910158,-5.9615523 8.696933,-1.210357 0.790332,4.74807 -2.065059,5.923896 -1.424139,21.285954 z" /><path
       inkscape:connector-curvature="0"
       id="path40"
       style="fill:#c87137;fill-opacity:1;fill-rule:nonzero;stroke:#000080;stroke-width:0.37133801;stroke-linecap:butt;stroke-linejoin:miter;stroke-miterlimit:4;stroke-opacity:1;stroke-dasharray:none"
       d="M 49.115323,27.130571 44.977035,9.994945"
       sodipodi:nodetypes="cc" /><path
       inkscape:connector-curvature="0"
       id="path42"
       style="fill:#c87137;fill-opacity:1;fill-rule:nonzero;stroke:#000080;stroke-width:0.37133801;stroke-linecap:butt;stroke-linejoin:miter;stroke-miterlimit:4;stroke-opacity:1;stroke-dasharray:none"
       d="M 49.527655,26.662039 51.461159,9.4793743"
       sodipodi:nodetypes="cc" /><path
       inkscape:connector-curvature="0"
       id="path44"
       style="fill:#c87137;fill-opacity:1;fill-rule:nonzero;stroke:#000080;stroke-width:0.37133801;stroke-linecap:butt;stroke-linejoin:miter;stroke-miterlimit:4;stroke-opacity:1;stroke-dasharray:none"
       d="m 49.578517,25.749379 c 0,0 -0.206798,-11.508042 -0.206798,-16.2848256"
       sodipodi:nodetypes="cc" /><path
       inkscape:connector-curvature="0"
       id="path46"
       style="fill:#c87137;fill-opacity:1;fill-rule:nonzero;stroke:#000080;stroke-width:0.37133801;stroke-linecap:butt;stroke-linejoin:miter;stroke-miterlimit:4;stroke-opacity:1;stroke-dasharray:none"
       d="M 48.809064,23.518009 46.116134,9.6670627"
       sodipodi:nodetypes="cc" /><path
       inkscape:connector-curvature="0"
       id="path48"
       style="fill:#c87137;fill-opacity:1;fill-rule:nonzero;stroke:#000080;stroke-width:0.37133801;stroke-linecap:butt;stroke-linejoin:miter;stroke-miterlimit:4;stroke-opacity:1;stroke-dasharray:none"
       d="M 49.481308,28.924907 44.271996,10.182737"
       sodipodi:nodetypes="cc" /><path
       inkscape:connector-curvature="0"
       id="path50"
       style="fill:#c87137;fill-opacity:1;fill-rule:nonzero;stroke:#000080;stroke-width:0.37133801;stroke-linecap:butt;stroke-linejoin:miter;stroke-miterlimit:4;stroke-opacity:1;stroke-dasharray:none"
       d="M 49.297485,23.457915 47.835529,9.5609042"
       sodipodi:nodetypes="cc" /><path
       inkscape:connector-curvature="0"
       id="path52"
       style="fill:#ffd42a;fill-opacity:1;fill-rule:evenodd;stroke:none"
       d="m 50.462565,36.209417 c -1.51808,-11.086615 -2.098317,-11.191119 -2.520643,-14.984292 -0.825227,-8.731697 0.648543,-8.811838 1.744568,-0.190393 0.401481,3.792344 -0.130996,4.095482 0.776075,15.174685 z" /><path
       inkscape:connector-curvature="0"
       id="path56"
       style="fill:#ffcc00;fill-opacity:1;fill-rule:evenodd;stroke:#fff6d5;stroke-width:0.29310915;stroke-linecap:round;stroke-linejoin:round;stroke-miterlimit:4;stroke-opacity:1;stroke-dasharray:0.87932657, 0.29310917;stroke-dashoffset:0"
       d="m 51.189806,35.270715 -0.380588,-0.651771 0.321212,-0.683913 -0.73646,0.161492 -0.548791,-0.516068 -0.07714,0.752031 -0.66025,0.364044 0.68901,0.30219 0.143897,0.741259 0.501712,-0.56623 0.747398,0.09697 z" /><path
       inkscape:connector-curvature="0"
       id="path58"
       style="fill:none;stroke:#000000;stroke-width:0.80000001;stroke-linecap:round;stroke-linejoin:round;stroke-miterlimit:4;stroke-opacity:1;stroke-dasharray:none"
       d="m 0.398,47.395 93.785,0 0,-46.996 -93.785,0 0,46.996 z" /><text
       id="text68"
       transform="scale(1,-1)"
       x="2.336597"
       y="-38.30209"><tspan
         id="tspan70"
         sodipodi:role="line"
         y="-38.30209"
         x="2.336597 4.336597 6.5605969 8.7845974 11.020597 12.128597 14.352597 16.576597 17.684597 18.572598 20.796597 21.904598 24.128597 25.236597 28.568598 30.792597 32.792595 33.900597 36.124596 37.468597"
         style="font-size:4px;font-variant:normal;font-weight:normal;writing-mode:lr-tb;fill:#000000;fill-opacity:1;fill-rule:nonzero;stroke:none;font-family:Arial;-inkscape-font-specification:ArialMT">Tope de la atmósfera</tspan></text>
<text
       id="text72"
       transform="scale(1,-1)"
       x="6.2810788"
       y="-4.4644179"><tspan
         id="tspan74"
         sodipodi:role="line"
         y="-4.4644179"
         x="6.2810788 9.0362787 10.101879 12.770679 14.383479 15.981879"
         style="font-size:4.80000019px;font-variant:normal;font-weight:normal;writing-mode:lr-tb;fill:#000000;fill-opacity:1;fill-rule:nonzero;stroke:none;font-family:Arial;-inkscape-font-specification:ArialMT">Tierra</tspan></text>
<path
       inkscape:connector-curvature="0"
       id="path76"
       style="fill:#000000;fill-opacity:1;fill-rule:nonzero;stroke:none"
       d="m 18.57,21.723 0.016,0.062 0.004,0.02 0.004,0.016 0.011,0.035 0.008,0.039 0.016,0.07 0.012,0.039 0,0.016 0.004,0.015 0.007,0.016 0,0.02 0.004,0.011 0.008,0.031 0.004,0.012 0,0.012 0.004,0.012 0.004,0.007 0,0.028 0.004,0.004 0,0.004 c 0,0.125 -0.086,0.199 -0.211,0.199 -0.024,0 -0.227,-0.008 -0.297,-0.262 l -1.055,-4.246 c -0.019,-0.09 -0.019,-0.102 -0.019,-0.117 0,-0.11 0.082,-0.199 0.203,-0.199 0.156,0 0.242,0.132 0.258,0.156 0.027,0.066 0.125,0.449 0.402,1.574 0.234,-0.195 0.562,-0.226 0.711,-0.226 0.512,0 0.801,0.328 0.976,0.535 0.063,-0.332 0.336,-0.535 0.657,-0.535 0.257,0 0.425,0.167 0.543,0.402 0.125,0.265 0.222,0.711 0.222,0.726 0,0.075 -0.066,0.075 -0.086,0.075 -0.074,0 -0.082,-0.032 -0.105,-0.133 -0.125,-0.477 -0.258,-0.91 -0.559,-0.91 -0.195,0 -0.218,0.191 -0.218,0.34 0,0.16 0.089,0.503 0.148,0.757 l 0.203,0.797 c 0.024,0.11 0.094,0.387 0.125,0.496 0.035,0.168 0.11,0.45 0.11,0.489 0,0.136 -0.106,0.199 -0.211,0.199 -0.036,0 -0.227,-0.008 -0.286,-0.254 l -0.347,-1.371 c -0.086,-0.367 -0.168,-0.676 -0.192,-0.75 -0.004,-0.035 -0.355,-0.703 -0.949,-0.703 -0.367,0 -0.543,0.242 -0.543,0.636 0,0.215 0.051,0.418 0.102,0.625 l 0.308,1.231 z" /><path
       inkscape:connector-curvature="0"
       id="path60"
       style="fill:none;stroke:#000000;stroke-width:0.56000000000000005;stroke-linecap:butt;stroke-linejoin:miter;stroke-miterlimit:4;stroke-opacity:1;stroke-dasharray:none;marker-end:url(#Arrow2Send)"
       d="M 30.936172,24.39856 43.253999,20.096444"
       sodipodi:nodetypes="cc" /><text
       id="text78"
       transform="scale(1,-1)"
       x="43.363567"
       y="-13.087497"><tspan
         id="tspan82"
         sodipodi:role="line"
         style="font-size:4px;font-variant:normal;font-weight:normal;writing-mode:lr-tb;fill:#000000;fill-opacity:1;fill-rule:nonzero;stroke:none;font-family:Arial;-inkscape-font-specification:ArialMT"
         y="-13.087497"
         x="43.363567" /><tspan
         id="tspan84"
         sodipodi:role="line"
         y="-25.869087"
         x="16.565716 19.453716 21.677715 25.009716 27.233715 29.469715 31.693714 33.917713 36.141716 37.249714 39.473717 40.581715 43.245716"
         style="font-size:4px;font-variant:normal;font-weight:normal;writing-mode:lr-tb;fill:#000000;fill-opacity:1;fill-rule:nonzero;stroke:none;font-family:Arial;-inkscape-font-specification:ArialMT">Componente EM</tspan></text>
<path
       inkscape:connector-curvature="0"
       id="path86"
       style="fill:#000000;fill-opacity:1;fill-rule:nonzero;stroke:none"
       d="m 52.260302,31.709541 -0.004,-0.012 -0.004,-0.015 0,-0.012 -0.004,-0.012 -0.004,-0.007 -0.003,-0.012 0,-0.008 -0.004,-0.012 -0.012,-0.023 -0.004,-0.004 -0.008,-0.016 -0.004,-0.004 -0.007,-0.003 -0.012,-0.012 -0.004,0 -0.016,-0.008 -0.011,-0.004 -0.008,0 -0.012,-0.004 -0.008,0 -0.008,-0.004 -0.039,0 -0.008,-0.004 -0.046,0 c -0.051,0 -0.098,0 -0.098,-0.078 0,-0.035 0.023,-0.054 0.055,-0.054 0.117,0 0.238,0.015 0.359,0.015 0.137,0 0.285,-0.015 0.422,-0.015 0.019,0 0.074,0 0.074,0.086 0,0.046 -0.043,0.046 -0.101,0.046 -0.215,0 -0.215,0.032 -0.215,0.071 0,0.051 0.179,0.742 0.211,0.847 0.054,-0.121 0.172,-0.269 0.39,-0.269 l -0.004,0.094 c -0.281,0 -0.336,0.351 -0.336,0.379 0,0.007 0,0.015 0.012,0.066 l 0.211,0.836 c 0.027,0.113 0.145,0.23 0.219,0.297 0.148,0.129 0.273,0.16 0.344,0.16 0.171,0 0.273,-0.149 0.273,-0.402 0,-0.25 -0.141,-0.739 -0.219,-0.899 -0.14,-0.297 -0.347,-0.437 -0.504,-0.437 l 0.004,-0.094 c 0.492,0 1.024,0.621 1.024,1.246 0,0.398 -0.239,0.68 -0.563,0.68 -0.215,0 -0.418,-0.153 -0.558,-0.321 -0.043,0.231 -0.227,0.321 -0.383,0.321 -0.195,0 -0.278,-0.168 -0.313,-0.243 -0.078,-0.144 -0.132,-0.398 -0.132,-0.414 0,-0.043 0.042,-0.043 0.05,-0.043 0.043,0 0.047,0.008 0.071,0.098 0.074,0.305 0.16,0.508 0.312,0.508 0.07,0 0.133,-0.035 0.133,-0.195 0,-0.098 -0.016,-0.145 -0.031,-0.219 l -0.477,-1.891 z" /><path
       inkscape:connector-curvature="0"
       id="path88"
       style="fill:#000000;fill-opacity:1;fill-rule:nonzero;stroke:none"
       d="m 55.026302,33.834541 0,0.024 -0.004,0.011 0,0.012 -0.004,0.012 -0.004,0.008 -0.004,0.011 -0.004,0.008 -0.004,0.012 -0.004,0.008 -0.004,0.011 -0.015,0.016 -0.004,0.012 -0.031,0.031 -0.008,0.004 -0.012,0.008 -0.008,0.004 -0.007,0.007 -0.012,0.004 -0.008,0.004 -0.023,0.008 -0.008,0.004 -0.012,0.004 -0.023,0 -0.012,0.004 -0.012,0 c -0.121,0 -0.223,-0.102 -0.223,-0.227 0,-0.121 0.102,-0.226 0.223,-0.226 0.125,0 0.227,0.105 0.227,0.226 z" /><path
       inkscape:connector-curvature="0"
       id="path90"
       style="fill:#000000;fill-opacity:1;fill-rule:nonzero;stroke:none"
       d="m 54.944302,32.276541 0,-0.11 -0.004,-0.015 0,-0.024 -0.004,-0.019 0,-0.024 -0.004,-0.019 -0.004,-0.028 -0.004,-0.023 -0.008,-0.024 -0.004,-0.027 -0.007,-0.023 -0.016,-0.055 -0.012,-0.027 -0.008,-0.028 -0.023,-0.054 -0.016,-0.032 -0.015,-0.027 -0.016,-0.031 -0.015,-0.028 -0.02,-0.031 -0.02,-0.027 -0.046,-0.063 -0.024,-0.027 c -0.031,-0.035 -0.031,-0.043 -0.031,-0.055 0,-0.031 0.019,-0.047 0.043,-0.047 0.047,0 0.351,0.34 0.351,0.832 0,0.125 -0.007,0.438 -0.238,0.438 -0.148,0 -0.223,-0.113 -0.223,-0.227 0,-0.109 0.071,-0.222 0.223,-0.222 0.024,0 0.031,0 0.035,0.004 0.032,0.004 0.078,0.011 0.11,0.043 z" /><path
       inkscape:connector-curvature="0"
       id="path92"
       style="fill:#000000;fill-opacity:1;fill-rule:nonzero;stroke:none"
       d="m 60.026302,34.686541 0.015,0.062 0.008,0.016 0.004,0.012 0.008,0.015 0.004,0.012 0.008,0.016 0.007,0.011 0.008,0.016 0.012,0.012 0.008,0.011 0.023,0.024 0.012,0.008 0.012,0.011 0.015,0.008 0.016,0.012 0.031,0.015 0.059,0.024 0.019,0.004 0.024,0.008 0.023,0.004 0.082,0.011 0.059,0 c 0.023,0 0.074,0.004 0.074,0.086 0,0.004 0,0.047 -0.055,0.047 -0.14,0 -0.289,-0.012 -0.429,-0.012 -0.145,0 -0.293,0.012 -0.434,0.012 -0.027,0 -0.078,0 -0.078,-0.086 0,-0.047 0.043,-0.047 0.078,-0.047 0.242,0 0.289,-0.09 0.289,-0.183 0,-0.016 -0.008,-0.078 -0.012,-0.09 l -0.476,-1.895 -0.942,2.223 c -0.035,0.074 -0.039,0.078 -0.136,0.078 l -0.571,0 c -0.082,0 -0.121,0 -0.121,-0.086 0,-0.047 0.039,-0.047 0.117,-0.047 0.024,0 0.289,0 0.289,-0.035 l -0.57,-2.285 c -0.039,-0.172 -0.113,-0.305 -0.457,-0.316 -0.027,0 -0.074,-0.004 -0.074,-0.086 0,-0.032 0.023,-0.047 0.059,-0.047 0.132,0 0.281,0.011 0.421,0.011 0.145,0 0.301,-0.011 0.438,-0.011 0.023,0 0.078,0 0.078,0.086 0,0.043 -0.039,0.047 -0.086,0.047 -0.246,0.007 -0.281,0.097 -0.281,0.183 0,0.031 0.004,0.051 0.019,0.098 l 0.559,2.246 c 0.02,-0.024 0.02,-0.031 0.039,-0.074 l 1.059,-2.504 c 0.031,-0.074 0.043,-0.082 0.082,-0.082 0.047,0 0.047,0.011 0.066,0.09 l 0.598,2.367 z" /><path
       inkscape:connector-curvature="0"
       id="path54"
       style="fill:#50c700;fill-opacity:1;fill-rule:evenodd;stroke:#000000;stroke-width:0.80000001;stroke-linecap:butt;stroke-linejoin:miter;stroke-miterlimit:4;stroke-opacity:1;stroke-dasharray:none"
       d="M 94.18,3.586 C 68.094,8.574 40.723,11.047 13.207,10.887 8.941,10.863 4.668,10.762 0.406,10.613" /><path
       sodipodi:nodetypes="cc"
       d="M 63.906144,18.934481 51.588317,23.236597"
       style="fill:none;stroke:#000000;stroke-width:0.56;stroke-linecap:butt;stroke-linejoin:miter;stroke-miterlimit:4;stroke-opacity:1;stroke-dasharray:none;marker-end:url(#Arrow2Send)"
       id="path4761"
       inkscape:connector-curvature="0" /><text
       y="-0.92734587"
       x="83.459198"
       transform="scale(1,-1)"
       id="text4763"><tspan
         x="83.459198"
         y="-0.92734587"
         style="font-size:4px;font-variant:normal;font-weight:normal;writing-mode:lr-tb;fill:#000000;fill-opacity:1;fill-rule:nonzero;stroke:none;font-family:Arial;-inkscape-font-specification:ArialMT"
         sodipodi:role="line"
         id="tspan4765" /><tspan
         style="font-size:4px;font-variant:normal;font-weight:normal;writing-mode:lr-tb;fill:#000000;fill-opacity:1;fill-rule:nonzero;stroke:none;font-family:Arial;-inkscape-font-specification:ArialMT"
         x="56.66135 59.549351 61.77335 65.105347 67.329346 69.565346 71.789345 74.013344 76.23735 77.345345"
         y="-13.708937"
         sodipodi:role="line"
         id="tspan4769" /></text>
<text
       y="-19.496225"
       x="75.922997"
       transform="scale(1,-1)"
       id="text4777"
       style="text-align:center;text-anchor:middle"><tspan
         x="75.922997"
         y="-19.496225"
         style="font-size:4px;font-variant:normal;font-weight:normal;text-align:center;writing-mode:lr-tb;text-anchor:middle;fill:#000000;fill-opacity:1;fill-rule:nonzero;stroke:none;font-family:Arial;-inkscape-font-specification:ArialMT"
         sodipodi:role="line"
         id="tspan4779" /><tspan
         style="font-size:4px;font-variant:normal;font-weight:normal;text-align:center;writing-mode:lr-tb;text-anchor:middle;fill:#000000;fill-opacity:1;fill-rule:nonzero;stroke:none;font-family:Arial;-inkscape-font-specification:ArialMT"
         sodipodi:role="line"
         id="tspan4781"
         x="76.477684"
         y="-14.496225">Componente </tspan><tspan
         style="font-size:4px;font-variant:normal;font-weight:normal;text-align:center;writing-mode:lr-tb;text-anchor:middle;fill:#000000;fill-opacity:1;fill-rule:nonzero;stroke:none;font-family:Arial;-inkscape-font-specification:ArialMT"
         sodipodi:role="line"
         x="75.922997"
         y="-9.4962244"
         id="tspan4783">Hadrónica</tspan></text>
</g></svg>