<?xml version="1.0" encoding="UTF-8" standalone="no"?>
<!-- Created with Inkscape (http://www.inkscape.org/) -->

<svg
   xmlns:dc="http://purl.org/dc/elements/1.1/"
   xmlns:cc="http://creativecommons.org/ns#"
   xmlns:rdf="http://www.w3.org/1999/02/22-rdf-syntax-ns#"
   xmlns:svg="http://www.w3.org/2000/svg"
   xmlns="http://www.w3.org/2000/svg"
   xmlns:sodipodi="http://sodipodi.sourceforge.net/DTD/sodipodi-0.dtd"
   xmlns:inkscape="http://www.inkscape.org/namespaces/inkscape"
   width="649.4375"
   height="334.6875"
   id="svg3902"
   version="1.1"
   inkscape:version="0.48.4 r9939"
   sodipodi:docname="New document 5">
  <sodipodi:namedview
     id="base"
     pagecolor="#ffffff"
     bordercolor="#666666"
     borderopacity="1.0"
     inkscape:pageopacity="0.0"
     inkscape:pageshadow="2"
     inkscape:zoom="0.49497475"
     inkscape:cx="328.25488"
     inkscape:cy="76.188216"
     inkscape:document-units="px"
     inkscape:current-layer="layer1"
     showgrid="false"
     inkscape:snap-bbox="true"
     inkscape:object-paths="true"
     inkscape:window-width="1280"
     inkscape:window-height="724"
     inkscape:window-x="0"
     inkscape:window-y="24"
     inkscape:window-maximized="1"
     fit-margin-top="0"
     fit-margin-left="0"
     fit-margin-right="0"
     fit-margin-bottom="0" />
  <defs
     id="defs3904" />
  <metadata
     id="metadata3907">
    <rdf:RDF>
      <cc:Work
         rdf:about="">
        <dc:format>image/svg+xml</dc:format>
        <dc:type
           rdf:resource="http://purl.org/dc/dcmitype/StillImage" />
        <dc:title></dc:title>
      </cc:Work>
    </rdf:RDF>
  </metadata>
  <g
     inkscape:label="Layer 1"
     inkscape:groupmode="layer"
     id="layer1"
     transform="translate(-47.90625,-649.25)">
    <rect
       style="color:#000000;fill:#ffffff;fill-opacity:1;fill-rule:nonzero;stroke:#000000;stroke-width:5;stroke-linecap:round;stroke-linejoin:round;stroke-miterlimit:4;stroke-opacity:1;stroke-dasharray:none;stroke-dashoffset:0;marker:none;visibility:visible;display:inline;overflow:visible;enable-background:accumulate"
       id="rect3910"
       width="644.41193"
       height="329.69543"
       x="50.418419"
       y="651.74878"
       rx="0.096060008"
       ry="1.9158249" />
    <path
       style="fill:none;stroke:#000000;stroke-width:3;stroke-linecap:butt;stroke-linejoin:miter;stroke-miterlimit:4;stroke-opacity:1;stroke-dasharray:none"
       d="M 125.71429,966.6479 C 161.58595,677.43869 389.35722,668.31509 551.42857,735.21933"
       id="path3912"
       inkscape:connector-curvature="0"
       sodipodi:nodetypes="cc" />
    <path
       style="fill:none;stroke:#ff0000;stroke-width:3;stroke-linecap:butt;stroke-linejoin:miter;stroke-miterlimit:4;stroke-opacity:1;stroke-dasharray:12, 12;stroke-dashoffset:0"
       d="M 125.71429,966.6479 187.90574,794.51689 339.82405,704.8121 549.52298,735.17428"
       id="path3914"
       inkscape:connector-curvature="0"
       sodipodi:nodetypes="cccc" />
    <g
       transform="matrix(0.79314004,0,0,0.79314004,-58.842073,430.66589)"
       id="g4432">
      <g
         style="font-style:normal;font-variant:normal;font-weight:normal;font-stretch:normal;letter-spacing:normal;word-spacing:normal;text-anchor:start;fill:none;stroke:#000000;stroke-linecap:butt;stroke-linejoin:miter;stroke-miterlimit:10.43299961;stroke-opacity:1;stroke-dasharray:none;stroke-dashoffset:0"
         id="content"
         transform="matrix(1.0629921,0,0,-1.0629921,-186.02362,789.27165)"
         xml:space="preserve"
         stroke-miterlimit="10.433"
         font-style="normal"
         font-variant="normal"
         font-weight="normal"
         font-stretch="normal"
         font-size-adjust="none"
         letter-spacing="normal"
         word-spacing="normal"><path
           style="fill:#000000;stroke-width:0"
           inkscape:connector-curvature="0"
           d="m 482.22,426.18 -0.16,-0.05 -0.16,-0.05 -0.16,-0.07 -0.15,-0.07 -0.14,-0.07 -0.14,-0.08 -0.14,-0.09 -0.13,-0.09 -0.12,-0.1 -0.12,-0.1 -0.11,-0.1 -0.11,-0.11 -0.1,-0.11 -0.1,-0.11 -0.09,-0.12 -0.08,-0.12 -0.09,-0.12 -0.07,-0.12 -0.07,-0.13 -0.07,-0.13 -0.06,-0.12 -0.05,-0.13 -0.05,-0.13 -0.05,-0.13 -0.04,-0.12 -0.03,-0.13 -0.03,-0.13 -0.02,-0.12 -0.02,-0.13 -0.01,-0.12 -0.01,-0.12 0,-0.11 c 0,-1.11 0.84,-2.3 2.48,-2.3 1.75,0 3.59,1.44 3.59,3.89 0,2.64 -2.64,4.37 -5.68,4.37 -2.83,0 -4.68,-2.14 -5.33,-3.03 -1.24,2.1 -4.03,3.03 -6.88,3.03 -6.28,0 -9.65,-6.12 -9.65,-7.76 0,-0.7 0.73,-0.7 1.18,-0.7 0.6,0 0.96,0 1.14,0.65 1.46,4.53 5.05,6.02 7.08,6.02 1.89,0 2.8,-0.89 2.8,-2.49 0,-0.95 -0.7,-3.68 -1.16,-5.48 l -1.68,-6.83 c -0.75,-3.03 -2.55,-4.53 -4.24,-4.53 -0.25,0 -1.39,0 -2.39,0.75 1.8,0.5 2.69,2.19 2.69,3.44 0,1.09 -0.85,2.29 -2.49,2.29 -1.75,0 -3.59,-1.45 -3.59,-3.89 0,-2.64 2.64,-4.39 5.69,-4.39 2.83,0 4.67,2.16 5.33,3.05 1.25,-2.09 4.03,-3.05 6.87,-3.05 6.28,0 9.66,6.14 9.66,7.78 0,0.71 -0.74,0.71 -1.19,0.71 -0.59,0 -0.95,0 -1.14,-0.66 -1.45,-4.53 -5.03,-6.03 -7.08,-6.03 -1.89,0 -2.8,0.91 -2.8,2.5 0,1.05 0.66,3.69 1.1,5.53 0.36,1.3 1.5,5.97 1.75,6.77 0.75,3 2.48,4.53 4.23,4.53 0.25,0 1.39,0 2.39,-0.74 z"
           id="path4435" /><path
           style="fill:#000000;stroke-width:0"
           inkscape:connector-curvature="0"
           d="m 504.88,394.25 0,0.02 0,0.03 0,0.01 0,0.02 -0.01,0.01 0,0.02 -0.01,0.01 0,0.02 -0.01,0.02 -0.01,0.02 -0.01,0.02 -0.02,0.03 -0.01,0.02 -0.02,0.03 -0.02,0.03 -0.03,0.03 -0.02,0.03 -0.03,0.04 -0.02,0.02 -0.02,0.02 -0.01,0.02 -0.02,0.02 -0.02,0.02 -0.02,0.03 -0.02,0.02 -0.02,0.02 -0.03,0.03 -0.02,0.02 -0.02,0.03 -0.03,0.03 -0.03,0.03 -0.02,0.03 -0.03,0.03 -0.03,0.03 -0.03,0.03 -0.04,0.03 -0.03,0.04 -0.03,0.03 -0.04,0.04 -0.03,0.03 -0.04,0.04 -0.04,0.04 c -6.22,6.28 -7.81,15.69 -7.81,23.31 0,8.67 1.89,17.35 8.01,23.56 0.64,0.61 0.64,0.71 0.64,0.86 0,0.35 -0.18,0.49 -0.48,0.49 -0.5,0 -4.99,-3.38 -7.92,-9.7 -2.55,-5.49 -3.14,-11.02 -3.14,-15.21 0,-3.89 0.54,-9.9 3.28,-15.54 2.98,-6.13 7.28,-9.36 7.78,-9.36 0.3,0 0.48,0.14 0.48,0.5 z"
           id="path4437" /><path
           style="fill:#000000;stroke-width:0"
           inkscape:connector-curvature="0"
           d="m 517.98,426.12 h 4.69 c 0.98,0 1.48,0 1.48,1 0,0.55 -0.5,0.55 -1.39,0.55 h -4.39 c 1.8,7.08 2.05,8.08 2.05,8.37 0,0.85 -0.6,1.35 -1.44,1.35 -0.16,0 -1.55,-0.05 -2,-1.8 l -1.94,-7.92 h -4.68 c -1,0 -1.5,0 -1.5,-0.94 0,-0.61 0.4,-0.61 1.4,-0.61 h 4.38 c -3.58,-14.14 -3.78,-14.98 -3.78,-15.89 0,-2.69 1.89,-4.58 4.57,-4.58 5.08,0 7.92,7.27 7.92,7.67 0,0.5 -0.38,0.5 -0.59,0.5 -0.45,0 -0.5,-0.15 -0.75,-0.7 -2.14,-5.17 -4.78,-6.37 -6.47,-6.37 -1.04,0 -1.54,0.65 -1.54,2.29 0,1.19 0.09,1.55 0.29,2.39 z"
           id="path4439" /><path
           style="fill:#000000;stroke-width:0"
           inkscape:connector-curvature="0"
           d="m 540.1,418.65 0,0.37 0,0.39 -0.01,0.39 -0.01,0.41 -0.04,0.84 -0.06,0.88 -0.09,0.92 -0.1,0.95 -0.14,0.97 -0.16,1.01 -0.2,1.02 -0.23,1.03 -0.26,1.05 -0.31,1.06 -0.35,1.07 -0.39,1.07 -0.21,0.53 -0.23,0.53 -0.24,0.53 -0.25,0.53 c -2.98,6.12 -7.26,9.36 -7.76,9.36 -0.3,0 -0.5,-0.19 -0.5,-0.49 0,-0.15 0,-0.25 0.94,-1.15 4.89,-4.92 7.73,-12.85 7.73,-23.27 0,-8.51 -1.84,-17.28 -8.03,-23.56 -0.64,-0.59 -0.64,-0.7 -0.64,-0.84 0,-0.3 0.2,-0.5 0.5,-0.5 0.5,0 4.97,3.39 7.92,9.71 2.53,5.47 3.12,11 3.12,15.19 z"
           id="path4441" /></g>    </g>
    <path
       transform="translate(-3.2910156e-6,-1.1035156e-6)"
       d="m 578.62163,735.04376 c 0,15.25349 -12.36539,27.61889 -27.61888,27.61889 -15.25349,0 -27.61889,-12.3654 -27.61889,-27.61889 0,-15.25349 12.3654,-27.61888 27.61889,-27.61888 15.25349,0 27.61888,12.36539 27.61888,27.61888 z"
       sodipodi:ry="27.618887"
       sodipodi:rx="27.618887"
       sodipodi:cy="735.04376"
       sodipodi:cx="551.00275"
       id="path4455"
       style="color:#000000;fill:#ff0000;fill-opacity:1;fill-rule:nonzero;stroke:#ff0000;stroke-width:1;stroke-linecap:round;stroke-linejoin:round;stroke-miterlimit:4;stroke-opacity:1;stroke-dasharray:none;stroke-dashoffset:0;marker:none;visibility:visible;display:inline;overflow:visible;enable-background:accumulate"
       sodipodi:type="arc" />
    <g
       id="g4472"
       transform="matrix(0.82822408,0,0,0.82822408,283.4175,451.63718)">
      <g
         word-spacing="normal"
         letter-spacing="normal"
         font-size-adjust="none"
         font-stretch="normal"
         font-weight="normal"
         font-variant="normal"
         font-style="normal"
         stroke-miterlimit="10.433"
         xml:space="preserve"
         transform="matrix(1.0629921,0,0,-1.0629921,-186.02362,789.27165)"
         id="g4474"
         style="font-style:normal;font-variant:normal;font-weight:normal;font-stretch:normal;letter-spacing:normal;word-spacing:normal;text-anchor:start;fill:none;stroke:#000000;stroke-linecap:butt;stroke-linejoin:miter;stroke-miterlimit:10.43299961;stroke-opacity:1;stroke-dasharray:none;stroke-dashoffset:0"><path
           id="path4476"
           d="m 464.83,417.71 0.14,0.01 0.16,0 0.17,0 0.17,0 0.19,0.01 0.2,0 0.21,0.01 0.22,0.01 0.22,0.01 0.23,0.01 0.24,0.01 0.25,0.02 0.25,0.02 0.25,0.02 0.53,0.05 0.53,0.07 0.55,0.07 0.54,0.1 0.54,0.11 0.54,0.12 0.26,0.07 0.26,0.08 0.25,0.08 0.25,0.08 0.24,0.09 0.24,0.1 c 3.48,1.5 3.73,4.43 3.73,5.12 0,2.2 -1.89,4.23 -5.33,4.23 v -1.09 c 2.35,0 3.69,-1.44 3.69,-3.14 0,-5.17 -7.97,-5.17 -10.01,-5.17 h -2.05 c 1.95,7.56 7.08,8.31 8.37,8.31 v 1.09 c -5.53,0 -13.04,-4.82 -13.04,-13.54 0,-5.08 2.93,-9.02 7.81,-9.02 7.12,0 11.31,5.28 11.31,5.88 0,0.29 -0.3,0.65 -0.59,0.65 -0.25,0 -0.35,-0.11 -0.66,-0.5 -3.94,-4.93 -9.36,-4.93 -9.95,-4.93 -3.89,0 -4.35,4.18 -4.35,5.78 0,0.59 0.05,2.14 0.8,5.18 z"
           inkscape:connector-curvature="0"
           style="fill:#000000;stroke-width:0" /><path
           id="path4478"
           d="m 504.6,432.07 0.06,0 0.05,0 0.11,0.01 0.12,0 0.06,0 0.06,0.01 0.05,0 0.06,0.01 0.06,0.01 0.06,0.01 0.06,0.01 0.05,0.01 0.05,0.02 0.06,0.02 0.05,0.02 0.05,0.02 0.05,0.03 0.04,0.03 0.04,0.03 0.04,0.04 0.04,0.04 0.02,0.02 0.01,0.02 0.02,0.02 0.01,0.03 0.02,0.02 0.01,0.03 0.01,0.02 0.02,0.03 0.01,0.03 0.01,0.03 0,0.03 0.01,0.03 0.01,0.04 0,0.03 0.01,0.03 0,0.04 0,0.04 0,0.04 c 0,0.86 -0.79,0.86 -1.39,0.86 h -20.76 c -0.57,0 -1.39,0 -1.39,-0.83 0,-0.88 0.79,-0.88 1.39,-0.88 z"
           inkscape:connector-curvature="0"
           style="fill:#000000;stroke-width:0" /></g>    </g>
    <g
       id="g4509"
       transform="translate(-44.446712,-40.406102)">
      <rect
         style="color:#000000;fill:#ffffff;fill-opacity:1;fill-rule:nonzero;stroke:#000000;stroke-width:2;stroke-linecap:round;stroke-linejoin:round;stroke-miterlimit:4;stroke-opacity:1;stroke-dasharray:none;stroke-dashoffset:0;marker:none;visibility:visible;display:inline;overflow:visible;enable-background:accumulate"
         id="rect4507"
         width="310.97742"
         height="84.482162"
         x="391.871"
         y="906.55231"
         rx="0.096060008"
         ry="0" />
      <path
         style="fill:none;stroke:#ff0000;stroke-width:3;stroke-linecap:butt;stroke-linejoin:miter;stroke-miterlimit:4;stroke-opacity:1;stroke-dasharray:12, 12;stroke-dashoffset:0"
         d="m 407.32427,948.77844 74.29591,0"
         id="path4499"
         inkscape:connector-curvature="0"
         sodipodi:nodetypes="cc" />
      <text
         sodipodi:linespacing="125%"
         id="text4501"
         y="944.46777"
         x="594.43805"
         style="font-size:20.34396172px;font-style:normal;font-variant:normal;font-weight:normal;font-stretch:normal;text-align:center;line-height:125%;letter-spacing:0px;word-spacing:0px;writing-mode:lr-tb;text-anchor:middle;fill:#000000;fill-opacity:1;stroke:none;font-family:Amiri Quran;-inkscape-font-specification:Amiri Quran"
         xml:space="preserve"><tspan
           y="944.46777"
           x="597.67639"
           id="tspan4503"
           sodipodi:role="line">Aproximación por </tspan><tspan
           id="tspan4505"
           y="969.89771"
           x="594.43805"
           sodipodi:role="line">tramos</tspan></text>
    </g>
  </g>
</svg>
