<?xml version="1.0" encoding="UTF-8" standalone="no"?>
<!-- Created with Inkscape (http://www.inkscape.org/) -->

<svg
   xmlns:dc="http://purl.org/dc/elements/1.1/"
   xmlns:cc="http://creativecommons.org/ns#"
   xmlns:rdf="http://www.w3.org/1999/02/22-rdf-syntax-ns#"
   xmlns:svg="http://www.w3.org/2000/svg"
   xmlns="http://www.w3.org/2000/svg"
   xmlns:sodipodi="http://sodipodi.sourceforge.net/DTD/sodipodi-0.dtd"
   xmlns:inkscape="http://www.inkscape.org/namespaces/inkscape"
   id="svg2"
   version="1.1"
   inkscape:version="0.48.4 r9939"
   width="708.75"
   height="513.75"
   xml:space="preserve"
   sodipodi:docname="AoP_new_without_search.svg"><metadata
     id="metadata8"><rdf:RDF><cc:Work
         rdf:about=""><dc:format>image/svg+xml</dc:format><dc:type
           rdf:resource="http://purl.org/dc/dcmitype/StillImage" /><dc:title></dc:title></cc:Work></rdf:RDF></metadata><defs
     id="defs6"><inkscape:perspective
       sodipodi:type="inkscape:persp3d"
       inkscape:vp_x="0 : 0.5 : 1"
       inkscape:vp_y="0 : 1000 : 0"
       inkscape:vp_z="1 : 0.5 : 1"
       inkscape:persp3d-origin="0.5 : 0.33333333 : 1"
       id="perspective10" /><clipPath
       clipPathUnits="userSpaceOnUse"
       id="clipPath34"><path
         d="m 0,0 566.929,0 0,411.302 L 0,411.302 0,0 z"
         id="path36" /></clipPath><clipPath
       clipPathUnits="userSpaceOnUse"
       id="clipPath106"><path
         d="m 0,0 566.929,0 0,411.302 L 0,411.302 0,0 z"
         id="path108" /></clipPath><clipPath
       clipPathUnits="userSpaceOnUse"
       id="clipPath118"><path
         d="m 0,0 566.929,0 0,411.302 L 0,411.302 0,0 z"
         id="path120" /></clipPath><clipPath
       clipPathUnits="userSpaceOnUse"
       id="clipPath130"><path
         d="m 0,0 566.929,0 0,411.302 L 0,411.302 0,0 z"
         id="path132" /></clipPath><clipPath
       clipPathUnits="userSpaceOnUse"
       id="clipPath142"><path
         d="m 0,0 566.929,0 0,411.302 L 0,411.302 0,0 z"
         id="path144" /></clipPath><clipPath
       clipPathUnits="userSpaceOnUse"
       id="clipPath154"><path
         d="m 0,0 566.929,0 0,411.302 L 0,411.302 0,0 z"
         id="path156" /></clipPath><clipPath
       clipPathUnits="userSpaceOnUse"
       id="clipPath166"><path
         d="m 0,0 566.929,0 0,411.302 L 0,411.302 0,0 z"
         id="path168" /></clipPath><clipPath
       clipPathUnits="userSpaceOnUse"
       id="clipPath180"><path
         d="m 0,0 566.929,0 0,411.302 L 0,411.302 0,0 z"
         id="path182" /></clipPath><clipPath
       clipPathUnits="userSpaceOnUse"
       id="clipPath194"><path
         d="m 0,0 566.929,0 0,411.302 L 0,411.302 0,0 z"
         id="path196" /></clipPath><clipPath
       clipPathUnits="userSpaceOnUse"
       id="clipPath206"><path
         d="m 0,0 566.929,0 0,411.302 L 0,411.302 0,0 z"
         id="path208" /></clipPath><clipPath
       clipPathUnits="userSpaceOnUse"
       id="clipPath236"><path
         d="m 0,0 566.929,0 0,411.302 L 0,411.302 0,0 z"
         id="path238" /></clipPath><clipPath
       clipPathUnits="userSpaceOnUse"
       id="clipPath266"><path
         d="m 0,0 566.929,0 0,411.302 L 0,411.302 0,0 z"
         id="path268" /></clipPath><clipPath
       clipPathUnits="userSpaceOnUse"
       id="clipPath296"><path
         d="m 0,0 566.929,0 0,411.302 L 0,411.302 0,0 z"
         id="path298" /></clipPath><clipPath
       clipPathUnits="userSpaceOnUse"
       id="clipPath308"><path
         d="m 0,0 566.929,0 0,411.302 L 0,411.302 0,0 z"
         id="path310" /></clipPath><clipPath
       clipPathUnits="userSpaceOnUse"
       id="clipPath338"><path
         d="m 0,0 566.929,0 0,411.302 L 0,411.302 0,0 z"
         id="path340" /></clipPath><clipPath
       clipPathUnits="userSpaceOnUse"
       id="clipPath350"><path
         d="m 0,0 566.929,0 0,411.302 L 0,411.302 0,0 z"
         id="path352" /></clipPath><clipPath
       clipPathUnits="userSpaceOnUse"
       id="clipPath382"><path
         d="m 0,0 566.929,0 0,411.302 L 0,411.302 0,0 z"
         id="path384" /></clipPath><clipPath
       clipPathUnits="userSpaceOnUse"
       id="clipPath404"><path
         d="m 0,0 566.929,0 0,411.302 L 0,411.302 0,0 z"
         id="path406" /></clipPath><clipPath
       clipPathUnits="userSpaceOnUse"
       id="clipPath418"><path
         d="m 0,0 566.929,0 0,411.302 L 0,411.302 0,0 z"
         id="path420" /></clipPath><clipPath
       clipPathUnits="userSpaceOnUse"
       id="clipPath430"><path
         d="m 0,0 566.929,0 0,411.302 L 0,411.302 0,0 z"
         id="path432" /></clipPath><clipPath
       clipPathUnits="userSpaceOnUse"
       id="clipPath442"><path
         d="m 0,0 566.929,0 0,411.302 L 0,411.302 0,0 z"
         id="path444" /></clipPath></defs><sodipodi:namedview
     pagecolor="#ffffff"
     bordercolor="#666666"
     borderopacity="1"
     objecttolerance="10"
     gridtolerance="10"
     guidetolerance="10"
     inkscape:pageopacity="0"
     inkscape:pageshadow="2"
     inkscape:window-width="1280"
     inkscape:window-height="724"
     id="namedview4"
     showgrid="false"
     inkscape:zoom="0.6496436"
     inkscape:cx="311.38768"
     inkscape:cy="384.65873"
     inkscape:window-x="0"
     inkscape:window-y="24"
     inkscape:window-maximized="1"
     inkscape:current-layer="g12" /><g
     id="g12"
     inkscape:groupmode="layer"
     inkscape:label="AoP_new"
     transform="matrix(1.25,0,0,-1.25,0,513.75)"><path
       d="m 0,0 566.929,0 0,411.302 L 0,411.302 0,0 z"
       style="fill:#ffffff;fill-opacity:1;fill-rule:evenodd;stroke:none"
       id="path14" /><path
       d="m 0,0 2,2 0,407.302 562.929,0 2,2 L 0,411.302 0,0"
       style="fill:#ffffff;fill-opacity:1;fill-rule:evenodd;stroke:none"
       id="path16" /><path
       d="m 0,0 2,2 562.929,0 0,407.302 2,2 L 566.929,0 0,0"
       style="fill:#ffffff;fill-opacity:1;fill-rule:evenodd;stroke:none"
       id="path18" /><path
       d="m 56.6929,41.1302 453.543,0 0,329.041 -453.543,0 0,-329.041 z"
       style="fill:#ffffff;fill-opacity:1;fill-rule:evenodd;stroke:none"
       id="path20" /><path
       d="m 56.6929,41.1302 453.543,0 0,329.041 -453.543,0 0,-329.041 z"
       style="fill:none;stroke:#000000;stroke-opacity:1;stroke-width:1;stroke-linecap:butt;stroke-linejoin:miter;stroke-miterlimit:10;stroke-dasharray:none"
       id="path22" /><path
       d="m 56.6929,41.1302 453.543,0 0,329.041 -453.543,0 0,-329.041 z"
       style="fill:#ffffff;fill-opacity:1;fill-rule:evenodd;stroke:none"
       id="path24" /><path
       d="m 56.6929,41.1302 453.543,0 0,329.041 -453.543,0 0,-329.041 z"
       style="fill:none;stroke:#000000;stroke-opacity:1;stroke-width:1;stroke-linecap:butt;stroke-linejoin:miter;stroke-miterlimit:10;stroke-dasharray:none"
       id="path26" /><path
       d="m 56.6929,41.1302 453.5431,0"
       style="fill:none;stroke:#000000;stroke-opacity:1;stroke-width:1;stroke-linecap:butt;stroke-linejoin:miter;stroke-miterlimit:10;stroke-dasharray:none"
       id="path28" /><g
       id="g30"><g
         id="g32"
         clip-path="url(#clipPath34)"><text
           transform="matrix(1,0,0,-1,456.322,5.00232)"
           id="text38"><tspan
             style="fill:#000000;fill-opacity:1;fill-rule:nonzero;stroke:none;font-family:Helvetica;font-variant:normal;font-weight:bold;font-size:17.2302;writing-mode:lr;-inkscape-font-specification:Helvetica-Bold"
             x="0 10.0624368 22.5026412 33.0302934 44.5228368"
             y="0"
             sodipodi:role="line"
             id="tspan40">&lt;AoP&gt;</tspan></text>
</g></g><path
       d="m 72.6067,51.0014 0,-9.8712"
       style="fill:none;stroke:#000000;stroke-opacity:1;stroke-width:1;stroke-linecap:butt;stroke-linejoin:miter;stroke-miterlimit:10;stroke-dasharray:none"
       id="path42" /><path
       d="m 88.5205,46.0658 0,-4.9356"
       style="fill:none;stroke:#000000;stroke-opacity:1;stroke-width:1;stroke-linecap:butt;stroke-linejoin:miter;stroke-miterlimit:10;stroke-dasharray:none"
       id="path44" /><path
       d="m 104.434,46.0658 0,-4.9356"
       style="fill:none;stroke:#000000;stroke-opacity:1;stroke-width:1;stroke-linecap:butt;stroke-linejoin:miter;stroke-miterlimit:10;stroke-dasharray:none"
       id="path46" /><path
       d="m 120.348,46.0658 0,-4.9356"
       style="fill:none;stroke:#000000;stroke-opacity:1;stroke-width:1;stroke-linecap:butt;stroke-linejoin:miter;stroke-miterlimit:10;stroke-dasharray:none"
       id="path48" /><path
       d="m 136.262,46.0658 0,-4.9356"
       style="fill:none;stroke:#000000;stroke-opacity:1;stroke-width:1;stroke-linecap:butt;stroke-linejoin:miter;stroke-miterlimit:10;stroke-dasharray:none"
       id="path50" /><path
       d="m 152.176,51.0014 0,-9.8712"
       style="fill:none;stroke:#000000;stroke-opacity:1;stroke-width:1;stroke-linecap:butt;stroke-linejoin:miter;stroke-miterlimit:10;stroke-dasharray:none"
       id="path52" /><path
       d="m 168.09,46.0658 0,-4.9356"
       style="fill:none;stroke:#000000;stroke-opacity:1;stroke-width:1;stroke-linecap:butt;stroke-linejoin:miter;stroke-miterlimit:10;stroke-dasharray:none"
       id="path54" /><path
       d="m 184.003,46.0658 0,-4.9356"
       style="fill:none;stroke:#000000;stroke-opacity:1;stroke-width:1;stroke-linecap:butt;stroke-linejoin:miter;stroke-miterlimit:10;stroke-dasharray:none"
       id="path56" /><path
       d="m 199.917,46.0658 0,-4.9356"
       style="fill:none;stroke:#000000;stroke-opacity:1;stroke-width:1;stroke-linecap:butt;stroke-linejoin:miter;stroke-miterlimit:10;stroke-dasharray:none"
       id="path58" /><path
       d="m 215.831,46.0658 0,-4.9356"
       style="fill:none;stroke:#000000;stroke-opacity:1;stroke-width:1;stroke-linecap:butt;stroke-linejoin:miter;stroke-miterlimit:10;stroke-dasharray:none"
       id="path60" /><path
       d="m 231.745,51.0014 0,-9.8712"
       style="fill:none;stroke:#000000;stroke-opacity:1;stroke-width:1;stroke-linecap:butt;stroke-linejoin:miter;stroke-miterlimit:10;stroke-dasharray:none"
       id="path62" /><path
       d="m 247.659,46.0658 0,-4.9356"
       style="fill:none;stroke:#000000;stroke-opacity:1;stroke-width:1;stroke-linecap:butt;stroke-linejoin:miter;stroke-miterlimit:10;stroke-dasharray:none"
       id="path64" /><path
       d="m 263.572,46.0658 0,-4.9356"
       style="fill:none;stroke:#000000;stroke-opacity:1;stroke-width:1;stroke-linecap:butt;stroke-linejoin:miter;stroke-miterlimit:10;stroke-dasharray:none"
       id="path66" /><path
       d="m 279.486,46.0658 0,-4.9356"
       style="fill:none;stroke:#000000;stroke-opacity:1;stroke-width:1;stroke-linecap:butt;stroke-linejoin:miter;stroke-miterlimit:10;stroke-dasharray:none"
       id="path68" /><path
       d="m 295.4,46.0658 0,-4.9356"
       style="fill:none;stroke:#000000;stroke-opacity:1;stroke-width:1;stroke-linecap:butt;stroke-linejoin:miter;stroke-miterlimit:10;stroke-dasharray:none"
       id="path70" /><path
       d="m 311.314,51.0014 0,-9.8712"
       style="fill:none;stroke:#000000;stroke-opacity:1;stroke-width:1;stroke-linecap:butt;stroke-linejoin:miter;stroke-miterlimit:10;stroke-dasharray:none"
       id="path72" /><path
       d="m 327.228,46.0658 0,-4.9356"
       style="fill:none;stroke:#000000;stroke-opacity:1;stroke-width:1;stroke-linecap:butt;stroke-linejoin:miter;stroke-miterlimit:10;stroke-dasharray:none"
       id="path74" /><path
       d="m 343.141,46.0658 0,-4.9356"
       style="fill:none;stroke:#000000;stroke-opacity:1;stroke-width:1;stroke-linecap:butt;stroke-linejoin:miter;stroke-miterlimit:10;stroke-dasharray:none"
       id="path76" /><path
       d="m 359.055,46.0658 0,-4.9356"
       style="fill:none;stroke:#000000;stroke-opacity:1;stroke-width:1;stroke-linecap:butt;stroke-linejoin:miter;stroke-miterlimit:10;stroke-dasharray:none"
       id="path78" /><path
       d="m 374.969,46.0658 0,-4.9356"
       style="fill:none;stroke:#000000;stroke-opacity:1;stroke-width:1;stroke-linecap:butt;stroke-linejoin:miter;stroke-miterlimit:10;stroke-dasharray:none"
       id="path80" /><path
       d="m 390.883,51.0014 0,-9.8712"
       style="fill:none;stroke:#000000;stroke-opacity:1;stroke-width:1;stroke-linecap:butt;stroke-linejoin:miter;stroke-miterlimit:10;stroke-dasharray:none"
       id="path82" /><path
       d="m 406.797,46.0658 0,-4.9356"
       style="fill:none;stroke:#000000;stroke-opacity:1;stroke-width:1;stroke-linecap:butt;stroke-linejoin:miter;stroke-miterlimit:10;stroke-dasharray:none"
       id="path84" /><path
       d="m 422.71,46.0658 0,-4.9356"
       style="fill:none;stroke:#000000;stroke-opacity:1;stroke-width:1;stroke-linecap:butt;stroke-linejoin:miter;stroke-miterlimit:10;stroke-dasharray:none"
       id="path86" /><path
       d="m 438.624,46.0658 0,-4.9356"
       style="fill:none;stroke:#000000;stroke-opacity:1;stroke-width:1;stroke-linecap:butt;stroke-linejoin:miter;stroke-miterlimit:10;stroke-dasharray:none"
       id="path88" /><path
       d="m 454.538,46.0658 0,-4.9356"
       style="fill:none;stroke:#000000;stroke-opacity:1;stroke-width:1;stroke-linecap:butt;stroke-linejoin:miter;stroke-miterlimit:10;stroke-dasharray:none"
       id="path90" /><path
       d="m 470.452,51.0014 0,-9.8712"
       style="fill:none;stroke:#000000;stroke-opacity:1;stroke-width:1;stroke-linecap:butt;stroke-linejoin:miter;stroke-miterlimit:10;stroke-dasharray:none"
       id="path92" /><path
       d="m 72.6067,51.0014 0,-9.8712"
       style="fill:none;stroke:#000000;stroke-opacity:1;stroke-width:1;stroke-linecap:butt;stroke-linejoin:miter;stroke-miterlimit:10;stroke-dasharray:none"
       id="path94" /><path
       d="m 470.452,51.0014 0,-9.8712"
       style="fill:none;stroke:#000000;stroke-opacity:1;stroke-width:1;stroke-linecap:butt;stroke-linejoin:miter;stroke-miterlimit:10;stroke-dasharray:none"
       id="path96" /><path
       d="m 486.366,46.0658 0,-4.9356"
       style="fill:none;stroke:#000000;stroke-opacity:1;stroke-width:1;stroke-linecap:butt;stroke-linejoin:miter;stroke-miterlimit:10;stroke-dasharray:none"
       id="path98" /><path
       d="m 502.279,46.0658 0,-4.9356"
       style="fill:none;stroke:#000000;stroke-opacity:1;stroke-width:1;stroke-linecap:butt;stroke-linejoin:miter;stroke-miterlimit:10;stroke-dasharray:none"
       id="path100" /><g
       id="g102"><g
         id="g104"
         clip-path="url(#clipPath106)"><text
           transform="matrix(1,0,0,-1,68.9208,26.1232)"
           id="text110"><tspan
             style="fill:#000000;fill-opacity:1;fill-rule:nonzero;stroke:none;font-family:Helvetica;font-variant:normal;font-weight:bold;font-size:15.5628;writing-mode:lr;-inkscape-font-specification:Helvetica-Bold"
             x="0"
             y="0"
             id="tspan112">1</tspan></text>
</g></g><g
       id="g114"><g
         id="g116"
         clip-path="url(#clipPath118)"><text
           transform="matrix(1,0,0,-1,140.621,26.1232)"
           id="text122"><tspan
             style="fill:#000000;fill-opacity:1;fill-rule:nonzero;stroke:none;font-family:Helvetica;font-variant:normal;font-weight:bold;font-size:15.5628;writing-mode:lr;-inkscape-font-specification:Helvetica-Bold"
             x="0 8.6529168 12.9793752"
             y="0"
             sodipodi:role="line"
             id="tspan124">1.5</tspan></text>
</g></g><g
       id="g126"><g
         id="g128"
         clip-path="url(#clipPath130)"><text
           transform="matrix(1,0,0,-1,226.772,26.1232)"
           id="text134"><tspan
             style="fill:#000000;fill-opacity:1;fill-rule:nonzero;stroke:none;font-family:Helvetica;font-variant:normal;font-weight:bold;font-size:15.5628;writing-mode:lr;-inkscape-font-specification:Helvetica-Bold"
             x="0"
             y="0"
             id="tspan136">2</tspan></text>
</g></g><g
       id="g138"><g
         id="g140"
         clip-path="url(#clipPath142)"><text
           transform="matrix(1,0,0,-1,300.139,26.1232)"
           id="text146"><tspan
             style="fill:#000000;fill-opacity:1;fill-rule:nonzero;stroke:none;font-family:Helvetica;font-variant:normal;font-weight:bold;font-size:15.5628;writing-mode:lr;-inkscape-font-specification:Helvetica-Bold"
             x="0 8.6529168 12.9793752"
             y="0"
             sodipodi:role="line"
             id="tspan148">2.5</tspan></text>
</g></g><g
       id="g150"><g
         id="g152"
         clip-path="url(#clipPath154)"><text
           transform="matrix(1,0,0,-1,386.29,26.1232)"
           id="text158"><tspan
             style="fill:#000000;fill-opacity:1;fill-rule:nonzero;stroke:none;font-family:Helvetica;font-variant:normal;font-weight:bold;font-size:15.5628;writing-mode:lr;-inkscape-font-specification:Helvetica-Bold"
             x="0"
             y="0"
             id="tspan160">3</tspan></text>
</g></g><g
       id="g162"><g
         id="g164"
         clip-path="url(#clipPath166)"><text
           transform="matrix(1,0,0,-1,459.101,26.1232)"
           id="text170"><tspan
             style="fill:#000000;fill-opacity:1;fill-rule:nonzero;stroke:none;font-family:Helvetica;font-variant:normal;font-weight:bold;font-size:15.5628;writing-mode:lr;-inkscape-font-specification:Helvetica-Bold"
             x="0 8.6529168 12.9793752"
             y="0"
             sodipodi:role="line"
             id="tspan172">3.5</tspan></text>
</g></g><path
       d="m 56.6929,41.1302 0,329.0408"
       style="fill:none;stroke:#000000;stroke-opacity:1;stroke-width:1;stroke-linecap:butt;stroke-linejoin:miter;stroke-miterlimit:10;stroke-dasharray:none"
       id="path174" /><g
       id="g176"><g
         id="g178"
         clip-path="url(#clipPath180)"><text
           transform="matrix(0,1,1,0,21.6767,314.034)"
           id="text184"><tspan
             style="fill:#000000;fill-opacity:1;fill-rule:nonzero;stroke:none;font-family:Helvetica;font-variant:normal;font-weight:bold;font-size:17.2302;writing-mode:lr;-inkscape-font-specification:Helvetica-Bold"
             x="0 11.4925434 21.0725346 30.6525258 41.180178 46.9178346"
             y="0"
             sodipodi:role="line"
             id="tspan186">Events</tspan></text>
</g></g><path
       d="m 70.2992,41.1302 -13.6063,0"
       style="fill:none;stroke:#000000;stroke-opacity:1;stroke-width:1;stroke-linecap:butt;stroke-linejoin:miter;stroke-miterlimit:10;stroke-dasharray:none"
       id="path188" /><g
       id="g190"><g
         id="g192"
         clip-path="url(#clipPath194)"><text
           transform="matrix(1,0,0,-1,43.9092,41.686)"
           id="text198"><tspan
             style="fill:#000000;fill-opacity:1;fill-rule:nonzero;stroke:none;font-family:Helvetica;font-variant:normal;font-weight:bold;font-size:10.0046;writing-mode:lr;-inkscape-font-specification:Helvetica-Bold"
             x="0 3.3315318"
             y="0"
             sodipodi:role="line"
             id="tspan200">-1</tspan></text>
</g></g><g
       id="g202"><g
         id="g204"
         clip-path="url(#clipPath206)"><text
           transform="matrix(1,0,0,-1,27.2348,34.4604)"
           id="text210"><tspan
             style="fill:#000000;fill-opacity:1;fill-rule:nonzero;stroke:none;font-family:Helvetica;font-variant:normal;font-weight:bold;font-size:15.5628;writing-mode:lr;-inkscape-font-specification:Helvetica-Bold"
             x="0 8.6529168"
             y="0"
             sodipodi:role="line"
             id="tspan212">10</tspan></text>
</g></g><path
       d="m 63.4961,65.8931 -6.8032,0"
       style="fill:none;stroke:#000000;stroke-opacity:1;stroke-width:1;stroke-linecap:butt;stroke-linejoin:miter;stroke-miterlimit:10;stroke-dasharray:none"
       id="path214" /><path
       d="m 63.4961,80.3784 -6.8032,0"
       style="fill:none;stroke:#000000;stroke-opacity:1;stroke-width:1;stroke-linecap:butt;stroke-linejoin:miter;stroke-miterlimit:10;stroke-dasharray:none"
       id="path216" /><path
       d="m 63.4961,90.6559 -6.8032,0"
       style="fill:none;stroke:#000000;stroke-opacity:1;stroke-width:1;stroke-linecap:butt;stroke-linejoin:miter;stroke-miterlimit:10;stroke-dasharray:none"
       id="path218" /><path
       d="m 63.4961,98.6277 -6.8032,0"
       style="fill:none;stroke:#000000;stroke-opacity:1;stroke-width:1;stroke-linecap:butt;stroke-linejoin:miter;stroke-miterlimit:10;stroke-dasharray:none"
       id="path220" /><path
       d="m 63.4961,105.141 -6.8032,0"
       style="fill:none;stroke:#000000;stroke-opacity:1;stroke-width:1;stroke-linecap:butt;stroke-linejoin:miter;stroke-miterlimit:10;stroke-dasharray:none"
       id="path222" /><path
       d="m 63.4961,110.648 -6.8032,0"
       style="fill:none;stroke:#000000;stroke-opacity:1;stroke-width:1;stroke-linecap:butt;stroke-linejoin:miter;stroke-miterlimit:10;stroke-dasharray:none"
       id="path224" /><path
       d="m 63.4961,115.419 -6.8032,0"
       style="fill:none;stroke:#000000;stroke-opacity:1;stroke-width:1;stroke-linecap:butt;stroke-linejoin:miter;stroke-miterlimit:10;stroke-dasharray:none"
       id="path226" /><path
       d="m 63.4961,119.626 -6.8032,0"
       style="fill:none;stroke:#000000;stroke-opacity:1;stroke-width:1;stroke-linecap:butt;stroke-linejoin:miter;stroke-miterlimit:10;stroke-dasharray:none"
       id="path228" /><path
       d="m 70.2992,123.391 -13.6063,0"
       style="fill:none;stroke:#000000;stroke-opacity:1;stroke-width:1;stroke-linecap:butt;stroke-linejoin:miter;stroke-miterlimit:10;stroke-dasharray:none"
       id="path230" /><g
       id="g232"><g
         id="g234"
         clip-path="url(#clipPath236)"><text
           transform="matrix(1,0,0,-1,45.3743,116.943)"
           id="text240"><tspan
             style="fill:#000000;fill-opacity:1;fill-rule:nonzero;stroke:none;font-family:Helvetica;font-variant:normal;font-weight:bold;font-size:15.5628;writing-mode:lr;-inkscape-font-specification:Helvetica-Bold"
             x="0"
             y="0"
             id="tspan242">1</tspan></text>
</g></g><path
       d="m 63.4961,148.153 -6.8032,0"
       style="fill:none;stroke:#000000;stroke-opacity:1;stroke-width:1;stroke-linecap:butt;stroke-linejoin:miter;stroke-miterlimit:10;stroke-dasharray:none"
       id="path244" /><path
       d="m 63.4961,162.639 -6.8032,0"
       style="fill:none;stroke:#000000;stroke-opacity:1;stroke-width:1;stroke-linecap:butt;stroke-linejoin:miter;stroke-miterlimit:10;stroke-dasharray:none"
       id="path246" /><path
       d="m 63.4961,172.916 -6.8032,0"
       style="fill:none;stroke:#000000;stroke-opacity:1;stroke-width:1;stroke-linecap:butt;stroke-linejoin:miter;stroke-miterlimit:10;stroke-dasharray:none"
       id="path248" /><path
       d="m 63.4961,180.888 -6.8032,0"
       style="fill:none;stroke:#000000;stroke-opacity:1;stroke-width:1;stroke-linecap:butt;stroke-linejoin:miter;stroke-miterlimit:10;stroke-dasharray:none"
       id="path250" /><path
       d="m 63.4961,187.401 -6.8032,0"
       style="fill:none;stroke:#000000;stroke-opacity:1;stroke-width:1;stroke-linecap:butt;stroke-linejoin:miter;stroke-miterlimit:10;stroke-dasharray:none"
       id="path252" /><path
       d="m 63.4961,192.909 -6.8032,0"
       style="fill:none;stroke:#000000;stroke-opacity:1;stroke-width:1;stroke-linecap:butt;stroke-linejoin:miter;stroke-miterlimit:10;stroke-dasharray:none"
       id="path254" /><path
       d="m 63.4961,197.679 -6.8032,0"
       style="fill:none;stroke:#000000;stroke-opacity:1;stroke-width:1;stroke-linecap:butt;stroke-linejoin:miter;stroke-miterlimit:10;stroke-dasharray:none"
       id="path256" /><path
       d="m 63.4961,201.887 -6.8032,0"
       style="fill:none;stroke:#000000;stroke-opacity:1;stroke-width:1;stroke-linecap:butt;stroke-linejoin:miter;stroke-miterlimit:10;stroke-dasharray:none"
       id="path258" /><path
       d="m 70.2992,205.651 -13.6063,0"
       style="fill:none;stroke:#000000;stroke-opacity:1;stroke-width:1;stroke-linecap:butt;stroke-linejoin:miter;stroke-miterlimit:10;stroke-dasharray:none"
       id="path260" /><g
       id="g262"><g
         id="g264"
         clip-path="url(#clipPath266)"><text
           transform="matrix(1,0,0,-1,35.3697,199.203)"
           id="text270"><tspan
             style="fill:#000000;fill-opacity:1;fill-rule:nonzero;stroke:none;font-family:Helvetica;font-variant:normal;font-weight:bold;font-size:15.5628;writing-mode:lr;-inkscape-font-specification:Helvetica-Bold"
             x="0 8.6529168"
             y="0"
             sodipodi:role="line"
             id="tspan272">10</tspan></text>
</g></g><path
       d="m 63.4961,230.414 -6.8032,0"
       style="fill:none;stroke:#000000;stroke-opacity:1;stroke-width:1;stroke-linecap:butt;stroke-linejoin:miter;stroke-miterlimit:10;stroke-dasharray:none"
       id="path274" /><path
       d="m 63.4961,244.899 -6.8032,0"
       style="fill:none;stroke:#000000;stroke-opacity:1;stroke-width:1;stroke-linecap:butt;stroke-linejoin:miter;stroke-miterlimit:10;stroke-dasharray:none"
       id="path276" /><path
       d="m 63.4961,255.176 -6.8032,0"
       style="fill:none;stroke:#000000;stroke-opacity:1;stroke-width:1;stroke-linecap:butt;stroke-linejoin:miter;stroke-miterlimit:10;stroke-dasharray:none"
       id="path278" /><path
       d="m 63.4961,263.148 -6.8032,0"
       style="fill:none;stroke:#000000;stroke-opacity:1;stroke-width:1;stroke-linecap:butt;stroke-linejoin:miter;stroke-miterlimit:10;stroke-dasharray:none"
       id="path280" /><path
       d="m 63.4961,269.662 -6.8032,0"
       style="fill:none;stroke:#000000;stroke-opacity:1;stroke-width:1;stroke-linecap:butt;stroke-linejoin:miter;stroke-miterlimit:10;stroke-dasharray:none"
       id="path282" /><path
       d="m 63.4961,275.169 -6.8032,0"
       style="fill:none;stroke:#000000;stroke-opacity:1;stroke-width:1;stroke-linecap:butt;stroke-linejoin:miter;stroke-miterlimit:10;stroke-dasharray:none"
       id="path284" /><path
       d="m 63.4961,279.939 -6.8032,0"
       style="fill:none;stroke:#000000;stroke-opacity:1;stroke-width:1;stroke-linecap:butt;stroke-linejoin:miter;stroke-miterlimit:10;stroke-dasharray:none"
       id="path286" /><path
       d="m 63.4961,284.147 -6.8032,0"
       style="fill:none;stroke:#000000;stroke-opacity:1;stroke-width:1;stroke-linecap:butt;stroke-linejoin:miter;stroke-miterlimit:10;stroke-dasharray:none"
       id="path288" /><path
       d="m 70.2992,287.911 -13.6063,0"
       style="fill:none;stroke:#000000;stroke-opacity:1;stroke-width:1;stroke-linecap:butt;stroke-linejoin:miter;stroke-miterlimit:10;stroke-dasharray:none"
       id="path290" /><g
       id="g292"><g
         id="g294"
         clip-path="url(#clipPath296)"><text
           transform="matrix(1,0,0,-1,46.1325,287.911)"
           id="text300"><tspan
             style="fill:#000000;fill-opacity:1;fill-rule:nonzero;stroke:none;font-family:Helvetica;font-variant:normal;font-weight:bold;font-size:10.0046;writing-mode:lr;-inkscape-font-specification:Helvetica-Bold"
             x="0"
             y="0"
             id="tspan302">2</tspan></text>
</g></g><g
       id="g304"><g
         id="g306"
         clip-path="url(#clipPath308)"><text
           transform="matrix(1,0,0,-1,29.4581,280.685)"
           id="text312"><tspan
             style="fill:#000000;fill-opacity:1;fill-rule:nonzero;stroke:none;font-family:Helvetica;font-variant:normal;font-weight:bold;font-size:15.5628;writing-mode:lr;-inkscape-font-specification:Helvetica-Bold"
             x="0 8.6529168"
             y="0"
             sodipodi:role="line"
             id="tspan314">10</tspan></text>
</g></g><path
       d="m 63.4961,312.674 -6.8032,0"
       style="fill:none;stroke:#000000;stroke-opacity:1;stroke-width:1;stroke-linecap:butt;stroke-linejoin:miter;stroke-miterlimit:10;stroke-dasharray:none"
       id="path316" /><path
       d="m 63.4961,327.159 -6.8032,0"
       style="fill:none;stroke:#000000;stroke-opacity:1;stroke-width:1;stroke-linecap:butt;stroke-linejoin:miter;stroke-miterlimit:10;stroke-dasharray:none"
       id="path318" /><path
       d="m 63.4961,337.437 -6.8032,0"
       style="fill:none;stroke:#000000;stroke-opacity:1;stroke-width:1;stroke-linecap:butt;stroke-linejoin:miter;stroke-miterlimit:10;stroke-dasharray:none"
       id="path320" /><path
       d="m 63.4961,345.409 -6.8032,0"
       style="fill:none;stroke:#000000;stroke-opacity:1;stroke-width:1;stroke-linecap:butt;stroke-linejoin:miter;stroke-miterlimit:10;stroke-dasharray:none"
       id="path322" /><path
       d="m 63.4961,351.922 -6.8032,0"
       style="fill:none;stroke:#000000;stroke-opacity:1;stroke-width:1;stroke-linecap:butt;stroke-linejoin:miter;stroke-miterlimit:10;stroke-dasharray:none"
       id="path324" /><path
       d="m 63.4961,357.429 -6.8032,0"
       style="fill:none;stroke:#000000;stroke-opacity:1;stroke-width:1;stroke-linecap:butt;stroke-linejoin:miter;stroke-miterlimit:10;stroke-dasharray:none"
       id="path326" /><path
       d="m 63.4961,362.2 -6.8032,0"
       style="fill:none;stroke:#000000;stroke-opacity:1;stroke-width:1;stroke-linecap:butt;stroke-linejoin:miter;stroke-miterlimit:10;stroke-dasharray:none"
       id="path328" /><path
       d="m 63.4961,366.407 -6.8032,0"
       style="fill:none;stroke:#000000;stroke-opacity:1;stroke-width:1;stroke-linecap:butt;stroke-linejoin:miter;stroke-miterlimit:10;stroke-dasharray:none"
       id="path330" /><path
       d="m 70.2992,370.171 -13.6063,0"
       style="fill:none;stroke:#000000;stroke-opacity:1;stroke-width:1;stroke-linecap:butt;stroke-linejoin:miter;stroke-miterlimit:10;stroke-dasharray:none"
       id="path332" /><g
       id="g334"><g
         id="g336"
         clip-path="url(#clipPath338)"><text
           transform="matrix(1,0,0,-1,46.1325,370.727)"
           id="text342"><tspan
             style="fill:#000000;fill-opacity:1;fill-rule:nonzero;stroke:none;font-family:Helvetica;font-variant:normal;font-weight:bold;font-size:10.0046;writing-mode:lr;-inkscape-font-specification:Helvetica-Bold"
             x="0"
             y="0"
             id="tspan344">3</tspan></text>
</g></g><g
       id="g346"><g
         id="g348"
         clip-path="url(#clipPath350)"><text
           transform="matrix(1,0,0,-1,29.4581,362.946)"
           id="text354"><tspan
             style="fill:#000000;fill-opacity:1;fill-rule:nonzero;stroke:none;font-family:Helvetica;font-variant:normal;font-weight:bold;font-size:15.5628;writing-mode:lr;-inkscape-font-specification:Helvetica-Bold"
             x="0 8.6529168"
             y="0"
             sodipodi:role="line"
             id="tspan356">10</tspan></text>
</g></g><path
       d="m 56.6929,41.1302 0,82.2598 1.5914,0 0,-82.2598 1.5914,0 0,0 1.5914,0 0,0 1.5913,0 0,0 1.5914,0 0,82.2598 1.5914,0 0,-82.2598 1.5914,0 0,0 1.5914,0 0,146.2708 1.5913,0 0,-24.762 1.5914,0 0,18.249 1.5914,0 0,6.513 1.5914,0 0,39.249 1.5914,0 0,7.169 1.5913,0 0,3.108 1.5914,0 0,5.507 1.5914,0 0,17.735 1.5914,0 0,15 1.5914,0 0,10.532 1.5913,0 0,2.566 1.5914,0 0,22.006 1.5914,0 0,-2.78 1.5914,0 0,5.713 1.5914,0 0,5.229 1.5913,0 0,2.353 1.5914,0 0,2.475 1.5914,0 0,0.788 1.5914,0 0,1.897 1.5918,0 0,2.267 1.591,0 0,-6.862 1.591,0 0,-1.283 1.592,0 0,-0.734 1.591,0 0,-7.202 1.591,0 0,-1.861 1.592,0 0,-8.842 1.591,0 0,-2.799 1.592,0 0,-11.809 1.591,0 0,-2.281 1.591,0 0,-2.86 1.592,0 0,-7.027 1.591,0 0,-4.403 1.591,0 0,-17.861 1.592,0 0,2.785 1.591,0 0,-6.872 1.592,0 0,-14.485 1.591,0 0,4.566 1.591,0 0,-7.971 1.592,0 0,-10.278 1.591,0 0,2.306 1.592,0 0,-41.554 1.591,0 0,-18.249 1.591,0 0,24.762 1.592,0 0,-14.485 1.591,0 0,19.992 1.591,0 0,-19.992 1.592,0 0,-24.763 1.591,0 0,44.755 1.592,0 0,-44.755 1.591,0 0,0 1.591,0 0,14.486 1.592,0 0,-121.5088 1.591,0 0,0 1.591,0 0,0 1.592,0 0,0 1.591,0 0,82.2598 1.592,0 0,-82.2598 1.591,0 0,82.2598 1.591,0 0,-82.2598 1.592,0 0,0 1.591,0 0,0 1.592,0 0,0 1.591,0 0,0 1.591,0 0,0 1.592,0 0,0 1.591,0 0,0 1.591,0 0,0 1.592,0 0,0 1.591,0 0,0 1.592,0 0,0 1.591,0 0,0 1.591,0 0,0 1.592,0 0,0 1.591,0 0,0 1.591,0 0,0 1.592,0 0,0 1.591,0 0,0 1.592,0 0,0 1.591,0 0,0 1.591,0 0,0 1.592,0 0,0 1.591,0 0,0 1.591,0 0,0 1.592,0 0,0 1.591,0 0,0 1.592,0 0,0 1.591,0 0,0 1.591,0 0,0 1.592,0 0,0 1.591,0 0,0 1.592,0 0,0 1.591,0 0,0"
       style="fill:#999999;fill-opacity:1;fill-rule:evenodd;stroke:none"
       id="path358" /><path
       d="m 56.6929,123.39 1.5914,0 0,-82.2598 1.5914,0 0,0 1.5914,0 0,0 1.5913,0 0,0 1.5914,0 0,82.2598 1.5914,0 0,-82.2598 1.5914,0 0,0 1.5914,0 0,146.2708 1.5913,0 0,-24.762 1.5914,0 0,18.249 1.5914,0 0,6.513 1.5914,0 0,39.249 1.5914,0 0,7.169 1.5913,0 0,3.108 1.5914,0 0,5.507 1.5914,0 0,17.735 1.5914,0 0,15 1.5914,0 0,10.532 1.5913,0 0,2.566 1.5914,0 0,22.006 1.5914,0 0,-2.78 1.5914,0 0,5.713 1.5914,0 0,5.229 1.5913,0 0,2.353 1.5914,0 0,2.475 1.5914,0 0,0.788 1.5914,0 0,1.897 1.5918,0 0,2.267 1.591,0 0,-6.862 1.591,0 0,-1.283 1.592,0 0,-0.734 1.591,0 0,-7.202 1.591,0 0,-1.861 1.592,0 0,-8.842 1.591,0 0,-2.799 1.592,0 0,-11.809 1.591,0 0,-2.281 1.591,0 0,-2.86 1.592,0 0,-7.027 1.591,0 0,-4.403 1.591,0 0,-17.861 1.592,0 0,2.785 1.591,0 0,-6.872 1.592,0 0,-14.485 1.591,0 0,4.566 1.591,0 0,-7.971 1.592,0 0,-10.278 1.591,0 0,2.306 1.592,0 0,-41.554 1.591,0 0,-18.249 1.591,0 0,24.762 1.592,0 0,-14.485 1.591,0 0,19.992 1.591,0 0,-19.992 1.592,0 0,-24.763 1.591,0 0,44.755 1.592,0 0,-44.755 1.591,0 0,0 1.591,0 0,14.486 1.592,0 0,-121.5088 1.591,0 0,0 1.591,0 0,0 1.592,0 0,0 1.591,0 0,82.2598 1.592,0 0,-82.2598 1.591,0 0,82.2598 1.591,0 0,-82.2598 1.592,0 0,0 1.591,0 0,0 1.592,0 0,0 1.591,0 0,0 1.591,0 0,0 1.592,0 0,0 1.591,0 0,0 1.591,0 0,0 1.592,0 0,0 1.591,0 0,0 1.592,0 0,0 1.591,0 0,0 1.591,0 0,0 1.592,0 0,0 1.591,0 0,0 1.591,0 0,0 1.592,0 0,0 1.591,0 0,0 1.592,0 0,0 1.591,0 0,0 1.591,0 0,0 1.592,0 0,0 1.591,0 0,0 1.591,0 0,0 1.592,0 0,0 1.591,0 0,0 1.592,0 0,0 1.591,0 0,0 1.591,0 0,0 1.592,0 0,0 1.591,0 0,0 1.592,0 0,0 1.591,0 0,0"
       style="fill:none;stroke:#999999;stroke-opacity:1;stroke-width:1;stroke-linecap:butt;stroke-linejoin:miter;stroke-miterlimit:10;stroke-dasharray:none"
       id="path360" /><path
       d="m 56.9836,41.1302 0,0 11.0538,0 0,0 11.0539,0 0,0 11.0538,0 0,50.5718 11.0539,0 0,14.951 11.054,0 0,-65.5228 11.054,0 0,158.3128 11.053,0 0,54.646 11.054,0 0,-38.909 11.054,0 0,35.501 11.054,0 0,4.842 11.054,0 0,29.795 11.053,0 0,16.237 11.054,0 0,1.361 11.054,0 0,-3.169 11.054,0 0,-0.475 11.054,0 0,10.656 11.053,0 0,4.912 11.054,0 0,-1.798 11.054,0 0,2.388 11.054,0 0,5.09 11.054,0 0,-0.074 11.054,0 0,-3.583 11.053,0 0,1.356 11.054,0 0,4.224 11.054,0 0,-8.796 11.054,0 0,-3.209 11.054,0 0,-5.9 11.053,0 0,-0.163 11.054,0 0,-0.627 11.054,0 0,-0.619 11.054,0 0,-10.551 11.054,0 0,-5.938 11.054,0 0,-3.626 11.053,0 0,-3.889 11.054,0 0,4.591 11.054,0 0,-21.474 11.054,0 0,2.964 11.054,0 0,-8.311 11.053,0 0,-5.804 11.054,0 0,-6.017 11.1,0"
       style="fill:none;stroke:#ff0000;stroke-opacity:1;stroke-width:3.75;stroke-linecap:butt;stroke-linejoin:miter;stroke-miterlimit:10;stroke-dasharray:none"
       id="path364" /><path
       d="m 204.691,41.1302 0,329.0408"
       style="fill:none;stroke:#000000;stroke-opacity:1;stroke-width:3.75;stroke-linecap:butt;stroke-linejoin:miter;stroke-miterlimit:10;stroke-dasharray:3,3;stroke-dashoffset:0"
       id="path366" /><path
       d="m 204.691,327.159 27.054,0"
       style="fill:none;stroke:#000000;stroke-opacity:1;stroke-width:2.25;stroke-linecap:butt;stroke-linejoin:miter;stroke-miterlimit:10;stroke-dasharray:none"
       id="path368" /><path
       d="m 226.983,329.909 4.762,-2.75 -4.762,-2.749"
       style="fill:none;stroke:#000000;stroke-opacity:1;stroke-width:2.25;stroke-linecap:butt;stroke-linejoin:miter;stroke-miterlimit:10;stroke-dasharray:none"
       id="path370" /><path
       d="m 340.157,329.041 198.425,0 0,54.8343 -198.425,0 z"
       style="fill:#ffffff;fill-opacity:1;fill-rule:evenodd;stroke:none"
       id="path372"
       inkscape:connector-curvature="0"
       sodipodi:nodetypes="ccccc" /><path
       d="m 343.492,329.041 0,-2.223 197.314,0 0,56.923 -2.223,0 0,-54.7"
       style="fill:#000000;fill-opacity:1;fill-rule:evenodd;stroke:none"
       id="path374"
       inkscape:connector-curvature="0"
       sodipodi:nodetypes="cccccc" /><path
       d="m 340.157,329.041 0,58.035 198.426,0 0,-58.035 z"
       style="fill:none;stroke:#000000;stroke-width:0.75;stroke-linecap:butt;stroke-linejoin:miter;stroke-miterlimit:10;stroke-opacity:1;stroke-dasharray:none"
       id="path376"
       inkscape:connector-curvature="0"
       sodipodi:nodetypes="ccccc" /><g
       id="g378"
       transform="translate(0,-22.4)"><g
         id="g380"
         clip-path="url(#clipPath382)"><text
           transform="matrix(1,0,0,-1,389.625,385.734)"
           id="text386"><tspan
             style="font-size:18.89760017px;font-variant:normal;font-weight:bold;writing-mode:lr-tb;fill:#999999;fill-opacity:1;fill-rule:nonzero;stroke:none;font-family:Helvetica;-inkscape-font-specification:Helvetica-Bold"
             x="0 11.546433 18.8976 29.404665 34.658199 46.204632 51.458164 63.004597 74.551033 79.804565 91.350998 101.85806 108.15096"
             y="0"
             sodipodi:role="line"
             id="tspan388">Training data</tspan></text>
</g></g><path
       d="m 347.598,359.699 34.725,0 0,17.275 -34.725,0"
       style="fill:#999999;fill-opacity:1;fill-rule:evenodd;stroke:none"
       id="path390"
       inkscape:connector-curvature="0" /><path
       d="m 347.598,376.974 34.725,0"
       style="fill:none;stroke:#000000;stroke-width:0.75;stroke-linecap:butt;stroke-linejoin:miter;stroke-miterlimit:10;stroke-opacity:1;stroke-dasharray:none"
       id="path392"
       inkscape:connector-curvature="0" /><path
       d="m 347.598,359.699 34.725,0"
       style="fill:none;stroke:#000000;stroke-width:0.75;stroke-linecap:butt;stroke-linejoin:miter;stroke-miterlimit:10;stroke-opacity:1;stroke-dasharray:none"
       id="path394"
       inkscape:connector-curvature="0" /><path
       d="m 382.323,359.699 0,17.275"
       style="fill:none;stroke:#000000;stroke-width:0.75;stroke-linecap:butt;stroke-linejoin:miter;stroke-miterlimit:10;stroke-opacity:1;stroke-dasharray:none"
       id="path396"
       inkscape:connector-curvature="0" /><path
       d="m 347.598,359.699 0,17.275"
       style="fill:none;stroke:#000000;stroke-width:0.75;stroke-linecap:butt;stroke-linejoin:miter;stroke-miterlimit:10;stroke-opacity:1;stroke-dasharray:none"
       id="path398"
       inkscape:connector-curvature="0" /><g
       id="g414"><g
         id="g416"
         clip-path="url(#clipPath418)"><text
           transform="matrix(1,0,0,-1,513.571,332.932)"
           id="text422"><tspan
             style="font-size:12.22789955px;font-variant:normal;font-weight:normal;writing-mode:lr-tb;fill:#ff0000;fill-opacity:1;fill-rule:nonzero;stroke:none;font-family:Symbol;-inkscape-font-specification:Symbol"
             x="0"
             y="0"
             id="tspan424">τ</tspan></text>
</g></g><g
       id="g426"><g
         id="g428"
         clip-path="url(#clipPath430)"><text
           transform="matrix(1,0,0,-1,503.566,336.823)"
           id="text434"><tspan
             style="font-size:18.89760017px;font-variant:normal;font-weight:normal;writing-mode:lr-tb;fill:#ff0000;fill-opacity:1;fill-rule:nonzero;stroke:none;font-family:Symbol;-inkscape-font-specification:Symbol"
             x="0"
             y="0"
             id="tspan436">ν</tspan></text>
</g></g><g
       id="g438"><g
         id="g440"
         clip-path="url(#clipPath442)"><text
           transform="matrix(1,0,0,-1,389.625,336.823)"
           id="text446"><tspan
             style="fill:#ff0000;fill-opacity:1;fill-rule:nonzero;stroke:none;font-family:Helvetica;font-variant:normal;font-weight:bold;font-size:18.8976;writing-mode:lr;-inkscape-font-specification:Helvetica-Bold"
             x="0 15.7417008 27.2881344 38.834568 45.1274688 55.6345344 60.8880672 74.5321344 85.0392 92.3903664 97.6438992 109.1903328"
             y="0"
             sodipodi:role="line"
             id="tspan448">Monte Carlo </tspan></text>
</g></g><path
       d="m 347.598,341.38 34.725,0"
       style="fill:none;stroke:#ff0000;stroke-opacity:1;stroke-width:3.75;stroke-linecap:butt;stroke-linejoin:miter;stroke-miterlimit:10;stroke-dasharray:none"
       id="path450" /><text
       xml:space="preserve"
       style="font-size:29.64446831000000060px;font-style:normal;font-variant:normal;font-weight:normal;font-stretch:normal;text-align:start;line-height:125%;letter-spacing:0px;word-spacing:0px;writing-mode:lr-tb;text-anchor:start;fill:#0011ff;fill-opacity:1;stroke:#0006ff;font-family:Amiri Quran;-inkscape-font-specification:Amiri Quran;stroke-opacity:1"
       x="214.95268"
       y="-339.87292"
       id="text3202"
       sodipodi:linespacing="125%"
       transform="scale(1,-1)"><tspan
         sodipodi:role="line"
         id="tspan3204"
         x="214.95268"
         y="-339.87292"
         style="font-style:normal;font-variant:normal;font-weight:normal;font-stretch:normal;font-family:Andale Mono;-inkscape-font-specification:Andale Mono;fill:#0011ff;fill-opacity:1;stroke:#0006ff;stroke-opacity:1">(?)</tspan></text>
</g></svg>