<?xml version="1.0" encoding="UTF-8" standalone="no"?>
<!-- Created with Inkscape (http://www.inkscape.org/) -->

<svg
   xmlns:dc="http://purl.org/dc/elements/1.1/"
   xmlns:cc="http://creativecommons.org/ns#"
   xmlns:rdf="http://www.w3.org/1999/02/22-rdf-syntax-ns#"
   xmlns:svg="http://www.w3.org/2000/svg"
   xmlns="http://www.w3.org/2000/svg"
   xmlns:sodipodi="http://sodipodi.sourceforge.net/DTD/sodipodi-0.dtd"
   xmlns:inkscape="http://www.inkscape.org/namespaces/inkscape"
   id="svg2"
   version="1.1"
   inkscape:version="0.48.4 r9939"
   width="941.59375"
   height="593.28253"
   xml:space="preserve"
   sodipodi:docname="AoP_def.pdf"><metadata
     id="metadata8"><rdf:RDF><cc:Work
         rdf:about=""><dc:format>image/svg+xml</dc:format><dc:type
           rdf:resource="http://purl.org/dc/dcmitype/StillImage" /><dc:title></dc:title></cc:Work></rdf:RDF></metadata><defs
     id="defs6" /><sodipodi:namedview
     pagecolor="#ffffff"
     bordercolor="#666666"
     borderopacity="1"
     objecttolerance="10"
     gridtolerance="10"
     guidetolerance="10"
     inkscape:pageopacity="0"
     inkscape:pageshadow="2"
     inkscape:window-width="1280"
     inkscape:window-height="724"
     id="namedview4"
     showgrid="false"
     fit-margin-top="0"
     fit-margin-left="0"
     fit-margin-right="0"
     fit-margin-bottom="0"
     inkscape:zoom="0.44215457"
     inkscape:cx="466.03126"
     inkscape:cy="288.71875"
     inkscape:window-x="0"
     inkscape:window-y="24"
     inkscape:window-maximized="1"
     inkscape:current-layer="g10" /><g
     id="g10"
     inkscape:groupmode="layer"
     inkscape:label="AoP_def"
     transform="matrix(1.25,0,0,-1.25,53.531259,571.4388)"><rect
       style="color:#000000;fill:#ffffff;fill-opacity:1;fill-rule:nonzero;stroke:#000000;stroke-width:3;stroke-linecap:round;stroke-linejoin:round;stroke-miterlimit:4;stroke-opacity:1;stroke-dasharray:none;stroke-dashoffset:0;marker:none;visibility:visible;display:inline;overflow:visible;enable-background:accumulate"
       id="rect3167"
       width="938.58582"
       height="590.29132"
       x="-52.018009"
       y="-36.18644"
       transform="matrix(0.8,0,0,-0.8,0,427)" /><g
       id="g12"
       transform="scale(0.1,0.1)"><path
         d="m 2784.34,479.52 0,2003.44 142.54,0 0,1051.56 142.53,0 0,-1255.86 156.8,0 0,-520.82 142.5,0 0,-117.1 142.54,0 0,-777.47 299.34,0 0,-383.75"
         style="fill:#999999;fill-opacity:1;fill-rule:nonzero;stroke:none"
         id="path14"
         inkscape:connector-curvature="0" /><path
         d="m 2784.34,479.52 0,2003.44 142.54,0 0,1051.56 142.53,0 0,-1255.86 156.8,0 0,-520.82 142.5,0 0,-117.1 142.54,0 0,-777.47 299.34,0 0,-383.75"
         style="fill:none;stroke:#000000;stroke-width:24;stroke-linecap:butt;stroke-linejoin:miter;stroke-miterlimit:10;stroke-opacity:1;stroke-dasharray:none"
         id="path16"
         inkscape:connector-curvature="0" /><path
         d="m 2916.02,1397.53 -30.79,-83.44 61.72,0 -30.93,83.44 z m -12.82,22.35 25.78,0 63.91,-167.66 -23.59,0 -15.32,42.97 -75.62,0 -15.16,-42.97 -23.9,0 63.9,167.66 z m 194.65,-89.07 c 4.88,-1.68 9.61,-5.23 14.22,-10.62 4.57,-5.31 9.22,-12.74 13.91,-22.19 l 22.97,-45.78 -24.38,0 -21.41,42.97 c -5.54,11.21 -10.89,18.67 -16.09,22.34 -5.23,3.71 -12.3,5.63 -21.25,5.63 l -24.69,0 0,-70.94 -22.81,0 0,167.66 51.25,0 c 19.14,0 33.44,-4.03 42.81,-12.04 9.46,-8.04 14.22,-20.11 14.22,-36.25 0,-10.54 -2.46,-19.29 -7.34,-26.25 -4.92,-6.99 -12.07,-11.83 -21.41,-14.53 z m -56.72,70.47 0,-59.53 28.44,0 c 10.9,0 19.14,2.5 24.69,7.5 5.58,5.08 8.44,12.54 8.44,22.34 0,9.77 -2.86,17.19 -8.44,22.19 -5.55,4.96 -13.79,7.5 -24.69,7.5 l -28.44,0 z m 138.32,18.6 106.1,0 0,-19.07 -83.28,0 0,-49.68 79.84,0 0,-19.07 -79.84,0 0,-60.78 85.31,0 0,-19.06 -108.13,0 0,167.66 z m 202.74,-22.35 -30.78,-83.44 61.71,0 -30.93,83.44 z m -12.81,22.35 25.78,0 63.9,-167.66 -23.59,0 -15.31,42.97 -75.63,0 -15.15,-42.97 -23.91,0 63.91,167.66 z"
         style="fill:#000000;fill-opacity:1;fill-rule:nonzero;stroke:none"
         id="path18"
         inkscape:connector-curvature="0" /><path
         d="m 2916.02,1397.53 -30.79,-83.44 61.72,0 -30.93,83.44 z m -12.82,22.35 25.78,0 63.91,-167.66 -23.59,0 -15.32,42.97 -75.62,0 -15.16,-42.97 -23.9,0 63.9,167.66 z m 194.65,-89.07 c 4.88,-1.68 9.61,-5.23 14.22,-10.62 4.57,-5.31 9.22,-12.74 13.91,-22.19 l 22.97,-45.78 -24.38,0 -21.41,42.97 c -5.54,11.21 -10.89,18.67 -16.09,22.34 -5.23,3.71 -12.3,5.63 -21.25,5.63 l -24.69,0 0,-70.94 -22.81,0 0,167.66 51.25,0 c 19.14,0 33.44,-4.03 42.81,-12.04 9.46,-8.04 14.22,-20.11 14.22,-36.25 0,-10.54 -2.46,-19.29 -7.34,-26.25 -4.92,-6.99 -12.07,-11.83 -21.41,-14.53 z m -56.72,70.47 0,-59.53 28.44,0 c 10.9,0 19.14,2.5 24.69,7.5 5.58,5.08 8.44,12.54 8.44,22.34 0,9.77 -2.86,17.19 -8.44,22.19 -5.55,4.96 -13.79,7.5 -24.69,7.5 l -28.44,0 z m 138.32,18.6 106.1,0 0,-19.07 -83.28,0 0,-49.68 79.84,0 0,-19.07 -79.84,0 0,-60.78 85.31,0 0,-19.06 -108.13,0 0,167.66 z m 202.74,-22.35 -30.78,-83.44 61.71,0 -30.93,83.44 z m -12.81,22.35 25.78,0 63.9,-167.66 -23.59,0 -15.31,42.97 -75.63,0 -15.15,-42.97 -23.91,0 63.91,167.66 z"
         style="fill:none;stroke:#ffffff;stroke-width:24;stroke-linecap:butt;stroke-linejoin:miter;stroke-miterlimit:4;stroke-opacity:1;stroke-dasharray:none"
         id="path20"
         inkscape:connector-curvature="0" /><path
         d="m 2916.02,1397.53 -30.79,-83.44 61.72,0 -30.93,83.44 z m -12.82,22.35 25.78,0 63.91,-167.66 -23.59,0 -15.32,42.97 -75.62,0 -15.16,-42.97 -23.9,0 63.9,167.66 z m 194.65,-89.07 c 4.88,-1.68 9.61,-5.23 14.22,-10.62 4.57,-5.31 9.22,-12.74 13.91,-22.19 l 22.97,-45.78 -24.38,0 -21.41,42.97 c -5.54,11.21 -10.89,18.67 -16.09,22.34 -5.23,3.71 -12.3,5.63 -21.25,5.63 l -24.69,0 0,-70.94 -22.81,0 0,167.66 51.25,0 c 19.14,0 33.44,-4.03 42.81,-12.04 9.46,-8.04 14.22,-20.11 14.22,-36.25 0,-10.54 -2.46,-19.29 -7.34,-26.25 -4.92,-6.99 -12.07,-11.83 -21.41,-14.53 z m -56.72,70.47 0,-59.53 28.44,0 c 10.9,0 19.14,2.5 24.69,7.5 5.58,5.08 8.44,12.54 8.44,22.34 0,9.77 -2.86,17.19 -8.44,22.19 -5.55,4.96 -13.79,7.5 -24.69,7.5 l -28.44,0 z m 138.32,18.6 106.1,0 0,-19.07 -83.28,0 0,-49.68 79.84,0 0,-19.07 -79.84,0 0,-60.78 85.31,0 0,-19.06 -108.13,0 0,167.66 z m 202.74,-22.35 -30.78,-83.44 61.71,0 -30.93,83.44 z m -12.81,22.35 25.78,0 63.9,-167.66 -23.59,0 -15.31,42.97 -75.63,0 -15.15,-42.97 -23.91,0 63.91,167.66 z"
         style="fill:#000000;fill-opacity:1;fill-rule:nonzero;stroke:none"
         id="path22"
         inkscape:connector-curvature="0" /><path
         d="m 590,474.719 10,10 0,3762.501 5875,0 10,10 -5895,0 0,-3782.501"
         style="fill:#ffffff;fill-opacity:1;fill-rule:evenodd;stroke:none"
         id="path24"
         inkscape:connector-curvature="0" /><path
         d="m 590,4257.22 0,-3782.501 5895,0 0,3782.501 -5895,0 0,0 z"
         style="fill:none;stroke:#000000;stroke-width:16;stroke-linecap:butt;stroke-linejoin:miter;stroke-miterlimit:10;stroke-opacity:1;stroke-dasharray:none"
         id="path26"
         inkscape:connector-curvature="0" /><path
         d="m 590,474.719 0,3782.501"
         style="fill:none;stroke:#000000;stroke-width:10;stroke-linecap:butt;stroke-linejoin:miter;stroke-miterlimit:10;stroke-opacity:1;stroke-dasharray:none"
         id="path28"
         inkscape:connector-curvature="0" /><path
         d="m 677.5,802.219 -87.5,0"
         style="fill:none;stroke:#000000;stroke-width:10;stroke-linecap:butt;stroke-linejoin:miter;stroke-miterlimit:10;stroke-opacity:1;stroke-dasharray:none"
         id="path30"
         inkscape:connector-curvature="0" /><path
         d="m 767.5,909.719 -177.5,0"
         style="fill:none;stroke:#000000;stroke-width:10;stroke-linecap:butt;stroke-linejoin:miter;stroke-miterlimit:10;stroke-opacity:1;stroke-dasharray:none"
         id="path32"
         inkscape:connector-curvature="0" /><path
         d="m 677.5,1019.72 -87.5,0"
         style="fill:none;stroke:#000000;stroke-width:10;stroke-linecap:butt;stroke-linejoin:miter;stroke-miterlimit:10;stroke-opacity:1;stroke-dasharray:none"
         id="path34"
         inkscape:connector-curvature="0" /><path
         d="m 677.5,1129.72 -87.5,0"
         style="fill:none;stroke:#000000;stroke-width:10;stroke-linecap:butt;stroke-linejoin:miter;stroke-miterlimit:10;stroke-opacity:1;stroke-dasharray:none"
         id="path36"
         inkscape:connector-curvature="0" /><path
         d="m 677.5,1237.22 -87.5,0"
         style="fill:none;stroke:#000000;stroke-width:10;stroke-linecap:butt;stroke-linejoin:miter;stroke-miterlimit:10;stroke-opacity:1;stroke-dasharray:none"
         id="path38"
         inkscape:connector-curvature="0" /><path
         d="m 767.5,1347.22 -177.5,0"
         style="fill:none;stroke:#000000;stroke-width:10;stroke-linecap:butt;stroke-linejoin:miter;stroke-miterlimit:10;stroke-opacity:1;stroke-dasharray:none"
         id="path40"
         inkscape:connector-curvature="0" /><path
         d="m 677.5,1454.72 -87.5,0"
         style="fill:none;stroke:#000000;stroke-width:10;stroke-linecap:butt;stroke-linejoin:miter;stroke-miterlimit:10;stroke-opacity:1;stroke-dasharray:none"
         id="path42"
         inkscape:connector-curvature="0" /><path
         d="m 677.5,1564.72 -87.5,0"
         style="fill:none;stroke:#000000;stroke-width:10;stroke-linecap:butt;stroke-linejoin:miter;stroke-miterlimit:10;stroke-opacity:1;stroke-dasharray:none"
         id="path44"
         inkscape:connector-curvature="0" /><path
         d="m 677.5,1674.72 -87.5,0"
         style="fill:none;stroke:#000000;stroke-width:10;stroke-linecap:butt;stroke-linejoin:miter;stroke-miterlimit:10;stroke-opacity:1;stroke-dasharray:none"
         id="path46"
         inkscape:connector-curvature="0" /><path
         d="m 767.5,1782.22 -177.5,0"
         style="fill:none;stroke:#000000;stroke-width:10;stroke-linecap:butt;stroke-linejoin:miter;stroke-miterlimit:10;stroke-opacity:1;stroke-dasharray:none"
         id="path48"
         inkscape:connector-curvature="0" /><path
         d="m 677.5,1892.22 -87.5,0"
         style="fill:none;stroke:#000000;stroke-width:10;stroke-linecap:butt;stroke-linejoin:miter;stroke-miterlimit:10;stroke-opacity:1;stroke-dasharray:none"
         id="path50"
         inkscape:connector-curvature="0" /><path
         d="m 677.5,1999.72 -87.5,0"
         style="fill:none;stroke:#000000;stroke-width:10;stroke-linecap:butt;stroke-linejoin:miter;stroke-miterlimit:10;stroke-opacity:1;stroke-dasharray:none"
         id="path52"
         inkscape:connector-curvature="0" /><path
         d="m 677.5,2109.72 -87.5,0"
         style="fill:none;stroke:#000000;stroke-width:10;stroke-linecap:butt;stroke-linejoin:miter;stroke-miterlimit:10;stroke-opacity:1;stroke-dasharray:none"
         id="path54"
         inkscape:connector-curvature="0" /><path
         d="m 767.5,2217.22 -177.5,0"
         style="fill:none;stroke:#000000;stroke-width:10;stroke-linecap:butt;stroke-linejoin:miter;stroke-miterlimit:10;stroke-opacity:1;stroke-dasharray:none"
         id="path56"
         inkscape:connector-curvature="0" /><path
         d="m 677.5,2327.22 -87.5,0"
         style="fill:none;stroke:#000000;stroke-width:10;stroke-linecap:butt;stroke-linejoin:miter;stroke-miterlimit:10;stroke-opacity:1;stroke-dasharray:none"
         id="path58"
         inkscape:connector-curvature="0" /><path
         d="m 677.5,2437.22 -87.5,0"
         style="fill:none;stroke:#000000;stroke-width:10;stroke-linecap:butt;stroke-linejoin:miter;stroke-miterlimit:10;stroke-opacity:1;stroke-dasharray:none"
         id="path60"
         inkscape:connector-curvature="0" /><path
         d="m 677.5,2544.72 -87.5,0"
         style="fill:none;stroke:#000000;stroke-width:10;stroke-linecap:butt;stroke-linejoin:miter;stroke-miterlimit:10;stroke-opacity:1;stroke-dasharray:none"
         id="path62"
         inkscape:connector-curvature="0" /><path
         d="m 767.5,2654.72 -177.5,0"
         style="fill:none;stroke:#000000;stroke-width:10;stroke-linecap:butt;stroke-linejoin:miter;stroke-miterlimit:10;stroke-opacity:1;stroke-dasharray:none"
         id="path64"
         inkscape:connector-curvature="0" /><path
         d="m 677.5,2762.22 -87.5,0"
         style="fill:none;stroke:#000000;stroke-width:10;stroke-linecap:butt;stroke-linejoin:miter;stroke-miterlimit:10;stroke-opacity:1;stroke-dasharray:none"
         id="path66"
         inkscape:connector-curvature="0" /><path
         d="m 677.5,2872.22 -87.5,0"
         style="fill:none;stroke:#000000;stroke-width:10;stroke-linecap:butt;stroke-linejoin:miter;stroke-miterlimit:10;stroke-opacity:1;stroke-dasharray:none"
         id="path68"
         inkscape:connector-curvature="0" /><path
         d="m 677.5,2982.22 -87.5,0"
         style="fill:none;stroke:#000000;stroke-width:10;stroke-linecap:butt;stroke-linejoin:miter;stroke-miterlimit:10;stroke-opacity:1;stroke-dasharray:none"
         id="path70"
         inkscape:connector-curvature="0" /><path
         d="m 767.5,3089.72 -177.5,0"
         style="fill:none;stroke:#000000;stroke-width:10;stroke-linecap:butt;stroke-linejoin:miter;stroke-miterlimit:10;stroke-opacity:1;stroke-dasharray:none"
         id="path72"
         inkscape:connector-curvature="0" /><path
         d="m 677.5,3199.72 -87.5,0"
         style="fill:none;stroke:#000000;stroke-width:10;stroke-linecap:butt;stroke-linejoin:miter;stroke-miterlimit:10;stroke-opacity:1;stroke-dasharray:none"
         id="path74"
         inkscape:connector-curvature="0" /><path
         d="m 677.5,3307.22 -87.5,0"
         style="fill:none;stroke:#000000;stroke-width:10;stroke-linecap:butt;stroke-linejoin:miter;stroke-miterlimit:10;stroke-opacity:1;stroke-dasharray:none"
         id="path76"
         inkscape:connector-curvature="0" /><path
         d="m 677.5,3417.22 -87.5,0"
         style="fill:none;stroke:#000000;stroke-width:10;stroke-linecap:butt;stroke-linejoin:miter;stroke-miterlimit:10;stroke-opacity:1;stroke-dasharray:none"
         id="path78"
         inkscape:connector-curvature="0" /><path
         d="m 767.5,3524.72 -177.5,0"
         style="fill:none;stroke:#000000;stroke-width:10;stroke-linecap:butt;stroke-linejoin:miter;stroke-miterlimit:10;stroke-opacity:1;stroke-dasharray:none"
         id="path80"
         inkscape:connector-curvature="0" /><path
         d="m 677.5,3634.72 -87.5,0"
         style="fill:none;stroke:#000000;stroke-width:10;stroke-linecap:butt;stroke-linejoin:miter;stroke-miterlimit:10;stroke-opacity:1;stroke-dasharray:none"
         id="path82"
         inkscape:connector-curvature="0" /><path
         d="m 677.5,3744.72 -87.5,0"
         style="fill:none;stroke:#000000;stroke-width:10;stroke-linecap:butt;stroke-linejoin:miter;stroke-miterlimit:10;stroke-opacity:1;stroke-dasharray:none"
         id="path84"
         inkscape:connector-curvature="0" /><path
         d="m 677.5,3852.22 -87.5,0"
         style="fill:none;stroke:#000000;stroke-width:10;stroke-linecap:butt;stroke-linejoin:miter;stroke-miterlimit:10;stroke-opacity:1;stroke-dasharray:none"
         id="path86"
         inkscape:connector-curvature="0" /><path
         d="m 767.5,3962.22 -177.5,0"
         style="fill:none;stroke:#000000;stroke-width:10;stroke-linecap:butt;stroke-linejoin:miter;stroke-miterlimit:10;stroke-opacity:1;stroke-dasharray:none"
         id="path88"
         inkscape:connector-curvature="0" /><path
         d="m 767.5,3962.22 -177.5,0"
         style="fill:none;stroke:#000000;stroke-width:10;stroke-linecap:butt;stroke-linejoin:miter;stroke-miterlimit:10;stroke-opacity:1;stroke-dasharray:none"
         id="path90"
         inkscape:connector-curvature="0" /><path
         d="m 677.5,4069.72 -87.5,0"
         style="fill:none;stroke:#000000;stroke-width:10;stroke-linecap:butt;stroke-linejoin:miter;stroke-miterlimit:10;stroke-opacity:1;stroke-dasharray:none"
         id="path92"
         inkscape:connector-curvature="0" /><path
         d="m 677.5,4179.72 -87.5,0"
         style="fill:none;stroke:#000000;stroke-width:10;stroke-linecap:butt;stroke-linejoin:miter;stroke-miterlimit:10;stroke-opacity:1;stroke-dasharray:none"
         id="path94"
         inkscape:connector-curvature="0" /><path
         d="m 350,963.238 c -13.871,0 -25.699,-5.828 -33.551,-16.488 -7.469,-9.922 -10.937,-26.371 -10.937,-51.129 0,-22.582 3.078,-38.672 9.097,-48.441 7.692,-12.11 20.27,-18.942 35.391,-18.942 14.059,0 25.551,5.582 33.551,16.442 7.308,9.769 10.98,26.371 10.98,50.23 0,23.481 -2.929,39.379 -9.14,49.301 C 377.73,956.52 365.16,963.238 350,963.238 l 0,0 z m 0,-20 c 6.41,0 11.559,-3.679 14.57,-10.429 2.5,-5.508 3.95,-19.77 3.95,-37.5 0,-14.457 -1.45,-29.11 -3.211,-34.219 -2.848,-7.66 -8.2,-11.879 -15.309,-11.879 -6.559,0 -11.559,3.48 -14.57,10.039 -2.5,5.512 -3.91,19.219 -3.91,36.41 0,15.192 1.41,30 3.21,35.27 2.809,7.89 8.161,12.269 15.27,12.269"
         style="fill:#000000;fill-opacity:1;fill-rule:nonzero;stroke:none"
         id="path96"
         inkscape:connector-curvature="0" /><path
         d="m 412.5,832.219 26.9883,0 0,26.0195 -26.9883,0 0,-26.0195 z"
         style="fill:#000000;fill-opacity:1;fill-rule:nonzero;stroke:none"
         id="path98"
         inkscape:connector-curvature="0" /><path
         d="m 543.949,855.23 -54.769,0 c 3.281,6.829 7.3,10.469 26.289,24.141 22.461,16.25 29.062,25.969 29.062,43.277 0,24.692 -17.191,40.59 -44.453,40.59 -26.84,0 -42.578,-15.75 -42.578,-42.859 l 0,-4.488 24.02,0 0,4.058 c 0,14.071 6.8,22.27 18.601,22.27 11.399,0 18.399,-7.77 18.399,-20.59 0,-14.059 -4.54,-19.641 -32.821,-39.641 -21.75,-14.808 -28.469,-26.136 -29.758,-49.769 l 88.039,0"
         style="fill:#000000;fill-opacity:1;fill-rule:nonzero;stroke:none"
         id="path100"
         inkscape:connector-curvature="0" /><path
         d="m 340,1400.23 c -13.871,0 -25.699,-5.78 -33.551,-16.45 -7.469,-9.96 -10.937,-26.4 -10.937,-51.17 0,-22.58 3.078,-38.67 9.097,-48.4 7.692,-12.11 20.27,-18.98 35.391,-18.98 14.059,0 25.551,5.58 33.551,16.44 7.308,9.77 10.98,26.37 10.98,50.24 0,23.47 -2.929,39.37 -9.14,49.33 -7.661,12.27 -20.231,18.99 -35.391,18.99 l 0,0 z m 0,-20 c 6.41,0 11.559,-3.67 14.57,-10.43 2.5,-5.51 3.95,-19.77 3.95,-37.5 0,-14.46 -1.45,-29.06 -3.211,-34.22 -2.848,-7.66 -8.2,-11.88 -15.309,-11.88 -6.559,0 -11.559,3.48 -14.57,10.08 -2.5,5.47 -3.91,19.18 -3.91,36.37 0,15.19 1.41,30 3.21,35.31 2.809,7.85 8.161,12.23 15.27,12.23"
         style="fill:#000000;fill-opacity:1;fill-rule:nonzero;stroke:none"
         id="path102"
         inkscape:connector-curvature="0" /><path
         d="m 402.5,1269.21 26.9883,0 0,26.0195 -26.9883,0 0,-26.0195 z"
         style="fill:#000000;fill-opacity:1;fill-rule:nonzero;stroke:none"
         id="path104"
         inkscape:connector-curvature="0" /><path
         d="m 535,1318.24 -13.48,0 0,79.37 -29.84,0 -46.84,-78.91 0,-21.48 50.672,0 0,-27.97 26.008,0 0,27.97 13.48,0 0,21.02 z m -39.488,0 -32.742,0 32.742,55.27"
         style="fill:#000000;fill-opacity:1;fill-rule:nonzero;stroke:none"
         id="path106"
         inkscape:connector-curvature="0" /><path
         d="m 340,1838.24 c -13.871,0 -25.699,-5.83 -33.551,-16.49 -7.469,-9.92 -10.937,-26.37 -10.937,-51.13 0,-22.58 3.078,-38.67 9.097,-48.44 7.692,-12.11 20.27,-18.94 35.391,-18.94 14.059,0 25.551,5.58 33.551,16.44 7.308,9.77 10.98,26.37 10.98,50.23 0,23.48 -2.929,39.38 -9.14,49.3 -7.661,12.31 -20.231,19.03 -35.391,19.03 l 0,0 z m 0,-20 c 6.41,0 11.559,-3.68 14.57,-10.43 2.5,-5.51 3.95,-19.77 3.95,-37.5 0,-14.46 -1.45,-29.11 -3.211,-34.22 -2.848,-7.66 -8.2,-11.88 -15.309,-11.88 -6.559,0 -11.559,3.48 -14.57,10.04 -2.5,5.51 -3.91,19.22 -3.91,36.41 0,15.19 1.41,30 3.21,35.27 2.809,7.89 8.161,12.27 15.27,12.27"
         style="fill:#000000;fill-opacity:1;fill-rule:nonzero;stroke:none"
         id="path108"
         inkscape:connector-curvature="0" /><path
         d="m 402.5,1707.22 26.9883,0 0,26.0195 -26.9883,0 0,-26.0195 z"
         style="fill:#000000;fill-opacity:1;fill-rule:nonzero;stroke:none"
         id="path110"
         inkscape:connector-curvature="0" /><path
         d="m 532.34,1806.44 c -1.289,8.32 -2.891,12.46 -6.129,17.15 -6.723,9.22 -18.441,14.65 -32.383,14.65 -15.898,0 -28.906,-7.08 -36.68,-19.89 -7.578,-12.5 -10.628,-26.76 -10.628,-50.08 0,-22.03 2.699,-35.78 9.218,-46.05 7.383,-11.95 20.782,-18.98 35.942,-18.98 25.468,0 42.851,19.25 42.851,47.22 0,24.69 -15.191,41.76 -37.23,41.76 -10.5,0 -17.531,-3.16 -25.5,-11.84 0.539,13.71 0.539,13.71 1.64,19.22 2.34,11.68 9.571,18.64 19.68,18.64 8.129,0 12.5,-3.36 15.75,-11.76 l 23.469,-0.04 0,0 z m -41.168,-34.22 c 11.758,0 19.34,-9.41 19.34,-23.83 0,-14.02 -8.321,-24.18 -19.492,-24.18 -11.571,0 -19.5,9.81 -19.5,23.63 0,14.42 7.929,24.38 19.652,24.38"
         style="fill:#000000;fill-opacity:1;fill-rule:nonzero;stroke:none"
         id="path112"
         inkscape:connector-curvature="0" /><path
         d="m 350,2273.24 c -13.871,0 -25.699,-5.83 -33.551,-16.49 -7.469,-9.92 -10.937,-26.37 -10.937,-51.13 0,-22.58 3.078,-38.67 9.097,-48.44 7.692,-12.11 20.27,-18.94 35.391,-18.94 14.059,0 25.551,5.58 33.551,16.44 7.308,9.77 10.98,26.37 10.98,50.23 0,23.48 -2.929,39.38 -9.14,49.3 -7.661,12.31 -20.231,19.03 -35.391,19.03 l 0,0 z m 0,-20 c 6.41,0 11.559,-3.68 14.57,-10.43 2.5,-5.51 3.95,-19.77 3.95,-37.5 0,-14.46 -1.45,-29.11 -3.211,-34.22 -2.848,-7.66 -8.2,-11.88 -15.309,-11.88 -6.559,0 -11.559,3.48 -14.57,10.04 -2.5,5.51 -3.91,19.22 -3.91,36.41 0,15.19 1.41,30 3.21,35.27 2.809,7.89 8.161,12.27 15.27,12.27"
         style="fill:#000000;fill-opacity:1;fill-rule:nonzero;stroke:none"
         id="path114"
         inkscape:connector-curvature="0" /><path
         d="m 412.5,2142.22 26.9883,0 0,26.0195 -26.9883,0 0,-26.0195 z"
         style="fill:#000000;fill-opacity:1;fill-rule:nonzero;stroke:none"
         id="path116"
         inkscape:connector-curvature="0" /><path
         d="m 524.57,2212.14 c 4.41,2.35 6.45,3.6 8.442,5.39 5.347,4.88 8.468,12.66 8.468,20.98 0,20.08 -17.5,34.73 -41.402,34.73 -24.058,0 -41.558,-14.65 -41.558,-34.93 0,-12.26 5.152,-20.04 16.949,-26.17 -14.809,-7.97 -20.981,-17.73 -20.981,-32.89 0,-24.22 18.633,-41.01 45.59,-41.01 26.762,0 45.434,16.79 45.434,41.01 0,15.16 -6.133,24.92 -20.981,32.89 l 0.039,0 0,0 z m -24.492,41.1 c 11.481,0 19.41,-6.96 19.41,-17.04 0,-9.84 -8.117,-16.99 -19.41,-16.99 -11.449,0 -19.566,7.11 -19.566,17.19 0,9.88 7.929,16.84 19.566,16.84 l 0,0 z m -0.156,-51.02 c 12.066,0 19.566,-8.48 19.566,-22.15 0,-12.54 -7.687,-20.86 -19.566,-20.86 -11.91,0 -19.41,8.32 -19.41,21.21 0,13.32 7.687,21.8 19.41,21.8"
         style="fill:#000000;fill-opacity:1;fill-rule:nonzero;stroke:none"
         id="path118"
         inkscape:connector-curvature="0" /><path
         d="m 513.52,2657.77 0,-88.56 25.968,0 0,128.4 -16.988,0 c -4.02,-15.23 -17.379,-23.01 -39.691,-23.01 l 0,-16.83"
         style="fill:#000000;fill-opacity:1;fill-rule:nonzero;stroke:none"
         id="path120"
         inkscape:connector-curvature="0" /><path
         d="m 343.52,3092.77 0,-88.56 25.968,0 0,128.4 -16.988,0 c -4.02,-15.23 -17.379,-23.01 -39.691,-23.01 l 0,-16.83"
         style="fill:#000000;fill-opacity:1;fill-rule:nonzero;stroke:none"
         id="path122"
         inkscape:connector-curvature="0" /><path
         d="m 412.5,3004.21 26.9883,0 0,26.0195 -26.9883,0 0,-26.0195 z"
         style="fill:#000000;fill-opacity:1;fill-rule:nonzero;stroke:none"
         id="path124"
         inkscape:connector-curvature="0" /><path
         d="m 543.949,3027.22 -54.769,0 c 3.281,6.87 7.3,10.47 26.289,24.18 22.461,16.21 29.062,25.94 29.062,43.24 0,24.69 -17.191,40.59 -44.453,40.59 -26.84,0 -42.578,-15.74 -42.578,-42.82 l 0,-4.53 24.02,0 0,4.11 c 0,14.02 6.8,22.22 18.601,22.22 11.399,0 18.399,-7.77 18.399,-20.55 0,-14.06 -4.54,-19.64 -32.821,-39.68 -21.75,-14.77 -28.469,-26.14 -29.758,-49.77 l 88.039,0"
         style="fill:#000000;fill-opacity:1;fill-rule:nonzero;stroke:none"
         id="path126"
         inkscape:connector-curvature="0" /><path
         d="m 333.52,3530.77 0,-88.55 25.968,0 0,128.36 -16.988,0 c -4.02,-15.2 -17.379,-22.97 -39.691,-22.97 l 0,-16.84"
         style="fill:#000000;fill-opacity:1;fill-rule:nonzero;stroke:none"
         id="path128"
         inkscape:connector-curvature="0" /><path
         d="m 402.5,3442.22 26.9883,0 0,26.0195 -26.9883,0 0,-26.0195 z"
         style="fill:#000000;fill-opacity:1;fill-rule:nonzero;stroke:none"
         id="path130"
         inkscape:connector-curvature="0" /><path
         d="m 535,3491.24 -13.48,0 0,79.34 -29.84,0 -46.84,-78.91 0,-21.44 50.672,0 0,-28.01 26.008,0 0,28.01 13.48,0 0,21.01 z m -39.488,0 -32.742,0 32.742,55.28"
         style="fill:#000000;fill-opacity:1;fill-rule:nonzero;stroke:none"
         id="path132"
         inkscape:connector-curvature="0" /><path
         d="m 333.52,3967.77 0,-88.56 25.968,0 0,128.4 -16.988,0 c -4.02,-15.23 -17.379,-23.01 -39.691,-23.01 l 0,-16.83"
         style="fill:#000000;fill-opacity:1;fill-rule:nonzero;stroke:none"
         id="path134"
         inkscape:connector-curvature="0" /><path
         d="m 402.5,3879.21 26.9883,0 0,26.0195 -26.9883,0 0,-26.0195 z"
         style="fill:#000000;fill-opacity:1;fill-rule:nonzero;stroke:none"
         id="path136"
         inkscape:connector-curvature="0" /><path
         d="m 532.34,3978.43 c -1.289,8.32 -2.891,12.46 -6.129,17.15 -6.723,9.22 -18.441,14.65 -32.383,14.65 -15.898,0 -28.906,-7.07 -36.68,-19.89 -7.578,-12.46 -10.628,-26.75 -10.628,-50.03 0,-22.07 2.699,-35.79 9.218,-46.1 7.383,-11.95 20.782,-18.98 35.942,-18.98 25.468,0 42.851,19.26 42.851,47.22 0,24.69 -15.191,41.8 -37.23,41.8 -10.5,0 -17.531,-3.2 -25.5,-11.87 0.539,13.71 0.539,13.71 1.64,19.21 2.34,11.68 9.571,18.64 19.68,18.64 8.129,0 12.5,-3.36 15.75,-11.76 l 23.469,-0.04 0,0 z m -41.168,-34.22 c 11.758,0 19.34,-9.41 19.34,-23.79 0,-14.06 -8.321,-24.18 -19.492,-24.18 -11.571,0 -19.5,9.77 -19.5,23.64 0,14.37 7.929,24.37 19.652,24.37"
         style="fill:#000000;fill-opacity:1;fill-rule:nonzero;stroke:none"
         id="path138"
         inkscape:connector-curvature="0" /><path
         d="m 2724.77,187.379 123.43,0 0,-16.57 -51.87,0 0,-129.2192 -19.69,0 0,129.2192 -51.87,0 0,16.57 z m 135.54,-36.41 17.97,0 0,-109.3792 -17.97,0 0,109.3792 z m 0,42.66 17.97,0 0,-22.82 -17.97,0 0,22.82 z m 148.91,-92.82 0,-8.7504 -82.5,0 c 0.7,-12.418 4.41,-21.9102 11.09,-28.4297 6.64,-6.4883 15.98,-9.6875 27.97,-9.6875 6.84,0 13.52,0.8203 20,2.5 6.45,1.7578 12.89,4.2969 19.38,7.6484 l 0,-16.871 c -6.49,-2.8086 -13.09,-4.918 -19.85,-6.25 -6.79,-1.4493 -13.67,-2.1876 -20.62,-2.1876 -17.5,0 -31.37,5.0391 -41.57,15.1602 -10.11,10.1875 -15.15,23.9375 -15.15,41.25 0,17.8866 4.76,32.1096 14.37,42.6486 9.65,10.512 22.74,15.789 39.22,15.789 14.65,0 26.29,-4.77 34.85,-14.219 8.51,-9.5 12.81,-22.39 12.81,-38.601 z m -17.97,5.32 c -0.12,9.762 -2.89,17.57 -8.28,23.43 -5.31,5.82 -12.42,8.75 -21.25,8.75 -10,0 -18.05,-2.848 -24.06,-8.43 -6.06,-5.629 -9.57,-13.641 -10.47,-23.91 l 64.06,0.16 z m 132.73,23.902 c 4.46,8.008 9.85,13.949 16.1,17.809 6.21,3.832 13.59,5.789 22.03,5.789 11.33,0 20.08,-4.027 26.25,-12.039 6.21,-7.93 9.37,-19.25 9.37,-33.899 l 0,-66.1012 -17.96,0 0,65.4692 c 0,10.39 -1.92,18.171 -5.63,23.281 -3.75,5.082 -9.45,7.66 -17.03,7.66 -9.3,0 -16.64,-3.16 -22.03,-9.371 -5.43,-6.18 -8.13,-14.57 -8.13,-25.16 l 0,-61.8792 -18.12,0 0,65.4692 c 0,10.511 -1.92,18.281 -5.63,23.281 -3.67,5.082 -9.33,7.66 -17.03,7.66 -9.18,0 -16.48,-3.16 -21.87,-9.371 -5.43,-6.18 -8.13,-14.57 -8.13,-25.16 l 0,-61.8792 -18.12,0 0,109.3792 18.12,0 0,-17.028 c 4.03,6.758 8.95,11.719 14.69,14.84 5.7,3.207 12.54,4.848 20.47,4.848 7.89,0 14.61,-2.07 20.15,-6.098 5.59,-4.062 9.77,-9.922 12.5,-17.5 z M 3251.09,58 l 0,-57.96875 -18.12,0 0,150.93775 18.12,0 0,-16.559 c 3.71,6.442 8.48,11.25 14.22,14.371 5.82,3.207 12.74,4.848 20.78,4.848 13.21,0 23.99,-5.359 32.35,-15.938 8.32,-10.55 12.5,-24.421 12.5,-41.5621 0,-17.1875 -4.18,-31.0586 -12.5,-41.5703 -8.36,-10.5391 -19.14,-15.7774 -32.35,-15.7774 -8.04,0 -14.96,1.5977 -20.78,4.6876 -5.74,3.2031 -10.51,8.0507 -14.22,14.5312 z m 61.1,38.1289 c 0,13.1991 -2.74,23.5901 -8.13,31.0901 -5.43,7.582 -12.89,11.41 -22.34,11.41 -9.61,0 -17.11,-3.828 -22.5,-11.41 -5.43,-7.5 -8.13,-17.891 -8.13,-31.0901 0,-13.1289 2.7,-23.5195 8.13,-31.0977 5.39,-7.5 12.89,-11.25 22.5,-11.25 9.45,0 16.91,3.75 22.34,11.25 5.39,7.5782 8.13,17.9688 8.13,31.0977 z m 90.86,42.1801 c -9.69,0 -17.39,-3.789 -22.97,-11.25 -5.55,-7.5 -8.28,-17.848 -8.28,-30.9301 0,-13.0508 2.73,-23.3594 8.28,-30.9375 5.58,-7.5 13.28,-11.25 22.97,-11.25 9.57,0 17.11,3.75 22.65,11.25 5.59,7.5781 8.44,17.8867 8.44,30.9375 0,13.0001 -2.85,23.2811 -8.44,30.7811 -5.54,7.578 -13.08,11.399 -22.65,11.399 z m 0,15.32 c 15.58,0 27.85,-5.117 36.72,-15.32 8.94,-10.11 13.43,-24.18 13.43,-42.1801 0,-17.8203 -4.49,-31.8398 -13.43,-42.0391 -8.87,-10.2304 -21.14,-15.3086 -36.72,-15.3086 -15.75,0 -28.05,5.0782 -36.88,15.3086 -8.87,10.1993 -13.28,24.2188 -13.28,42.0391 0,18.0001 4.41,32.0701 13.28,42.1801 8.83,10.203 21.13,15.32 36.88,15.32 z m 141.87,40 41.41,0 0,-14.07 -23.44,0 0,-150.309 23.44,0 0,-14.0586 -41.41,0 0,178.4376 z m 170.78,-85.938 0,-66.1012 -17.97,0 0,65.4692 c 0,10.281 -2.07,18.011 -6.09,23.132 -4.06,5.188 -10.12,7.809 -18.12,7.809 -9.81,0 -17.54,-3.16 -23.13,-9.371 -5.55,-6.18 -8.28,-14.57 -8.28,-25.16 l 0,-61.8792 -18.13,0 0,109.3792 18.13,0 0,-17.028 c 4.26,6.52 9.3,11.438 15.16,14.688 5.82,3.32 12.53,5 20.15,5 12.58,0 22.11,-3.949 28.6,-11.719 6.44,-7.738 9.68,-19.14 9.68,-34.219 z m 105.71,40 0,-16.882 c -5.12,2.582 -10.43,4.531 -15.94,5.781 -5.43,1.332 -11.06,2.039 -16.88,2.039 -8.98,0 -15.7,-1.449 -20.15,-4.219 -4.38,-2.738 -6.56,-6.801 -6.56,-12.191 0,-4.18 1.56,-7.457 4.68,-9.84 3.21,-2.43 9.61,-4.731 19.22,-6.879 l 6.25,-1.25 c 12.7,-2.809 21.72,-6.7617 27.03,-11.7188 5.39,-4.9218 8.13,-11.832 8.13,-20.7812 0,-10.1211 -4.03,-18.1602 -12.03,-24.0586 -8.05,-5.9414 -19.11,-8.9102 -33.13,-8.9102 -5.86,0 -11.95,0.5899 -18.28,1.7188 -6.37,1.1289 -13.09,2.8516 -20.16,5.1602 l 0,18.4296 c 6.64,-3.4296 13.21,-6.0507 19.69,-7.8086 6.45,-1.6796 12.85,-2.5 19.22,-2.5 8.4,0 14.88,1.4493 19.38,4.379 4.57,2.8906 6.87,6.9492 6.87,12.1796 0,4.8907 -1.68,8.6407 -5,11.25 -3.24,2.5821 -10.43,5.0821 -21.56,7.5 l -6.25,1.5704 c -11.17,2.2617 -19.26,5.8203 -24.22,10.6208 -4.92,4.879 -7.34,11.598 -7.34,20.16 0,10.188 3.63,18.118 10.93,23.75 7.27,5.579 17.66,8.438 31.1,8.438 6.64,0 12.89,-0.551 18.75,-1.57 5.82,-0.93 11.25,-2.418 16.25,-4.368 z m 128.04,-46.882 0,-8.7504 -82.5,0 c 0.71,-12.418 4.42,-21.9102 11.1,-28.4297 6.64,-6.4883 15.97,-9.6875 27.97,-9.6875 6.83,0 13.51,0.8203 20,2.5 6.44,1.7578 12.89,4.2969 19.37,7.6484 l 0,-16.871 c -6.48,-2.8086 -13.09,-4.918 -19.84,-6.25 -6.8,-1.4493 -13.67,-2.1876 -20.63,-2.1876 -17.5,0 -31.37,5.0391 -41.56,15.1602 -10.12,10.1875 -15.16,23.9375 -15.16,41.25 0,17.8866 4.77,32.1096 14.38,42.6486 9.65,10.512 22.73,15.789 39.22,15.789 14.65,0 26.29,-4.77 34.84,-14.219 8.52,-9.5 12.81,-22.39 12.81,-38.601 z m -17.97,5.32 c -0.11,9.762 -2.89,17.57 -8.28,23.43 -5.31,5.82 -12.42,8.75 -21.25,8.75 -10,0 -18.04,-2.848 -24.06,-8.43 -6.05,-5.629 -9.57,-13.641 -10.47,-23.91 l 64.06,0.16 z m 126.18,40.621 0,-16.719 c -5,2.778 -10.08,4.879 -15.16,6.25 -5.12,1.328 -10.27,2.028 -15.47,2.028 -11.68,0 -20.74,-3.707 -27.19,-11.09 -6.48,-7.309 -9.68,-17.699 -9.68,-31.0901 0,-13.3594 3.2,-23.7187 9.68,-31.0977 6.45,-7.4218 15.51,-11.0898 27.19,-11.0898 5.2,0 10.35,0.6602 15.47,2.0274 5.08,1.4414 10.16,3.5898 15.16,6.4101 l 0,-16.5703 c -5,-2.418 -10.24,-4.1797 -15.63,-5.3086 -5.31,-1.1289 -11.01,-1.7188 -17.03,-1.7188 -16.48,0 -29.57,5.1602 -39.22,15.4688 -9.69,10.3906 -14.53,24.3789 -14.53,41.8789 0,17.8911 4.88,31.9491 14.69,42.1801 9.76,10.203 23.2,15.32 40.31,15.32 5.51,0 10.86,-0.59 16.09,-1.719 5.28,-1.172 10.39,-2.89 15.32,-5.16 z m 73.43,46.879 0,-178.4376 -41.4,0 0,14.0586 23.43,0 0,150.309 -23.43,0 0,14.07 41.4,0 z"
         style="fill:#000000;fill-opacity:1;fill-rule:nonzero;stroke:none"
         id="path140"
         inkscape:connector-curvature="0" /><path
         d="m 14.3008,1869.68 19.3711,0 c -3.6328,-7.5 -6.3321,-14.61 -8.1211,-21.25 -1.7617,-6.56 -2.6602,-13.01 -2.6602,-19.22 0,-10.74 2.1094,-19.02 6.25,-24.84 4.1797,-5.86 10.1211,-8.75 17.8086,-8.75 6.4922,0 11.3711,1.91 14.6914,5.78 3.2383,3.94 5.8985,11.29 7.9688,22.03 l 2.3398,12.03 c 2.8203,14.65 7.7813,25.51 14.8516,32.5 7.1094,6.95 16.5192,10.47 28.2772,10.47 14.184,0 24.922,-4.77 32.192,-14.22 7.3,-9.49 10.929,-23.36 10.929,-41.56 0,-6.88 -0.82,-14.26 -2.34,-22.03 -1.519,-7.81 -3.828,-15.9 -6.879,-24.22 l -20.308,0 c 4.488,8.01 7.887,15.86 10.156,23.59 2.301,7.7 3.442,15.24 3.442,22.66 0,11.21 -2.192,19.88 -6.571,25.94 -4.449,6.13 -10.82,9.22 -19.058,9.22 -7.153,0 -12.731,-2.23 -16.7191,-6.57 -4.0235,-4.37 -7.1133,-11.6 -9.2227,-21.56 l -2.3398,-12.03 c -2.8906,-14.69 -7.5,-25.39 -13.75,-32.03 -6.211,-6.56 -14.918,-9.85 -26.0899,-9.85 -12.8984,0 -23.0507,4.54 -30.4687,13.6 -7.3906,9.14 -11.10158,21.72 -11.10158,37.65 0,6.84 0.67187,13.83 1.8789,20.94 1.24998,7.07 3.08208,14.3 5.47268,21.72 z m 81.8711,132.27 8.7501,0 0,-82.5 c 12.418,0.7 21.918,4.41 28.437,11.09 6.481,6.64 9.692,15.98 9.692,27.97 0,6.83 -0.821,13.51 -2.5,20 -1.762,6.44 -4.301,12.89 -7.66,19.37 l 16.879,0 c 2.808,-6.48 4.921,-13.08 6.25,-19.84 1.441,-6.8 2.179,-13.67 2.179,-20.63 0,-17.5 -5.039,-31.36 -15.148,-41.56 -10.199,-10.11 -23.949,-15.15 -41.25,-15.15 -17.8908,0 -32.1096,4.76 -42.6604,14.37 -10.5117,9.65 -15.7812,22.74 -15.7812,39.22 0,14.65 4.7617,26.29 14.2187,34.84 9.4922,8.52 22.3828,12.82 38.5938,12.82 z m -5.3125,-17.97 c -9.7696,-0.12 -17.5782,-2.89 -23.4375,-8.28 -5.8203,-5.32 -8.75,-12.43 -8.75,-21.25 0,-10 2.8476,-18.05 8.4375,-24.07 5.6211,-6.05 13.6289,-9.57 23.9101,-10.47 l -0.1601,64.07 z m -1.5586,138.51 66.0902,0 0,-17.97 -65.4691,0 c -10.2735,0 -18.0117,-2.07 -23.1211,-6.09 -5.1992,-4.06 -7.8203,-10.12 -7.8203,-18.12 0,-9.81 3.1679,-17.54 9.3789,-23.13 6.1718,-5.55 14.5703,-8.28 25.1601,-8.28 l 61.8715,0 0,-18.13 -109.3715,0 0,18.13 17.0313,0 c -6.5313,4.26 -11.4492,9.3 -14.6914,15.16 -3.3203,5.82 -5,12.53 -5,20.15 0,12.58 3.9414,22.11 11.7187,28.6 7.7305,6.44 19.1407,9.68 34.2227,9.68 z m -67.6602,-50.15 -5.4687,-5.63 c -1.211,-1.48 -2.1914,-2.73 -2.8125,-3.75 -0.5899,-1.05 -0.9375,-2.07 -0.9375,-2.97 0,-2.42 1.207,-4.25 3.5976,-5.47 2.4219,-1.17 6.2813,-1.79 11.5586,-1.87 l 0,-12.19 c -8.8281,0.08 -15.6289,1.8 -20.30857,5.16 -4.76953,3.32 -7.191405,7.97 -7.191405,13.9 0,2.39 0.511719,4.61 1.402345,6.72 0.85937,2.07 2.39062,4.38 4.53906,6.88 l 5.30857,5.47 c 1.3711,1.44 2.3828,2.69 2.9727,3.75 0.539,1.13 0.7773,2.11 0.7773,2.97 0,2.38 -1.1289,4.14 -3.4375,5.31 -2.37888,1.21 -6.24998,1.91 -11.562475,2.03 l 0,12.19 c 8.749995,-0.12 15.542975,-1.84 20.312475,-5.16 4.8086,-3.36 7.1875,-8.01 7.1875,-13.91 0,-2.42 -0.4687,-4.64 -1.4062,-6.71 -0.9024,-2.11 -2.4219,-4.34 -4.5313,-6.72 z m 78.7504,135.86 c 0,-14.61 1.679,-24.73 5,-30.32 3.359,-5.54 9.019,-8.28 17.031,-8.28 6.367,0 11.449,2.07 15.156,6.25 3.75,4.26 5.621,10 5.621,17.19 0,9.96 -3.508,17.97 -10.621,23.91 -7.066,6.01 -16.449,9.06 -28.129,9.06 l -4.058,0 0,-17.81 z m -7.3402,35.78 62.3402,0 0,-17.97 -16.563,0 c 6.563,-4.06 11.481,-9.18 14.692,-15.31 3.082,-6.18 4.679,-13.68 4.679,-22.5 0,-11.18 -3.121,-20.08 -9.371,-26.72 -6.328,-6.57 -14.769,-9.85 -25.308,-9.85 -12.27,0 -21.571,4.11 -27.8208,12.35 -6.2109,8.2 -9.3711,20.51 -9.3711,36.87 l 0,25.16 -1.7187,0 c -8.3203,0 -14.7305,-2.74 -19.2188,-8.13 -4.4492,-5.43 -6.7187,-13.08 -6.7187,-22.97 0,-6.25 0.7383,-12.38 2.1875,-18.28 1.4804,-5.86 3.7109,-11.52 6.7187,-17.03 l -16.5586,0 c -2.5781,6.53 -4.539,12.89 -5.789,19.06 -1.211,6.22 -1.8711,12.27 -1.8711,18.13 0,15.82 4.1406,27.66 12.3398,35.47 8.25,7.77 20.711,11.72 37.3516,11.72 z m -89.69142,37.18 0,17.97 152.03162,0 0,-17.97 -152.03162,0 z m 0,117.43 0,41.4 14.06252,0 0,-23.43 150.3081,0 0,23.43 14.071,0 0,-41.4 -178.44162,0 z M 155.391,2516.71 9.60938,2461.09 l 0,20.62 122.66062,46.25 -122.66062,46.25 0,20.47 145.78162,-55.62 0,-22.35 z m -145.78162,99.22 0,92.19 16.56252,0 0,-72.5 43.1289,0 0,69.37 16.7187,0 0,-69.37 52.8085,0 0,74.22 16.563,0 0,-93.91 -145.78162,0 z m 0,126.56 0,29.38 99.21862,37.19 -99.21862,37.34 0,29.37 145.78162,0 0,-19.21 -127.9691,0 100.0001,-37.5 0,-19.85 -100.0001,-37.65 127.9691,0 0,-19.07 -145.78162,0 z m -6.25,213.75 178.44162,0 0,-41.4 -14.071,0 0,23.43 -150.3081,0 0,-23.43 -14.06252,0 0,41.4 z"
         style="fill:#000000;fill-opacity:1;fill-rule:nonzero;stroke:none"
         id="path142"
         inkscape:connector-curvature="0" /><path
         d="m 590,589.719 0,-115"
         style="fill:none;stroke:#000000;stroke-width:10;stroke-linecap:butt;stroke-linejoin:miter;stroke-miterlimit:10;stroke-opacity:1;stroke-dasharray:none"
         id="path144"
         inkscape:connector-curvature="0" /><path
         d="m 1758.09,536.871 0,-57.351"
         style="fill:none;stroke:#000000;stroke-width:12;stroke-linecap:butt;stroke-linejoin:miter;stroke-miterlimit:10;stroke-opacity:1;stroke-dasharray:none"
         id="path146"
         inkscape:connector-curvature="0" /><path
         d="m 2926.88,536.871 0,-57.351"
         style="fill:none;stroke:#000000;stroke-width:12;stroke-linecap:butt;stroke-linejoin:miter;stroke-miterlimit:10;stroke-opacity:1;stroke-dasharray:none"
         id="path148"
         inkscape:connector-curvature="0" /><path
         d="m 4095.66,536.871 0,-57.351"
         style="fill:none;stroke:#000000;stroke-width:12;stroke-linecap:butt;stroke-linejoin:miter;stroke-miterlimit:10;stroke-opacity:1;stroke-dasharray:none"
         id="path150"
         inkscape:connector-curvature="0" /><path
         d="m 5264.45,536.871 0,-57.351"
         style="fill:none;stroke:#000000;stroke-width:12;stroke-linecap:butt;stroke-linejoin:miter;stroke-miterlimit:10;stroke-opacity:1;stroke-dasharray:none"
         id="path152"
         inkscape:connector-curvature="0" /><path
         d="m 6433.24,594.172 0,-114.652"
         style="fill:none;stroke:#000000;stroke-width:12;stroke-linecap:butt;stroke-linejoin:miter;stroke-miterlimit:10;stroke-opacity:1;stroke-dasharray:none"
         id="path154"
         inkscape:connector-curvature="0" /><path
         d="m 585,430.23 c -13.871,0 -25.699,-5.781 -33.551,-16.449 -7.469,-9.961 -10.937,-26.402 -10.937,-51.172 0,-22.578 3.078,-38.668 9.097,-48.398 7.692,-12.109 20.27,-18.981 35.391,-18.981 14.059,0 25.551,5.579 33.551,16.442 7.308,9.769 10.98,26.367 10.98,50.238 0,23.469 -2.929,39.371 -9.14,49.328 C 612.73,423.512 600.16,430.23 585,430.23 l 0,0 z m 0,-20 c 6.41,0 11.559,-3.671 14.57,-10.429 2.5,-5.512 3.95,-19.77 3.95,-37.5 0,-14.461 -1.45,-29.063 -3.211,-34.223 -2.848,-7.656 -8.2,-11.879 -15.309,-11.879 -6.559,0 -11.559,3.481 -14.57,10.082 -2.5,5.469 -3.91,19.18 -3.91,36.367 0,15.192 1.41,30 3.21,35.313 2.809,7.848 8.161,12.23 15.27,12.23"
         style="fill:#000000;fill-opacity:1;fill-rule:nonzero;stroke:none"
         id="path156"
         inkscape:connector-curvature="0" /><path
         d="m 767.5,474.719 -177.5,0"
         style="fill:none;stroke:#000000;stroke-width:10;stroke-linecap:butt;stroke-linejoin:miter;stroke-miterlimit:10;stroke-opacity:1;stroke-dasharray:none"
         id="path158"
         inkscape:connector-curvature="0" /><path
         d="m 677.5,584.719 -87.5,0"
         style="fill:none;stroke:#000000;stroke-width:10;stroke-linecap:butt;stroke-linejoin:miter;stroke-miterlimit:10;stroke-opacity:1;stroke-dasharray:none"
         id="path160"
         inkscape:connector-curvature="0" /><path
         d="m 677.5,692.219 -87.5,0"
         style="fill:none;stroke:#000000;stroke-width:10;stroke-linecap:butt;stroke-linejoin:miter;stroke-miterlimit:10;stroke-opacity:1;stroke-dasharray:none"
         id="path162"
         inkscape:connector-curvature="0" /><path
         d="m 500,528.238 c -13.871,0 -25.699,-5.828 -33.551,-16.488 -7.469,-9.922 -10.937,-26.371 -10.937,-51.129 0,-22.582 3.078,-38.672 9.097,-48.441 7.692,-12.11 20.27,-18.942 35.391,-18.942 14.059,0 25.551,5.582 33.551,16.442 7.308,9.769 10.98,26.371 10.98,50.23 0,23.481 -2.929,39.379 -9.14,49.301 C 527.73,521.52 515.16,528.238 500,528.238 l 0,0 z m 0,-20 c 6.41,0 11.559,-3.679 14.57,-10.429 2.5,-5.508 3.95,-19.77 3.95,-37.5 0,-14.457 -1.45,-29.11 -3.211,-34.219 -2.848,-7.66 -8.2,-11.879 -15.309,-11.879 -6.559,0 -11.559,3.48 -14.57,10.039 -2.5,5.512 -3.91,19.219 -3.91,36.41 0,15.192 1.41,30 3.21,35.27 2.809,7.89 8.161,12.269 15.27,12.269"
         style="fill:#000000;fill-opacity:1;fill-rule:nonzero;stroke:none"
         id="path164"
         inkscape:connector-curvature="0" /><path
         d="m 6250.62,387.77 0,-88.559 25.98,0 0,128.398 -17.03,0 c -3.98,-15.23 -17.34,-23.007 -39.65,-23.007 l 0,-16.832"
         style="fill:#000000;fill-opacity:1;fill-rule:nonzero;stroke:none"
         id="path166"
         inkscape:connector-curvature="0" /><path
         d="m 6358.09,430.23 c -13.87,0 -25.71,-5.82 -33.56,-16.449 -7.46,-9.961 -10.94,-26.402 -10.94,-51.172 0,-22.578 3.13,-38.668 9.14,-48.398 7.66,-12.109 20.24,-18.981 35.39,-18.981 14.03,0 25.51,5.579 33.52,16.442 7.31,9.769 10.98,26.367 10.98,50.238 0,23.469 -2.93,39.371 -9.14,49.328 -7.66,12.274 -20.24,18.992 -35.36,18.992 l -0.03,0 0,0 z m 0.03,-20 c 6.37,0 11.57,-3.671 14.58,-10.429 2.5,-5.512 3.9,-19.77 3.9,-37.5 0,-14.461 -1.4,-29.063 -3.2,-34.223 -2.85,-7.656 -8.17,-11.879 -15.28,-11.879 -6.6,0 -11.56,3.481 -14.6,10.082 -2.47,5.469 -3.91,19.18 -3.91,36.367 0,15.192 1.44,30 3.2,35.313 2.85,7.848 8.21,12.23 15.31,12.23"
         style="fill:#000000;fill-opacity:1;fill-rule:nonzero;stroke:none"
         id="path168"
         inkscape:connector-curvature="0" /><path
         d="m 6458.09,430.23 c -13.87,0 -25.71,-5.82 -33.56,-16.449 -7.46,-9.961 -10.94,-26.402 -10.94,-51.172 0,-22.578 3.13,-38.668 9.14,-48.398 7.66,-12.109 20.24,-18.981 35.39,-18.981 14.03,0 25.51,5.579 33.52,16.442 7.31,9.769 10.98,26.367 10.98,50.238 0,23.469 -2.93,39.371 -9.14,49.328 -7.66,12.274 -20.24,18.992 -35.36,18.992 l -0.03,0 z m 0.03,-20 c 6.37,0 11.57,-3.671 14.58,-10.429 2.5,-5.512 3.9,-19.77 3.9,-37.5 0,-14.461 -1.4,-29.063 -3.2,-34.223 -2.85,-7.656 -8.17,-11.879 -15.28,-11.879 -6.6,0 -11.56,3.481 -14.6,10.082 -2.47,5.469 -3.91,19.18 -3.91,36.367 0,15.192 1.44,30 3.2,35.313 2.85,7.848 8.21,12.23 15.31,12.23"
         style="fill:#000000;fill-opacity:1;fill-rule:nonzero;stroke:none"
         id="path170"
         inkscape:connector-curvature="0" /><path
         d="m 6559.1,430.23 c -13.87,0 -25.7,-5.82 -33.55,-16.449 -7.46,-9.961 -10.94,-26.402 -10.94,-51.172 0,-22.578 3.09,-38.668 9.1,-48.398 7.7,-12.109 20.27,-18.981 35.39,-18.981 14.06,0 25.55,5.579 33.56,16.442 7.3,9.769 10.97,26.367 10.97,50.238 0,23.469 -2.93,39.371 -9.14,49.328 -7.65,12.274 -20.23,18.992 -35.39,18.992 l 0,0 z m 0,-20 c 6.41,0 11.56,-3.671 14.57,-10.429 2.5,-5.512 3.95,-19.77 3.95,-37.5 0,-14.461 -1.45,-29.063 -3.21,-34.223 -2.85,-7.656 -8.2,-11.879 -15.31,-11.879 -6.56,0 -11.56,3.481 -14.57,10.082 -2.5,5.469 -3.91,19.18 -3.91,36.367 0,15.192 1.41,30 3.21,35.313 2.81,7.848 8.16,12.23 15.27,12.23"
         style="fill:#000000;fill-opacity:1;fill-rule:nonzero;stroke:none"
         id="path172"
         inkscape:connector-curvature="0" /><path
         d="m 2904.73,3538.51 -2311.64,0"
         style="fill:none;stroke:#000000;stroke-width:16;stroke-linecap:butt;stroke-linejoin:miter;stroke-miterlimit:4;stroke-opacity:1;stroke-dasharray:48, 16;stroke-dashoffset:0"
         id="path174"
         inkscape:connector-curvature="0" /><path
         d="m 4340.66,2687.41 -42.81,-116.09 85.78,0 -42.97,116.09 z m -17.81,31.1 35.78,0 88.91,-233.28 -32.81,0 -21.25,59.84 -105.16,0 -21.25,-59.84 -33.28,0 89.06,233.28 z m 267.11,-123.91 c 6.76,-2.3 13.32,-7.22 19.69,-14.69 6.44,-7.5 12.89,-17.85 19.37,-30.93 l 32.03,-63.75 -33.9,0 -29.85,59.84 c -7.73,15.59 -15.23,25.98 -22.5,31.09 -7.18,5.08 -17.07,7.66 -29.53,7.66 l -34.37,0 0,-98.59 -31.56,0 0,233.28 71.25,0 c 26.64,0 46.56,-5.59 59.68,-16.72 13.09,-11.17 19.69,-28.01 19.69,-50.47 0,-14.69 -3.48,-26.91 -10.31,-36.56 -6.8,-9.69 -16.68,-16.45 -29.69,-20.16 z m -79.06,97.97 0,-82.81 39.69,0 c 15.19,0 26.64,3.48 34.37,10.47 7.77,7.07 11.72,17.42 11.72,31.09 0,13.63 -3.95,23.91 -11.72,30.78 -7.73,6.96 -19.18,10.47 -34.37,10.47 l -39.69,0 z m 188.75,25.94 147.5,0 0,-26.56 -115.94,0 0,-69.07 111.09,0 0,-26.56 -111.09,0 0,-84.53 118.75,0 0,-26.56 -150.31,0 0,233.28 z m 278.51,-31.1 -42.81,-116.09 85.78,0 -42.97,116.09 z m -17.81,31.1 35.78,0 88.91,-233.28 -32.81,0 -21.25,59.84 -105.16,0 -21.25,-59.84 -33.28,0 89.06,233.28 z"
         style="fill:#000000;fill-opacity:1;fill-rule:nonzero;stroke:none"
         id="path176"
         inkscape:connector-curvature="0" /><path
         d="m 4322.58,2263.98 0,-87.66 39.69,0 c 14.64,0 26.01,3.79 34.06,11.41 8.01,7.58 12.03,18.43 12.03,32.5 0,13.94 -4.02,24.72 -12.03,32.34 -8.05,7.58 -19.42,11.41 -34.06,11.41 l -39.69,0 z m -31.56,25.93 71.25,0 c 26.13,0 45.85,-5.97 59.21,-17.81 13.4,-11.79 20.16,-29.1 20.16,-51.87 0,-23.05 -6.76,-40.43 -20.16,-52.19 -13.36,-11.8 -33.08,-17.66 -59.21,-17.66 l -39.69,0 0,-93.75 -31.56,0 0,233.28 z m 191.21,0 31.56,0 0,-233.28 -31.56,0 0,233.28 z m 268.16,-17.96 0,-33.29 c -10.62,9.89 -21.99,17.27 -34.06,22.19 -11.99,4.89 -24.77,7.35 -38.28,7.35 -26.68,0 -47.11,-8.21 -61.25,-24.54 -14.18,-16.25 -21.25,-39.8 -21.25,-70.62 0,-30.74 7.07,-54.3 21.25,-70.63 14.14,-16.25 34.57,-24.37 61.25,-24.37 13.51,0 26.29,2.42 38.28,7.34 12.07,4.89 23.44,12.27 34.06,22.19 l 0,-32.97 c -11.05,-7.5 -22.77,-13.16 -35.16,-16.87 -12.3,-3.71 -25.35,-5.63 -39.06,-5.63 -35.31,0 -63.16,10.78 -83.44,32.35 -20.31,21.64 -30.46,51.17 -30.46,88.59 0,37.46 10.15,67.03 30.46,88.59 20.28,21.64 48.13,32.5 83.44,32.5 13.95,0 27.07,-1.91 39.38,-5.62 12.38,-3.67 23.98,-9.18 34.84,-16.56 z m 141.56,-3.44 c -22.93,0 -41.17,-8.56 -54.68,-25.63 -13.44,-17.11 -20.16,-40.39 -20.16,-69.84 0,-29.38 6.72,-52.62 20.16,-69.69 13.51,-17.11 31.75,-25.62 54.68,-25.62 22.89,0 41.02,8.51 54.38,25.62 13.4,17.07 20.15,40.31 20.15,69.69 0,29.45 -6.75,52.73 -20.15,69.84 -13.36,17.07 -31.49,25.63 -54.38,25.63 z m 0,25.62 c 32.7,0 58.83,-11.01 78.44,-32.97 19.57,-21.87 29.38,-51.28 29.38,-88.12 0,-36.8 -9.81,-66.17 -29.38,-88.13 -19.61,-21.87 -45.74,-32.81 -78.44,-32.81 -32.81,0 -59.1,10.94 -78.75,32.81 -19.61,21.84 -29.37,51.25 -29.37,88.13 0,36.84 9.76,66.25 29.37,88.12 19.65,21.96 45.94,32.97 78.75,32.97 z"
         style="fill:#000000;fill-opacity:1;fill-rule:nonzero;stroke:none"
         id="path178"
         inkscape:connector-curvature="0" /><path
         d="m 4023.12,2389.91 1199.15,0"
         style="fill:none;stroke:#000000;stroke-width:33.61059952;stroke-linecap:butt;stroke-linejoin:miter;stroke-miterlimit:4;stroke-opacity:1;stroke-dasharray:none"
         id="path180"
         inkscape:connector-curvature="0" /><path
         d="m 5751.33,2478.86 -42.81,-116.09 85.78,0 -42.97,116.09 z m -17.81,31.09 35.78,0 88.9,-233.28 -32.81,0 -21.25,59.85 -105.16,0 -21.25,-59.85 -33.28,0 89.07,233.28 z m 217.46,-78.43 c -15.43,0 -27.62,-6.06 -36.57,-18.13 -8.98,-11.99 -13.43,-28.48 -13.43,-49.37 0,-20.94 4.41,-37.46 13.28,-49.53 8.94,-12 21.17,-17.97 36.72,-17.97 15.27,0 27.42,6.01 36.4,18.12 8.95,12.07 13.44,28.52 13.44,49.38 0,20.7 -4.49,37.11 -13.44,49.22 -8.98,12.14 -21.13,18.28 -36.4,18.28 z m 0,24.37 c 24.96,0 44.61,-8.16 58.9,-24.37 14.26,-16.25 21.41,-38.79 21.41,-67.5 0,-28.68 -7.15,-51.18 -21.41,-67.5 -14.29,-16.25 -33.94,-24.38 -58.9,-24.38 -25.12,0 -44.81,8.13 -59.07,24.38 -14.18,16.32 -21.25,38.82 -21.25,67.5 0,28.71 7.07,51.25 21.25,67.5 14.26,16.21 33.95,24.37 59.07,24.37 z m 158.71,28.13 0,-87.66 39.69,0 c 14.64,0 26.01,3.79 34.06,11.41 8.01,7.57 12.03,18.43 12.03,32.5 0,13.94 -4.02,24.72 -12.03,32.34 -8.05,7.58 -19.42,11.41 -34.06,11.41 l -39.69,0 z m -31.57,25.93 71.26,0 c 26.13,0 45.85,-5.97 59.21,-17.81 13.4,-11.8 20.16,-29.1 20.16,-51.87 0,-23.05 -6.76,-40.43 -20.16,-52.19 -13.36,-11.8 -33.08,-17.66 -59.21,-17.66 l -39.69,0 0,-93.75 -31.57,0 0,233.28 z"
         style="fill:#000000;fill-opacity:1;fill-rule:nonzero;stroke:none"
         id="path182"
         inkscape:connector-curvature="0" /><path
         d="m 2753.83,3779.88 0,-62.97 28.44,0 c 10.58,0 18.78,2.69 24.53,8.12 5.7,5.51 8.59,13.32 8.59,23.44 0,9.96 -2.89,17.69 -8.59,23.12 -5.75,5.51 -13.95,8.29 -24.53,8.29 l -28.44,0 z m -22.81,18.59 51.25,0 c 18.82,0 33.04,-4.3 42.65,-12.81 9.57,-8.44 14.38,-20.86 14.38,-37.19 0,-16.56 -4.81,-29.14 -14.38,-37.66 -9.61,-8.43 -23.83,-12.65 -42.65,-12.65 l -28.44,0 0,-67.35 -22.81,0 0,167.66 z m 139.84,0 22.81,0 0,-167.66 -22.81,0 0,167.66 z m 193.98,-12.97 0,-23.91 c -7.61,7.15 -15.74,12.5 -24.37,15.94 -8.67,3.52 -17.89,5.31 -27.66,5.31 -19.18,0 -33.86,-5.89 -44.06,-17.65 -10.12,-11.68 -15.16,-28.63 -15.16,-50.78 0,-22.11 5.04,-39.03 15.16,-50.78 10.2,-11.68 24.88,-17.5 44.06,-17.5 9.77,0 18.99,1.75 27.66,5.31 8.63,3.51 16.76,8.83 24.37,15.94 l 0,-23.6 c -7.93,-5.43 -16.32,-9.49 -25.15,-12.19 -8.87,-2.69 -18.24,-4.06 -28.13,-4.06 -25.43,0 -45.43,7.74 -60,23.28 -14.61,15.51 -21.87,36.72 -21.87,63.6 0,26.95 7.26,48.2 21.87,63.75 14.57,15.58 34.57,23.43 60,23.43 9.96,0 19.42,-1.36 28.28,-4.06 8.83,-2.73 17.19,-6.76 25,-12.03 z m 104.54,-2.34 c -16.49,0 -29.58,-6.17 -39.22,-18.44 -9.69,-12.31 -14.54,-29.1 -14.54,-50.31 0,-21.06 4.85,-37.74 14.54,-50 9.64,-12.31 22.73,-18.44 39.22,-18.44 16.44,0 29.45,6.13 39.06,18.44 9.65,12.26 14.53,28.94 14.53,50 0,21.21 -4.88,38 -14.53,50.31 -9.61,12.27 -22.62,18.44 -39.06,18.44 z m 0,18.43 c 23.51,0 42.34,-7.93 56.4,-23.75 14.02,-15.74 21.1,-36.91 21.1,-63.43 0,-26.37 -7.08,-47.46 -21.1,-63.28 -14.06,-15.75 -32.89,-23.6 -56.4,-23.6 -23.56,0 -42.43,7.85 -56.57,23.6 -14.06,15.7 -21.09,36.79 -21.09,63.28 0,26.52 7.03,47.69 21.09,63.43 14.14,15.82 33.01,23.75 56.57,23.75 z"
         style="fill:#000000;fill-opacity:1;fill-rule:nonzero;stroke:none"
         id="path184"
         inkscape:connector-curvature="0" /><path
         d="m 5353.79,2389.91 192.62,0"
         style="fill:none;stroke:#000000;stroke-width:24;stroke-linecap:butt;stroke-linejoin:miter;stroke-miterlimit:4;stroke-opacity:1;stroke-dasharray:none"
         id="path186"
         inkscape:connector-curvature="0" /><path
         d="m 5353.79,2443.47 192.62,0"
         style="fill:none;stroke:#000000;stroke-width:24;stroke-linecap:butt;stroke-linejoin:miter;stroke-miterlimit:4;stroke-opacity:1;stroke-dasharray:none"
         id="path188"
         inkscape:connector-curvature="0" /><path
         d="m 5353.79,2336.4 192.62,0"
         style="fill:none;stroke:#000000;stroke-width:24;stroke-linecap:butt;stroke-linejoin:miter;stroke-miterlimit:4;stroke-opacity:1;stroke-dasharray:none"
         id="path190"
         inkscape:connector-curvature="0" /></g></g></svg>