<?xml version="1.0" encoding="UTF-8" standalone="no"?>
<!-- Created with Inkscape (http://www.inkscape.org/) -->

<svg
   xmlns:dc="http://purl.org/dc/elements/1.1/"
   xmlns:cc="http://creativecommons.org/ns#"
   xmlns:rdf="http://www.w3.org/1999/02/22-rdf-syntax-ns#"
   xmlns:svg="http://www.w3.org/2000/svg"
   xmlns="http://www.w3.org/2000/svg"
   xmlns:sodipodi="http://sodipodi.sourceforge.net/DTD/sodipodi-0.dtd"
   xmlns:inkscape="http://www.inkscape.org/namespaces/inkscape"
   id="svg2"
   version="1.1"
   inkscape:version="0.48.4 r9939"
   width="944.25"
   height="615.625"
   xml:space="preserve"
   sodipodi:docname="badStartTime.pdf"><metadata
     id="metadata8"><rdf:RDF><cc:Work
         rdf:about=""><dc:format>image/svg+xml</dc:format><dc:type
           rdf:resource="http://purl.org/dc/dcmitype/StillImage" /><dc:title></dc:title></cc:Work></rdf:RDF></metadata><defs
     id="defs6" /><sodipodi:namedview
     pagecolor="#ffffff"
     bordercolor="#666666"
     borderopacity="1"
     objecttolerance="10"
     gridtolerance="10"
     guidetolerance="10"
     inkscape:pageopacity="0"
     inkscape:pageshadow="2"
     inkscape:window-width="1280"
     inkscape:window-height="724"
     id="namedview4"
     showgrid="false"
     fit-margin-top="0"
     fit-margin-left="0"
     fit-margin-right="0"
     fit-margin-bottom="0"
     inkscape:zoom="0.40777538"
     inkscape:cx="453.53125"
     inkscape:cy="304.125"
     inkscape:window-x="0"
     inkscape:window-y="24"
     inkscape:window-maximized="1"
     inkscape:current-layer="g10" /><g
     id="g10"
     inkscape:groupmode="layer"
     inkscape:label="badStartTime"
     transform="matrix(1.25,0,0,-1.25,46.65625,600.875)"><rect
       style="color:#000000;fill:#ffffff;fill-opacity:1;fill-rule:nonzero;stroke:#000000;stroke-width:5;stroke-linecap:round;stroke-linejoin:round;stroke-miterlimit:4;stroke-opacity:1;stroke-dasharray:none;stroke-dashoffset:0;marker:none;visibility:visible;display:inline;overflow:visible;enable-background:accumulate"
       id="rect3337"
       width="939.24255"
       height="610.63031"
       x="-44.141949"
       y="-19.618645"
       transform="matrix(0.8,0,0,-0.8,0,463)" /><g
       id="g12"
       transform="scale(0.1,0.1)"><path
         d="m 607.5,492.5 10,10 0,3762.5 5875,0 10,10 -5895,0 0,-3782.5"
         style="fill:#ffffff;fill-opacity:1;fill-rule:evenodd;stroke:none"
         id="path14"
         inkscape:connector-curvature="0" /><path
         d="m 607.5,492.5 10,10 5875,0 0,3762.5 10,10 0,-3782.5 -5895,0"
         style="fill:#a9a9a9;fill-opacity:1;fill-rule:evenodd;stroke:none"
         id="path16"
         inkscape:connector-curvature="0" /><path
         d="m 607.5,492.5 5895,0 0,3782.5 -5895,0 0,-3782.5 z"
         style="fill:none;stroke:#000000;stroke-width:7.5;stroke-linecap:butt;stroke-linejoin:miter;stroke-miterlimit:10;stroke-opacity:1;stroke-dasharray:none"
         id="path18"
         inkscape:connector-curvature="0" /><path
         d="m 607.5,492.5 5895,0"
         style="fill:none;stroke:#000000;stroke-width:7.5;stroke-linecap:butt;stroke-linejoin:miter;stroke-miterlimit:10;stroke-opacity:1;stroke-dasharray:none"
         id="path20"
         inkscape:connector-curvature="0" /><path
         d="m 607.5,607.5 0,-115"
         style="fill:none;stroke:#000000;stroke-width:7.5;stroke-linecap:butt;stroke-linejoin:miter;stroke-miterlimit:10;stroke-opacity:1;stroke-dasharray:none"
         id="path22"
         inkscape:connector-curvature="0" /><path
         d="m 862.5,550 0,-57.5"
         style="fill:none;stroke:#000000;stroke-width:7.5;stroke-linecap:butt;stroke-linejoin:miter;stroke-miterlimit:10;stroke-opacity:1;stroke-dasharray:none"
         id="path24"
         inkscape:connector-curvature="0" /><path
         d="m 1117.5,550 0,-57.5"
         style="fill:none;stroke:#000000;stroke-width:7.5;stroke-linecap:butt;stroke-linejoin:miter;stroke-miterlimit:10;stroke-opacity:1;stroke-dasharray:none"
         id="path26"
         inkscape:connector-curvature="0" /><path
         d="m 1370,550 0,-57.5"
         style="fill:none;stroke:#000000;stroke-width:7.5;stroke-linecap:butt;stroke-linejoin:miter;stroke-miterlimit:10;stroke-opacity:1;stroke-dasharray:none"
         id="path28"
         inkscape:connector-curvature="0" /><path
         d="m 1625,607.5 0,-115"
         style="fill:none;stroke:#000000;stroke-width:7.5;stroke-linecap:butt;stroke-linejoin:miter;stroke-miterlimit:10;stroke-opacity:1;stroke-dasharray:none"
         id="path30"
         inkscape:connector-curvature="0" /><path
         d="m 1880,550 0,-57.5"
         style="fill:none;stroke:#000000;stroke-width:7.5;stroke-linecap:butt;stroke-linejoin:miter;stroke-miterlimit:10;stroke-opacity:1;stroke-dasharray:none"
         id="path32"
         inkscape:connector-curvature="0" /><path
         d="m 2135,550 0,-57.5"
         style="fill:none;stroke:#000000;stroke-width:7.5;stroke-linecap:butt;stroke-linejoin:miter;stroke-miterlimit:10;stroke-opacity:1;stroke-dasharray:none"
         id="path34"
         inkscape:connector-curvature="0" /><path
         d="m 2390,550 0,-57.5"
         style="fill:none;stroke:#000000;stroke-width:7.5;stroke-linecap:butt;stroke-linejoin:miter;stroke-miterlimit:10;stroke-opacity:1;stroke-dasharray:none"
         id="path36"
         inkscape:connector-curvature="0" /><path
         d="m 2645,607.5 0,-115"
         style="fill:none;stroke:#000000;stroke-width:7.5;stroke-linecap:butt;stroke-linejoin:miter;stroke-miterlimit:10;stroke-opacity:1;stroke-dasharray:none"
         id="path38"
         inkscape:connector-curvature="0" /><path
         d="m 2900,550 0,-57.5"
         style="fill:none;stroke:#000000;stroke-width:7.5;stroke-linecap:butt;stroke-linejoin:miter;stroke-miterlimit:10;stroke-opacity:1;stroke-dasharray:none"
         id="path40"
         inkscape:connector-curvature="0" /><path
         d="m 3155,550 0,-57.5"
         style="fill:none;stroke:#000000;stroke-width:7.5;stroke-linecap:butt;stroke-linejoin:miter;stroke-miterlimit:10;stroke-opacity:1;stroke-dasharray:none"
         id="path42"
         inkscape:connector-curvature="0" /><path
         d="m 3407.5,550 0,-57.5"
         style="fill:none;stroke:#000000;stroke-width:7.5;stroke-linecap:butt;stroke-linejoin:miter;stroke-miterlimit:10;stroke-opacity:1;stroke-dasharray:none"
         id="path44"
         inkscape:connector-curvature="0" /><path
         d="m 3662.5,607.5 0,-115"
         style="fill:none;stroke:#000000;stroke-width:7.5;stroke-linecap:butt;stroke-linejoin:miter;stroke-miterlimit:10;stroke-opacity:1;stroke-dasharray:none"
         id="path46"
         inkscape:connector-curvature="0" /><path
         d="m 3917.5,550 0,-57.5"
         style="fill:none;stroke:#000000;stroke-width:7.5;stroke-linecap:butt;stroke-linejoin:miter;stroke-miterlimit:10;stroke-opacity:1;stroke-dasharray:none"
         id="path48"
         inkscape:connector-curvature="0" /><path
         d="m 4172.5,550 0,-57.5"
         style="fill:none;stroke:#000000;stroke-width:7.5;stroke-linecap:butt;stroke-linejoin:miter;stroke-miterlimit:10;stroke-opacity:1;stroke-dasharray:none"
         id="path50"
         inkscape:connector-curvature="0" /><path
         d="m 4427.5,550 0,-57.5"
         style="fill:none;stroke:#000000;stroke-width:7.5;stroke-linecap:butt;stroke-linejoin:miter;stroke-miterlimit:10;stroke-opacity:1;stroke-dasharray:none"
         id="path52"
         inkscape:connector-curvature="0" /><path
         d="m 4682.5,607.5 0,-115"
         style="fill:none;stroke:#000000;stroke-width:7.5;stroke-linecap:butt;stroke-linejoin:miter;stroke-miterlimit:10;stroke-opacity:1;stroke-dasharray:none"
         id="path54"
         inkscape:connector-curvature="0" /><path
         d="m 4937.5,550 0,-57.5"
         style="fill:none;stroke:#000000;stroke-width:7.5;stroke-linecap:butt;stroke-linejoin:miter;stroke-miterlimit:10;stroke-opacity:1;stroke-dasharray:none"
         id="path56"
         inkscape:connector-curvature="0" /><path
         d="m 5192.5,550 0,-57.5"
         style="fill:none;stroke:#000000;stroke-width:7.5;stroke-linecap:butt;stroke-linejoin:miter;stroke-miterlimit:10;stroke-opacity:1;stroke-dasharray:none"
         id="path58"
         inkscape:connector-curvature="0" /><path
         d="m 5445,550 0,-57.5"
         style="fill:none;stroke:#000000;stroke-width:7.5;stroke-linecap:butt;stroke-linejoin:miter;stroke-miterlimit:10;stroke-opacity:1;stroke-dasharray:none"
         id="path60"
         inkscape:connector-curvature="0" /><path
         d="m 5700,607.5 0,-115"
         style="fill:none;stroke:#000000;stroke-width:7.5;stroke-linecap:butt;stroke-linejoin:miter;stroke-miterlimit:10;stroke-opacity:1;stroke-dasharray:none"
         id="path62"
         inkscape:connector-curvature="0" /><path
         d="m 5700,607.5 0,-115"
         style="fill:none;stroke:#000000;stroke-width:7.5;stroke-linecap:butt;stroke-linejoin:miter;stroke-miterlimit:10;stroke-opacity:1;stroke-dasharray:none"
         id="path64"
         inkscape:connector-curvature="0" /><path
         d="m 5955,550 0,-57.5"
         style="fill:none;stroke:#000000;stroke-width:7.5;stroke-linecap:butt;stroke-linejoin:miter;stroke-miterlimit:10;stroke-opacity:1;stroke-dasharray:none"
         id="path66"
         inkscape:connector-curvature="0" /><path
         d="m 6210,550 0,-57.5"
         style="fill:none;stroke:#000000;stroke-width:7.5;stroke-linecap:butt;stroke-linejoin:miter;stroke-miterlimit:10;stroke-opacity:1;stroke-dasharray:none"
         id="path68"
         inkscape:connector-curvature="0" /><path
         d="m 6465,550 0,-57.5"
         style="fill:none;stroke:#000000;stroke-width:7.5;stroke-linecap:butt;stroke-linejoin:miter;stroke-miterlimit:10;stroke-opacity:1;stroke-dasharray:none"
         id="path70"
         inkscape:connector-curvature="0" /><path
         d="m 601.93,448.586 c -13.762,0 -25.532,-5.793 -33.317,-16.477 -7.422,-9.957 -10.863,-26.433 -10.863,-51.238 0,-22.633 3.078,-38.746 9.055,-48.523 7.601,-12.133 20.097,-19.012 35.125,-19.012 13.941,0 25.347,5.613 33.312,16.476 7.242,9.778 10.863,26.434 10.863,50.333 0,23.539 -2.894,39.472 -9.05,49.429 -7.606,12.313 -20.098,19.012 -35.125,19.012 m 0,-20.461 c 6.515,0 11.769,-3.621 14.843,-10.32 2.536,-5.43 3.985,-19.555 3.985,-37.117 0,-14.301 -1.449,-28.786 -3.258,-33.856 -2.898,-7.605 -8.328,-11.77 -15.57,-11.77 -6.7,0 -11.77,3.442 -14.848,9.958 -2.535,5.433 -3.984,19.011 -3.984,36.031 0,15.027 1.449,29.695 3.261,34.945 2.895,7.785 8.329,12.129 15.571,12.129"
         style="fill:#000000;fill-opacity:1;fill-rule:nonzero;stroke:none"
         id="path72"
         inkscape:connector-curvature="0" /><path
         d="m 1507.7,340.133 -54.31,0 c 3.25,6.879 7.24,10.5 26.07,24.262 22.27,16.293 28.79,26.07 28.79,43.453 0,24.804 -17.02,40.738 -44,40.738 -26.62,0 -42.19,-15.754 -42.19,-42.91 0,-1.086 0,-2.535 0.18,-4.528 l 24.26,0 0,4.164 c 0,14.305 6.7,22.633 18.29,22.633 11.23,0 18.11,-7.785 18.11,-20.64 0,-14.121 -4.53,-19.735 -32.78,-39.832 -21.72,-14.848 -28.42,-26.254 -29.69,-49.973 l 87.27,0 0,22.633"
         style="fill:#000000;fill-opacity:1;fill-rule:nonzero;stroke:none"
         id="path74"
         inkscape:connector-curvature="0" /><path
         d="m 1565.1,448.586 c -13.76,0 -25.53,-5.793 -33.32,-16.477 -7.42,-9.957 -10.86,-26.433 -10.86,-51.238 0,-22.633 3.08,-38.746 9.05,-48.523 7.61,-12.133 20.1,-19.012 35.13,-19.012 13.94,0 25.35,5.613 33.31,16.476 7.25,9.778 10.87,26.434 10.87,50.333 0,23.539 -2.9,39.472 -9.06,49.429 -7.6,12.313 -20.1,19.012 -35.12,19.012 m 0,-20.461 c 6.52,0 11.77,-3.621 14.85,-10.32 2.53,-5.43 3.98,-19.555 3.98,-37.117 0,-14.301 -1.45,-28.786 -3.26,-33.856 -2.9,-7.605 -8.33,-11.77 -15.57,-11.77 -6.7,0 -11.77,3.442 -14.85,9.958 -2.54,5.433 -3.98,19.011 -3.98,36.031 0,15.027 1.44,29.695 3.26,34.945 2.89,7.785 8.33,12.129 15.57,12.129"
         style="fill:#000000;fill-opacity:1;fill-rule:nonzero;stroke:none"
         id="path76"
         inkscape:connector-curvature="0" /><path
         d="m 1665.77,448.586 c -13.77,0 -25.54,-5.793 -33.32,-16.477 -7.42,-9.957 -10.86,-26.433 -10.86,-51.238 0,-22.633 3.07,-38.746 9.05,-48.523 7.61,-12.133 20.1,-19.012 35.13,-19.012 13.94,0 25.34,5.613 33.31,16.476 7.24,9.778 10.86,26.434 10.86,50.333 0,23.539 -2.89,39.472 -9.05,49.429 -7.6,12.313 -20.1,19.012 -35.12,19.012 m 0,-20.461 c 6.52,0 11.77,-3.621 14.84,-10.32 2.54,-5.43 3.98,-19.555 3.98,-37.117 0,-14.301 -1.44,-28.786 -3.25,-33.856 -2.9,-7.605 -8.33,-11.77 -15.57,-11.77 -6.7,0 -11.77,3.442 -14.85,9.958 -2.54,5.433 -3.99,19.011 -3.99,36.031 0,15.027 1.45,29.695 3.27,34.945 2.89,7.785 8.32,12.129 15.57,12.129"
         style="fill:#000000;fill-opacity:1;fill-rule:nonzero;stroke:none"
         id="path78"
         inkscape:connector-curvature="0" /><path
         d="m 1766.43,448.586 c -13.76,0 -25.53,-5.793 -33.31,-16.477 -7.42,-9.957 -10.87,-26.433 -10.87,-51.238 0,-22.633 3.08,-38.746 9.06,-48.523 7.6,-12.133 20.1,-19.012 35.12,-19.012 13.95,0 25.35,5.613 33.32,16.476 7.24,9.778 10.86,26.434 10.86,50.333 0,23.539 -2.9,39.472 -9.05,49.429 -7.61,12.313 -20.1,19.012 -35.13,19.012 m 0,-20.461 c 6.52,0 11.77,-3.621 14.85,-10.32 2.53,-5.43 3.98,-19.555 3.98,-37.117 0,-14.301 -1.45,-28.786 -3.26,-33.856 -2.89,-7.605 -8.32,-11.77 -15.57,-11.77 -6.7,0 -11.77,3.442 -14.84,9.958 -2.54,5.433 -3.99,19.011 -3.99,36.031 0,15.027 1.45,29.695 3.26,34.945 2.9,7.785 8.33,12.129 15.57,12.129"
         style="fill:#000000;fill-opacity:1;fill-rule:nonzero;stroke:none"
         id="path80"
         inkscape:connector-curvature="0" /><path
         d="m 2532.02,366.93 -13.4,0 0,78.941 -29.88,0 -46.89,-78.582 0,-21.363 51.42,0 0,-28.426 25.35,0 0,28.426 13.4,0 0,21.004 m -38.75,0 -33.5,0 33.5,54.859 0,-54.859"
         style="fill:#000000;fill-opacity:1;fill-rule:nonzero;stroke:none"
         id="path82"
         inkscape:connector-curvature="0" /><path
         d="m 2587.6,448.586 c -13.76,0 -25.53,-5.793 -33.31,-16.477 -7.43,-9.957 -10.87,-26.433 -10.87,-51.238 0,-22.633 3.08,-38.746 9.05,-48.523 7.61,-12.133 20.1,-19.012 35.13,-19.012 13.94,0 25.35,5.613 33.31,16.476 7.25,9.778 10.87,26.434 10.87,50.333 0,23.539 -2.9,39.472 -9.06,49.429 -7.6,12.313 -20.1,19.012 -35.12,19.012 m 0,-20.461 c 6.52,0 11.77,-3.621 14.85,-10.32 2.53,-5.43 3.98,-19.555 3.98,-37.117 0,-14.301 -1.45,-28.786 -3.26,-33.856 -2.9,-7.605 -8.33,-11.77 -15.57,-11.77 -6.7,0 -11.77,3.442 -14.85,9.958 -2.53,5.433 -3.98,19.011 -3.98,36.031 0,15.027 1.45,29.695 3.26,34.945 2.9,7.785 8.33,12.129 15.57,12.129"
         style="fill:#000000;fill-opacity:1;fill-rule:nonzero;stroke:none"
         id="path84"
         inkscape:connector-curvature="0" /><path
         d="m 2688.27,448.586 c -13.76,0 -25.53,-5.793 -33.32,-16.477 -7.42,-9.957 -10.86,-26.433 -10.86,-51.238 0,-22.633 3.08,-38.746 9.05,-48.523 7.61,-12.133 20.1,-19.012 35.13,-19.012 13.94,0 25.34,5.613 33.31,16.476 7.24,9.778 10.87,26.434 10.87,50.333 0,23.539 -2.9,39.472 -9.06,49.429 -7.6,12.313 -20.1,19.012 -35.12,19.012 m 0,-20.461 c 6.52,0 11.77,-3.621 14.84,-10.32 2.54,-5.43 3.99,-19.555 3.99,-37.117 0,-14.301 -1.45,-28.786 -3.26,-33.856 -2.9,-7.605 -8.33,-11.77 -15.57,-11.77 -6.7,0 -11.77,3.442 -14.85,9.958 -2.53,5.433 -3.98,19.011 -3.98,36.031 0,15.027 1.45,29.695 3.26,34.945 2.89,7.785 8.32,12.129 15.57,12.129"
         style="fill:#000000;fill-opacity:1;fill-rule:nonzero;stroke:none"
         id="path86"
         inkscape:connector-curvature="0" /><path
         d="m 2788.93,448.586 c -13.75,0 -25.52,-5.793 -33.31,-16.477 -7.42,-9.957 -10.86,-26.433 -10.86,-51.238 0,-22.633 3.08,-38.746 9.05,-48.523 7.6,-12.133 20.1,-19.012 35.12,-19.012 13.95,0 25.35,5.613 33.32,16.476 7.24,9.778 10.86,26.434 10.86,50.333 0,23.539 -2.9,39.472 -9.05,49.429 -7.61,12.313 -20.1,19.012 -35.13,19.012 m 0,-20.461 c 6.52,0 11.77,-3.621 14.85,-10.32 2.54,-5.43 3.99,-19.555 3.99,-37.117 0,-14.301 -1.45,-28.786 -3.27,-33.856 -2.89,-7.605 -8.32,-11.77 -15.57,-11.77 -6.7,0 -11.77,3.442 -14.84,9.958 -2.54,5.433 -3.98,19.011 -3.98,36.031 0,15.027 1.44,29.695 3.25,34.945 2.9,7.785 8.33,12.129 15.57,12.129"
         style="fill:#000000;fill-opacity:1;fill-rule:nonzero;stroke:none"
         id="path88"
         inkscape:connector-curvature="0" /><path
         d="m 3551.8,416.719 c -1.27,8.328 -2.9,12.492 -6.16,17.199 -6.69,9.234 -18.46,14.668 -32.41,14.668 -15.93,0 -28.96,-7.063 -36.75,-19.918 -7.6,-12.492 -10.68,-26.797 -10.68,-50.152 0,-22.09 2.72,-35.848 9.23,-46.168 7.43,-11.95 20.82,-19.012 36.03,-19.012 25.53,0 42.91,19.191 42.91,47.074 0,24.625 -15.2,41.645 -37.29,41.645 -10.51,0 -17.57,-3.078 -25.54,-11.407 0.55,13.579 0.55,13.579 1.64,19.008 2.35,11.59 9.59,18.469 19.73,18.469 8.15,0 12.49,-3.258 15.75,-11.406 l 23.54,0 m -41.28,-34.582 c 11.77,0 19.37,-9.235 19.37,-23.356 0,-13.761 -8.33,-23.719 -19.55,-23.719 -11.59,0 -19.55,9.598 -19.55,23.176 0,14.121 7.96,23.899 19.73,23.899"
         style="fill:#000000;fill-opacity:1;fill-rule:nonzero;stroke:none"
         id="path90"
         inkscape:connector-curvature="0" /><path
         d="m 3610.1,448.586 c -13.76,0 -25.53,-5.793 -33.31,-16.477 -7.43,-9.957 -10.87,-26.433 -10.87,-51.238 0,-22.633 3.08,-38.746 9.06,-48.523 7.6,-12.133 20.09,-19.012 35.12,-19.012 13.94,0 25.35,5.613 33.31,16.476 7.25,9.778 10.87,26.434 10.87,50.333 0,23.539 -2.9,39.472 -9.05,49.429 -7.61,12.313 -20.1,19.012 -35.13,19.012 m 0,-20.461 c 6.52,0 11.77,-3.621 14.85,-10.32 2.53,-5.43 3.98,-19.555 3.98,-37.117 0,-14.301 -1.45,-28.786 -3.26,-33.856 -2.9,-7.605 -8.33,-11.77 -15.57,-11.77 -6.7,0 -11.77,3.442 -14.85,9.958 -2.53,5.433 -3.98,19.011 -3.98,36.031 0,15.027 1.45,29.695 3.26,34.945 2.9,7.785 8.33,12.129 15.57,12.129"
         style="fill:#000000;fill-opacity:1;fill-rule:nonzero;stroke:none"
         id="path92"
         inkscape:connector-curvature="0" /><path
         d="m 3710.77,448.586 c -13.76,0 -25.53,-5.793 -33.32,-16.477 -7.42,-9.957 -10.86,-26.433 -10.86,-51.238 0,-22.633 3.08,-38.746 9.05,-48.523 7.61,-12.133 20.1,-19.012 35.13,-19.012 13.94,0 25.35,5.613 33.31,16.476 7.24,9.778 10.87,26.434 10.87,50.333 0,23.539 -2.9,39.472 -9.06,49.429 -7.6,12.313 -20.09,19.012 -35.12,19.012 m 0,-20.461 c 6.52,0 11.77,-3.621 14.84,-10.32 2.54,-5.43 3.99,-19.555 3.99,-37.117 0,-14.301 -1.45,-28.786 -3.26,-33.856 -2.9,-7.605 -8.33,-11.77 -15.57,-11.77 -6.7,0 -11.77,3.442 -14.85,9.958 -2.53,5.433 -3.98,19.011 -3.98,36.031 0,15.027 1.45,29.695 3.26,34.945 2.89,7.785 8.33,12.129 15.57,12.129"
         style="fill:#000000;fill-opacity:1;fill-rule:nonzero;stroke:none"
         id="path94"
         inkscape:connector-curvature="0" /><path
         d="m 3811.44,448.586 c -13.76,0 -25.53,-5.793 -33.32,-16.477 -7.42,-9.957 -10.86,-26.433 -10.86,-51.238 0,-22.633 3.08,-38.746 9.05,-48.523 7.6,-12.133 20.1,-19.012 35.13,-19.012 13.94,0 25.35,5.613 33.31,16.476 7.24,9.778 10.86,26.434 10.86,50.333 0,23.539 -2.9,39.472 -9.05,49.429 -7.6,12.313 -20.1,19.012 -35.12,19.012 m 0,-20.461 c 6.51,0 11.76,-3.621 14.84,-10.32 2.54,-5.43 3.99,-19.555 3.99,-37.117 0,-14.301 -1.45,-28.786 -3.26,-33.856 -2.9,-7.605 -8.33,-11.77 -15.57,-11.77 -6.7,0 -11.77,3.442 -14.85,9.958 -2.54,5.433 -3.98,19.011 -3.98,36.031 0,15.027 1.44,29.695 3.25,34.945 2.9,7.785 8.33,12.129 15.58,12.129"
         style="fill:#000000;fill-opacity:1;fill-rule:nonzero;stroke:none"
         id="path96"
         inkscape:connector-curvature="0" /><path
         d="m 4544.06,387.387 c 4.34,2.355 6.33,3.621 8.33,5.433 5.25,4.887 8.32,12.672 8.32,21.004 0,20.094 -17.38,34.762 -41.1,34.762 -23.9,0 -41.28,-14.668 -41.28,-34.945 0,-12.313 5.07,-20.098 16.66,-26.254 -14.85,-7.965 -21,-17.742 -21,-32.949 0,-24.262 18.65,-41.102 45.62,-41.102 26.8,0 45.45,16.84 45.45,41.102 0,15.207 -6.16,24.984 -21,32.949 m -24.26,40.738 c 11.22,0 19,-6.879 19,-16.836 0,-9.777 -7.96,-16.84 -19,-16.84 -11.23,0 -19.19,7.063 -19.19,17.02 0,9.777 7.78,16.656 19.19,16.656 m -0.37,-50.875 c 12.5,0 20.28,-8.328 20.28,-21.727 0,-12.312 -7.96,-20.461 -20.28,-20.461 -12.31,0 -20.09,8.149 -20.09,20.821 0,13.039 7.96,21.367 20.09,21.367"
         style="fill:#000000;fill-opacity:1;fill-rule:nonzero;stroke:none"
         id="path98"
         inkscape:connector-curvature="0" /><path
         d="m 4620.1,448.586 c -13.76,0 -25.53,-5.793 -33.31,-16.477 -7.43,-9.957 -10.87,-26.433 -10.87,-51.238 0,-22.633 3.08,-38.746 9.06,-48.523 7.6,-12.133 20.09,-19.012 35.12,-19.012 13.94,0 25.35,5.613 33.32,16.476 7.24,9.778 10.86,26.434 10.86,50.333 0,23.539 -2.9,39.472 -9.05,49.429 -7.61,12.313 -20.1,19.012 -35.13,19.012 m 0,-20.461 c 6.52,0 11.77,-3.621 14.85,-10.32 2.53,-5.43 3.98,-19.555 3.98,-37.117 0,-14.301 -1.45,-28.786 -3.26,-33.856 -2.89,-7.605 -8.33,-11.77 -15.57,-11.77 -6.7,0 -11.77,3.442 -14.85,9.958 -2.53,5.433 -3.98,19.011 -3.98,36.031 0,15.027 1.45,29.695 3.26,34.945 2.9,7.785 8.33,12.129 15.57,12.129"
         style="fill:#000000;fill-opacity:1;fill-rule:nonzero;stroke:none"
         id="path100"
         inkscape:connector-curvature="0" /><path
         d="m 4720.77,448.586 c -13.76,0 -25.53,-5.793 -33.32,-16.477 -7.42,-9.957 -10.86,-26.433 -10.86,-51.238 0,-22.633 3.08,-38.746 9.05,-48.523 7.61,-12.133 20.1,-19.012 35.13,-19.012 13.94,0 25.35,5.613 33.31,16.476 7.24,9.778 10.87,26.434 10.87,50.333 0,23.539 -2.9,39.472 -9.06,49.429 -7.6,12.313 -20.09,19.012 -35.12,19.012 m 0,-20.461 c 6.52,0 11.77,-3.621 14.85,-10.32 2.53,-5.43 3.98,-19.555 3.98,-37.117 0,-14.301 -1.45,-28.786 -3.26,-33.856 -2.9,-7.605 -8.33,-11.77 -15.57,-11.77 -6.7,0 -11.77,3.442 -14.85,9.958 -2.53,5.433 -3.98,19.011 -3.98,36.031 0,15.027 1.45,29.695 3.26,34.945 2.89,7.785 8.33,12.129 15.57,12.129"
         style="fill:#000000;fill-opacity:1;fill-rule:nonzero;stroke:none"
         id="path102"
         inkscape:connector-curvature="0" /><path
         d="m 4821.44,448.586 c -13.76,0 -25.53,-5.793 -33.32,-16.477 -7.42,-9.957 -10.86,-26.433 -10.86,-51.238 0,-22.633 3.08,-38.746 9.05,-48.523 7.61,-12.133 20.1,-19.012 35.13,-19.012 13.94,0 25.35,5.613 33.31,16.476 7.24,9.778 10.86,26.434 10.86,50.333 0,23.539 -2.89,39.472 -9.05,49.429 -7.6,12.313 -20.1,19.012 -35.12,19.012 m 0,-20.461 c 6.51,0 11.77,-3.621 14.85,-10.32 2.53,-5.43 3.98,-19.555 3.98,-37.117 0,-14.301 -1.45,-28.786 -3.26,-33.856 -2.9,-7.605 -8.33,-11.77 -15.57,-11.77 -6.7,0 -11.77,3.442 -14.85,9.958 -2.54,5.433 -3.98,19.011 -3.98,36.031 0,15.027 1.44,29.695 3.26,34.945 2.89,7.785 8.33,12.129 15.57,12.129"
         style="fill:#000000;fill-opacity:1;fill-rule:nonzero;stroke:none"
         id="path104"
         inkscape:connector-curvature="0" /><path
         d="m 5483.1,406.035 0,-88.535 25.35,0 0,128.371 -16.84,0 c -3.99,-15.211 -17.2,-22.996 -39.29,-22.996 l 0,-16.84 30.78,0"
         style="fill:#000000;fill-opacity:1;fill-rule:nonzero;stroke:none"
         id="path106"
         inkscape:connector-curvature="0" /><path
         d="m 5590.1,448.586 c -13.76,0 -25.53,-5.793 -33.31,-16.477 -7.42,-9.957 -10.86,-26.433 -10.86,-51.238 0,-22.633 3.07,-38.746 9.05,-48.523 7.6,-12.133 20.09,-19.012 35.12,-19.012 13.95,0 25.35,5.613 33.32,16.476 7.24,9.778 10.86,26.434 10.86,50.333 0,23.539 -2.9,39.472 -9.05,49.429 -7.61,12.313 -20.1,19.012 -35.13,19.012 m 0,-20.461 c 6.52,0 11.77,-3.621 14.85,-10.32 2.53,-5.43 3.98,-19.555 3.98,-37.117 0,-14.301 -1.45,-28.786 -3.25,-33.856 -2.9,-7.605 -8.33,-11.77 -15.58,-11.77 -6.69,0 -11.76,3.442 -14.84,9.958 -2.54,5.433 -3.99,19.011 -3.99,36.031 0,15.027 1.45,29.695 3.26,34.945 2.9,7.785 8.33,12.129 15.57,12.129"
         style="fill:#000000;fill-opacity:1;fill-rule:nonzero;stroke:none"
         id="path108"
         inkscape:connector-curvature="0" /><path
         d="m 5690.77,448.586 c -13.76,0 -25.53,-5.793 -33.31,-16.477 -7.42,-9.957 -10.87,-26.433 -10.87,-51.238 0,-22.633 3.08,-38.746 9.05,-48.523 7.61,-12.133 20.1,-19.012 35.13,-19.012 13.94,0 25.35,5.613 33.32,16.476 7.24,9.778 10.86,26.434 10.86,50.333 0,23.539 -2.9,39.472 -9.06,49.429 -7.6,12.313 -20.09,19.012 -35.12,19.012 m 0,-20.461 c 6.52,0 11.77,-3.621 14.85,-10.32 2.53,-5.43 3.98,-19.555 3.98,-37.117 0,-14.301 -1.45,-28.786 -3.26,-33.856 -2.89,-7.605 -8.33,-11.77 -15.57,-11.77 -6.7,0 -11.77,3.442 -14.84,9.958 -2.54,5.433 -3.99,19.011 -3.99,36.031 0,15.027 1.45,29.695 3.26,34.945 2.9,7.785 8.33,12.129 15.57,12.129"
         style="fill:#000000;fill-opacity:1;fill-rule:nonzero;stroke:none"
         id="path110"
         inkscape:connector-curvature="0" /><path
         d="m 5791.44,448.586 c -13.76,0 -25.53,-5.793 -33.32,-16.477 -7.42,-9.957 -10.86,-26.433 -10.86,-51.238 0,-22.633 3.08,-38.746 9.05,-48.523 7.61,-12.133 20.1,-19.012 35.13,-19.012 13.94,0 25.35,5.613 33.31,16.476 7.25,9.778 10.87,26.434 10.87,50.333 0,23.539 -2.9,39.472 -9.06,49.429 -7.6,12.313 -20.1,19.012 -35.12,19.012 m 0,-20.461 c 6.52,0 11.77,-3.621 14.85,-10.32 2.53,-5.43 3.98,-19.555 3.98,-37.117 0,-14.301 -1.45,-28.786 -3.26,-33.856 -2.9,-7.605 -8.33,-11.77 -15.57,-11.77 -6.7,0 -11.77,3.442 -14.85,9.958 -2.53,5.433 -3.98,19.011 -3.98,36.031 0,15.027 1.45,29.695 3.26,34.945 2.9,7.785 8.33,12.129 15.57,12.129"
         style="fill:#000000;fill-opacity:1;fill-rule:nonzero;stroke:none"
         id="path112"
         inkscape:connector-curvature="0" /><path
         d="m 5892.11,448.586 c -13.76,0 -25.53,-5.793 -33.32,-16.477 -7.42,-9.957 -10.86,-26.433 -10.86,-51.238 0,-22.633 3.08,-38.746 9.05,-48.523 7.61,-12.133 20.1,-19.012 35.13,-19.012 13.94,0 25.34,5.613 33.31,16.476 7.24,9.778 10.87,26.434 10.87,50.333 0,23.539 -2.9,39.472 -9.06,49.429 -7.6,12.313 -20.1,19.012 -35.12,19.012 m 0,-20.461 c 6.51,0 11.77,-3.621 14.84,-10.32 2.54,-5.43 3.99,-19.555 3.99,-37.117 0,-14.301 -1.45,-28.786 -3.26,-33.856 -2.9,-7.605 -8.33,-11.77 -15.57,-11.77 -6.7,0 -11.77,3.442 -14.85,9.958 -2.53,5.433 -3.98,19.011 -3.98,36.031 0,15.027 1.45,29.695 3.26,34.945 2.89,7.785 8.32,12.129 15.57,12.129"
         style="fill:#000000;fill-opacity:1;fill-rule:nonzero;stroke:none"
         id="path114"
         inkscape:connector-curvature="0" /><path
         d="m 607.5,492.5 0,3782.5"
         style="fill:none;stroke:#000000;stroke-width:7.5;stroke-linecap:butt;stroke-linejoin:miter;stroke-miterlimit:10;stroke-opacity:1;stroke-dasharray:none"
         id="path116"
         inkscape:connector-curvature="0" /><path
         d="m 785,492.5 -177.5,0"
         style="fill:none;stroke:#000000;stroke-width:7.5;stroke-linecap:butt;stroke-linejoin:miter;stroke-miterlimit:10;stroke-opacity:1;stroke-dasharray:none"
         id="path118"
         inkscape:connector-curvature="0" /><path
         d="m 695,587.5 -87.5,0"
         style="fill:none;stroke:#000000;stroke-width:7.5;stroke-linecap:butt;stroke-linejoin:miter;stroke-miterlimit:10;stroke-opacity:1;stroke-dasharray:none"
         id="path120"
         inkscape:connector-curvature="0" /><path
         d="m 695,682.5 -87.5,0"
         style="fill:none;stroke:#000000;stroke-width:7.5;stroke-linecap:butt;stroke-linejoin:miter;stroke-miterlimit:10;stroke-opacity:1;stroke-dasharray:none"
         id="path122"
         inkscape:connector-curvature="0" /><path
         d="m 695,777.5 -87.5,0"
         style="fill:none;stroke:#000000;stroke-width:7.5;stroke-linecap:butt;stroke-linejoin:miter;stroke-miterlimit:10;stroke-opacity:1;stroke-dasharray:none"
         id="path124"
         inkscape:connector-curvature="0" /><path
         d="m 785,872.5 -177.5,0"
         style="fill:none;stroke:#000000;stroke-width:7.5;stroke-linecap:butt;stroke-linejoin:miter;stroke-miterlimit:10;stroke-opacity:1;stroke-dasharray:none"
         id="path126"
         inkscape:connector-curvature="0" /><path
         d="m 695,965 -87.5,0"
         style="fill:none;stroke:#000000;stroke-width:7.5;stroke-linecap:butt;stroke-linejoin:miter;stroke-miterlimit:10;stroke-opacity:1;stroke-dasharray:none"
         id="path128"
         inkscape:connector-curvature="0" /><path
         d="m 695,1060 -87.5,0"
         style="fill:none;stroke:#000000;stroke-width:7.5;stroke-linecap:butt;stroke-linejoin:miter;stroke-miterlimit:10;stroke-opacity:1;stroke-dasharray:none"
         id="path130"
         inkscape:connector-curvature="0" /><path
         d="m 695,1155 -87.5,0"
         style="fill:none;stroke:#000000;stroke-width:7.5;stroke-linecap:butt;stroke-linejoin:miter;stroke-miterlimit:10;stroke-opacity:1;stroke-dasharray:none"
         id="path132"
         inkscape:connector-curvature="0" /><path
         d="m 785,1250 -177.5,0"
         style="fill:none;stroke:#000000;stroke-width:7.5;stroke-linecap:butt;stroke-linejoin:miter;stroke-miterlimit:10;stroke-opacity:1;stroke-dasharray:none"
         id="path134"
         inkscape:connector-curvature="0" /><path
         d="m 695,1345 -87.5,0"
         style="fill:none;stroke:#000000;stroke-width:7.5;stroke-linecap:butt;stroke-linejoin:miter;stroke-miterlimit:10;stroke-opacity:1;stroke-dasharray:none"
         id="path136"
         inkscape:connector-curvature="0" /><path
         d="m 695,1440 -87.5,0"
         style="fill:none;stroke:#000000;stroke-width:7.5;stroke-linecap:butt;stroke-linejoin:miter;stroke-miterlimit:10;stroke-opacity:1;stroke-dasharray:none"
         id="path138"
         inkscape:connector-curvature="0" /><path
         d="m 695,1532.5 -87.5,0"
         style="fill:none;stroke:#000000;stroke-width:7.5;stroke-linecap:butt;stroke-linejoin:miter;stroke-miterlimit:10;stroke-opacity:1;stroke-dasharray:none"
         id="path140"
         inkscape:connector-curvature="0" /><path
         d="m 785,1627.5 -177.5,0"
         style="fill:none;stroke:#000000;stroke-width:7.5;stroke-linecap:butt;stroke-linejoin:miter;stroke-miterlimit:10;stroke-opacity:1;stroke-dasharray:none"
         id="path142"
         inkscape:connector-curvature="0" /><path
         d="m 695,1722.5 -87.5,0"
         style="fill:none;stroke:#000000;stroke-width:7.5;stroke-linecap:butt;stroke-linejoin:miter;stroke-miterlimit:10;stroke-opacity:1;stroke-dasharray:none"
         id="path144"
         inkscape:connector-curvature="0" /><path
         d="m 695,1817.5 -87.5,0"
         style="fill:none;stroke:#000000;stroke-width:7.5;stroke-linecap:butt;stroke-linejoin:miter;stroke-miterlimit:10;stroke-opacity:1;stroke-dasharray:none"
         id="path146"
         inkscape:connector-curvature="0" /><path
         d="m 695,1912.5 -87.5,0"
         style="fill:none;stroke:#000000;stroke-width:7.5;stroke-linecap:butt;stroke-linejoin:miter;stroke-miterlimit:10;stroke-opacity:1;stroke-dasharray:none"
         id="path148"
         inkscape:connector-curvature="0" /><path
         d="m 785,2007.5 -177.5,0"
         style="fill:none;stroke:#000000;stroke-width:7.5;stroke-linecap:butt;stroke-linejoin:miter;stroke-miterlimit:10;stroke-opacity:1;stroke-dasharray:none"
         id="path150"
         inkscape:connector-curvature="0" /><path
         d="m 695,2102.5 -87.5,0"
         style="fill:none;stroke:#000000;stroke-width:7.5;stroke-linecap:butt;stroke-linejoin:miter;stroke-miterlimit:10;stroke-opacity:1;stroke-dasharray:none"
         id="path152"
         inkscape:connector-curvature="0" /><path
         d="m 695,2195 -87.5,0"
         style="fill:none;stroke:#000000;stroke-width:7.5;stroke-linecap:butt;stroke-linejoin:miter;stroke-miterlimit:10;stroke-opacity:1;stroke-dasharray:none"
         id="path154"
         inkscape:connector-curvature="0" /><path
         d="m 695,2290 -87.5,0"
         style="fill:none;stroke:#000000;stroke-width:7.5;stroke-linecap:butt;stroke-linejoin:miter;stroke-miterlimit:10;stroke-opacity:1;stroke-dasharray:none"
         id="path156"
         inkscape:connector-curvature="0" /><path
         d="m 785,2385 -177.5,0"
         style="fill:none;stroke:#000000;stroke-width:7.5;stroke-linecap:butt;stroke-linejoin:miter;stroke-miterlimit:10;stroke-opacity:1;stroke-dasharray:none"
         id="path158"
         inkscape:connector-curvature="0" /><path
         d="m 695,2480 -87.5,0"
         style="fill:none;stroke:#000000;stroke-width:7.5;stroke-linecap:butt;stroke-linejoin:miter;stroke-miterlimit:10;stroke-opacity:1;stroke-dasharray:none"
         id="path160"
         inkscape:connector-curvature="0" /><path
         d="m 695,2575 -87.5,0"
         style="fill:none;stroke:#000000;stroke-width:7.5;stroke-linecap:butt;stroke-linejoin:miter;stroke-miterlimit:10;stroke-opacity:1;stroke-dasharray:none"
         id="path162"
         inkscape:connector-curvature="0" /><path
         d="m 695,2670 -87.5,0"
         style="fill:none;stroke:#000000;stroke-width:7.5;stroke-linecap:butt;stroke-linejoin:miter;stroke-miterlimit:10;stroke-opacity:1;stroke-dasharray:none"
         id="path164"
         inkscape:connector-curvature="0" /><path
         d="m 785,2762.5 -177.5,0"
         style="fill:none;stroke:#000000;stroke-width:7.5;stroke-linecap:butt;stroke-linejoin:miter;stroke-miterlimit:10;stroke-opacity:1;stroke-dasharray:none"
         id="path166"
         inkscape:connector-curvature="0" /><path
         d="m 695,2857.5 -87.5,0"
         style="fill:none;stroke:#000000;stroke-width:7.5;stroke-linecap:butt;stroke-linejoin:miter;stroke-miterlimit:10;stroke-opacity:1;stroke-dasharray:none"
         id="path168"
         inkscape:connector-curvature="0" /><path
         d="m 695,2952.5 -87.5,0"
         style="fill:none;stroke:#000000;stroke-width:7.5;stroke-linecap:butt;stroke-linejoin:miter;stroke-miterlimit:10;stroke-opacity:1;stroke-dasharray:none"
         id="path170"
         inkscape:connector-curvature="0" /><path
         d="m 695,3047.5 -87.5,0"
         style="fill:none;stroke:#000000;stroke-width:7.5;stroke-linecap:butt;stroke-linejoin:miter;stroke-miterlimit:10;stroke-opacity:1;stroke-dasharray:none"
         id="path172"
         inkscape:connector-curvature="0" /><path
         d="m 785,3142.5 -177.5,0"
         style="fill:none;stroke:#000000;stroke-width:7.5;stroke-linecap:butt;stroke-linejoin:miter;stroke-miterlimit:10;stroke-opacity:1;stroke-dasharray:none"
         id="path174"
         inkscape:connector-curvature="0" /><path
         d="m 695,3237.5 -87.5,0"
         style="fill:none;stroke:#000000;stroke-width:7.5;stroke-linecap:butt;stroke-linejoin:miter;stroke-miterlimit:10;stroke-opacity:1;stroke-dasharray:none"
         id="path176"
         inkscape:connector-curvature="0" /><path
         d="m 695,3332.5 -87.5,0"
         style="fill:none;stroke:#000000;stroke-width:7.5;stroke-linecap:butt;stroke-linejoin:miter;stroke-miterlimit:10;stroke-opacity:1;stroke-dasharray:none"
         id="path178"
         inkscape:connector-curvature="0" /><path
         d="m 695,3425 -87.5,0"
         style="fill:none;stroke:#000000;stroke-width:7.5;stroke-linecap:butt;stroke-linejoin:miter;stroke-miterlimit:10;stroke-opacity:1;stroke-dasharray:none"
         id="path180"
         inkscape:connector-curvature="0" /><path
         d="m 785,3520 -177.5,0"
         style="fill:none;stroke:#000000;stroke-width:7.5;stroke-linecap:butt;stroke-linejoin:miter;stroke-miterlimit:10;stroke-opacity:1;stroke-dasharray:none"
         id="path182"
         inkscape:connector-curvature="0" /><path
         d="m 695,3615 -87.5,0"
         style="fill:none;stroke:#000000;stroke-width:7.5;stroke-linecap:butt;stroke-linejoin:miter;stroke-miterlimit:10;stroke-opacity:1;stroke-dasharray:none"
         id="path184"
         inkscape:connector-curvature="0" /><path
         d="m 695,3710 -87.5,0"
         style="fill:none;stroke:#000000;stroke-width:7.5;stroke-linecap:butt;stroke-linejoin:miter;stroke-miterlimit:10;stroke-opacity:1;stroke-dasharray:none"
         id="path186"
         inkscape:connector-curvature="0" /><path
         d="m 695,3805 -87.5,0"
         style="fill:none;stroke:#000000;stroke-width:7.5;stroke-linecap:butt;stroke-linejoin:miter;stroke-miterlimit:10;stroke-opacity:1;stroke-dasharray:none"
         id="path188"
         inkscape:connector-curvature="0" /><path
         d="m 785,3900 -177.5,0"
         style="fill:none;stroke:#000000;stroke-width:7.5;stroke-linecap:butt;stroke-linejoin:miter;stroke-miterlimit:10;stroke-opacity:1;stroke-dasharray:none"
         id="path190"
         inkscape:connector-curvature="0" /><path
         d="m 785,3900 -177.5,0"
         style="fill:none;stroke:#000000;stroke-width:7.5;stroke-linecap:butt;stroke-linejoin:miter;stroke-miterlimit:10;stroke-opacity:1;stroke-dasharray:none"
         id="path192"
         inkscape:connector-curvature="0" /><path
         d="m 695,3995 -87.5,0"
         style="fill:none;stroke:#000000;stroke-width:7.5;stroke-linecap:butt;stroke-linejoin:miter;stroke-miterlimit:10;stroke-opacity:1;stroke-dasharray:none"
         id="path194"
         inkscape:connector-curvature="0" /><path
         d="m 695,4087.5 -87.5,0"
         style="fill:none;stroke:#000000;stroke-width:7.5;stroke-linecap:butt;stroke-linejoin:miter;stroke-miterlimit:10;stroke-opacity:1;stroke-dasharray:none"
         id="path196"
         inkscape:connector-curvature="0" /><path
         d="m 695,4182.5 -87.5,0"
         style="fill:none;stroke:#000000;stroke-width:7.5;stroke-linecap:butt;stroke-linejoin:miter;stroke-miterlimit:10;stroke-opacity:1;stroke-dasharray:none"
         id="path198"
         inkscape:connector-curvature="0" /><path
         d="m 516.93,556.086 c -13.762,0 -25.532,-5.793 -33.317,-16.477 -7.422,-9.957 -10.863,-26.433 -10.863,-51.238 0,-22.633 3.078,-38.746 9.055,-48.523 7.601,-12.133 20.097,-19.012 35.125,-19.012 13.941,0 25.347,5.613 33.312,16.476 7.242,9.778 10.863,26.434 10.863,50.333 0,23.539 -2.894,39.472 -9.05,49.429 -7.606,12.313 -20.098,19.012 -35.125,19.012 m 0,-20.461 c 6.515,0 11.769,-3.621 14.843,-10.32 2.536,-5.43 3.985,-19.555 3.985,-37.117 0,-14.301 -1.449,-28.786 -3.258,-33.856 -2.898,-7.605 -8.328,-11.77 -15.57,-11.77 -6.7,0 -11.77,3.442 -14.848,9.958 -2.535,5.433 -3.984,19.011 -3.984,36.031 0,15.027 1.449,29.695 3.261,34.945 2.895,7.785 8.329,12.129 15.571,12.129"
         style="fill:#000000;fill-opacity:1;fill-rule:nonzero;stroke:none"
         id="path200"
         inkscape:connector-curvature="0" /><path
         d="m 366.93,928.586 c -13.762,0 -25.532,-5.793 -33.317,-16.477 -7.422,-9.957 -10.863,-26.433 -10.863,-51.238 0,-22.633 3.078,-38.746 9.055,-48.523 7.601,-12.133 20.097,-19.012 35.125,-19.012 13.941,0 25.347,5.613 33.312,16.476 7.242,9.778 10.863,26.434 10.863,50.333 0,23.539 -2.894,39.472 -9.05,49.429 -7.606,12.313 -20.098,19.012 -35.125,19.012 m 0,-20.461 c 6.515,0 11.769,-3.621 14.843,-10.32 2.536,-5.43 3.985,-19.555 3.985,-37.117 0,-14.301 -1.449,-28.786 -3.258,-33.856 -2.898,-7.605 -8.328,-11.77 -15.57,-11.77 -6.7,0 -11.77,3.442 -14.848,9.958 -2.535,5.433 -3.984,19.011 -3.984,36.031 0,15.027 1.449,29.695 3.261,34.945 2.895,7.785 8.329,12.129 15.571,12.129"
         style="fill:#000000;fill-opacity:1;fill-rule:nonzero;stroke:none"
         id="path202"
         inkscape:connector-curvature="0" /><path
         d="m 429.754,797.5 27.1602,0 0,26.4336 -27.1602,0 0,-26.4336 z"
         style="fill:#000000;fill-opacity:1;fill-rule:nonzero;stroke:none"
         id="path204"
         inkscape:connector-curvature="0" /><path
         d="m 561.203,820.133 -54.316,0 c 3.258,6.879 7.242,10.5 26.07,24.262 22.27,16.293 28.789,26.07 28.789,43.453 0,24.804 -17.019,40.738 -43.996,40.738 -26.617,0 -42.188,-15.754 -42.188,-42.91 0,-1.086 0,-2.535 0.18,-4.528 l 24.262,0 0,4.164 c 0,14.305 6.699,22.633 18.289,22.633 11.227,0 18.105,-7.785 18.105,-20.64 0,-14.121 -4.527,-19.735 -32.773,-39.832 -21.727,-14.848 -28.426,-26.254 -29.691,-49.973 l 87.269,0 0,22.633"
         style="fill:#000000;fill-opacity:1;fill-rule:nonzero;stroke:none"
         id="path206"
         inkscape:connector-curvature="0" /><path
         d="m 356.93,1311.09 c -13.762,0 -25.532,-5.8 -33.317,-16.48 -7.422,-9.96 -10.863,-26.43 -10.863,-51.24 0,-22.63 3.078,-38.75 9.055,-48.52 7.601,-12.14 20.097,-19.01 35.125,-19.01 13.941,0 25.347,5.61 33.312,16.47 7.242,9.78 10.863,26.44 10.863,50.33 0,23.54 -2.894,39.48 -9.05,49.43 -7.606,12.32 -20.098,19.02 -35.125,19.02 m 0,-20.47 c 6.515,0 11.769,-3.62 14.843,-10.32 2.536,-5.42 3.985,-19.55 3.985,-37.11 0,-14.3 -1.449,-28.79 -3.258,-33.86 -2.898,-7.6 -8.328,-11.77 -15.57,-11.77 -6.7,0 -11.77,3.44 -14.848,9.96 -2.535,5.43 -3.984,19.01 -3.984,36.03 0,15.03 1.449,29.7 3.261,34.95 2.895,7.78 8.329,12.12 15.571,12.12"
         style="fill:#000000;fill-opacity:1;fill-rule:nonzero;stroke:none"
         id="path208"
         inkscape:connector-curvature="0" /><path
         d="m 419.754,1180 27.1602,0 0,26.4336 -27.1602,0 0,-26.4336 z"
         style="fill:#000000;fill-opacity:1;fill-rule:nonzero;stroke:none"
         id="path210"
         inkscape:connector-curvature="0" /><path
         d="m 553.012,1229.43 -13.399,0 0,78.94 -29.871,0 -46.894,-78.58 0,-21.36 51.418,0 0,-28.43 25.347,0 0,28.43 13.399,0 0,21 m -38.746,0 -33.493,0 33.493,54.86 0,-54.86"
         style="fill:#000000;fill-opacity:1;fill-rule:nonzero;stroke:none"
         id="path212"
         inkscape:connector-curvature="0" /><path
         d="m 356.93,1696.09 c -13.762,0 -25.532,-5.8 -33.317,-16.48 -7.422,-9.96 -10.863,-26.43 -10.863,-51.24 0,-22.63 3.078,-38.75 9.055,-48.52 7.601,-12.14 20.097,-19.01 35.125,-19.01 13.941,0 25.347,5.61 33.312,16.47 7.242,9.78 10.863,26.44 10.863,50.33 0,23.54 -2.894,39.48 -9.05,49.43 -7.606,12.32 -20.098,19.02 -35.125,19.02 m 0,-20.47 c 6.515,0 11.769,-3.62 14.843,-10.32 2.536,-5.42 3.985,-19.55 3.985,-37.11 0,-14.3 -1.449,-28.79 -3.258,-33.86 -2.898,-7.6 -8.328,-11.77 -15.57,-11.77 -6.7,0 -11.77,3.44 -14.848,9.96 -2.535,5.43 -3.984,19.01 -3.984,36.03 0,15.03 1.449,29.7 3.261,34.95 2.895,7.78 8.329,12.12 15.571,12.12"
         style="fill:#000000;fill-opacity:1;fill-rule:nonzero;stroke:none"
         id="path214"
         inkscape:connector-curvature="0" /><path
         d="m 419.754,1565 27.1602,0 0,26.4336 -27.1602,0 0,-26.4336 z"
         style="fill:#000000;fill-opacity:1;fill-rule:nonzero;stroke:none"
         id="path216"
         inkscape:connector-curvature="0" /><path
         d="m 550.297,1664.22 c -1.266,8.33 -2.895,12.49 -6.156,17.2 -6.7,9.23 -18.469,14.67 -32.411,14.67 -15.929,0 -28.968,-7.07 -36.753,-19.92 -7.602,-12.49 -10.68,-26.8 -10.68,-50.15 0,-22.09 2.715,-35.85 9.23,-46.17 7.426,-11.95 20.825,-19.01 36.032,-19.01 25.531,0 42.91,19.19 42.91,47.07 0,24.63 -15.207,41.64 -37.297,41.64 -10.5,0 -17.563,-3.07 -25.527,-11.4 0.543,13.58 0.543,13.58 1.628,19.01 2.352,11.59 9.594,18.46 19.735,18.46 8.148,0 12.492,-3.25 15.754,-11.4 l 23.535,0 m -41.281,-34.58 c 11.769,0 19.375,-9.24 19.375,-23.36 0,-13.76 -8.329,-23.72 -19.555,-23.72 -11.59,0 -19.555,9.6 -19.555,23.18 0,14.12 7.965,23.9 19.735,23.9"
         style="fill:#000000;fill-opacity:1;fill-rule:nonzero;stroke:none"
         id="path218"
         inkscape:connector-curvature="0" /><path
         d="m 366.93,2068.59 c -13.762,0 -25.532,-5.8 -33.317,-16.48 -7.422,-9.96 -10.863,-26.43 -10.863,-51.24 0,-22.63 3.078,-38.75 9.055,-48.52 7.601,-12.14 20.097,-19.01 35.125,-19.01 13.941,0 25.347,5.61 33.312,16.47 7.242,9.78 10.863,26.44 10.863,50.33 0,23.54 -2.894,39.48 -9.05,49.43 -7.606,12.32 -20.098,19.02 -35.125,19.02 m 0,-20.47 c 6.515,0 11.769,-3.62 14.843,-10.32 2.536,-5.42 3.985,-19.55 3.985,-37.11 0,-14.3 -1.449,-28.79 -3.258,-33.86 -2.898,-7.6 -8.328,-11.77 -15.57,-11.77 -6.7,0 -11.77,3.44 -14.848,9.96 -2.535,5.43 -3.984,19.01 -3.984,36.03 0,15.03 1.449,29.7 3.261,34.95 2.895,7.78 8.329,12.12 15.571,12.12"
         style="fill:#000000;fill-opacity:1;fill-rule:nonzero;stroke:none"
         id="path220"
         inkscape:connector-curvature="0" /><path
         d="m 429.754,1937.5 27.1602,0 0,26.4336 -27.1602,0 0,-26.4336 z"
         style="fill:#000000;fill-opacity:1;fill-rule:nonzero;stroke:none"
         id="path222"
         inkscape:connector-curvature="0" /><path
         d="m 542.555,2007.39 c 4.343,2.35 6.336,3.62 8.328,5.43 5.25,4.89 8.328,12.67 8.328,21 0,20.1 -17.383,34.77 -41.102,34.77 -23.898,0 -41.277,-14.67 -41.277,-34.95 0,-12.31 5.066,-20.1 16.656,-26.25 -14.847,-7.97 -21.004,-17.75 -21.004,-32.95 0,-24.26 18.649,-41.1 45.625,-41.1 26.797,0 45.446,16.84 45.446,41.1 0,15.2 -6.153,24.98 -21,32.95 m -24.262,40.73 c 11.227,0 19.012,-6.87 19.012,-16.83 0,-9.78 -7.969,-16.84 -19.012,-16.84 -11.227,0 -19.191,7.06 -19.191,17.02 0,9.78 7.785,16.65 19.191,16.65 m -0.363,-50.87 c 12.492,0 20.277,-8.33 20.277,-21.73 0,-12.31 -7.965,-20.46 -20.277,-20.46 -12.313,0 -20.098,8.15 -20.098,20.82 0,13.04 7.969,21.37 20.098,21.37"
         style="fill:#000000;fill-opacity:1;fill-rule:nonzero;stroke:none"
         id="path224"
         inkscape:connector-curvature="0" /><path
         d="m 530.59,2408.54 0,-88.54 25.351,0 0,128.37 -16.839,0 c -3.985,-15.21 -17.2,-22.99 -39.29,-22.99 l 0,-16.84 30.778,0"
         style="fill:#000000;fill-opacity:1;fill-rule:nonzero;stroke:none"
         id="path226"
         inkscape:connector-curvature="0" /><path
         d="m 360.59,2781.04 0,-88.54 25.351,0 0,128.37 -16.839,0 c -3.985,-15.21 -17.2,-22.99 -39.29,-22.99 l 0,-16.84 30.778,0"
         style="fill:#000000;fill-opacity:1;fill-rule:nonzero;stroke:none"
         id="path228"
         inkscape:connector-curvature="0" /><path
         d="m 429.754,2692.5 27.1602,0 0,26.4336 -27.1602,0 0,-26.4336 z"
         style="fill:#000000;fill-opacity:1;fill-rule:nonzero;stroke:none"
         id="path230"
         inkscape:connector-curvature="0" /><path
         d="m 561.203,2715.13 -54.316,0 c 3.258,6.88 7.242,10.5 26.07,24.26 22.27,16.3 28.789,26.07 28.789,43.46 0,24.8 -17.019,40.74 -43.996,40.74 -26.617,0 -42.188,-15.76 -42.188,-42.91 0,-1.09 0,-2.54 0.18,-4.53 l 24.262,0 0,4.16 c 0,14.31 6.699,22.64 18.289,22.64 11.227,0 18.105,-7.79 18.105,-20.65 0,-14.12 -4.527,-19.73 -32.773,-39.83 -21.727,-14.85 -28.426,-26.25 -29.691,-49.97 l 87.269,0 0,22.63"
         style="fill:#000000;fill-opacity:1;fill-rule:nonzero;stroke:none"
         id="path232"
         inkscape:connector-curvature="0" /><path
         d="m 350.59,3166.04 0,-88.54 25.351,0 0,128.37 -16.839,0 c -3.985,-15.21 -17.2,-22.99 -39.29,-22.99 l 0,-16.84 30.778,0"
         style="fill:#000000;fill-opacity:1;fill-rule:nonzero;stroke:none"
         id="path234"
         inkscape:connector-curvature="0" /><path
         d="m 419.754,3077.5 27.1602,0 0,26.4336 -27.1602,0 0,-26.4336 z"
         style="fill:#000000;fill-opacity:1;fill-rule:nonzero;stroke:none"
         id="path236"
         inkscape:connector-curvature="0" /><path
         d="m 553.012,3126.93 -13.399,0 0,78.94 -29.871,0 -46.894,-78.58 0,-21.36 51.418,0 0,-28.43 25.347,0 0,28.43 13.399,0 0,21 m -38.746,0 -33.493,0 33.493,54.86 0,-54.86"
         style="fill:#000000;fill-opacity:1;fill-rule:nonzero;stroke:none"
         id="path238"
         inkscape:connector-curvature="0" /><path
         d="m 350.59,3538.54 0,-88.54 25.351,0 0,128.37 -16.839,0 c -3.985,-15.21 -17.2,-22.99 -39.29,-22.99 l 0,-16.84 30.778,0"
         style="fill:#000000;fill-opacity:1;fill-rule:nonzero;stroke:none"
         id="path240"
         inkscape:connector-curvature="0" /><path
         d="m 419.754,3450 27.1602,0 0,26.4336 -27.1602,0 0,-26.4336 z"
         style="fill:#000000;fill-opacity:1;fill-rule:nonzero;stroke:none"
         id="path242"
         inkscape:connector-curvature="0" /><path
         d="m 550.297,3549.22 c -1.266,8.33 -2.895,12.49 -6.156,17.2 -6.7,9.23 -18.469,14.67 -32.411,14.67 -15.929,0 -28.968,-7.07 -36.753,-19.92 -7.602,-12.49 -10.68,-26.8 -10.68,-50.15 0,-22.09 2.715,-35.85 9.23,-46.17 7.426,-11.95 20.825,-19.01 36.032,-19.01 25.531,0 42.91,19.19 42.91,47.07 0,24.63 -15.207,41.64 -37.297,41.64 -10.5,0 -17.563,-3.07 -25.527,-11.4 0.543,13.58 0.543,13.58 1.628,19.01 2.352,11.59 9.594,18.46 19.735,18.46 8.148,0 12.492,-3.25 15.754,-11.4 l 23.535,0 m -41.281,-34.58 c 11.769,0 19.375,-9.24 19.375,-23.36 0,-13.76 -8.329,-23.72 -19.555,-23.72 -11.59,0 -19.555,9.6 -19.555,23.18 0,14.12 7.965,23.9 19.735,23.9"
         style="fill:#000000;fill-opacity:1;fill-rule:nonzero;stroke:none"
         id="path244"
         inkscape:connector-curvature="0" /><path
         d="m 360.59,3921.04 0,-88.54 25.351,0 0,128.37 -16.839,0 c -3.985,-15.21 -17.2,-22.99 -39.29,-22.99 l 0,-16.84 30.778,0"
         style="fill:#000000;fill-opacity:1;fill-rule:nonzero;stroke:none"
         id="path246"
         inkscape:connector-curvature="0" /><path
         d="m 429.754,3832.5 27.1602,0 0,26.4336 -27.1602,0 0,-26.4336 z"
         style="fill:#000000;fill-opacity:1;fill-rule:nonzero;stroke:none"
         id="path248"
         inkscape:connector-curvature="0" /><path
         d="m 542.555,3902.39 c 4.343,2.35 6.336,3.62 8.328,5.43 5.25,4.89 8.328,12.67 8.328,21 0,20.1 -17.383,34.77 -41.102,34.77 -23.898,0 -41.277,-14.67 -41.277,-34.95 0,-12.31 5.066,-20.1 16.656,-26.25 -14.847,-7.97 -21.004,-17.75 -21.004,-32.95 0,-24.26 18.649,-41.1 45.625,-41.1 26.797,0 45.446,16.84 45.446,41.1 0,15.2 -6.153,24.98 -21,32.95 m -24.262,40.73 c 11.227,0 19.012,-6.87 19.012,-16.83 0,-9.78 -7.969,-16.84 -19.012,-16.84 -11.227,0 -19.191,7.06 -19.191,17.02 0,9.78 7.785,16.65 19.191,16.65 m -0.363,-50.87 c 12.492,0 20.277,-8.33 20.277,-21.73 0,-12.31 -7.965,-20.46 -20.277,-20.46 -12.313,0 -20.098,8.15 -20.098,20.82 0,13.04 7.969,21.37 20.098,21.37"
         style="fill:#000000;fill-opacity:1;fill-rule:nonzero;stroke:none"
         id="path250"
         inkscape:connector-curvature="0" /><path
         d="m 607.5,492.5 470,0 0,2505 12.5,0 0,-367.5 12.5,0 0,-877.5 15,0 0,-402.5 12.5,0 0,-182.5 12.5,0 0,-102.5 12.5,0 0,-102.5 12.5,0 0,-105 12.5,0 0,262.5 12.5,0 0,-627.5 12.5,0 0,190 12.5,0 0,-190 40,0 0,225 12.5,0 0,-27.5 12.5,0 0,-197.5 2305,0 0,1365 12.5,0 0,-567.5 12.5,0 0,-337.5 12.5,0 0,-77.5 12.5,0 0,-42.5 12.5,0 0,-75 12.5,0 0,-67.5 12.5,0 0,50 15,0 0,3192.5 12.5,0 0,-30 12.5,0 0,-1692.5 12.5,0 0,-72.5 12.5,0 0,-672.5 12.5,0 0,-137.5 12.5,0 0,37.5 12.5,0 0,247.5 12.5,0 0,125 12.5,0 0,-770 12.5,0 0,115 15,0 0,-197.5 12.5,0 0,62.5 12.5,0 0,40 12.5,0 0,-147.5 12.5,0 0,-347.5 12.5,0 0,247.5 12.5,0 0,-247.5 65,0 0,205 12.5,0 0,1065 12.5,0 0,-810 12.5,0 0,-240 12.5,0 0,-220 50,0 0,332.5 12.5,0 0,-332.5 2420,0"
         style="fill:none;stroke:#000000;stroke-width:7.5;stroke-linecap:butt;stroke-linejoin:miter;stroke-miterlimit:10;stroke-opacity:1;stroke-dasharray:none"
         id="path252"
         inkscape:connector-curvature="0" /><path
         d="m 1077.5,492.5 0,3782.5"
         style="fill:none;stroke:#ff0000;stroke-width:7.5;stroke-linecap:butt;stroke-linejoin:miter;stroke-miterlimit:10;stroke-opacity:1;stroke-dasharray:none"
         id="path254"
         inkscape:connector-curvature="0" /><path
         d="m 1282.5,492.5 0,3782.5"
         style="fill:none;stroke:#0000ff;stroke-width:7.5;stroke-linecap:butt;stroke-linejoin:miter;stroke-miterlimit:10;stroke-opacity:1;stroke-dasharray:none"
         id="path256"
         inkscape:connector-curvature="0" /><path
         d="m 3587.5,492.5 0,3782.5"
         style="fill:none;stroke:#ff0000;stroke-width:7.5;stroke-linecap:butt;stroke-linejoin:miter;stroke-miterlimit:10;stroke-opacity:1;stroke-dasharray:none"
         id="path258"
         inkscape:connector-curvature="0" /><path
         d="m 4082.5,492.5 0,3782.5"
         style="fill:none;stroke:#0000ff;stroke-width:7.5;stroke-linecap:butt;stroke-linejoin:miter;stroke-miterlimit:10;stroke-opacity:1;stroke-dasharray:none"
         id="path260"
         inkscape:connector-curvature="0" /><path
         d="m 614.457,4605.36 106.938,0 0,-19.26 -84.055,0 0,-50.07 80.543,0 0,-19.26 -80.543,0 0,-61.29 86.094,0 0,-19.25 -108.977,0 0,169.13"
         style="fill:#000000;fill-opacity:1;fill-rule:nonzero;stroke:none"
         id="path262"
         inkscape:connector-curvature="0" /><path
         d="m 745.41,4563.1 22.09,0 39.648,-106.48 39.649,106.48 22.09,0 -47.578,-126.87 -28.321,0 -47.578,126.87"
         style="fill:#000000;fill-opacity:1;fill-rule:nonzero;stroke:none"
         id="path264"
         inkscape:connector-curvature="0" /><path
         d="m 1006.18,4504.88 0,-10.2 -95.832,0 c 0.906,-14.35 5.211,-25.3 12.914,-32.85 7.777,-7.48 18.578,-11.22 32.398,-11.22 8.004,0 15.746,0.99 23.223,2.95 7.551,1.96 15.027,4.91 22.427,8.83 l 0,-19.71 c -7.474,-3.17 -15.142,-5.58 -22.994,-7.25 -7.855,-1.66 -15.824,-2.49 -23.902,-2.49 -20.242,0 -36.289,5.89 -48.144,17.67 -11.782,11.78 -17.672,27.72 -17.672,47.81 0,20.77 5.586,37.23 16.765,49.39 11.25,12.23 26.395,18.35 45.426,18.35 17.066,0 30.547,-5.51 40.441,-16.54 9.97,-10.95 14.95,-25.86 14.95,-44.74 m -20.84,6.11 c -0.152,11.41 -3.363,20.51 -9.629,27.3 -6.195,6.8 -14.426,10.2 -24.695,10.2 -11.633,0 -20.957,-3.29 -27.981,-9.86 -6.949,-6.57 -10.953,-15.82 -12.008,-27.75 l 74.313,0.11"
         style="fill:#000000;fill-opacity:1;fill-rule:nonzero;stroke:none"
         id="path266"
         inkscape:connector-curvature="0" /><path
         d="m 1145.86,4512.8 0,-76.57 -20.84,0 0,75.89 c 0,12.01 -2.35,21 -7.03,26.97 -4.68,5.96 -11.7,8.95 -21.07,8.95 -11.25,0 -20.13,-3.59 -26.62,-10.77 -6.5,-7.17 -9.74,-16.95 -9.74,-29.34 l 0,-71.7 -20.96,0 0,126.87 20.96,0 0,-19.71 c 4.98,7.63 10.83,13.33 17.56,17.11 6.79,3.77 14.61,5.66 23.45,5.66 14.57,0 25.6,-4.53 33.07,-13.59 7.48,-8.99 11.22,-22.24 11.22,-39.77"
         style="fill:#000000;fill-opacity:1;fill-rule:nonzero;stroke:none"
         id="path268"
         inkscape:connector-curvature="0" /><path
         d="m 1208.28,4599.12 0,-36.02 42.93,0 0,-16.2 -42.93,0 0,-68.87 c 0,-10.35 1.39,-16.99 4.19,-19.94 2.87,-2.95 8.64,-4.42 17.33,-4.42 l 21.41,0 0,-17.44 -21.41,0 c -16.09,0 -27.19,2.98 -33.3,8.95 -6.12,6.04 -9.18,16.99 -9.18,32.85 l 0,68.87 -15.29,0 0,16.2 15.29,0 0,36.02 20.96,0"
         style="fill:#000000;fill-opacity:1;fill-rule:nonzero;stroke:none"
         id="path270"
         inkscape:connector-curvature="0" /><path
         d="m 1327.9,4548.49 c -11.18,0 -20.01,-4.38 -26.51,-13.14 -6.49,-8.69 -9.74,-20.62 -9.74,-35.8 0,-15.18 3.21,-27.15 9.63,-35.91 6.49,-8.68 15.37,-13.03 26.62,-13.03 11.1,0 19.9,4.39 26.4,13.14 6.49,8.77 9.74,20.7 9.74,35.8 0,15.03 -3.25,26.93 -9.74,35.68 -6.5,8.84 -15.3,13.26 -26.4,13.26 m 0,17.67 c 18.13,0 32.36,-5.89 42.71,-17.67 10.34,-11.78 15.52,-28.1 15.52,-48.94 0,-20.76 -5.18,-37.08 -15.52,-48.94 -10.35,-11.78 -24.58,-17.67 -42.71,-17.67 -18.2,0 -32.47,5.89 -42.82,17.67 -10.27,11.86 -15.4,28.18 -15.4,48.94 0,20.84 5.13,37.16 15.4,48.94 10.35,11.78 24.62,17.67 42.82,17.67"
         style="fill:#000000;fill-opacity:1;fill-rule:nonzero;stroke:none"
         id="path272"
         inkscape:connector-curvature="0" /><path
         d="m 1425.89,4465 23.9,0 0,-28.77 -23.9,0 0,28.77 m 0,91.19 23.9,0 0,-28.77 -23.9,0 0,28.77"
         style="fill:#000000;fill-opacity:1;fill-rule:nonzero;stroke:none"
         id="path274"
         inkscape:connector-curvature="0" /><path
         d="m 1627.53,4529.91 c -10.27,0 -18.43,-3.51 -24.47,-10.53 -5.97,-7.03 -8.95,-16.66 -8.95,-28.89 0,-12.16 2.98,-21.79 8.95,-28.89 6.04,-7.02 14.2,-10.53 24.47,-10.53 10.27,0 18.39,3.51 24.36,10.53 6.04,7.1 9.06,16.73 9.06,28.89 0,12.23 -3.02,21.86 -9.06,28.89 -5.97,7.02 -14.09,10.53 -24.36,10.53 m 45.43,71.71 0,-20.85 c -5.75,2.72 -11.56,4.8 -17.45,6.23 -5.81,1.44 -11.59,2.16 -17.33,2.16 -15.11,0 -26.66,-5.1 -34.66,-15.3 -7.93,-10.19 -12.47,-25.6 -13.6,-46.22 4.46,6.57 10.04,11.6 16.77,15.07 6.72,3.55 14.12,5.33 22.2,5.33 16.99,0 30.4,-5.18 40.22,-15.52 9.89,-10.27 14.84,-24.28 14.84,-42.03 0,-17.37 -5.14,-31.3 -15.41,-41.8 -10.27,-10.5 -23.94,-15.75 -41.01,-15.75 -19.56,0 -34.51,7.48 -44.86,22.43 -10.35,15.03 -15.52,36.78 -15.52,65.25 0,26.74 6.35,48.03 19.03,63.89 12.69,15.94 29.72,23.9 51.09,23.9 5.74,0 11.52,-0.56 17.34,-1.7 5.89,-1.13 12,-2.83 18.35,-5.09"
         style="fill:#000000;fill-opacity:1;fill-rule:nonzero;stroke:none"
         id="path276"
         inkscape:connector-curvature="0" /><path
         d="m 1727.45,4455.48 37.38,0 0,129.03 -40.67,-8.15 0,20.84 40.44,8.16 22.88,0 0,-149.88 37.39,0 0,-19.25 -97.42,0 0,19.25"
         style="fill:#000000;fill-opacity:1;fill-rule:nonzero;stroke:none"
         id="path278"
         inkscape:connector-curvature="0" /><path
         d="m 1871.88,4439.74 0,20.84 c 5.74,-2.72 11.55,-4.79 17.44,-6.23 5.89,-1.43 11.67,-2.15 17.34,-2.15 15.1,0 26.62,5.06 34.55,15.18 8,10.19 12.57,25.64 13.7,46.33 -4.38,-6.49 -9.93,-11.48 -16.65,-14.95 -6.72,-3.47 -14.16,-5.21 -22.31,-5.21 -16.92,0 -30.33,5.09 -40.22,15.29 -9.82,10.27 -14.73,24.28 -14.73,42.03 0,17.37 5.14,31.3 15.41,41.8 10.27,10.5 23.94,15.74 41.01,15.74 19.56,0 34.47,-7.51 44.74,-22.54 10.35,-14.95 15.52,-36.7 15.52,-65.25 0,-26.66 -6.34,-47.95 -19.03,-63.89 -12.61,-15.86 -29.6,-23.79 -50.97,-23.79 -5.75,0 -11.56,0.57 -17.45,1.7 -5.89,1.13 -12.01,2.83 -18.35,5.1 m 45.54,71.71 c 10.27,0 18.38,3.51 24.35,10.53 6.04,7.02 9.07,16.65 9.07,28.89 0,12.16 -3.03,21.75 -9.07,28.77 -5.97,7.1 -14.08,10.65 -24.35,10.65 -10.28,0 -18.43,-3.55 -24.47,-10.65 -5.97,-7.02 -8.95,-16.61 -8.95,-28.77 0,-12.24 2.98,-21.87 8.95,-28.89 6.04,-7.02 14.19,-10.53 24.47,-10.53"
         style="fill:#000000;fill-opacity:1;fill-rule:nonzero;stroke:none"
         id="path280"
         inkscape:connector-curvature="0" /><path
         d="m 2067.86,4590.29 c -11.79,0 -20.66,-5.81 -26.63,-17.45 -5.89,-11.55 -8.83,-28.96 -8.83,-52.22 0,-23.18 2.94,-40.59 8.83,-52.22 5.97,-11.56 14.84,-17.33 26.63,-17.33 11.85,0 20.73,5.77 26.62,17.33 5.96,11.63 8.95,29.04 8.95,52.22 0,23.26 -2.99,40.67 -8.95,52.22 -5.89,11.64 -14.77,17.45 -26.62,17.45 m 0,18.12 c 18.95,0 33.41,-7.51 43.38,-22.54 10.05,-14.95 15.07,-36.7 15.07,-65.25 0,-28.47 -5.02,-50.22 -15.07,-65.25 -9.97,-14.95 -24.43,-22.43 -43.38,-22.43 -18.96,0 -33.46,7.48 -43.5,22.43 -9.97,15.03 -14.96,36.78 -14.96,65.25 0,28.55 4.99,50.3 14.96,65.25 10.04,15.03 24.54,22.54 43.5,22.54"
         style="fill:#000000;fill-opacity:1;fill-rule:nonzero;stroke:none"
         id="path282"
         inkscape:connector-curvature="0" /><path
         d="m 2235.96,4527.42 c 10.95,-2.34 19.49,-7.21 25.61,-14.62 6.19,-7.39 9.29,-16.53 9.29,-27.41 0,-16.69 -5.75,-29.6 -17.22,-38.74 -11.48,-9.14 -27.8,-13.71 -48.94,-13.71 -7.1,0 -14.43,0.72 -21.98,2.15 -7.47,1.36 -15.22,3.44 -23.22,6.23 l 0,22.09 c 6.34,-3.7 13.29,-6.49 20.84,-8.38 7.55,-1.89 15.45,-2.83 23.68,-2.83 14.35,0 25.26,2.83 32.74,8.5 7.55,5.66 11.33,13.89 11.33,24.69 0,9.97 -3.52,17.75 -10.54,23.34 -6.95,5.66 -16.65,8.49 -29.11,8.49 l -19.71,0 0,18.81 20.61,0 c 11.25,0 19.86,2.23 25.83,6.68 5.97,4.53 8.95,11.03 8.95,19.49 0,8.68 -3.1,15.33 -9.29,19.93 -6.12,4.69 -14.92,7.03 -26.39,7.03 -6.27,0 -12.99,-0.68 -20.17,-2.04 -7.17,-1.36 -15.06,-3.48 -23.67,-6.35 l 0,20.39 c 8.68,2.42 16.8,4.23 24.35,5.44 7.63,1.21 14.8,1.81 21.53,1.81 17.36,0 31.11,-3.96 41.23,-11.89 10.12,-7.85 15.18,-18.5 15.18,-31.95 0,-9.36 -2.68,-17.29 -8.04,-23.78 -5.37,-6.42 -12.99,-10.88 -22.89,-13.37"
         style="fill:#000000;fill-opacity:1;fill-rule:nonzero;stroke:none"
         id="path284"
         inkscape:connector-curvature="0" /><path
         d="m 2377.23,4585.42 -57.78,-90.29 57.78,0 0,90.29 m -6.01,19.94 28.78,0 0,-110.23 24.12,0 0,-19.03 -24.12,0 0,-39.87 -22.77,0 0,39.87 -76.35,0 0,22.09 70.34,107.17"
         style="fill:#000000;fill-opacity:1;fill-rule:nonzero;stroke:none"
         id="path286"
         inkscape:connector-curvature="0" /><path
         d="m 2524.95,4585.42 -57.78,-90.29 57.78,0 0,90.29 m -6.01,19.94 28.77,0 0,-110.23 24.13,0 0,-19.03 -24.13,0 0,-39.87 -22.76,0 0,39.87 -76.36,0 0,22.09 70.35,107.17"
         style="fill:#000000;fill-opacity:1;fill-rule:nonzero;stroke:none"
         id="path288"
         inkscape:connector-curvature="0" /><path
         d="m 2670.17,4490.49 61.0586,0 0,18.5781 -61.0586,0 0,-18.5781 z"
         style="fill:#000000;fill-opacity:1;fill-rule:nonzero;stroke:none"
         id="path290"
         inkscape:connector-curvature="0" /><path
         d="m 2839.3,4605.36 106.94,0 0,-19.26 -84.06,0 0,-50.07 80.55,0 0,-19.26 -80.55,0 0,-61.29 86.1,0 0,-19.25 -108.98,0 0,169.13"
         style="fill:#000000;fill-opacity:1;fill-rule:nonzero;stroke:none"
         id="path292"
         inkscape:connector-curvature="0" /><path
         d="m 3066.09,4559.36 0,-19.71 c -5.89,3.03 -12.01,5.29 -18.35,6.8 -6.35,1.51 -12.92,2.26 -19.71,2.26 -10.35,0 -18.13,-1.58 -23.34,-4.75 -5.14,-3.17 -7.7,-7.93 -7.7,-14.28 0,-4.83 1.85,-8.64 5.55,-11.44 3.7,-2.72 11.14,-5.32 22.32,-7.81 l 7.13,-1.59 c 14.8,-3.17 25.3,-7.66 31.49,-13.48 6.27,-5.74 9.41,-13.78 9.41,-24.13 0,-11.78 -4.69,-21.11 -14.05,-27.98 -9.29,-6.87 -22.09,-10.31 -38.4,-10.31 -6.8,0 -13.9,0.68 -21.3,2.04 -7.33,1.29 -15.07,3.25 -23.22,5.89 l 0,21.52 c 7.7,-4 15.29,-7.02 22.77,-9.06 7.47,-1.96 14.87,-2.94 22.2,-2.94 9.82,0 17.37,1.66 22.66,4.98 5.28,3.4 7.93,8.16 7.93,14.27 0,5.67 -1.93,10.01 -5.78,13.03 -3.78,3.03 -12.12,5.93 -25.04,8.72 l -7.25,1.7 c -12.91,2.72 -22.24,6.88 -27.98,12.46 -5.73,5.67 -8.61,13.41 -8.61,23.23 0,11.93 4.23,21.15 12.69,27.64 8.46,6.49 20.47,9.74 36.03,9.74 7.7,0 14.95,-0.57 21.75,-1.7 6.79,-1.13 13.06,-2.83 18.8,-5.1"
         style="fill:#000000;fill-opacity:1;fill-rule:nonzero;stroke:none"
         id="path294"
         inkscape:connector-curvature="0" /><path
         d="m 3126.81,4599.12 0,-36.02 42.93,0 0,-16.2 -42.93,0 0,-68.87 c 0,-10.35 1.4,-16.99 4.19,-19.94 2.87,-2.95 8.64,-4.42 17.33,-4.42 l 21.41,0 0,-17.44 -21.41,0 c -16.08,0 -27.19,2.98 -33.3,8.95 -6.12,6.04 -9.18,16.99 -9.18,32.85 l 0,68.87 -15.29,0 0,16.2 15.29,0 0,36.02 20.96,0"
         style="fill:#000000;fill-opacity:1;fill-rule:nonzero;stroke:none"
         id="path296"
         inkscape:connector-curvature="0" /><path
         d="m 3254.93,4500 c -16.84,0 -28.51,-1.92 -35,-5.77 -6.5,-3.85 -9.75,-10.43 -9.75,-19.71 0,-7.4 2.42,-13.29 7.25,-17.68 4.91,-4.3 11.56,-6.45 19.94,-6.45 11.56,0 20.81,4.07 27.75,12.23 7.03,8.24 10.54,19.15 10.54,32.74 l 0,4.64 -20.73,0 m 41.57,8.61 0,-72.38 -20.84,0 0,19.25 c -4.76,-7.7 -10.69,-13.4 -17.78,-17.1 -7.11,-3.63 -15.79,-5.44 -26.06,-5.44 -12.99,0 -23.34,3.63 -31.04,10.88 -7.63,7.32 -11.44,17.1 -11.44,29.34 0,14.27 4.76,25.03 14.27,32.28 9.59,7.25 23.87,10.88 42.82,10.88 l 29.23,0 0,2.04 c 0,9.59 -3.17,16.99 -9.52,22.2 -6.26,5.29 -15.1,7.93 -26.5,7.93 -7.25,0 -14.32,-0.87 -21.19,-2.61 -6.87,-1.73 -13.48,-4.34 -19.82,-7.81 l 0,19.25 c 7.63,2.95 15.03,5.14 22.2,6.57 7.17,1.52 14.16,2.27 20.96,2.27 18.35,0 32.06,-4.76 41.12,-14.27 9.06,-9.52 13.59,-23.94 13.59,-43.28"
         style="fill:#000000;fill-opacity:1;fill-rule:nonzero;stroke:none"
         id="path298"
         inkscape:connector-curvature="0" /><path
         d="m 3430.86,4558.23 0,-19.48 c -5.9,3.25 -11.82,5.66 -17.79,7.25 -5.89,1.66 -11.86,2.49 -17.9,2.49 -13.52,0 -24.01,-4.31 -31.49,-12.92 -7.48,-8.53 -11.22,-20.53 -11.22,-36.02 0,-15.48 3.74,-27.53 11.22,-36.14 7.48,-8.53 17.97,-12.8 31.49,-12.8 6.04,0 12.01,0.8 17.9,2.38 5.97,1.67 11.89,4.12 17.79,7.37 l 0,-19.26 c -5.82,-2.72 -11.86,-4.76 -18.13,-6.12 -6.19,-1.36 -12.8,-2.04 -19.82,-2.04 -19.11,0 -34.29,6.01 -45.54,18.01 -11.26,12.01 -16.88,28.21 -16.88,48.6 0,20.7 5.66,36.97 16.99,48.83 11.4,11.85 27,17.78 46.79,17.78 6.41,0 12.68,-0.68 18.8,-2.04 6.12,-1.28 12.04,-3.24 17.79,-5.89"
         style="fill:#000000;fill-opacity:1;fill-rule:nonzero;stroke:none"
         id="path300"
         inkscape:connector-curvature="0" /><path
         d="m 3467.33,4563.1 20.85,0 0,-126.87 -20.85,0 0,126.87 m 0,49.39 20.85,0 0,-26.39 -20.85,0 0,26.39"
         style="fill:#000000;fill-opacity:1;fill-rule:nonzero;stroke:none"
         id="path302"
         inkscape:connector-curvature="0" /><path
         d="m 3580.84,4548.49 c -11.18,0 -20.02,-4.38 -26.51,-13.14 -6.49,-8.69 -9.74,-20.62 -9.74,-35.8 0,-15.18 3.21,-27.15 9.63,-35.91 6.49,-8.68 15.37,-13.03 26.62,-13.03 11.1,0 19.9,4.39 26.39,13.14 6.5,8.77 9.75,20.7 9.75,35.8 0,15.03 -3.25,26.93 -9.75,35.68 -6.49,8.84 -15.29,13.26 -26.39,13.26 m 0,17.67 c 18.12,0 32.36,-5.89 42.71,-17.67 10.34,-11.78 15.52,-28.1 15.52,-48.94 0,-20.76 -5.18,-37.08 -15.52,-48.94 -10.35,-11.78 -24.59,-17.67 -42.71,-17.67 -18.2,0 -32.48,5.89 -42.82,17.67 -10.27,11.86 -15.41,28.18 -15.41,48.94 0,20.84 5.14,37.16 15.41,48.94 10.34,11.78 24.62,17.67 42.82,17.67 m 15.75,55.62 22.54,0 -36.93,-42.59 -17.33,0 31.72,42.59"
         style="fill:#000000;fill-opacity:1;fill-rule:nonzero;stroke:none"
         id="path304"
         inkscape:connector-curvature="0" /><path
         d="m 3778.97,4512.8 0,-76.57 -20.85,0 0,75.89 c 0,12.01 -2.33,21 -7.02,26.97 -4.68,5.96 -11.71,8.95 -21.07,8.95 -11.25,0 -20.12,-3.59 -26.62,-10.77 -6.5,-7.17 -9.74,-16.95 -9.74,-29.34 l 0,-71.7 -20.96,0 0,126.87 20.96,0 0,-19.71 c 4.98,7.63 10.83,13.33 17.56,17.11 6.79,3.77 14.61,5.66 23.45,5.66 14.57,0 25.6,-4.53 33.07,-13.59 7.48,-8.99 11.22,-22.24 11.22,-39.77"
         style="fill:#000000;fill-opacity:1;fill-rule:nonzero;stroke:none"
         id="path306"
         inkscape:connector-curvature="0" /><path
         d="m 3826.09,4465 23.91,0 0,-28.77 -23.91,0 0,28.77 m 0,91.19 23.91,0 0,-28.77 -23.91,0 0,28.77"
         style="fill:#000000;fill-opacity:1;fill-rule:nonzero;stroke:none"
         id="path308"
         inkscape:connector-curvature="0" /><path
         d="m 3979.93,4455.48 37.38,0 0,129.03 -40.67,-8.15 0,20.84 40.45,8.16 22.88,0 0,-149.88 37.38,0 0,-19.25 -97.42,0 0,19.25"
         style="fill:#000000;fill-opacity:1;fill-rule:nonzero;stroke:none"
         id="path310"
         inkscape:connector-curvature="0" /><path
         d="m 4193.01,4527.42 c 10.95,-2.34 19.49,-7.21 25.6,-14.62 6.19,-7.39 9.29,-16.53 9.29,-27.41 0,-16.69 -5.74,-29.6 -17.22,-38.74 -11.48,-9.14 -27.79,-13.71 -48.93,-13.71 -7.1,0 -14.43,0.72 -21.98,2.15 -7.48,1.36 -15.22,3.44 -23.22,6.23 l 0,22.09 c 6.34,-3.7 13.29,-6.49 20.84,-8.38 7.55,-1.89 15.44,-2.83 23.68,-2.83 14.34,0 25.26,2.83 32.73,8.5 7.56,5.66 11.33,13.89 11.33,24.69 0,9.97 -3.51,17.75 -10.53,23.34 -6.95,5.66 -16.65,8.49 -29.12,8.49 l -19.71,0 0,18.81 20.62,0 c 11.25,0 19.86,2.23 25.83,6.68 5.96,4.53 8.95,11.03 8.95,19.49 0,8.68 -3.1,15.33 -9.29,19.93 -6.12,4.69 -14.92,7.03 -26.4,7.03 -6.27,0 -12.98,-0.68 -20.16,-2.04 -7.18,-1.36 -15.07,-3.48 -23.68,-6.35 l 0,20.39 c 8.69,2.42 16.81,4.23 24.36,5.44 7.63,1.21 14.8,1.81 21.52,1.81 17.37,0 31.12,-3.96 41.24,-11.89 10.12,-7.85 15.18,-18.5 15.18,-31.95 0,-9.36 -2.69,-17.29 -8.05,-23.78 -5.36,-6.42 -12.98,-10.88 -22.88,-13.37"
         style="fill:#000000;fill-opacity:1;fill-rule:nonzero;stroke:none"
         id="path312"
         inkscape:connector-curvature="0" /><path
         d="m 4272.08,4439.74 0,20.84 c 5.74,-2.72 11.56,-4.79 17.45,-6.23 5.89,-1.43 11.67,-2.15 17.33,-2.15 15.1,0 26.62,5.06 34.55,15.18 8,10.19 12.57,25.64 13.71,46.33 -4.38,-6.49 -9.94,-11.48 -16.66,-14.95 -6.72,-3.47 -14.16,-5.21 -22.31,-5.21 -16.92,0 -30.32,5.09 -40.22,15.29 -9.81,10.27 -14.72,24.28 -14.72,42.03 0,17.37 5.13,31.3 15.4,41.8 10.27,10.5 23.94,15.74 41.01,15.74 19.56,0 34.47,-7.51 44.75,-22.54 10.34,-14.95 15.52,-36.7 15.52,-65.25 0,-26.66 -6.35,-47.95 -19.03,-63.89 -12.62,-15.86 -29.61,-23.79 -50.98,-23.79 -5.74,0 -11.56,0.57 -17.45,1.7 -5.89,1.13 -12,2.83 -18.35,5.1 m 45.54,71.71 c 10.27,0 18.39,3.51 24.36,10.53 6.04,7.02 9.06,16.65 9.06,28.89 0,12.16 -3.02,21.75 -9.06,28.77 -5.97,7.1 -14.09,10.65 -24.36,10.65 -10.27,0 -18.42,-3.55 -24.47,-10.65 -5.96,-7.02 -8.95,-16.61 -8.95,-28.77 0,-12.24 2.99,-21.87 8.95,-28.89 6.05,-7.02 14.2,-10.53 24.47,-10.53"
         style="fill:#000000;fill-opacity:1;fill-rule:nonzero;stroke:none"
         id="path314"
         inkscape:connector-curvature="0" /><path
         d="m 4423.09,4455.48 37.38,0 0,129.03 -40.67,-8.15 0,20.84 40.44,8.16 22.88,0 0,-149.88 37.39,0 0,-19.25 -97.42,0 0,19.25"
         style="fill:#000000;fill-opacity:1;fill-rule:nonzero;stroke:none"
         id="path316"
         inkscape:connector-curvature="0" /><path
         d="m 2734.66,192.336 123.34,0 0,-16.602 -51.76,0 0,-129.1988 -19.83,0 0,129.1988 -51.75,0 0,16.602"
         style="fill:#000000;fill-opacity:1;fill-rule:nonzero;stroke:none"
         id="path318"
         inkscape:connector-curvature="0" /><path
         d="m 2870.11,155.91 17.96,0 0,-109.3748 -17.96,0 0,109.3748 m 0,42.578 17.96,0 0,-22.754 -17.96,0 0,22.754"
         style="fill:#000000;fill-opacity:1;fill-rule:nonzero;stroke:none"
         id="path320"
         inkscape:connector-curvature="0" /><path
         d="m 3019.13,105.715 0,-8.7892 -82.62,0 c 0.78,-12.3711 4.49,-21.8125 11.13,-28.3203 6.71,-6.4453 16.02,-9.668 27.93,-9.668 6.9,0 13.58,0.8437 20.02,2.5391 6.51,1.6914 12.96,4.2304 19.34,7.6172 l 0,-16.9922 c -6.45,-2.7344 -13.05,-4.8204 -19.82,-6.25 -6.78,-1.4336 -13.65,-2.1485 -20.61,-2.1485 -17.45,0 -31.29,5.0781 -41.5,15.2344 -10.16,10.1563 -15.24,23.8906 -15.24,41.2105 0,17.903 4.82,32.094 14.45,42.579 9.7,10.546 22.76,15.82 39.17,15.82 14.71,0 26.33,-4.754 34.86,-14.258 8.59,-9.441 12.89,-22.301 12.89,-38.574 m -17.97,5.273 c -0.13,9.828 -2.9,17.676 -8.3,23.535 -5.34,5.86 -12.44,8.789 -21.29,8.789 -10.03,0 -18.07,-2.832 -24.12,-8.496 -5.99,-5.664 -9.44,-13.64 -10.35,-23.925 l 64.06,0.097"
         style="fill:#000000;fill-opacity:1;fill-rule:nonzero;stroke:none"
         id="path322"
         inkscape:connector-curvature="0" /><path
         d="m 3133.78,134.914 c 4.49,8.07 9.86,14.027 16.11,17.871 6.25,3.84 13.61,5.762 22.07,5.762 11.39,0 20.18,-4.004 26.37,-12.012 6.18,-7.945 9.28,-19.273 9.28,-33.984 l 0,-66.0158 -18.07,0 0,65.4298 c 0,10.48 -1.86,18.262 -5.57,23.34 -3.71,5.078 -9.37,7.617 -16.99,7.617 -9.31,0 -16.67,-3.094 -22.07,-9.277 -5.41,-6.188 -8.11,-14.618 -8.11,-25.293 l 0,-61.8168 -18.06,0 0,65.4298 c 0,10.547 -1.86,18.324 -5.57,23.34 -3.71,5.078 -9.44,7.617 -17.19,7.617 -9.18,0 -16.47,-3.125 -21.87,-9.375 -5.41,-6.188 -8.11,-14.586 -8.11,-25.195 l 0,-61.8168 -18.06,0 0,109.3748 18.06,0 0,-16.992 c 4.11,6.703 9.02,11.652 14.75,14.844 5.73,3.187 12.53,4.785 20.41,4.785 7.94,0 14.68,-2.02 20.22,-6.055 5.59,-4.039 9.73,-9.898 12.4,-17.578"
         style="fill:#000000;fill-opacity:1;fill-rule:nonzero;stroke:none"
         id="path324"
         inkscape:connector-curvature="0" /><path
         d="m 3260.93,62.9414 0,-58.00781 -18.07,0 0,150.97641 18.07,0 0,-16.601 c 3.77,6.507 8.52,11.328 14.25,14.453 5.8,3.187 12.7,4.785 20.71,4.785 13.28,0 24.05,-5.274 32.32,-15.82 8.33,-10.547 12.5,-24.415 12.5,-41.602 0,-17.1875 -4.17,-31.0547 -12.5,-41.6016 -8.27,-10.5468 -19.04,-15.8203 -32.32,-15.8203 -8.01,0 -14.91,1.5625 -20.71,4.6875 -5.73,3.1875 -10.48,8.0391 -14.25,14.5508 m 61.13,38.1836 c 0,13.215 -2.74,23.566 -8.2,31.055 -5.41,7.55 -12.86,11.328 -22.37,11.328 -9.51,0 -16.99,-3.778 -22.46,-11.328 -5.41,-7.489 -8.1,-17.84 -8.1,-31.055 0,-13.2188 2.69,-23.6016 8.1,-31.1523 5.47,-7.4883 12.95,-11.2305 22.46,-11.2305 9.51,0 16.96,3.7422 22.37,11.2305 5.46,7.5507 8.2,17.9335 8.2,31.1523"
         style="fill:#000000;fill-opacity:1;fill-rule:nonzero;stroke:none"
         id="path326"
         inkscape:connector-curvature="0" /><path
         d="m 3412.88,143.312 c -9.64,0 -17.26,-3.777 -22.85,-11.328 -5.6,-7.488 -8.4,-17.773 -8.4,-30.859 0,-13.0859 2.76,-23.4062 8.3,-30.957 5.6,-7.4883 13.25,-11.2305 22.95,-11.2305 9.57,0 17.15,3.7734 22.75,11.3281 5.6,7.5508 8.4,17.836 8.4,30.8594 0,12.953 -2.8,23.207 -8.4,30.762 -5.6,7.617 -13.18,11.425 -22.75,11.425 m 0,15.235 c 15.62,0 27.89,-5.078 36.82,-15.235 8.91,-10.156 13.37,-24.218 13.37,-42.187 0,-17.9062 -4.46,-31.9688 -13.37,-42.1875 -8.93,-10.1563 -21.2,-15.2344 -36.82,-15.2344 -15.69,0 -28,5.0781 -36.92,15.2344 -8.85,10.2187 -13.28,24.2813 -13.28,42.1875 0,17.969 4.43,32.031 13.28,42.187 8.92,10.157 21.23,15.235 36.92,15.235"
         style="fill:#000000;fill-opacity:1;fill-rule:nonzero;stroke:none"
         id="path328"
         inkscape:connector-curvature="0" /><path
         d="m 3554.77,198.488 41.41,0 0,-13.965 -23.44,0 0,-150.3902 23.44,0 0,-13.9648 -41.41,0 0,178.32"
         style="fill:#000000;fill-opacity:1;fill-rule:nonzero;stroke:none"
         id="path330"
         inkscape:connector-curvature="0" /><path
         d="m 3725.48,112.551 0,-66.0158 -17.97,0 0,65.4298 c 0,10.351 -2.02,18.097 -6.06,23.242 -4.04,5.141 -10.09,7.715 -18.16,7.715 -9.7,0 -17.35,-3.094 -22.95,-9.277 -5.6,-6.188 -8.4,-14.618 -8.4,-25.293 l 0,-61.8168 -18.06,0 0,109.3748 18.06,0 0,-16.992 c 4.3,6.574 9.34,11.488 15.14,14.746 5.86,3.254 12.6,4.883 20.21,4.883 12.57,0 22.07,-3.906 28.52,-11.719 6.44,-7.75 9.67,-19.176 9.67,-34.277"
         style="fill:#000000;fill-opacity:1;fill-rule:nonzero;stroke:none"
         id="path332"
         inkscape:connector-curvature="0" /><path
         d="m 3831.24,152.688 0,-16.993 c -5.08,2.602 -10.35,4.555 -15.82,5.86 -5.47,1.3 -11.13,1.953 -16.99,1.953 -8.93,0 -15.63,-1.367 -20.12,-4.102 -4.43,-2.734 -6.64,-6.836 -6.64,-12.304 0,-4.168 1.59,-7.457 4.78,-9.864 3.19,-2.343 9.6,-4.59 19.24,-6.738 l 6.15,-1.367 c 12.76,-2.735 21.81,-6.61 27.15,-11.6213 5.4,-4.9492 8.11,-11.8828 8.11,-20.8008 0,-10.1562 -4.04,-18.1992 -12.11,-24.1211 -8.01,-5.9257 -19.04,-8.8867 -33.11,-8.8867 -5.86,0 -11.98,0.586 -18.36,1.7578 -6.31,1.1055 -12.98,2.7969 -20.02,5.0782 l 0,18.5547 c 6.64,-3.4532 13.19,-6.0547 19.63,-7.8126 6.45,-1.6953 12.83,-2.539 19.14,-2.539 8.46,0 14.98,1.4297 19.53,4.2969 4.56,2.9297 6.84,7.0312 6.84,12.3047 0,4.8828 -1.66,8.625 -4.98,11.2304 -3.26,2.6016 -10.45,5.1094 -21.58,7.5196 l -6.25,1.4648 c -11.13,2.3437 -19.18,5.9214 -24.12,10.7424 -4.95,4.883 -7.42,11.554 -7.42,20.019 0,10.285 3.64,18.227 10.93,23.828 7.29,5.598 17.64,8.399 31.06,8.399 6.64,0 12.89,-0.488 18.75,-1.465 5.86,-0.977 11.26,-2.441 16.21,-4.394"
         style="fill:#000000;fill-opacity:1;fill-rule:nonzero;stroke:none"
         id="path334"
         inkscape:connector-curvature="0" /><path
         d="m 3959.36,105.715 0,-8.7892 -82.61,0 c 0.78,-12.3711 4.49,-21.8125 11.13,-28.3203 6.7,-6.4453 16.01,-9.668 27.93,-9.668 6.9,0 13.57,0.8437 20.02,2.5391 6.51,1.6914 12.95,4.2304 19.33,7.6172 l 0,-16.9922 c -6.44,-2.7344 -13.05,-4.8204 -19.82,-6.25 -6.77,-1.4336 -13.64,-2.1485 -20.61,-2.1485 -17.44,0 -31.28,5.0781 -41.5,15.2344 -10.16,10.1563 -15.23,23.8906 -15.23,41.2105 0,17.903 4.81,32.094 14.45,42.579 9.7,10.546 22.75,15.82 39.16,15.82 14.71,0 26.33,-4.754 34.86,-14.258 8.6,-9.441 12.89,-22.301 12.89,-38.574 m -17.97,5.273 c -0.13,9.828 -2.89,17.676 -8.3,23.535 -5.34,5.86 -12.43,8.789 -21.29,8.789 -10.02,0 -18.06,-2.832 -24.12,-8.496 -5.99,-5.664 -9.44,-13.64 -10.35,-23.925 l 64.06,0.097"
         style="fill:#000000;fill-opacity:1;fill-rule:nonzero;stroke:none"
         id="path336"
         inkscape:connector-curvature="0" /><path
         d="m 4067.57,151.711 0,-16.797 c -5.08,2.797 -10.19,4.883 -15.34,6.25 -5.07,1.43 -10.22,2.148 -15.43,2.148 -11.65,0 -20.7,-3.71 -27.14,-11.132 -6.45,-7.36 -9.67,-17.711 -9.67,-31.055 0,-13.3477 3.22,-23.7305 9.67,-31.1523 6.44,-7.3594 15.49,-11.0352 27.14,-11.0352 5.21,0 10.36,0.6836 15.43,2.0508 5.15,1.4297 10.26,3.5469 15.34,6.3476 l 0,-16.6015 c -5.02,-2.3438 -10.23,-4.1016 -15.63,-5.2735 -5.34,-1.1718 -11.03,-1.7578 -17.09,-1.7578 -16.47,0 -29.56,5.1758 -39.26,15.5274 -9.7,10.3515 -14.55,24.3164 -14.55,41.8945 0,17.836 4.89,31.867 14.65,42.09 9.83,10.219 23.27,15.332 40.33,15.332 5.53,0 10.94,-0.586 16.21,-1.758 5.28,-1.109 10.39,-2.801 15.34,-5.078"
         style="fill:#000000;fill-opacity:1;fill-rule:nonzero;stroke:none"
         id="path338"
         inkscape:connector-curvature="0" /><path
         d="m 4141,198.488 0,-178.32 -41.4,0 0,13.9648 23.34,0 0,150.3902 -23.34,0 0,13.965 41.4,0"
         style="fill:#000000;fill-opacity:1;fill-rule:nonzero;stroke:none"
         id="path340"
         inkscape:connector-curvature="0" /><path
         d="m 24.1875,1874.59 19.2383,0 c -3.5781,-7.48 -6.25,-14.55 -8.0078,-21.19 -1.7578,-6.64 -2.6368,-13.05 -2.6368,-19.24 0,-10.74 2.086,-19.04 6.25,-24.9 4.168,-5.79 10.0938,-8.69 17.7735,-8.69 6.4453,0 11.3281,1.92 14.6484,5.76 3.2578,3.91 5.8946,11.26 7.9102,22.07 l 2.4414,11.92 c 2.8008,14.71 7.75,25.55 14.8437,32.52 7.0316,7.03 16.4726,10.54 28.3206,10.54 14.129,0 24.84,-4.75 32.129,-14.26 7.293,-9.44 10.937,-23.3 10.937,-41.6 0,-6.9 -0.781,-14.25 -2.344,-22.07 -1.562,-7.74 -3.871,-15.79 -6.933,-24.12 l -20.313,0 c 4.493,8.01 7.879,15.85 10.157,23.54 2.281,7.68 3.418,15.23 3.418,22.65 0,11.27 -2.211,19.96 -6.641,26.08 -4.426,6.12 -10.742,9.18 -18.945,9.18 -7.161,0 -12.758,-2.22 -16.797,-6.64 -4.035,-4.37 -7.063,-11.56 -9.082,-21.59 l -2.3441,-12.01 c -2.9297,-14.71 -7.5195,-25.36 -13.7695,-31.93 -6.25,-6.57 -14.9414,-9.86 -26.0742,-9.86 -12.8906,0 -23.0469,4.52 -30.4688,13.57 -7.4218,9.11 -11.1328,21.65 -11.1328,37.6 0,6.83 0.6211,13.8 1.8555,20.9 1.2383,7.09 3.0937,14.35 5.5664,21.77"
         style="fill:#000000;fill-opacity:1;fill-rule:nonzero;stroke:none"
         id="path342"
         inkscape:connector-curvature="0" /><path
         d="m 106.023,2006.92 8.789,0 0,-82.62 c 12.372,0.78 21.813,4.49 28.321,11.13 6.445,6.71 9.668,16.02 9.668,27.93 0,6.91 -0.844,13.58 -2.539,20.02 -1.692,6.51 -4.231,12.96 -7.617,19.34 l 16.992,0 c 2.734,-6.45 4.82,-13.06 6.25,-19.83 1.433,-6.77 2.148,-13.64 2.148,-20.6 0,-17.45 -5.078,-31.28 -15.234,-41.5 -10.156,-10.16 -23.891,-15.24 -41.211,-15.24 -17.9025,0 -32.0939,4.82 -42.5783,14.45 -10.5469,9.7 -15.8203,22.76 -15.8203,39.16 0,14.72 4.7539,26.34 14.2578,34.87 9.4414,8.59 22.3008,12.89 38.5738,12.89 m -5.273,-17.97 c -9.8281,-0.13 -17.6758,-2.9 -23.5352,-8.3 -5.8593,-5.34 -8.789,-12.44 -8.789,-21.29 0,-10.03 2.832,-18.07 8.4961,-24.12 5.664,-5.99 13.6406,-9.44 23.9261,-10.35 l -0.098,64.06"
         style="fill:#000000;fill-opacity:1;fill-rule:nonzero;stroke:none"
         id="path344"
         inkscape:connector-curvature="0" /><path
         d="m 99.1875,2127.33 66.0155,0 0,-17.97 -65.4296,0 c -10.3515,0 -18.0976,-2.02 -23.2422,-6.06 -5.1406,-4.03 -7.7148,-10.09 -7.7148,-18.16 0,-9.7 3.0938,-17.35 9.2774,-22.95 6.1874,-5.6 14.6171,-8.4 25.2932,-8.4 l 61.816,0 0,-18.06 -109.3749,0 0,18.06 16.9922,0 c -6.5742,4.3 -11.4883,9.35 -14.7461,15.14 -3.2539,5.86 -4.8828,12.6 -4.8828,20.21 0,12.57 3.9063,22.07 11.7188,28.52 7.75,6.45 19.1757,9.67 34.2773,9.67 m -67.7734,-45.31 -5.3711,-5.57 c -1.3008,-1.43 -2.2461,-2.7 -2.8321,-3.81 -0.6484,-1.04 -0.9765,-1.98 -0.9765,-2.83 0,-2.47 1.207,-4.3 3.6133,-5.47 2.3437,-1.17 6.1875,-1.82 11.5234,-1.95 l 0,-12.21 c -8.7891,0.13 -15.5586,1.86 -20.3125,5.18 -4.8164,3.32 -7.22657,7.94 -7.22657,13.86 0,2.48 0.45707,4.76 1.36717,6.84 0.9141,2.08 2.4414,4.33 4.5899,6.74 l 5.3711,5.56 c 1.3046,1.44 2.2812,2.67 2.9296,3.71 0.586,1.11 0.879,2.09 0.879,2.93 0,2.48 -1.1719,4.3 -3.5157,5.47 -2.4062,1.17 -6.2812,1.83 -11.62107,1.96 l 0,12.2 c 8.78907,-0.13 15.59377,-1.85 20.41017,-5.17 4.7539,-3.32 7.1289,-7.94 7.1289,-13.87 0,-2.47 -0.4531,-4.75 -1.3672,-6.84 -0.9101,-2.08 -2.4414,-4.32 -4.5898,-6.73"
         style="fill:#000000;fill-opacity:1;fill-rule:nonzero;stroke:none"
         id="path346"
         inkscape:connector-curvature="0" /><path
         d="m 110.223,2213.07 c 0,-14.52 1.66,-24.58 4.98,-30.18 3.32,-5.59 8.985,-8.39 16.992,-8.39 6.383,0 11.461,2.08 15.235,6.25 3.711,4.23 5.566,9.96 5.566,17.18 0,9.96 -3.516,17.94 -10.547,23.93 -7.094,6.05 -16.504,9.08 -28.222,9.08 l -4.004,0 0,-17.87 m -7.422,35.84 62.402,0 0,-17.97 -16.601,0 c 6.64,-4.1 11.558,-9.21 14.746,-15.33 3.125,-6.12 4.687,-13.61 4.687,-22.46 0,-11.2 -3.125,-20.12 -9.375,-26.76 -6.312,-6.57 -14.746,-9.86 -25.293,-9.86 -12.305,0 -21.582,4.1 -27.832,12.3 -6.2498,8.27 -9.3748,20.58 -9.3748,36.92 l 0,25.19 -1.7579,0 c -8.2656,0 -14.6484,-2.73 -19.1406,-8.2 -4.5547,-5.4 -6.8359,-13.02 -6.8359,-22.85 0,-6.25 0.75,-12.34 2.2461,-18.27 1.5,-5.92 3.7461,-11.62 6.7383,-17.08 l -16.6016,0 c -2.5391,6.57 -4.4258,12.95 -5.6641,19.14 -1.3007,6.18 -1.9531,12.2 -1.9531,18.06 0,15.82 4.1016,27.64 12.3047,35.45 8.2031,7.81 20.6406,11.72 37.3049,11.72"
         style="fill:#000000;fill-opacity:1;fill-rule:nonzero;stroke:none"
         id="path348"
         inkscape:connector-curvature="0" /><path
         d="m 13.25,2286.02 151.953,0 0,17.9688 -151.953,0 0,-17.9688 z"
         style="fill:#000000;fill-opacity:1;fill-rule:nonzero;stroke:none"
         id="path350"
         inkscape:connector-curvature="0" /><path
         d="m 13.25,2403.5 0,41.41 13.9648,0 0,-23.44 150.3902,0 0,23.44 13.965,0 0,-41.41 -178.32,0"
         style="fill:#000000;fill-opacity:1;fill-rule:nonzero;stroke:none"
         id="path352"
         inkscape:connector-curvature="0" /><path
         d="M 165.203,2521.66 19.4023,2466 l 0,20.61 122.7537,46.19 -122.7537,46.29 0,20.5 145.8007,-55.56 0,-22.37"
         style="fill:#000000;fill-opacity:1;fill-rule:nonzero;stroke:none"
         id="path354"
         inkscape:connector-curvature="0" /><path
         d="m 19.4023,2620.79 0,92.18 16.6016,0 0,-72.46 43.1641,0 0,69.44 16.6015,0 0,-69.44 52.8325,0 0,74.22 16.601,0 0,-93.94 -145.8007,0"
         style="fill:#000000;fill-opacity:1;fill-rule:nonzero;stroke:none"
         id="path356"
         inkscape:connector-curvature="0" /><path
         d="m 19.4023,2747.35 0,29.39 99.2187,37.21 -99.2187,37.4 0,29.4 145.8007,0 0,-19.24 -128.0272,0 100.0002,-37.6 0,-19.82 -100.0002,-37.6 128.0272,0 0,-19.14 -145.8007,0"
         style="fill:#000000;fill-opacity:1;fill-rule:nonzero;stroke:none"
         id="path358"
         inkscape:connector-curvature="0" /><path
         d="m 13.25,2961.21 178.32,0 0,-41.4 -13.965,0 0,23.34 -150.3902,0 0,-23.34 -13.9648,0 0,41.4"
         style="fill:#000000;fill-opacity:1;fill-rule:nonzero;stroke:none"
         id="path360"
         inkscape:connector-curvature="0" /></g></g></svg>