<?xml version="1.0" encoding="UTF-8" standalone="no"?>
<!-- Created with Inkscape (http://www.inkscape.org/) -->

<svg
   xmlns:dc="http://purl.org/dc/elements/1.1/"
   xmlns:cc="http://creativecommons.org/ns#"
   xmlns:rdf="http://www.w3.org/1999/02/22-rdf-syntax-ns#"
   xmlns:svg="http://www.w3.org/2000/svg"
   xmlns="http://www.w3.org/2000/svg"
   xmlns:sodipodi="http://sodipodi.sourceforge.net/DTD/sodipodi-0.dtd"
   xmlns:inkscape="http://www.inkscape.org/namespaces/inkscape"
   id="svg2"
   version="1.1"
   inkscape:version="0.48.4 r9939"
   width="374.92221"
   height="195.58682"
   xml:space="preserve"
   sodipodi:docname="geome2.pdf"><metadata
     id="metadata8"><rdf:RDF><cc:Work
         rdf:about=""><dc:format>image/svg+xml</dc:format><dc:type
           rdf:resource="http://purl.org/dc/dcmitype/StillImage" /><dc:title></dc:title></cc:Work></rdf:RDF></metadata><defs
     id="defs6" /><sodipodi:namedview
     pagecolor="#ffffff"
     bordercolor="#666666"
     borderopacity="1"
     objecttolerance="10"
     gridtolerance="10"
     guidetolerance="10"
     inkscape:pageopacity="0"
     inkscape:pageshadow="2"
     inkscape:window-width="1280"
     inkscape:window-height="724"
     id="namedview4"
     showgrid="false"
     fit-margin-top="0"
     fit-margin-left="0"
     fit-margin-right="0"
     fit-margin-bottom="0"
     inkscape:zoom="1.7063131"
     inkscape:cx="220.95305"
     inkscape:cy="59.285891"
     inkscape:window-x="0"
     inkscape:window-y="24"
     inkscape:window-maximized="1"
     inkscape:current-layer="g10" /><g
     id="g10"
     inkscape:groupmode="layer"
     inkscape:label="geome2"
     transform="matrix(1.25,0,0,-1.25,60.000214,195.60051)"><g
       id="g12"><g
         id="g14"
         transform="matrix(1,0,0,-1,0,156.4798)"><path
           d="m -47.211,0.801 298.348,0 0,154.875 -298.348,0 z"
           style="fill:#ffffff;fill-opacity:1;fill-rule:nonzero;stroke:#000000;stroke-width:1.60000002;stroke-linecap:round;stroke-linejoin:round;stroke-miterlimit:4;stroke-opacity:1;stroke-dasharray:none"
           id="path16"
           inkscape:connector-curvature="0"
           sodipodi:nodetypes="ccccc" /></g><path
         d="m 236.992,113.019 -54.93,-32.93"
         style="fill:none;stroke:#000000;stroke-width:2.31999993;stroke-linecap:butt;stroke-linejoin:miter;stroke-miterlimit:4;stroke-opacity:1;stroke-dasharray:none"
         id="path18"
         inkscape:connector-curvature="0" /><g
         id="g20"
         transform="matrix(1,0.599516,0.599516,-1,0,156.4798)"><path
           d="m 130.093,136.485 1.988,-1.988 -6.965,1.989 6.965,1.987 -1.988,-1.988 z"
           style="fill:#000000;fill-opacity:1;fill-rule:evenodd;stroke:#000000;stroke-width:0.49745199;stroke-linecap:butt;stroke-linejoin:miter;stroke-miterlimit:4;stroke-opacity:1;stroke-dasharray:none"
           id="path22"
           inkscape:connector-curvature="0" /></g><path
         d="m 167.145,62.913 46.117,-20.125 0.89,0.621 -46.265,20.024 -0.742,-0.52 z"
         style="fill:#e9e9ff;fill-opacity:1;fill-rule:evenodd;stroke:none"
         id="path24"
         inkscape:connector-curvature="0" /><path
         d="m 144.156,115.14 0.824,0.574 22.907,-52.281 -0.742,-0.52 -22.989,52.227 z"
         style="fill:#353564;fill-opacity:1;fill-rule:evenodd;stroke:none"
         id="path26"
         inkscape:connector-curvature="0" /><path
         d="m 144.98,115.714 47.29,-10.867 21.882,-61.438 -46.265,20.024 -22.907,52.281 z"
         style="fill:#5090d5;fill-opacity:1;fill-rule:nonzero;stroke:#000000;stroke-width:0.41542;stroke-linecap:round;stroke-linejoin:miter;stroke-miterlimit:4;stroke-opacity:1;stroke-dasharray:none"
         id="path28"
         inkscape:connector-curvature="0" /><path
         d="m 144.156,115.14 47.102,-11 22.004,-61.352 -46.117,20.125 -22.989,52.227 z"
         style="fill:#c8b7b7;fill-opacity:1;fill-rule:evenodd;stroke:#000000;stroke-width:0.33233601;stroke-linecap:round;stroke-linejoin:miter;stroke-miterlimit:4;stroke-opacity:1;stroke-dasharray:none"
         id="path30"
         inkscape:connector-curvature="0" /><path
         d="m 191.258,104.14 1.012,0.707 21.882,-61.438 -0.89,-0.621 -22.004,61.352 z"
         style="fill:#c8b7b7;fill-opacity:1;fill-rule:nonzero;stroke:#000000;stroke-width:0.41542;stroke-linecap:round;stroke-linejoin:miter;stroke-miterlimit:4;stroke-opacity:1;stroke-dasharray:none"
         id="path32"
         inkscape:connector-curvature="0" /><path
         d="m 144.156,115.14 47.102,-11 1.012,0.707 -47.29,10.867 -0.824,-0.574 z"
         style="fill:#916f6f;fill-opacity:1;fill-rule:nonzero;stroke:#000000;stroke-width:0.41542;stroke-linecap:round;stroke-linejoin:miter;stroke-miterlimit:4;stroke-opacity:1;stroke-dasharray:none"
         id="path34"
         inkscape:connector-curvature="0" /><path
         d="m 162.395,90.238 18.601,-19.969 6.02,13.676 -24.621,6.293 z"
         style="fill:#ffaaaa;fill-opacity:1;fill-rule:nonzero;stroke:#000000;stroke-width:0.80000001;stroke-linecap:butt;stroke-linejoin:miter;stroke-miterlimit:4;stroke-opacity:1;stroke-dasharray:none"
         id="path36"
         inkscape:connector-curvature="0" /><g
         id="g38"
         transform="matrix(1,0.0786038,0.858549,-0.518721,0,156.4798)"><path
           d="m -164.45261,159.07817 133.835004,0.001 1.172606,101.61683 -133.832,0 z"
           style="fill:#71c837;fill-opacity:1;fill-rule:evenodd;stroke:#000000;stroke-width:1.04487598;stroke-linecap:round;stroke-linejoin:miter;stroke-miterlimit:4;stroke-opacity:1;stroke-dasharray:none"
           id="path40"
           inkscape:connector-curvature="0"
           sodipodi:nodetypes="ccccc" /></g><path
         d="m 66.645,33.062 27.906,-5.469 28.176,5.742 -56.082,-0.273 z"
         style="fill:#ffaaaa;fill-opacity:1;fill-rule:nonzero;stroke:#000000;stroke-width:0.80000001;stroke-linecap:butt;stroke-linejoin:miter;stroke-miterlimit:4;stroke-opacity:1;stroke-dasharray:none"
         id="path42"
         inkscape:connector-curvature="0" /><g
         id="g44"
         transform="matrix(1,0,0.301585,-1,0,156.4798)"><path
           d="m 144.245,66.203 c 0,1.281 -0.692,2.32 -1.543,2.32 -0.856,0 -1.55,-1.039 -1.551,-2.32 10e-4,-1.285 0.693,-2.324 1.549,-2.324 0.855,0 1.546,1.039 1.545,2.324 z"
           style="fill:#ff0000;fill-opacity:1;fill-rule:evenodd;stroke:#000000;stroke-width:0.80000001;stroke-linecap:round;stroke-linejoin:miter;stroke-miterlimit:4;stroke-opacity:1;stroke-dasharray:none"
           id="path46"
           inkscape:connector-curvature="0" /></g><path
         d="M 162.777,90.39 65.727,31.96"
         style="fill:none;stroke:#000000;stroke-width:0.80000001;stroke-linecap:butt;stroke-linejoin:miter;stroke-miterlimit:4;stroke-opacity:1;stroke-dasharray:none"
         id="path48"
         inkscape:connector-curvature="0" /><g
         id="g50"
         transform="matrix(1,0,0.301585,-1,0,156.4798)"><path
           d="m 166.867,72.832 c -10e-4,1.285 -0.693,2.324 -1.545,2.324 -0.855,0 -1.55,-1.039 -1.549,-2.324 0,-1.281 0.692,-2.32 1.548,-2.32 0.855,0 1.546,1.039 1.546,2.32 z"
           style="fill:#ff0000;fill-opacity:1;fill-rule:evenodd;stroke:#000000;stroke-width:0.80000001;stroke-linecap:round;stroke-linejoin:miter;stroke-miterlimit:4;stroke-opacity:1;stroke-dasharray:none"
           id="path52"
           inkscape:connector-curvature="0" /></g><g
         id="g54"
         transform="matrix(1,0,0.301585,-1,0,156.4798)"><path
           d="m 157.001,86.09 c 0.001,1.281 -0.692,2.32 -1.547,2.32 -0.855,0 -1.546,-1.039 -1.546,-2.32 -10e-4,-1.281 0.692,-2.32 1.547,-2.32 0.852,0 1.546,1.039 1.546,2.32 z"
           style="fill:#ff0000;fill-opacity:1;fill-rule:evenodd;stroke:#000000;stroke-width:0.80000001;stroke-linecap:round;stroke-linejoin:miter;stroke-miterlimit:4;stroke-opacity:1;stroke-dasharray:none"
           id="path56"
           inkscape:connector-curvature="0" /></g><path
         d="M 181.508,70.55 120.766,34.101"
         style="fill:none;stroke:#000000;stroke-width:0.80000001;stroke-linecap:butt;stroke-linejoin:miter;stroke-miterlimit:4;stroke-opacity:1;stroke-dasharray:none"
         id="path58"
         inkscape:connector-curvature="0" /><path
         d="M 187.539,83.933 96.125,28.917"
         style="fill:none;stroke:#000000;stroke-width:0.80000001;stroke-linecap:butt;stroke-linejoin:miter;stroke-miterlimit:4;stroke-opacity:1;stroke-dasharray:none"
         id="path60"
         inkscape:connector-curvature="0" /><g
         id="g62"
         transform="matrix(1,0,0,-0.70783,0,156.4798)"><path
           d="m 68.773,177.038 c -1.503,0 -2.726,-0.503 -2.91,-1.143 l -0.019,0 0,-0.077 c -0.004,-0.028 -0.02,-0.05 -0.02,-0.083 0,-0.027 0.012,-0.061 0.02,-0.094 l 0,-4.448 5.863,0 0,4.448 c 0.004,0.033 0.02,0.067 0.02,0.094 0,0.033 -0.016,0.055 -0.02,0.083 l 0,0.077 -0.019,0 c -0.184,0.64 -1.411,1.143 -2.915,1.143 z"
           style="fill:#ff0000;fill-opacity:1;fill-rule:nonzero;stroke:#000000;stroke-width:1.40595102;stroke-linecap:round;stroke-linejoin:round;stroke-miterlimit:4;stroke-opacity:1;stroke-dasharray:none"
           id="path64"
           inkscape:connector-curvature="0" /></g><g
         id="g66"
         transform="matrix(1,0,0,-0.788334,0,156.4798)"><path
           d="m 71.727,153.686 c 0,0.645 -1.321,1.165 -2.954,1.165 -1.628,0 -2.953,-0.52 -2.953,-1.165 0,-0.649 1.325,-1.169 2.953,-1.169 1.633,0 2.954,0.52 2.954,1.169 z"
           style="fill:#ff0000;fill-opacity:1;fill-rule:evenodd;stroke:#000000;stroke-width:1.27792501;stroke-linecap:round;stroke-linejoin:round;stroke-miterlimit:4;stroke-opacity:1;stroke-dasharray:none"
           id="path68"
           inkscape:connector-curvature="0" /></g><g
         id="g70"
         transform="matrix(1,0,0,-0.70783,0,156.4798)"><path
           d="m 95.059,185.018 c -1.504,0 -2.731,-0.508 -2.914,-1.148 l -0.02,0 0,-0.078 c -0.004,-0.027 -0.02,-0.049 -0.02,-0.077 0,-0.033 0.016,-0.066 0.02,-0.099 l 0,-4.443 5.863,0 0,4.443 c 0.008,0.033 0.02,0.066 0.02,0.099 0,0.028 -0.016,0.05 -0.02,0.077 l 0,0.078 -0.019,0 c -0.184,0.64 -1.407,1.148 -2.91,1.148 z"
           style="fill:#ff0000;fill-opacity:1;fill-rule:nonzero;stroke:#000000;stroke-width:1.40595102;stroke-linecap:round;stroke-linejoin:round;stroke-miterlimit:4;stroke-opacity:1;stroke-dasharray:none"
           id="path72"
           inkscape:connector-curvature="0" /></g><g
         id="g74"
         transform="matrix(1,0,0,-0.788334,0,156.4798)"><path
           d="m 98.012,160.847 c 0,0.644 -1.324,1.169 -2.953,1.169 -1.633,0 -2.954,-0.525 -2.954,-1.169 0,-0.645 1.321,-1.17 2.954,-1.17 1.629,0 2.953,0.525 2.953,1.17 z"
           style="fill:#ff0000;fill-opacity:1;fill-rule:evenodd;stroke:#000000;stroke-width:1.27792501;stroke-linecap:round;stroke-linejoin:round;stroke-miterlimit:4;stroke-opacity:1;stroke-dasharray:none"
           id="path76"
           inkscape:connector-curvature="0" /></g><g
         id="g78"
         transform="matrix(1,0,0,-0.70783,0,156.4798)"><path
           d="m 120.414,176.469 c -1.504,0 -2.73,-0.502 -2.91,-1.148 l -0.02,0 0,-0.077 c -0.004,-0.028 -0.019,-0.05 -0.019,-0.077 0,-0.033 0.012,-0.066 0.019,-0.094 l 0,-4.448 5.864,0 0,4.448 c 0.004,0.028 0.019,0.061 0.019,0.094 0,0.027 -0.015,0.049 -0.019,0.077 l 0,0.077 -0.02,0 c -0.183,0.646 -1.41,1.148 -2.914,1.148 z"
           style="fill:#ff0000;fill-opacity:1;fill-rule:nonzero;stroke:#000000;stroke-width:1.40595102;stroke-linecap:round;stroke-linejoin:round;stroke-miterlimit:4;stroke-opacity:1;stroke-dasharray:none"
           id="path80"
           inkscape:connector-curvature="0" /></g><g
         id="g82"
         transform="matrix(1,0,0,-0.788334,0,156.4798)"><path
           d="m 123.367,153.171 c 0,0.649 -1.32,1.17 -2.953,1.17 -1.629,0 -2.953,-0.521 -2.953,-1.17 0,-0.644 1.324,-1.164 2.953,-1.164 1.633,0 2.953,0.52 2.953,1.164 z"
           style="fill:#ff0000;fill-opacity:1;fill-rule:evenodd;stroke:#000000;stroke-width:1.27792501;stroke-linecap:round;stroke-linejoin:round;stroke-miterlimit:4;stroke-opacity:1;stroke-dasharray:none"
           id="path84"
           inkscape:connector-curvature="0" /></g><text
         transform="matrix(1,0,0,-1,162.4867,45.321489)"
         id="text86"><tspan
           style="font-size:6.48632812px;font-variant:normal;font-weight:normal;writing-mode:lr-tb;fill:#000000;fill-opacity:1;fill-rule:nonzero;stroke:none;font-family:DejaVu Sans;-inkscape-font-specification:DejaVuSans"
           x="0"
           y="0"
           id="tspan88">1</tspan><tspan
           style="font-size:6.48632812px;font-variant:normal;font-weight:normal;writing-mode:lr-tb;fill:#000000;fill-opacity:1;fill-rule:nonzero;stroke:none;font-family:DejaVu Sans;-inkscape-font-specification:DejaVuSans"
           x="-31.460171"
           y="-7.9334211"
           id="tspan90">2</tspan></text>
<text
         transform="matrix(1,0,0,-1,90.796893,60.074219)"
         id="text92"><tspan
           style="font-size:9.2661829px;font-variant:normal;font-weight:normal;writing-mode:lr-tb;fill:#000000;fill-opacity:1;fill-rule:nonzero;stroke:none;font-family:DejaVu Sans;-inkscape-font-specification:DejaVuSans"
           x="0 5.0871344"
           y="0"
           sodipodi:role="line"
           id="tspan94">ct</tspan></text>
<text
         transform="matrix(1,0,0,-1,99.019239,56.537713)"
         id="text96"><tspan
           style="font-size:6.48632812px;font-variant:normal;font-weight:normal;writing-mode:lr-tb;fill:#000000;fill-opacity:1;fill-rule:nonzero;stroke:none;font-family:DejaVu Sans;-inkscape-font-specification:DejaVuSans"
           x="0"
           y="0"
           id="tspan98">3</tspan></text>
<text
         transform="matrix(1,0,0,-1,136.30212,119.51142)"
         id="text100"><tspan
           style="font-size:7.19999981px;font-variant:normal;font-weight:normal;writing-mode:lr-tb;fill:#000000;fill-opacity:1;fill-rule:nonzero;stroke:none;font-family:DejaVu Sans;-inkscape-font-specification:DejaVuSans"
           x="0 2.5344 5.3424001 9.7704 14.328 17.1504 21.5784 23.8608 28.4256 32.8536 35.136002 37.108799 41.515202 43.7976 45.770401 47.764801 52.322399 56.577599 58.5504"
           y="0"
           sodipodi:role="line"
           id="tspan102">frente de la lluvia</tspan><tspan
           style="font-size:7.19999981px;font-variant:normal;font-weight:normal;writing-mode:lr-tb;fill:#000000;fill-opacity:1;fill-rule:nonzero;stroke:none;font-family:DejaVu Sans;-inkscape-font-specification:DejaVuSans"
           x="-74.291794 -69.726997 -65.298996 -62.476597 -58.048595 -54.095795 -51.273396 -46.874195 -44.073395 -39.645397 -35.901398 -33.618996 -29.054195 -24.626196 -22.365396 -17.800596 -13.394196 -10.434996 -7.612596 -5.618196 -1.5933959 2.9642041 4.9586039 9.3434038"
           y="100.39896"
           sodipodi:role="line"
           id="tspan104">detectores de partículas</tspan></text>
<path
         d="m 217.379,40.046 0,101.602"
         style="fill:none;stroke:#000000;stroke-width:1.27999997;stroke-linecap:butt;stroke-linejoin:miter;stroke-miterlimit:4;stroke-opacity:1;stroke-dasharray:none"
         id="path106"
         inkscape:connector-curvature="0" /><g
         id="g108"
         transform="matrix(0,-1,-1,0,0,156.4798)"><path
           d="m 16.367,-217.379 1.281,-1.281 -4.48,1.281 4.48,1.277 -1.281,-1.277 z"
           style="fill:#000000;fill-opacity:1;fill-rule:evenodd;stroke:#000000;stroke-width:0.31999999;stroke-linecap:butt;stroke-linejoin:miter;stroke-miterlimit:4;stroke-opacity:1;stroke-dasharray:none"
           id="path110"
           inkscape:connector-curvature="0" /></g><path
         d="m 217.379,121.972 c 5.336,1.32 10.141,0 12.586,-13.133"
         style="fill:none;stroke:#000000;stroke-width:0.80000001;stroke-linecap:butt;stroke-linejoin:miter;stroke-miterlimit:4;stroke-opacity:1;stroke-dasharray:none"
         id="path112"
         inkscape:connector-curvature="0" /><text
         transform="matrix(1,0,0,-1,224.10851,125.2563)"
         id="text114"><tspan
           style="font-size:12px;font-variant:normal;font-weight:normal;writing-mode:lr-tb;fill:#000000;fill-opacity:1;fill-rule:nonzero;stroke:none;font-family:DejaVu Sans;-inkscape-font-specification:DejaVuSans"
           x="0"
           y="0"
           id="tspan116">θ</tspan></text>
<text
         transform="matrix(1,0,0,-1,206.56874,138.3875)"
         id="text118"><tspan
           style="font-size:12px;font-variant:normal;font-weight:normal;writing-mode:lr-tb;fill:#000000;fill-opacity:1;fill-rule:nonzero;stroke:none;font-family:DejaVu Sans;-inkscape-font-specification:DejaVuSans"
           x="0"
           y="0"
           id="tspan120">z</tspan></text>
<text
         transform="matrix(1,0,0,-1,122.53522,56.667279)"
         id="text122"><tspan
           style="font-size:9.2661829px;font-variant:normal;font-weight:normal;writing-mode:lr-tb;fill:#000000;fill-opacity:1;fill-rule:nonzero;stroke:none;font-family:DejaVu Sans;-inkscape-font-specification:DejaVuSans"
           x="0 5.0871344"
           y="0"
           sodipodi:role="line"
           id="tspan124">ct</tspan><tspan
           style="font-size:9.2661829px;font-variant:normal;font-weight:normal;writing-mode:lr-tb;fill:#000000;fill-opacity:1;fill-rule:nonzero;stroke:none;font-family:DejaVu Sans;-inkscape-font-specification:DejaVuSans"
           x="31.734165 36.821301"
           y="7.8737445"
           sodipodi:role="line"
           id="tspan126">ct</tspan></text>
</g><g
       id="g3892"
       transform="translate(6.019155,22.56036)"><path
         id="path64-7"
         style="fill:#001aff;fill-opacity:1;fill-rule:nonzero;stroke:#000000;stroke-width:1.18286359;stroke-linecap:round;stroke-linejoin:round;stroke-miterlimit:4;stroke-opacity:1;stroke-dasharray:none"
         d="m 22.5412,31.619896 c -1.503,0 -2.726,0.35603 -2.91,0.80905 l -0.019,0 0,0.0545 c -0.004,0.0198 -0.02,0.0354 -0.02,0.0588 0,0.0191 0.012,0.0432 0.02,0.0665 l 0,3.14843 5.863,0 0,-3.14843 c 0.004,-0.0234 0.02,-0.0474 0.02,-0.0665 0,-0.0234 -0.016,-0.0389 -0.02,-0.0588 l 0,-0.0545 -0.019,0 c -0.184,-0.45302 -1.411,-0.80905 -2.915,-0.80905 z"
         inkscape:connector-curvature="0" /><path
         id="path68-4"
         style="fill:#001aff;fill-opacity:1;fill-rule:evenodd;stroke:#000000;stroke-width:1.1346463;stroke-linecap:round;stroke-linejoin:round;stroke-miterlimit:4;stroke-opacity:1;stroke-dasharray:none"
         d="m 25.4952,35.776796 c 0,-0.50847 -1.321,-0.9184 -2.954,-0.9184 -1.628,0 -2.953,0.40993 -2.953,0.9184 0,0.51163 1.325,0.92157 2.953,0.92157 1.633,0 2.954,-0.40994 2.954,-0.92157 z"
         inkscape:connector-curvature="0" /></g><text
       xml:space="preserve"
       style="font-size:8px;font-style:normal;font-variant:normal;font-weight:normal;font-stretch:normal;text-align:start;line-height:125%;letter-spacing:0px;word-spacing:0px;writing-mode:lr-tb;text-anchor:start;fill:#000000;fill-opacity:1;stroke:none;font-family:Amiri Quran;-inkscape-font-specification:Amiri Quran"
       x="-4.6884718"
       y="-46.88472"
       id="text3896"
       sodipodi:linespacing="125%"
       transform="scale(1,-1)"><tspan
         sodipodi:role="line"
         id="tspan3898"
         x="-4.6884718"
         y="-46.88472">Estación aislada</tspan></text>
</g></svg>